<svg width="83" height="27" viewBox="0 0 83 27" fill="none" xmlns="http://www.w3.org/2000/svg">
<g id="agilimo_consulting_blau_300dpi_rgb" clip-path="url(#clip0_58_848)">
<path id="Vector" d="M76.959 12.589C76.958 12.8903 77.0009 13.1996 76.948 13.4915C76.7823 14.4058 76.4753 15.267 75.9357 16.041C74.9916 17.3952 73.7222 18.2437 72.1044 18.5638C70.2919 18.9224 68.6305 18.5485 67.1691 17.43C65.9473 16.4949 65.1692 15.2551 64.9126 13.72C64.8469 13.3272 64.8022 12.9272 64.7934 12.5294C64.7578 10.9382 63.6641 9.55951 62.1104 9.20516C60.2813 8.78801 58.5198 9.81942 57.9796 11.6441C57.9043 11.8984 57.8586 12.1714 57.8573 12.4361C57.8471 14.3727 57.8518 16.3093 57.8518 18.246C57.8518 18.3568 57.8518 18.4676 57.8518 18.6007C56.9842 18.6007 56.129 18.6007 55.2352 18.6007C55.2352 18.497 55.2352 18.3896 55.2352 18.2821C55.2352 16.4063 55.2491 14.5304 55.2295 12.6548C55.2195 11.6972 54.8958 10.835 54.2102 10.15C52.9417 8.8826 50.9282 8.74987 49.5412 9.9178C48.8109 10.5327 48.3732 11.2866 48.3016 12.237C48.26 12.7888 48.2433 13.3435 48.2402 13.8971C48.2317 15.4382 48.2363 16.9794 48.2352 18.5206C48.2352 18.5401 48.2281 18.5596 48.22 18.601C47.3692 18.601 46.514 18.601 45.6209 18.601C45.6209 18.4963 45.6209 18.3887 45.6209 18.2812C45.6209 16.375 45.61 14.4687 45.6256 12.5626C45.6333 11.6185 45.8316 10.7027 46.2654 9.86001C47.1742 8.09455 48.6193 6.96179 50.5572 6.59775C52.3556 6.25992 54.0576 6.61419 55.5156 7.80343C55.8707 8.09301 56.1932 8.42254 56.5303 8.73345C56.8021 8.47586 57.0886 8.18641 57.3939 7.91834C58.2363 7.17852 59.2185 6.72996 60.328 6.57704C61.2685 6.4474 62.2019 6.46451 63.1205 6.75381C63.8974 6.99845 64.592 7.37873 65.2277 7.88845C65.8472 8.38516 66.3439 8.99183 66.6863 9.68636C66.9842 10.2906 67.1821 10.9581 67.3299 11.6187C67.477 12.2757 67.4333 12.9782 67.6046 13.6261C67.8679 14.6217 68.5566 15.3178 69.4812 15.7549C69.9798 15.9906 70.518 16.0983 71.0783 16.0685C72.6052 15.9874 73.9988 14.8065 74.2817 13.3194C74.3241 13.0962 74.3625 12.8723 74.4358 12.6238C75.2989 12.5955 76.1289 12.5923 76.959 12.589Z" fill="white"/>
<path id="Vector_2" d="M25.8919 8.17125C26.9194 9.18216 27.5107 10.3914 27.7308 11.7878C27.7433 11.867 27.7335 11.9497 27.7335 12.0308C27.7336 14.3318 27.7428 16.6328 27.73 18.9337C27.7227 20.2464 27.2196 21.3841 26.4181 22.4036C25.429 23.6618 24.1048 24.3452 22.5603 24.6383C22.2715 24.6931 21.9691 24.6766 21.6606 24.6937C21.6606 23.8104 21.6606 22.9417 21.6606 22.0396C22.6527 22.0718 23.4901 21.6759 24.1645 20.9897C25.0589 20.0797 25.242 18.93 25.0856 17.679C24.8945 17.7809 24.6923 17.8872 24.4916 17.9961C23.4433 18.5647 22.3126 18.7783 21.139 18.6746C19.9215 18.5671 18.8163 18.1423 17.85 17.3589C16.7568 16.4726 16.0372 15.3585 15.7191 13.9969C15.4012 12.6363 15.5345 11.3097 16.1113 10.029C16.4139 9.3571 16.8211 8.7492 17.3453 8.24769C18.281 7.35243 19.382 6.74749 20.6915 6.57258C22.2826 6.36006 23.7691 6.61077 25.1024 7.54815C25.3704 7.73657 25.6189 7.95273 25.8919 8.17125ZM19.3088 15.1566C19.3883 15.2159 19.4678 15.2753 19.5473 15.3346C20.4073 15.9767 21.3685 16.2287 22.4158 15.9827C23.9872 15.6136 25.1661 14.212 25.121 12.5399C25.0835 11.1492 24.4187 10.1431 23.2298 9.50685C22.1149 8.91026 20.9701 8.97722 19.8779 9.62066C18.8402 10.232 18.2964 11.1818 18.1912 12.3527C18.0938 13.4355 18.5283 14.3529 19.3088 15.1566Z" fill="white"/>
<path id="Vector_3" d="M13.4928 11.7006C13.493 14.0138 13.493 16.2996 13.493 18.6042C12.6797 18.6042 11.8244 18.6042 10.9425 18.6042C10.9425 18.2899 10.9425 17.9805 10.9425 17.6913C10.3882 17.932 9.86381 18.2089 9.30834 18.3912C7.86227 18.8659 6.42738 18.794 5.02224 18.1955C4.25117 17.8671 3.56712 17.4048 3.00122 16.7933C2.18986 15.9166 1.66682 14.8883 1.43866 13.7028C1.18 12.3588 1.38304 11.079 1.96665 9.87101C2.51705 8.73176 3.38274 7.86765 4.4935 7.2362C5.64694 6.58048 6.89098 6.40224 8.17164 6.52769C9.30186 6.63841 10.3292 7.0683 11.2268 7.79861C12.1981 8.58886 12.9036 9.54988 13.2641 10.7528C13.3548 11.0552 13.4172 11.3661 13.4928 11.7006ZM10.6294 11.1857C10.3572 10.6721 10.0311 10.2122 9.56181 9.84435C8.11298 8.70872 5.95194 8.93573 4.80128 10.3621C4.06812 11.2709 3.78156 12.2879 4.06997 13.4175C4.44773 14.8969 5.66576 15.9253 7.14341 16.0558C8.20444 16.1496 9.11862 15.7796 9.90158 15.0191C10.8488 14.0991 11.227 12.4807 10.6294 11.1857Z" fill="white"/>
<path id="Vector_4" d="M35.3984 11.3819C35.3984 8.02698 35.3984 4.70254 35.3984 1.35986C36.2735 1.35986 37.1288 1.35986 37.9996 1.35986C37.9996 7.10336 37.9996 12.8395 37.9996 18.5994C37.151 18.5994 36.2956 18.5994 35.3984 18.5994C35.3984 16.2097 35.3984 13.811 35.3984 11.3819Z" fill="white"/>
<path id="Vector_5" d="M78.0106 7.7775C77.0192 6.31726 75.7141 5.28269 74.1041 4.6241C73.1947 4.25207 72.2572 4.02044 71.2688 4.015C71.1442 4.01432 71.0199 3.96463 70.8867 3.93576C70.8867 3.07976 70.8867 2.23119 70.8867 1.35303C73.5416 1.38226 75.9259 2.18369 77.9757 3.85971C81.0949 6.41004 82.1636 9.85905 82.1115 12.5811C81.2566 12.5811 80.4013 12.5811 79.5245 12.5811C79.4609 10.8457 79.0044 9.23672 78.0106 7.7775Z" fill="white"/>
<path id="Vector_6" d="M32.8783 18.595C32.0165 18.6153 31.1756 18.6153 30.3125 18.6153C30.3125 14.5712 30.3125 10.5313 30.3125 6.47217C31.1634 6.47217 32.0188 6.47217 32.8961 6.47217C32.8998 6.54328 32.9064 6.6112 32.9064 6.67912C32.9069 10.5938 32.9069 14.5084 32.9065 18.4231C32.9065 18.4736 32.9016 18.5242 32.8783 18.595Z" fill="white"/>
<path id="Vector_7" d="M40.5117 11.9295C40.5117 10.0958 40.5117 8.29257 40.5117 6.47119C41.3869 6.47119 42.2422 6.47119 43.113 6.47119C43.113 10.5111 43.113 14.5435 43.113 18.5994C42.2642 18.5994 41.4087 18.5994 40.5117 18.5994C40.5117 16.3922 40.5117 14.1761 40.5117 11.9295Z" fill="white"/>
<path id="Vector_8" d="M76.9708 12.5673C76.13 12.5922 75.3 12.5955 74.4421 12.5987C74.3357 11.9245 74.1912 11.2681 73.8052 10.6957C73.1178 9.67641 72.1498 9.15794 70.8984 9.11146C70.8984 8.26778 70.8984 7.41312 70.8984 6.53821C71.4793 6.44245 72.0598 6.54452 72.6169 6.72101C74.1853 7.21788 75.4224 8.14674 76.2278 9.60671C76.6438 10.3608 76.9174 11.1582 76.9598 12.0254C76.9683 12.1988 76.9743 12.3723 76.9708 12.5673Z" fill="white"/>
<path id="Vector_9" d="M70.8254 10.9558C71.6138 10.9061 72.3023 11.4459 72.5045 12.1942C72.6877 12.872 72.3539 13.6915 71.6967 14.0417C70.6906 14.5779 69.4691 13.9122 69.3507 12.8164C69.2681 12.0515 69.5293 11.4805 70.2043 11.1198C70.3809 11.0254 70.5989 11.0084 70.8254 10.9558Z" fill="white"/>
<path id="Vector_10" d="M40.5109 2.02251C41.0942 1.23432 42.1283 1.11622 42.8854 1.75417C43.5561 2.31942 43.6424 3.39884 43.0393 4.08426C42.4805 4.71936 41.5363 4.82346 40.8587 4.30709C40.2315 3.8291 39.9365 2.83605 40.5109 2.02251Z" fill="white"/>
<path id="Vector_11" d="M31.4621 4.62745C30.0618 4.45208 29.6267 2.98312 30.2398 2.05809C30.5795 1.54556 31.0981 1.29035 31.7041 1.3531C32.4021 1.42536 32.9228 1.82159 33.115 2.50535C33.4118 3.56204 32.7407 4.67022 31.4621 4.62745Z" fill="white"/>
<path id="Vector_12" d="M74.4024 22.6505C74.9056 21.9538 75.5879 21.764 76.2507 22.1445C76.6524 22.3752 76.9069 22.7189 76.9014 23.2137C76.8956 23.7406 76.8972 24.2677 76.9009 24.7946C76.9045 25.3016 76.1882 26.057 75.574 25.8929C75.574 25.7169 75.574 25.5373 75.574 25.3579C76.0856 25.2208 76.2617 25.0095 76.2003 24.6058C75.5369 24.7213 74.9112 24.6778 74.4811 24.0758C74.1686 23.6385 74.1553 23.1571 74.4024 22.6505ZM74.9469 22.9818C74.7564 23.5368 75.0877 24.0633 75.6116 24.0381C75.8836 24.025 76.2548 23.7017 76.2908 23.4466C76.3424 23.0816 76.1241 22.7118 75.7878 22.5946C75.5112 22.4982 75.1564 22.6522 74.9469 22.9818Z" fill="white"/>
<path id="Vector_13" d="M58.6824 24.7666C57.7764 24.7774 57.262 24.3185 57.1272 23.4606C57.0411 22.9119 57.5211 22.2152 58.1067 22.056C58.9018 21.8398 59.6486 22.2353 59.8406 22.9723C60.047 23.7648 59.6778 24.5711 58.789 24.7243C58.7608 24.7292 58.7355 24.7511 58.6824 24.7666ZM58.4512 24.0949C58.5667 24.0716 58.6898 24.0663 58.7961 24.0212C59.0345 23.92 59.2197 23.5785 59.1924 23.3145C59.1619 23.0191 58.9955 22.8115 58.726 22.7127C58.4316 22.6047 58.188 22.7256 57.9945 22.9554C57.6693 23.3415 57.8753 23.8973 58.4512 24.0949Z" fill="white"/>
<path id="Vector_14" d="M72.3715 22.9347C72.3281 23.1492 72.2836 23.3444 72.277 23.5409C72.2643 23.9146 72.2733 24.289 72.2733 24.6855C72.035 24.6855 71.8087 24.6855 71.5625 24.6855C71.5625 23.8354 71.5625 22.9807 71.5625 22.0524C71.8151 22.0999 72.053 22.1522 72.2934 22.1852C72.3614 22.1946 72.441 22.1562 72.5085 22.1252C73.2291 21.794 73.8995 22.146 73.9145 22.9942C73.9238 23.5208 73.916 24.0476 73.9152 24.5743C73.9151 24.6041 73.9089 24.6338 73.9031 24.6856C73.6777 24.6856 73.4514 24.6856 73.1861 24.6856C73.1861 24.2285 73.1877 23.7664 73.1848 23.3044C73.1841 23.2052 73.1992 23.0846 73.1505 23.0115C73.0587 22.8739 72.9356 22.6806 72.8072 22.6653C72.679 22.6501 72.5283 22.8246 72.3715 22.9347Z" fill="white"/>
<path id="Vector_15" d="M61.8713 24.3365C61.851 23.8862 61.8481 23.4635 61.8002 23.046C61.7851 22.9138 61.6743 22.7307 61.5629 22.6888C61.4508 22.6467 61.215 22.7071 61.1546 22.8007C61.027 22.9984 60.9309 23.2424 60.9083 23.4758C60.8698 23.8742 60.8977 24.2789 60.8977 24.6941C60.6697 24.6941 60.4708 24.6941 60.25 24.6941C60.25 23.8408 60.25 22.9866 60.25 22.0489C60.484 22.1006 60.7068 22.1649 60.934 22.1923C61.0193 22.2025 61.1159 22.1294 61.2055 22.0901C61.7058 21.8709 62.367 22.0823 62.4926 22.5565C62.5076 22.6129 62.5381 22.6686 62.5384 22.7248C62.5417 23.3716 62.5405 24.0183 62.5405 24.6864C62.3206 24.6864 62.1147 24.6864 61.8713 24.6864C61.8713 24.5811 61.8713 24.4736 61.8713 24.3365Z" fill="white"/>
<path id="Vector_16" d="M66.4484 23.9936C66.5165 23.8099 66.6027 23.6449 66.6103 23.4764C66.6306 23.0247 66.6173 22.5715 66.6173 22.1055C66.865 22.1055 67.0842 22.1055 67.3466 22.1055C67.3303 22.77 67.4274 23.4419 67.2199 24.0939C67.0405 24.6573 66.4291 24.8933 65.7348 24.6942C65.3591 24.5864 65.0499 24.2253 65.0392 23.8305C65.0239 23.2653 65.0353 22.6994 65.0353 22.1127C65.2555 22.1127 65.4613 22.1127 65.7045 22.1127C65.7045 22.532 65.7006 22.9534 65.707 23.3746C65.7088 23.4915 65.7281 23.6119 65.7622 23.7237C65.8814 24.1141 66.0481 24.1824 66.4484 23.9936Z" fill="white"/>
<path id="Vector_17" d="M56.3573 22.1027C56.5747 22.2611 56.7695 22.4109 56.9879 22.579C56.7894 22.71 56.6734 22.8112 56.5385 22.8661C56.4609 22.8976 56.337 22.8821 56.2613 22.8392C56.0052 22.6941 55.7641 22.5734 55.4513 22.6948C55.0456 22.8521 54.8477 23.2183 54.9903 23.6188C55.1223 23.9898 55.6036 24.208 55.9714 24.0624C56.0175 24.0442 56.0699 24.0264 56.1024 23.9923C56.3295 23.7537 56.5165 23.872 56.7284 24.0302C56.8873 24.1488 56.9265 24.2254 56.7644 24.3688C56.2424 24.8307 55.6513 24.8666 55.0346 24.6329C54.5802 24.4608 54.2703 23.9802 54.2472 23.4053C54.2112 22.5098 55.0373 21.8935 55.8633 22.0276C56.0199 22.053 56.1775 22.0721 56.3573 22.1027Z" fill="white"/>
<path id="Vector_18" d="M81.8442 16.5399C82.3176 17.2487 82.175 17.9814 81.6522 18.4022C81.244 18.7307 80.7817 18.7838 80.3081 18.5854C79.8426 18.3904 79.5629 18.026 79.5188 17.5151C79.4536 16.7582 79.8486 16.3889 80.2508 16.1978C80.8318 15.9219 81.3861 16.1016 81.8442 16.5399ZM80.3073 16.6765C80.4971 16.6762 80.6868 16.6758 80.8765 16.6758C81.3713 16.6758 81.4665 16.7983 81.343 17.3147C81.3434 17.3271 81.3439 17.3395 81.3444 17.4019C81.3451 17.6481 81.3459 17.8943 81.295 18.1367C81.1252 18.1527 81.0145 18.0978 81.0386 17.9049C81.0826 17.5527 80.8751 17.5643 80.6087 17.6096C80.6087 17.7859 80.6087 17.953 80.6087 18.126C80.4847 18.1332 80.3869 18.1388 80.2469 18.1469C80.7474 18.441 81.0544 18.4298 81.3584 18.0895C81.4603 18.0105 81.593 17.9512 81.6586 17.8489C81.9394 17.4106 81.7688 16.9561 81.4851 16.6702C81.1596 16.3421 80.4978 16.3349 80.1734 16.6626C79.6925 17.145 79.7104 17.7912 80.2512 18.0782C80.2512 17.5989 80.2512 17.1397 80.3073 16.6765ZM80.6586 16.9872C80.6414 17.0774 80.6242 17.1675 80.6066 17.2598C81.107 17.3104 81.1204 17.2995 80.9816 16.9811C80.8934 16.9811 80.8025 16.9811 80.6586 16.9872Z" fill="white"/>
<path id="Vector_19" d="M63.3028 22.1025C63.8841 21.8841 64.2996 21.9958 64.6622 22.4518C64.5227 22.5796 64.3828 22.7079 64.2302 22.8479C64.0986 22.793 63.9239 22.7094 63.7408 22.6528C63.7047 22.6416 63.6365 22.7344 63.5622 22.7967C63.8093 22.9357 64.0451 23.0572 64.2694 23.1971C64.6024 23.4048 64.7885 23.7772 64.7191 24.0627C64.6173 24.4814 64.3226 24.7255 63.8668 24.7686C63.4135 24.8116 63.0044 24.6093 62.8477 24.2621C62.9721 24.1083 63.0975 23.9535 63.2233 23.7981C63.6374 24.1539 63.815 24.1836 64.0677 23.913C63.8806 23.7905 63.7072 23.657 63.5166 23.5556C62.8636 23.2078 62.6655 22.6531 63.3028 22.1025Z" fill="white"/>
<path id="Vector_20" d="M69.0488 23.4915C69.0488 23.2196 69.0488 22.978 69.0488 22.7139C68.9251 22.7047 68.8194 22.6968 68.6992 22.6878C68.6992 22.4896 68.6992 22.303 68.6992 22.1038C68.8112 22.0961 68.9099 22.0892 69.0388 22.0802C69.0388 21.7717 69.0388 21.463 69.0388 21.1362C69.2747 21.1362 69.4806 21.1362 69.7178 21.1362C69.7178 21.451 69.7178 21.7598 69.7178 22.0797C69.8463 22.0873 69.9449 22.0932 70.0632 22.1003C70.0632 22.2907 70.0632 22.4772 70.0632 22.6874C69.9585 22.695 69.8526 22.7027 69.7281 22.7118C69.7281 23.3694 69.7281 24.0147 69.7281 24.6838C69.5029 24.6838 69.2969 24.6838 69.0488 24.6838C69.0488 24.3034 69.0488 23.9126 69.0488 23.4915Z" fill="white"/>
<path id="Vector_21" d="M67.7109 22.0914C67.7109 21.7384 67.7109 21.4158 67.7109 21.0752C67.9576 21.0752 68.184 21.0752 68.4259 21.0752C68.4259 22.2756 68.4259 23.4678 68.4259 24.684C68.2054 24.684 67.979 24.684 67.7109 24.684C67.7109 23.8357 67.7109 22.9788 67.7109 22.0914Z" fill="white"/>
<path id="Vector_22" d="M71.0597 24.3955C71.0545 24.5128 71.0492 24.6006 71.0435 24.6974C70.8043 24.6974 70.5851 24.6974 70.3477 24.6974C70.3477 23.8325 70.3477 22.9775 70.3477 22.1069C70.5743 22.1069 70.7936 22.1069 71.0597 22.1069C71.0597 22.8558 71.0597 23.6109 71.0597 24.3955Z" fill="white"/>
<path id="Vector_23" d="M70.8391 21.8972C70.5798 21.9298 70.3515 21.8973 70.2875 21.6353C70.2429 21.4524 70.1885 21.2325 70.3962 21.0833C70.6148 20.9265 70.9224 20.9936 71.0758 21.232C71.2071 21.436 71.1103 21.7345 70.8391 21.8972Z" fill="white"/>
<path id="Vector_24" d="M81.3438 17.2959C81.3546 17.2982 81.3648 17.3191 81.3597 17.3459C81.344 17.3393 81.3435 17.3269 81.3438 17.2959Z" fill="white"/>
</g>
<defs>
<clipPath id="clip0_58_848">
<rect width="81.9042" height="25.8613" fill="white" transform="translate(0.59375 0.611328)"/>
</clipPath>
</defs>
</svg>
