<?xml version="1.0" encoding="UTF-8"?>
<svg id="Layer_2" data-name="Layer 2" xmlns="http://www.w3.org/2000/svg" xmlns:xlink="http://www.w3.org/1999/xlink" viewBox="0 0 2000 399.42">
  <defs>
    <style>
      .cls-1 {
        fill: none;
      }

      .cls-2 {
        fill: white;
      }

      .cls-3 {
        clip-path: url(#clippath);
      }
    </style>
    <clipPath id="clippath">
      <rect class="cls-1" x=".15" y="0" width="1999.85" height="399.42"/>
    </clipPath>
  </defs>
  <g id="Layer_1-2" data-name="Layer 1">
    <g>
      <path class="cls-2" d="M223.37,321.27l31.54,60.22,119.42,17.93s-18.49-35.4-45.78-87.79l-105.18,9.64h0Z"/>
      <path class="cls-2" d="M577.77,98.04c-24.21-6.25-53.5-10.15-78.5-10.15-62.88,0-93.33,37.1-93.33,98.03v30.07c0,60.92,30.46,98.03,93.33,98.03,25,0,54.3-3.91,78.5-10.15,8.98-2.35,10.55-4.69,10.55-10.55V108.59c0-5.86-1.57-8.2-10.55-10.55M536.77,269.11c-7.42,1.57-23.43,2.73-37.5,2.73-33.58,0-41.78-23.82-41.78-55.85v-30.07c0-32.02,8.2-55.85,41.78-55.85,14.07,0,30.08,1.17,37.5,2.73v136.31h0Z"/>
      <path class="cls-2" d="M676.52,313.02h-36.32c-4.3,0-7.82-3.91-7.82-8.21V23.61c0-4.3,3.52-7.81,7.82-7.81h36.32c4.29,0,7.42,3.52,7.42,7.81v281.2c0,4.3-3.13,8.21-7.42,8.21"/>
      <path class="cls-2" d="M817.05,90.01c-25,0-54.29,3.91-78.5,10.16-8.98,2.34-10.55,4.68-10.55,10.54v271.84c0,4.29,3.52,7.8,7.81,7.8h35.93c4.3,0,7.81-3.51,7.81-7.8v-69.14c14.46,1.96,28.13,2.73,37.5,2.73,62.88,0,93.34-37.1,93.34-98.03v-30.07c0-60.92-30.46-98.03-93.34-98.03M858.84,218.11c0,32.03-8.21,55.85-41.79,55.85-9.37,0-26.56-1.17-37.5-2.73v-136.3c7.43-1.57,23.44-2.73,37.5-2.73,33.58,0,41.79,23.82,41.79,55.85v30.07h0Z"/>
      <path class="cls-2" d="M993.99,313.02h-35.93c-4.29,0-7.8-3.91-7.8-8.21V100.55c0-4.3,3.51-7.81,7.8-7.81h35.93c4.3,0,7.81,3.51,7.81,7.81v204.26c0,4.3-3.51,8.21-7.81,8.21"/>
      <path class="cls-2" d="M995.17,63.45h-37.88c-4.3,0-8.21-3.52-8.21-7.81V21.27c0-4.29,3.9-7.81,8.21-7.81h37.88c4.3,0,7.81,3.52,7.81,7.81v34.37c0,4.29-3.51,7.81-7.81,7.81"/>
      <path class="cls-2" d="M1155.29,313.02c-9.38,1.56-29.29,3.13-45.7,3.13-38.66,0-61.7-13.28-61.7-58.58V60.72c0-4.3,3.51-7.03,7.81-7.81l36.32-6.25h1.17c3.52,0,6.64,3.9,6.64,7.81v38.27h55.07c4.3,0,7.81,3.51,7.81,7.81v23.04c0,4.3-3.5,7.82-7.81,7.82h-55.07v126.15c0,15.62,7.03,18.36,23.82,18.36h30.85c5.08,0,8.2,1.95,8.2,5.86v24.21c0,3.91-2.35,6.25-7.42,7.03"/>
      <path class="cls-2" d="M1283.78,133.36c-12.88,0-28.9.78-38.28,2.73v168.72c0,4.3-3.12,8.21-7.42,8.21h-36.32c-4.3,0-7.81-3.91-7.81-8.21V113.05c0-5.07,3.52-9.37,10.54-11.71,25-8.21,45.71-11.33,79.29-11.33,4.69,0,11.33.78,11.33,6.64v29.68c0,4.29-2.34,7.03-11.33,7.03"/>
      <path class="cls-2" d="M1404.28,90.01c-61.31,0-93.35,41.4-93.35,97.25v31.64c0,55.85,32.04,97.24,93.35,97.24s93.34-41.4,93.34-97.24v-31.64c0-55.85-32.02-97.25-93.34-97.25M1446.07,218.89c0,32.03-14.46,52.72-41.79,52.72s-41.79-20.69-41.79-52.72v-31.64c0-32.02,14.46-52.73,41.79-52.73s41.79,20.7,41.79,52.73v31.64h0Z"/>
      <path class="cls-2" d="M1708.17,313.02h-36.7c-4.3,0-7.42-3.91-7.42-8.21v-135.13c0-19.13-3.91-36.71-26.55-36.71h-24.22c-22.66,0-26.57,17.58-26.57,36.71v135.13c0,4.3-3.11,8.21-7.42,8.21h-36.7c-4.31,0-7.43-3.91-7.43-8.21v-135.13c0-47.25,27.34-79.67,78.11-79.67h24.22c50.76,0,78.1,32.42,78.1,79.67v135.13c0,4.3-3.14,8.21-7.43,8.21"/>
      <path class="cls-2" d="M1804.33,313.02h-35.93c-4.28,0-7.81-3.91-7.81-8.21V100.55c0-4.3,3.52-7.81,7.81-7.81h35.93c4.28,0,7.82,3.51,7.82,7.81v204.26c0,4.3-3.54,8.21-7.82,8.21"/>
      <path class="cls-2" d="M1805.51,63.45h-37.9c-4.28,0-8.19-3.52-8.19-7.81V21.27c0-4.29,3.91-7.81,8.19-7.81h37.9c4.31,0,7.81,3.52,7.81,7.81v34.37c0,4.29-3.5,7.81-7.81,7.81"/>
      <g class="cls-3">
        <path class="cls-2" d="M1991.79,311.07c-8.98,2.34-26.55,5.07-50.36,5.07-50.79,0-89.07-31.24-89.07-94.91v-36.32c0-63.66,38.28-94.9,89.07-94.9,23.81,0,41.38,2.74,50.36,5.08,6.64,1.56,8.21,3.9,8.21,10.16v25.38c0,3.9-3.12,5.86-7.02,5.86h-1.19c-15.63-1.96-24.98-2.74-50.36-2.74-18.37,0-37.51,10.55-37.51,51.17v36.32c0,40.62,19.14,51.17,37.51,51.17,25.38,0,34.73-.79,50.36-2.74h1.19c3.9,0,7.02,1.95,7.02,5.86v25.39c0,6.24-1.56,8.6-8.21,10.16"/>
        <path class="cls-2" d="M107.7,142.39c4.32-9.36,15.96-12.12,21.66-1.4,6.51,12.3,57.02,109.09,81.85,156.75l104.06-11.24C260.67,181.74,184.98,36.7,173.36,14.77c-12.16-22.92-36.99-17.01-46.2,2.96C105.59,64.4,20.11,261.56,8.11,288.35c-3.73,8.33-28.19,54,31.46,60.94l195.68,29.19-29.33-55.6c-13.26,1.32-68.93,7.14-116.47,8.61-30.12.93-53.75,2.1-63.27-10.97-4.26-5.85-1.1-14.81,4.94-27.07,22.25-45.16,70.51-139.55,76.58-151.06"/>
      </g>
    </g>
  </g>
</svg>