<?xml version="1.0" encoding="UTF-8" standalone="no"?>
<!-- Created with Inkscape (http://www.inkscape.org/) -->

<svg
   version="1.1"
   id="svg2"
   width="344.65332"
   height="224"
   viewBox="0 0 344.65332 224"
   sodipodi:docname="Gravitate-Logo-4c.eps"
   xmlns:inkscape="http://www.inkscape.org/namespaces/inkscape"
   xmlns:sodipodi="http://sodipodi.sourceforge.net/DTD/sodipodi-0.dtd"
   xmlns="http://www.w3.org/2000/svg"
   xmlns:svg="http://www.w3.org/2000/svg">
  <defs
     id="defs6" />
  <sodipodi:namedview
     id="namedview4"
     pagecolor="white"
     bordercolor="white"
     borderopacity="0.25"
     inkscape:showpageshadow="2"
     inkscape:pageopacity="0.0"
     inkscape:pagecheckerboard="0"
     inkscape:deskcolor="#d1d1d1" />
  <g
     id="g8"
     inkscape:groupmode="layer"
     inkscape:label="ink_ext_XXXXXX"
     transform="matrix(1.3333333,0,0,-1.3333333,0,224)">
    <g
       id="g10"
       transform="scale(0.1)">
      <path
         d="m 1809.61,1348.52 h 346.02 v -60 h -346.02 v 60"
         style="fill:white;fill-opacity:1;fill-rule:evenodd;stroke:none"
         id="path12" />
      <path
         d="m 1799.61,948.52 h 356.02 v -60 h -356.02 v 60"
         style="fill:white;fill-opacity:1;fill-rule:evenodd;stroke:none"
         id="path14" />
      <path
         d="m 1846.64,1148.52 h 497.97 v -60 h -497.97 v 60"
         style="fill:white;fill-opacity:1;fill-rule:evenodd;stroke:none"
         id="path16" />
      <path
         d="m 408.629,1348.52 h 355.98 v -60 h -355.98 v 60"
         style="fill:white;fill-opacity:1;fill-rule:evenodd;stroke:none"
         id="path18" />
      <path
         d="m 408.629,948.52 h 355.98 v -60 h -355.98 v 60"
         style="fill:white;fill-opacity:1;fill-rule:evenodd;stroke:none"
         id="path20" />
      <path
         d="m 219.609,1148.52 h 485 v -60 h -485 v 60"
         style="fill:white;fill-opacity:1;fill-rule:evenodd;stroke:none"
         id="path22" />
      <path
         d="m 752.109,1118.52 c 0.661,75 15.192,145 43.512,210 28.32,65 67.66,121.83 118.008,170.5 50.312,48.68 108.321,86.18 173.991,112.5 v 64.03 c -57.66,-20.35 -110.671,-48.67 -158.991,-85 -48.008,-36.02 -89.688,-78.36 -125,-127.03 -35.348,-48.99 -62.649,-102.5 -81.988,-160.47 -19.34,-58.36 -29.18,-119.85 -29.532,-184.53 0.352,-64.65 10.192,-125.981 29.532,-183.989 19.339,-58.32 46.64,-111.992 81.988,-161.011 35.312,-48.641 77.152,-90.981 125.512,-127 47.968,-36.321 100.819,-64.641 158.479,-85 v 64.031 c -65.98,26.328 -123.991,63.828 -173.991,112.5 -50.348,48.629 -89.688,105.469 -118.008,170.469 -28.32,65 -42.851,135 -43.512,210"
         style="fill:white;fill-opacity:1;fill-rule:evenodd;stroke:none"
         id="path24" />
      <path
         d="m 1872.62,1118.52 c -0.32,66.01 -10.51,128.51 -30.51,187.5 -20.31,59.33 -48.83,113.67 -85.47,163 -36.68,49.34 -79.84,92 -129.53,128.01 -49.65,36.02 -104.34,63.67 -163.99,83.01 v -63.52 c 68.32,-25.31 128.68,-62.34 181.02,-110.97 52.3,-49.03 93.32,-106.53 122.97,-172.5 29.69,-66.37 44.84,-137.85 45.51,-214.53 -0.67,-76.64 -15.82,-148.168 -45.51,-214.5 -29.65,-65.969 -70.67,-123.469 -122.97,-172.5 -52.34,-48.981 -112.7,-86.168 -181.02,-111.481 v -63.008 c 59.65,19.34 114.34,46.989 163.99,83.008 49.69,35.981 92.85,78.672 129.53,128.012 36.64,49.328 65,103.629 85,162.969 20.31,59.019 30.66,121.52 30.98,187.5"
         style="fill:white;fill-opacity:1;fill-rule:evenodd;stroke:none"
         id="path26" />
      <path
         d="m 1305.9,1335.08 c 45.31,0 88.44,-11.41 129.41,-34.26 l -18.98,-35.98 c -14.34,7.54 -31.06,14.07 -50.12,19.54 -19.06,5.46 -38.32,8.2 -57.77,8.2 -19.85,0 -38.95,-3.67 -57.35,-11.02 -18.4,-7.38 -34.8,-17.69 -49.14,-31.01 -14.33,-13.32 -25.82,-30.12 -34.41,-50.43 -8.6,-20.28 -12.89,-42.5 -12.89,-66.68 0,-31.92 7.07,-60.59 21.25,-86.1 14.14,-25.46 33.71,-45.31 58.63,-59.488 24.92,-14.141 52.77,-21.211 83.52,-21.211 36.44,0 66.09,10.937 88.94,32.847 v 102.782 h -114.41 v 39.65 h 161.13 V 983.91 c -5.08,-5.859 -10.98,-11.531 -17.7,-16.988 -6.71,-5.473 -16.05,-11.801 -28.04,-18.992 -11.99,-7.149 -26.76,-12.969 -44.3,-17.418 -17.58,-4.422 -36.56,-6.641 -56.95,-6.641 -26.8,0 -51.49,4.02 -74.03,12.027 -22.57,8.051 -41.52,18.75 -56.79,32.153 -15.32,13.398 -28.24,29.019 -38.79,46.869 -10.59,17.85 -18.32,36.49 -23.24,55.94 -4.93,19.45 -7.35,39.26 -7.35,59.45 0,21.18 2.7,41.68 8.05,61.61 5.39,19.92 13.63,38.55 24.8,55.93 11.14,17.39 24.5,32.54 40.04,45.47 15.59,12.93 34.26,23.13 55.94,30.59 21.72,7.46 45.23,11.17 70.55,11.17 v 0"
         style="fill:white;fill-opacity:1;fill-rule:evenodd;stroke:none"
         id="path28" />
      <path
         d="m 421.762,174.84 h 56.25 c 7.808,0 14.679,0.242 20.617,0.789 5.941,0.5 12.891,1.953 20.941,4.371 8.121,2.379 14.77,5.66 20,9.84 5.309,4.148 9.84,10.242 13.59,18.289 3.75,8.121 5.629,17.652 5.629,28.59 0,7.812 -1.019,14.84 -2.969,21.09 -1.992,6.332 -4.531,11.57 -7.66,15.632 -3.039,4.059 -6.789,7.539 -11.25,10.469 -4.371,3.012 -8.672,5.231 -12.808,6.719 -4.063,1.562 -8.672,2.812 -13.75,3.75 -5,0.93 -9.18,1.48 -12.5,1.711 -3.364,0.199 -6.84,0.32 -10.473,0.32 h -65.617 z m 176.09,66.25 c 0,-10.852 -1.332,-21.168 -3.911,-30.93 -2.613,-9.808 -6.679,-19.14 -12.179,-27.969 -5.551,-8.871 -13.211,-16.562 -22.973,-23.132 -9.687,-6.477 -21.019,-11.25 -33.91,-14.368 L 616.91,4.53125 H 573.16 L 484.879,140.469 H 421.762 V 4.53125 H 382.539 V 330.629 h 119.84 c 5.512,0 10.473,-0.16 14.851,-0.469 4.45,-0.32 10.149,-1.172 17.032,-2.5 6.949,-1.25 13.117,-2.969 18.429,-5.16 5.387,-2.191 11.02,-5.578 16.879,-10.16 5.942,-4.488 10.821,-9.801 14.692,-15.93 3.937,-6.058 7.179,-13.871 9.679,-23.441 2.579,-9.489 3.911,-20.117 3.911,-31.879 z m -436.293,92.039 c 36.64,0 71.601,-9.219 104.851,-27.66 L 251.09,276.25 c -11.68,6.129 -25.27,11.41 -40.781,15.781 -15.43,4.457 -31.008,6.719 -46.719,6.719 -16.051,0 -31.559,-3.051 -46.559,-9.059 C 102.109,283.75 88.8281,275.352 77.1914,264.531 65.6211,253.789 56.3281,240.199 49.3711,223.75 42.3789,207.379 38.9102,189.422 38.9102,169.84 c 0,-25.93 5.6992,-49.211 17.1796,-69.84 11.5704,-20.6211 27.4219,-36.7187 47.6602,-48.2812 20.191,-11.4805 42.73,-17.1875 67.66,-17.1875 29.449,0 53.469,8.9101 72.031,26.7187 v 83.281 h -92.66 v 32.188 H 281.25 V 48.5898 C 277.191,43.7891 272.422,39.1406 267.031,34.6914 261.602,30.3086 253.98,25.1992 244.219,19.3789 234.531,13.6289 222.539,8.94922 208.281,5.30859 194.102,1.80078 178.75,0 162.191,0 140.512,0 120.512,3.23828 102.191,9.69141 83.9414,16.1289 68.6289,24.7695 56.25,35.6289 43.8281,46.5586 33.3203,59.2617 24.6914,73.75 16.1289,88.1992 9.87891,103.32 5.94141,119.059 1.94922,134.77 0,150.82 0,167.191 c 0,17.188 2.19141,33.829 6.55859,50 4.38281,16.129 11.01951,31.25 20.00001,45.309 9.0625,14.059 19.8828,26.289 32.5,36.719 12.582,10.511 27.7031,18.793 45.3124,24.84 17.578,6.023 36.641,9.07 57.188,9.07 v 0"
         style="fill:white;fill-opacity:1;fill-rule:nonzero;stroke:none"
         id="path30" />
      <path
         d="M 812.539,292.5 757.07,133.441 h 110.782 z m -20.309,38.129 h 44.211 L 952.379,4.53125 H 912.852 L 879.879,99.3789 H 745.352 L 712.379,4.53125 h -36.09 L 792.23,330.629"
         style="fill:white;fill-opacity:1;fill-rule:nonzero;stroke:none"
         id="path32" />
      <path
         d="m 996.25,330.629 h 46.25 l 93.28,-284.8477 93.13,284.8477 h 42.96 L 1158.28,4.53125 h -48.44 L 996.25,330.629"
         style="fill:white;fill-opacity:1;fill-rule:nonzero;stroke:none"
         id="path34" />
      <path
         d="m 1358.79,330.629 h 39.06 V 4.53906 h -39.06 V 330.629"
         style="fill:white;fill-opacity:1;fill-rule:nonzero;stroke:none"
         id="path36" />
      <path
         d="m 1472.85,330.629 h 257.03 V 296.25 H 1620.82 V 4.53125 h -38.91 V 296.25 h -109.06 v 34.379"
         style="fill:white;fill-opacity:1;fill-rule:nonzero;stroke:none"
         id="path38" />
      <path
         d="m 1897.58,292.5 -55.47,-159.059 h 110.78 z m -20.32,38.129 h 44.22 L 2037.42,4.53125 h -39.53 L 1964.92,99.3789 H 1830.39 L 1797.42,4.53125 h -36.09 L 1877.26,330.629"
         style="fill:white;fill-opacity:1;fill-rule:nonzero;stroke:none"
         id="path40" />
      <path
         d="m 2068.63,330.629 h 257.03 V 296.25 H 2216.6 V 4.53125 h -38.91 V 296.25 h -109.06 v 34.379"
         style="fill:white;fill-opacity:1;fill-rule:nonzero;stroke:none"
         id="path42" />
      <path
         d="M 2393.79,4.53125 V 330.629 h 191.09 V 296.25 H 2432.85 V 189.691 h 139.53 V 155.309 H 2432.85 V 38.9102 h 152.03 V 4.53125 h -191.09"
         style="fill:white;fill-opacity:1;fill-rule:nonzero;stroke:none"
         id="path44" />
    </g>
  </g>
</svg>
