<?xml version="1.0" encoding="UTF-8"?>
<svg id="a" xmlns="http://www.w3.org/2000/svg" version="1.1" viewBox="0 0 592.62 297.88">
  <!-- Generator: Adobe Illustrator 29.4.0, SVG Export Plug-In . SVG Version: 2.1.0 Build 152)  -->
  <defs>
    <style>
      .st0 {
        fill: #FFD865;
      }

      .st1 {
        fill: #000;
      }
    </style>
  </defs>
  <ellipse class="st0" cx="170.2" cy="103.18" rx="170.2" ry="103.18"/>
  <g>
    <polygon class="st1" points="269.11 74.98 253.71 115.56 237.3 72.16 220.59 77.66 246.51 140.19 260.92 140.19 287.95 74.98 269.11 74.98"/>
    <path class="st1" d="M191.76,77.77c-1.55-.9-3.2-1.71-4.92-2.41-3.52-1.43-6.87-2.15-9.95-2.15-7.25,0-13.59,1.45-18.86,4.31-5.26,2.85-9.32,6.92-12.09,12.09-2.77,5.17-4.18,11.25-4.18,18.05,0,10.46,3.12,18.85,9.27,24.96,6.15,6.11,14.66,9.21,25.29,9.21,5.34,0,10.43-1.4,15.13-4.16l.52-.31v6.94c0,4.35-1.76,7.87-5.22,10.47-3.43,2.57-8.05,3.92-13.73,4.01-3.54-.09-7.13-.6-10.66-1.51-3.44-.89-7.3-2.31-11.47-4.22l-5.32,11.91c3.27,2.07,7.87,3.81,13.66,5.16,5.95,1.39,10.74,2.1,14.23,2.1,11.12,0,20.1-2.42,26.69-7.2,6.55-4.76,9.87-11.68,9.87-20.58v-72.21l-18.12,5.63-.13-.08ZM191.97,121.82l-.15.1c-2.58,1.82-5.09,3.21-7.45,4.12-2.36.92-4.83,1.38-7.34,1.38-5.24,0-9.4-1.85-12.36-5.5-2.94-3.62-4.44-8.42-4.44-14.28s1.52-10.71,4.51-14.42c3-3.74,7.14-5.63,12.29-5.63,2.69,0,5.24.44,7.56,1.31,2.31.87,4.74,2.33,7.25,4.34l.13.1v28.47h0Z"/>
    <path class="st1" d="M107.53,72.92c-3.28,0-7.05.64-11.2,1.89-4.15,1.25-8.21,3.03-12.08,5.27l-.52.3v-37.4l-17.76,5.51v91.69l17.76-5.5v-39.86l.15-.1c3.43-2.36,6.63-4.26,9.48-5.67,2.89-1.42,6.03-2.14,9.31-2.14s5.82,1.19,7.64,3.53c1.8,2.32,2.72,5.59,2.72,9.73v40.01l17.9-5.5v-35.33c0-8.31-1.76-14.87-5.22-19.49-3.45-4.6-9.56-6.93-18.17-6.93h0Z"/>
  </g>
  <g>
    <path class="st0" d="M4.12,288.97c3.23,1.98,6.98,3.33,10.99,3.33,4.79,0,7.19-2.08,7.19-5,0-8.23-20.52-2.81-20.52-16.72,0-5.83,4.84-10.47,13.02-10.47,4.79,0,9.01,1.2,12.66,2.97l-2.34,5c-3.07-1.51-6.51-2.45-10.1-2.45-4.22,0-6.72,2.14-6.72,4.84,0,8.18,20.52,2.6,20.52,16.77,0,5.99-4.53,10.57-13.7,10.57-5.36,0-10.52-1.72-14.01-3.91l3.02-4.95Z"/>
    <path class="st0" d="M46.3,268.97c7.97,0,11.77,5.36,11.77,12.6,0,.83-.1,2.08-.21,2.76h-18.96c.31,5.62,3.02,8.59,7.92,8.59,2.81,0,5.47-1.04,7.76-2.5l2.66,4.01c-3.18,2.19-6.87,3.44-10.78,3.44-8.28,0-13.64-5.47-13.64-14.69,0-8.7,5.83-14.22,13.49-14.22ZM39.17,280.43h13.07c0-3.85-1.51-6.93-5.78-6.93-3.7,0-6.51,2.55-7.29,6.93Z"/>
    <path class="st0" d="M64.32,269.65h5.52l.47,4.53c2.03-3.59,4.69-5.26,8.02-5.26,1.46,0,2.66.26,3.65.68l-1.09,5.57c-1.04-.42-2.08-.68-3.49-.68-3.02,0-5.1,1.93-7.03,5.52v17.19h-6.04v-27.55Z"/>
    <path class="st0" d="M84.16,269.65h6.2l6.67,20.94h.1l6.77-20.94h5.88l-9.48,27.55h-6.72l-9.43-27.55Z"/>
    <path class="st0" d="M114.78,258.25h6.04v5.83h-6.04v-5.83ZM114.78,269.91h6.04v27.29h-6.04v-27.29Z"/>
    <path class="st0" d="M140.61,269.03c3.59,0,6.77,1.15,9.53,3.28l-3.18,4.06c-1.61-1.25-3.59-2.29-6.2-2.29-4.37,0-7.6,3.44-7.6,9.11,0,6.04,3.12,9.63,7.6,9.63,2.76,0,4.64-.99,6.46-2.55l3.44,3.65c-2.97,2.66-5.99,3.91-10.05,3.91-7.92,0-13.59-5.47-13.59-14.63s5.73-14.17,13.59-14.17Z"/>
    <path class="st0" d="M167.38,268.97c7.97,0,11.77,5.36,11.77,12.6,0,.83-.1,2.08-.21,2.76h-18.96c.31,5.62,3.02,8.59,7.92,8.59,2.81,0,5.47-1.04,7.76-2.5l2.66,4.01c-3.18,2.19-6.87,3.44-10.78,3.44-8.28,0-13.64-5.47-13.64-14.69,0-8.7,5.83-14.22,13.49-14.22ZM160.24,280.43h13.07c0-3.85-1.51-6.93-5.78-6.93-3.7,0-6.51,2.55-7.29,6.93Z"/>
    <path class="st0" d="M215.96,260.12c5,0,9.22,1.56,12.92,4.11l-3.23,4.43c-2.92-1.98-5.99-3.12-9.53-3.12-7.5,0-12.45,5.42-12.45,13.12,0,8.38,4.63,13.75,12.45,13.75,2.71,0,5.42-.68,7.29-1.77v-8.65h-9.17v-4.63h14.95v16.51c-3.54,2.5-8.18,3.96-13.23,3.96-11.41,0-18.7-7.71-18.7-19.17,0-10.73,7.39-18.54,18.7-18.54Z"/>
    <path class="st0" d="M247.78,268.97c7.97,0,11.77,5.36,11.77,12.6,0,.83-.1,2.08-.21,2.76h-18.96c.31,5.62,3.02,8.59,7.92,8.59,2.81,0,5.47-1.04,7.76-2.5l2.66,4.01c-3.18,2.19-6.87,3.44-10.78,3.44-8.28,0-13.64-5.47-13.64-14.69,0-8.7,5.83-14.22,13.49-14.22ZM240.64,280.43h13.07c0-3.85-1.51-6.93-5.78-6.93-3.7,0-6.51,2.55-7.29,6.93Z"/>
    <path class="st0" d="M265.8,269.65h5.68l.31,3.28c2.08-2.19,5.1-3.96,8.65-3.96,6.15,0,8.91,3.91,8.91,9.9v18.33h-6.04v-18.44c0-3.02-1.25-5.05-4.32-5.05-2.86,0-5.21,1.35-7.13,3.75v19.74h-6.04v-27.55Z"/>
    <path class="st0" d="M308.86,269.03c7.76,0,13.54,5.52,13.54,14.06,0,9.11-5.47,14.74-13.54,14.74s-13.64-5.62-13.64-14.74c0-8.54,5.83-14.06,13.64-14.06ZM308.86,293.09c4.58,0,7.34-3.96,7.34-9.95,0-5.57-2.97-9.32-7.34-9.32s-7.5,3.75-7.5,9.32c0,5.99,2.76,9.95,7.5,9.95Z"/>
    <path class="st0" d="M329.38,290.43c2.55,1.51,5.52,2.6,8.59,2.6s5-.99,5-3.33c0-5.52-15.52-2.08-15.52-12.34,0-5.36,4.74-8.33,10.47-8.33,3.02,0,6.41.73,9.95,2.34l-2.29,4.48c-2.5-1.25-5.47-2.03-7.6-2.03-2.6,0-4.53,1.04-4.53,3.28,0,5.42,15.42,1.77,15.42,12.29,0,5.52-4.53,8.44-10.83,8.44-4.17,0-7.76-1.09-11.2-3.07l2.55-4.32Z"/>
    <path class="st0" d="M354.53,290.43c2.55,1.51,5.52,2.6,8.59,2.6s5-.99,5-3.33c0-5.52-15.52-2.08-15.52-12.34,0-5.36,4.74-8.33,10.47-8.33,3.02,0,6.41.73,9.95,2.34l-2.29,4.48c-2.5-1.25-5.47-2.03-7.6-2.03-2.6,0-4.53,1.04-4.53,3.28,0,5.42,15.42,1.77,15.42,12.29,0,5.52-4.53,8.44-10.83,8.44-4.17,0-7.76-1.09-11.2-3.07l2.55-4.32h0Z"/>
    <path class="st0" d="M391.92,268.97c7.97,0,11.77,5.36,11.77,12.6,0,.83-.1,2.08-.21,2.76h-18.96c.31,5.62,3.02,8.59,7.92,8.59,2.81,0,5.47-1.04,7.76-2.5l2.66,4.01c-3.18,2.19-6.87,3.44-10.78,3.44-8.28,0-13.64-5.47-13.64-14.69,0-8.7,5.83-14.22,13.49-14.22ZM384.79,280.43h13.07c0-3.85-1.51-6.93-5.78-6.93-3.7,0-6.51,2.55-7.29,6.93Z"/>
    <path class="st0" d="M409.94,269.65h5.68l.31,3.28c2.08-2.19,5.1-3.96,8.65-3.96,6.15,0,8.91,3.91,8.91,9.9v18.33h-6.04v-18.44c0-3.02-1.25-5.05-4.32-5.05-2.86,0-5.21,1.35-7.13,3.75v19.74h-6.04v-27.55Z"/>
    <path class="st0" d="M441.55,290.43c2.55,1.51,5.52,2.6,8.59,2.6s5-.99,5-3.33c0-5.52-15.52-2.08-15.52-12.34,0-5.36,4.74-8.33,10.47-8.33,3.02,0,6.41.73,9.95,2.34l-2.29,4.48c-2.5-1.25-5.47-2.03-7.6-2.03-2.6,0-4.53,1.04-4.53,3.28,0,5.42,15.42,1.77,15.42,12.29,0,5.52-4.53,8.44-10.83,8.44-4.17,0-7.76-1.09-11.2-3.07l2.55-4.32Z"/>
    <path class="st0" d="M478.99,269.03c3.59,0,6.77,1.15,9.53,3.28l-3.18,4.06c-1.61-1.25-3.59-2.29-6.2-2.29-4.37,0-7.6,3.44-7.6,9.11,0,6.04,3.12,9.63,7.6,9.63,2.76,0,4.64-.99,6.46-2.55l3.44,3.65c-2.97,2.66-5.99,3.91-10.05,3.91-7.92,0-13.59-5.47-13.59-14.63s5.73-14.17,13.59-14.17Z"/>
    <path class="st0" d="M494.56,257.88h6.09v15.05c2.13-2.19,5-3.96,8.54-3.96,6.2,0,8.91,3.91,8.91,9.9v18.33h-6.04v-18.44c0-3.02-1.2-5.05-4.32-5.05-2.81,0-5.16,1.35-7.08,3.75v19.74h-6.09v-39.32Z"/>
    <path class="st0" d="M539.19,280.9v-3.07c0-2.29-1.35-3.85-4.48-3.85-2.71,0-5.68,1.2-8.7,2.71l-2.24-4.74c3.33-1.61,7.5-2.92,11.14-2.92,7.34,0,10.31,3.7,10.31,8.96v12.45c0,1.77.99,2.5,2.55,2.5v4.37c-4.58,0-6.51-.89-7.86-3.23-2.19,2.29-4.9,3.75-8.54,3.75-4.9,0-8.28-2.97-8.28-7.29,0-6.67,7.03-9.17,16.09-9.63ZM532.89,293.24c2.76,0,4.9-1.15,6.3-2.71v-5.88c-4.79.21-10.05,1.15-10.05,5.36,0,1.98,1.51,3.23,3.75,3.23Z"/>
    <path class="st0" d="M555.02,274.49h-4.63v-4.53h4.63v-1.67c0-7.86,4.58-10.78,10.99-10.78,1.93,0,4.01.47,5.47.99l-1.51,4.38c-1.09-.31-2.24-.57-3.8-.57-3.49,0-5.1,1.98-5.1,5.94v1.72h7.34v4.53h-7.34v22.71h-6.04v-22.71Z"/>
    <path class="st0" d="M577.36,274.18h-4.63v-4.53h4.63v-7.4h6.04v7.4h7.66v4.53h-7.66v15.21c0,2.29.88,3.49,2.81,3.49,1.51,0,2.86-.47,4.11-1.35l2.29,3.85c-1.82,1.41-4.53,2.45-7.19,2.45-5.42,0-8.07-2.71-8.07-8.33v-15.31Z"/>
  </g>
</svg>
