<svg width="83" height="28" viewBox="0 0 83 28" fill="none" xmlns="http://www.w3.org/2000/svg">
<g id="icinga-logo-screen-export 1" clip-path="url(#clip0_58_885)">
<g id="Group">
<g id="icinga-logo-screen-export">
<g id="Clip path group">
<mask id="mask0_58_885" style="mask-type:luminance" maskUnits="userSpaceOnUse" x="0" y="0" width="83" height="28">
<g id="_clip1">
<path id="Vector" d="M82.2912 0.132812H0.386719V27.7275H82.2912V0.132812Z" fill="white"/>
</g>
</mask>
<g mask="url(#mask0_58_885)">
<g id="Group_2">
<g id="Group_3">
<g id="Group_4">
<path id="Vector_2" fill-rule="evenodd" clip-rule="evenodd" d="M26.8322 17.8596C26.8322 17.1485 26.9672 16.4761 27.2374 15.8431C27.5075 15.2104 27.8776 14.6587 28.3471 14.1895C28.8166 13.7201 29.3677 13.3503 30.001 13.0798C30.6337 12.8097 31.3133 12.6743 32.0388 12.6743C32.5649 12.6743 33.0701 12.7491 33.554 12.8985C34.0373 13.0477 34.4857 13.2611 34.8981 13.5384C35.3109 13.8161 35.677 14.1433 35.9973 14.5203C36.3173 14.8973 36.577 15.3134 36.7759 15.7684C36.8327 15.868 36.872 15.9749 36.8936 16.0887C36.915 16.2024 36.9257 16.3017 36.9257 16.3873C36.9257 16.6718 36.8257 16.9351 36.6268 17.177C36.4275 17.419 36.1429 17.5396 35.7731 17.5396C35.2895 17.5396 34.9335 17.3049 34.7064 16.8354C34.4929 16.3096 34.1477 15.8752 33.6714 15.5337C33.1947 15.1923 32.6502 15.0215 32.0388 15.0215C31.6405 15.0215 31.2667 15.0963 30.9186 15.2455C30.5698 15.3953 30.2639 15.5979 30.001 15.8539C29.7375 16.11 29.5316 16.4122 29.3821 16.761C29.2326 17.1095 29.1581 17.4754 29.1581 17.8596V22.4901C29.1581 22.8744 29.2362 23.2406 29.3928 23.589C29.5493 23.9378 29.7588 24.2401 30.0224 24.4961C30.2852 24.7518 30.5911 24.9547 30.9399 25.1042C31.2884 25.2537 31.6546 25.3281 32.0388 25.3281C32.6502 25.3281 33.1947 25.1541 33.6714 24.8055C34.1477 24.4571 34.4998 24.0195 34.7277 23.493C34.827 23.294 34.9801 23.1304 35.1863 23.0026C35.3925 22.8744 35.5882 22.8104 35.7731 22.8104C36.1285 22.8104 36.4098 22.9314 36.6163 23.173C36.8221 23.4149 36.9257 23.6778 36.9257 23.9624C36.9257 24.1332 36.8969 24.2827 36.8402 24.4106C36.6549 24.8945 36.4028 25.3357 36.0826 25.734C35.7626 26.132 35.3961 26.4772 34.9837 26.7686C34.571 27.0604 34.116 27.2839 33.6179 27.441C33.1196 27.5971 32.5935 27.6754 32.0388 27.6754C31.3271 27.6754 30.655 27.5367 30.0224 27.2594C29.389 26.9817 28.8378 26.6086 28.3688 26.1392C27.899 25.6698 27.5256 25.1219 27.2482 24.4961C26.9709 23.87 26.8322 23.2015 26.8322 22.4901V17.8596ZM57.3679 17.8812C57.3679 17.1702 57.5062 16.4978 57.7839 15.8644C58.0612 15.2317 58.4343 14.6803 58.9041 14.2108C59.3739 13.7414 59.9247 13.3716 60.5576 13.1011C61.1911 12.831 61.8628 12.6956 62.5745 12.6956C63.1151 12.6956 63.6341 12.774 64.132 12.9303C64.63 13.0871 65.0886 13.3074 65.5086 13.5919C65.9279 13.8768 66.298 14.2181 66.618 14.6163C66.9382 15.0147 67.1975 15.4559 67.3968 15.9392C67.4254 16.0106 67.4428 16.085 67.4503 16.1634C67.4575 16.2418 67.4611 16.3234 67.4611 16.4086C67.4611 16.6931 67.3614 16.9564 67.1621 17.1983C66.9628 17.4403 66.6783 17.5609 66.3088 17.5609C66.1095 17.5609 65.9102 17.5042 65.7115 17.3901C65.5115 17.2764 65.3624 17.1059 65.2631 16.878C65.0352 16.3378 64.6831 15.8965 64.2068 15.5549C63.7301 15.2137 63.1862 15.0429 62.5745 15.0429C62.1758 15.0429 61.8024 15.1176 61.454 15.2671C61.1052 15.4163 60.8032 15.6192 60.5472 15.8752C60.2912 16.1312 60.0882 16.4335 59.9391 16.782C59.7896 17.1308 59.7152 17.497 59.7152 17.8812V22.4901C59.7152 22.8744 59.7896 23.2406 59.9391 23.589C60.0882 23.9378 60.2945 24.2401 60.5576 24.4961C60.8209 24.7518 61.1268 24.9547 61.4753 25.1042C61.8237 25.2537 62.1902 25.3281 62.5745 25.3281C62.9725 25.3281 63.3459 25.2537 63.6944 25.1042C64.0432 24.9547 64.3457 24.7518 64.6018 24.4961C64.8575 24.2401 65.0601 23.9378 65.2096 23.589C65.359 23.2406 65.4339 22.8744 65.4339 22.4901V21.9138H64.2815C63.954 21.9138 63.6803 21.8004 63.46 21.5726C63.2393 21.3453 63.1292 21.0677 63.1292 20.7402C63.1292 20.4278 63.2393 20.1573 63.46 19.9298C63.6803 19.7023 63.954 19.5882 64.2815 19.5882H66.6074C66.9343 19.5882 67.212 19.6984 67.4395 19.9187C67.667 20.1396 67.7808 20.413 67.7808 20.7402V22.4901C67.7808 23.2015 67.6424 23.87 67.365 24.4961C67.0874 25.1219 66.714 25.6698 66.2449 26.1392C65.7754 26.6086 65.2233 26.9817 64.591 27.2594C63.9576 27.5367 63.2852 27.6754 62.5745 27.6754C61.8628 27.6754 61.1911 27.5367 60.5576 27.2594C59.9247 26.9817 59.3739 26.6086 58.9041 26.1392C58.4343 25.6698 58.0612 25.1219 57.7839 24.4961C57.5062 23.87 57.3679 23.2015 57.3679 22.4901V17.8812ZM21.8603 14.3174C21.8603 13.9902 21.9741 13.7129 22.2016 13.4853C22.4291 13.2579 22.7065 13.1438 23.034 13.1438C23.3467 13.1438 23.6208 13.2579 23.8555 13.4853C24.0903 13.7129 24.2076 13.9902 24.2076 14.3174V26.1392C24.2076 26.4664 24.0935 26.744 23.8663 26.9712C23.6385 27.1987 23.3611 27.3128 23.034 27.3128C22.7209 27.3128 22.4471 27.1987 22.2124 26.9712C21.9777 26.744 21.8603 26.4664 21.8603 26.1392V14.3174ZM39.3796 14.3174C39.3796 13.9902 39.4934 13.7129 39.7208 13.4853C39.9484 13.2579 40.2257 13.1438 40.5532 13.1438C40.8659 13.1438 41.14 13.2579 41.3747 13.4853C41.6094 13.7129 41.7268 13.9902 41.7268 14.3174V26.1392C41.7268 26.4664 41.6127 26.744 41.3855 26.9712C41.1577 27.1987 40.8804 27.3128 40.5532 27.3128C40.2401 27.3128 39.9664 27.1987 39.7317 26.9712C39.4969 26.744 39.3796 26.4664 39.3796 26.1392V14.3174ZM44.4579 18.2437C44.4579 17.5324 44.593 16.864 44.8635 16.2378C45.1336 15.6119 45.5037 15.0642 45.9732 14.595C46.4423 14.1253 46.9938 13.7519 47.6271 13.4746C48.2595 13.1972 48.9319 13.0585 49.6433 13.0585C50.3546 13.0585 51.027 13.1972 51.6597 13.4746C52.2928 13.7519 52.8442 14.1253 53.3133 14.595C53.7831 15.0642 54.1568 15.6119 54.4338 16.2378C54.7112 16.864 54.8502 17.5324 54.8502 18.2437V26.1392C54.8502 26.4664 54.7397 26.744 54.5191 26.9712C54.2984 27.1987 54.0247 27.3128 53.6975 27.3128C53.3845 27.3128 53.1111 27.1987 52.876 26.9712C52.6416 26.744 52.5239 26.4664 52.5239 26.1392V18.2437C52.5239 17.8596 52.4494 17.4934 52.3 17.1449C52.1505 16.7965 51.9446 16.4939 51.6814 16.2378C51.4178 15.9817 51.1119 15.7791 50.7637 15.6296C50.415 15.4805 50.0415 15.4058 49.6433 15.4058C49.2449 15.4058 48.8715 15.4805 48.523 15.6296C48.1746 15.7791 47.8723 15.9817 47.616 16.2378C47.3599 16.4939 47.1573 16.7965 47.0078 17.1449C46.8587 17.4934 46.7836 17.8596 46.7836 18.2437V26.1392C46.7836 26.4664 46.6735 26.744 46.4535 26.9712C46.2325 27.1987 45.9588 27.3128 45.6319 27.3128C45.3041 27.3128 45.0268 27.1987 44.7996 26.9712C44.5717 26.744 44.4579 26.4664 44.4579 26.1392V18.2437ZM74.9721 13.7627C75.1992 13.2933 75.5552 13.0585 76.0391 13.0585C76.2807 13.0585 76.4977 13.1296 76.6899 13.272C76.882 13.4142 77.0206 13.5781 77.1058 13.7627L82.1848 25.712C82.2556 25.8831 82.291 26.0323 82.291 26.1602C82.291 26.431 82.188 26.6906 81.9818 26.9391C81.7757 27.1883 81.494 27.3128 81.1392 27.3128C80.612 27.3128 80.2572 27.0778 80.0715 26.6086L78.749 23.4507H73.3499C73.1224 23.9768 72.8989 24.5033 72.6782 25.0295C72.4576 25.556 72.2406 26.0821 72.0272 26.6086C71.9134 26.8506 71.7642 27.0282 71.579 27.142C71.3941 27.2558 71.1879 27.3128 70.9604 27.3128C70.6043 27.3128 70.3234 27.1883 70.1172 26.9391C69.911 26.6906 69.808 26.431 69.808 26.1602C69.808 26.0894 69.815 26.011 69.8294 25.9258C69.8431 25.8402 69.8648 25.769 69.8933 25.712L74.9721 13.7627ZM13.682 4.37874C13.3986 4.24105 13.1402 4.04098 12.9283 3.78063C12.1471 2.82374 12.2916 1.41507 13.2483 0.63513C14.2049 -0.144419 15.6138 -0.000831932 16.3947 0.956059C17.1741 1.91271 17.0305 3.32138 16.0741 4.10195C15.4678 4.59472 14.6809 4.71848 13.9873 4.50022L11.8947 8.84864C12.4011 9.1108 12.8633 9.47862 13.2466 9.94841C13.7209 10.5308 14.0173 11.2004 14.1423 11.8911L21.2745 10.132C21.2304 9.99837 21.2016 9.85738 21.1905 9.71072C21.1178 8.74399 21.843 7.90017 22.8107 7.82707C23.7778 7.75461 24.6213 8.47971 24.6944 9.44817C24.7669 10.4149 24.0417 11.2587 23.074 11.3309C22.3702 11.3838 21.7322 11.0143 21.4086 10.4365L14.1885 12.2174C14.3313 13.6078 13.7943 15.0414 12.631 15.9909C12.5225 16.0791 12.4111 16.161 12.2972 16.2368L13.809 18.7622C13.9124 18.7359 14.0223 18.7275 14.1347 18.7404C14.6288 18.7975 14.9824 19.2449 14.9254 19.7383C14.8674 20.2323 14.4215 20.5858 13.9275 20.5298C13.4335 20.4723 13.0794 20.0258 13.1368 19.5315C13.1671 19.2675 13.3089 19.0435 13.5099 18.9008L12.0176 16.4079C10.7381 17.1252 9.19473 17.1276 7.93004 16.4686L5.27454 20.2763C5.77691 20.7535 6.11051 21.4117 6.16614 22.1571C6.28581 23.7509 5.09154 25.1403 3.49765 25.2599C1.90338 25.3799 0.514378 24.185 0.395021 22.5907C0.275036 20.9975 1.46962 19.6085 3.06453 19.4892C3.79443 19.4338 4.48154 19.6546 5.02332 20.0634L7.6442 16.3053C7.25348 16.0616 6.89573 15.7503 6.58872 15.3733C5.2736 13.7628 5.32443 11.4855 6.59431 9.93865L4.32811 8.08317C4.22371 8.196 4.09711 8.29183 3.95069 8.36335C3.31402 8.67484 2.54627 8.41087 2.23485 7.7746C1.92368 7.13927 2.18765 6.37113 2.82361 6.0594C3.45957 5.74799 4.22772 6.01156 4.53913 6.64752C4.72662 7.03187 4.70506 7.46444 4.51836 7.81527L6.81201 9.69325C6.93341 9.5665 7.06394 9.44581 7.20336 9.33212C8.4808 8.29105 10.1781 8.10709 11.598 8.70922L13.682 4.37874ZM76.0391 17.1554C75.8825 17.497 75.7365 17.8275 75.6015 18.1478C75.4664 18.468 75.3274 18.7843 75.1851 19.0971C75.0432 19.4106 74.9009 19.7305 74.7586 20.0577C74.6163 20.3848 74.4669 20.7333 74.3104 21.1034H77.7461L76.0391 17.1554Z" fill="white"/>
</g>
</g>
</g>
</g>
</g>
</g>
</g>
</g>
<defs>
<clipPath id="clip0_58_885">
<rect width="81.9042" height="27.5947" fill="white" transform="translate(0.386719 0.132812)"/>
</clipPath>
</defs>
</svg>
