<?xml version="1.0" encoding="UTF-8"?>
<svg id="Livello_1" xmlns="http://www.w3.org/2000/svg" version="1.1" xmlns:xlink="http://www.w3.org/1999/xlink" viewBox="0 0 1080 320">
<!-- Generator: Adobe Illustrator 29.5.1, SVG Export Plug-In . SVG Version: 2.1.0 Build 141)  -->
<defs>
    <style>
        .st0 {
        fill: url(#Sfumatura_senza_nome_5);
        }

        .st1 {
        fill: url(#Sfumatura_senza_nome_55);
        }

        .st2 {
        fill: #FFD865;
        }

        .st3 {
        fill: url(#Sfumatura_senza_nome_52);
        }

        .st4 {
        fill: url(#Sfumatura_senza_nome_56);
        }

        .st5 {
        fill: url(#Sfumatura_senza_nome_51);
        }

        .st6 {
        fill: url(#Sfumatura_senza_nome_58);
        }

        .st7 {
        fill: url(#Sfumatura_senza_nome_53);
        }

        .st8 {
        fill: url(#Sfumatura_senza_nome_54);
        }

        .st9 {
        fill: url(#Sfumatura_senza_nome_57);
        }
    </style>
    <linearGradient id="Sfumatura_senza_nome_5" data-name="Sfumatura senza nome 5" x1="970.6" y1="233.6" x2="970.6" y2="213.1" gradientUnits="userSpaceOnUse">
        <stop offset="0" stop-color="#FFD865" stop-opacity="0"/>
        <stop offset=".1" stop-color="#FFD865" stop-opacity="0"/>
        <stop offset=".3" stop-color="#FFD865" stop-opacity="0"/>
        <stop offset=".4" stop-color="#FFD865" stop-opacity=".1"/>
        <stop offset=".6" stop-color="#FFD865" stop-opacity=".3"/>
        <stop offset=".7" stop-color="#FFD865" stop-opacity=".4"/>
        <stop offset=".9" stop-color="#FFD865" stop-opacity=".6"/>
        <stop offset="1" stop-color="#FFD865" stop-opacity=".8"/>
        <stop offset="1" stop-color="#FFD865" stop-opacity=".8"/>
    </linearGradient>
    <linearGradient id="Sfumatura_senza_nome_51" data-name="Sfumatura senza nome 5" x1="862.7" x2="862.7" xlink:href="#Sfumatura_senza_nome_5"/>
    <linearGradient id="Sfumatura_senza_nome_52" data-name="Sfumatura senza nome 5" x1="757" x2="757" xlink:href="#Sfumatura_senza_nome_5"/>
    <linearGradient id="Sfumatura_senza_nome_53" data-name="Sfumatura senza nome 5" x1="595.7" x2="595.7" xlink:href="#Sfumatura_senza_nome_5"/>
    <linearGradient id="Sfumatura_senza_nome_54" data-name="Sfumatura senza nome 5" x1="469" x2="469" xlink:href="#Sfumatura_senza_nome_5"/>
    <linearGradient id="Sfumatura_senza_nome_55" data-name="Sfumatura senza nome 5" x1="362.9" x2="362.9" xlink:href="#Sfumatura_senza_nome_5"/>
    <linearGradient id="Sfumatura_senza_nome_56" data-name="Sfumatura senza nome 5" x1="281.6" x2="281.6" xlink:href="#Sfumatura_senza_nome_5"/>
    <linearGradient id="Sfumatura_senza_nome_57" data-name="Sfumatura senza nome 5" x1="173.9" x2="173.9" xlink:href="#Sfumatura_senza_nome_5"/>
    <linearGradient id="Sfumatura_senza_nome_58" data-name="Sfumatura senza nome 5" x1="101.1" x2="101.1" xlink:href="#Sfumatura_senza_nome_5"/>
</defs>
<path class="st0" d="M919.7,213.1l70.3,15.6c2.8.6,5.8,1.2,8.8,1.8,3,.6,6,1.1,8.7,1.5,2.8.4,5.4.8,7.5,1.1,2.2.3,4,.4,5.1.4s1.6-.1,1.5-.4c-.2-.3-.9-.6-2.2-1.1-1.3-.5-3.1-1-5.3-1.5-2.2-.6-4.8-1.2-7.8-1.8l-72.6-15.6h-14Z"/>
<path class="st5" d="M831.8,213.1l27.8,13c1.1.5,2.5,1.1,4.3,1.6,1.7.6,3.8,1.2,5.9,1.8,2.2.6,4.5,1.2,6.9,1.7,2.4.5,4.8,1,7.1,1.4.9.1,1.7.3,2.5.4.8.1,1.5.2,2.2.3.7,0,1.3.1,1.8.2.6,0,1,0,1.5,0,.7,0,1.2,0,1.5-.1.3,0,.5-.2.4-.4,0-.2-.3-.4-.7-.7-.4-.3-1-.6-1.8-.9l-42.4-18.3h-17Z"/>
<path class="st3" d="M751.3,213.1l13.7,10.6c.1.1.2.2.3.3,0,0,0,.1,0,.2,0,0,0,0-.1,0,0,0-.2,0-.3,0s-.1,0-.2,0c0,0-.1,0-.2,0,0,0-.1,0-.2,0,0,0,0,0-.1,0-.4,0-.8-.1-1.4-.2-.5-.1-1.1-.3-1.8-.4-.6-.2-1.3-.4-2-.6-.7-.2-1.4-.5-2.2-.8l-23-9.1h-14l21.6,9.1c2.8,1.2,5.9,2.3,9.1,3.4,3.3,1.1,6.8,2.2,10.3,3.1,3.6,1,7.2,1.9,10.7,2.6,3.5.7,6.9,1.3,10,1.7.7,0,1.3.2,2,.2.6,0,1.2.1,1.8.2.6,0,1.1,0,1.6.1.5,0,1,0,1.4,0,1.5,0,2.7-.1,3.6-.3.9-.2,1.4-.5,1.7-1,.2-.4.1-.9-.3-1.5-.4-.6-1.2-1.3-2.3-2l-23-15.6h-16.9Z"/>
<path class="st7" d="M639.8,213.1c-.4,1.6-1,3-2.5,4.3-1.5,1.4-3.7,2.6-6.4,3.6-2.8,1-6.2,1.8-10.1,2.4-4,.6-8.5.9-13.5.9s-10.2-.3-15.4-.9c-5.1-.6-10.3-1.4-15.3-2.4-4.9-1-9.6-2.2-14.1-3.6-4.3-1.3-8.4-2.8-12.1-4.3h-17.2c4.4,2.6,9.6,5.1,15.5,7.4,6.1,2.4,13,4.7,20.3,6.6,7.6,2,15.6,3.6,23.7,4.7,8.3,1.1,16.6,1.8,24.5,1.8s14.9-.6,20.7-1.8c5.7-1.1,10.3-2.7,13.6-4.7,3.2-1.9,5.3-4.1,6.2-6.6.9-2.3.4-4.8-.8-7.4h-17.3Z"/>
<path class="st8" d="M452.2,213.1l18.2,18.3c.3.3.8.6,1.2.9.5.3,1,.5,1.6.7s1.2.3,1.8.4c.6,0,1.3.1,2,.1s.9,0,1.3,0c.4,0,.8,0,1.3-.2.4,0,.8-.2,1.2-.3.4-.1.8-.2,1.2-.4,1-.4,1.8-.9,2.4-1.4.6-.5,1-1.1,1.3-1.7.2-.6.3-1.2,0-1.8-.2-.6-.6-1.1-1.1-1.6l-15.3-13h-17Z"/>
<path class="st1" d="M367.4,213.1l-20.9,15.6c-.8.6-1.4,1.2-1.8,1.8s-.4,1.1-.2,1.5c.2.4.6.8,1.3,1.1.7.3,1.6.4,2.8.4s2.5-.1,3.8-.4c1.3-.3,2.7-.6,4-1.1,1.3-.5,2.5-1,3.6-1.5,1.1-.6,2-1.2,2.8-1.8l18.6-15.6h-14Z"/>
<path class="st4" d="M280.8,213.1l-14.9,18.3c-.3.3-.4.6-.5.9,0,.3,0,.5.3.7.2.2.6.3,1,.4.5,0,1,.1,1.7.1s.9,0,1.4,0c.5,0,1,0,1.6-.2.6,0,1.1-.2,1.8-.3.6-.1,1.2-.2,1.9-.4,1.7-.4,3.4-.9,5-1.4,1.6-.5,3-1.1,4.3-1.7,1.3-.6,2.4-1.2,3.3-1.8.9-.6,1.5-1.1,1.8-1.6l8.3-13h-17Z"/>
<path class="st9" d="M195.9,213.1l-49.2,15.6c-2,.6-3.7,1.2-5,1.8-1.4.6-2.4,1.1-3,1.5-.6.4-.9.8-.7,1.1.2.3.9.4,2,.4s2.7-.1,4.5-.4c1.8-.3,3.8-.6,5.9-1.1,2.1-.5,4.3-1,6.4-1.5,2.1-.6,4.2-1.2,6.1-1.8l46.8-15.6h-14Z"/>
<path class="st6" d="M130,213.1l-60.1,15.6c-2.4.6-4.6,1.2-6.3,1.8-1.8.6-3.2,1.1-4.1,1.5-.9.4-1.4.8-1.4,1.1,0,.3.6.4,1.8.4s2.8-.1,4.8-.4c2-.3,4.2-.6,6.7-1.1,2.4-.5,5-1,7.5-1.5,2.5-.6,5-1.2,7.4-1.8l57.7-15.6h-14Z"/>
<path class="st2" d="M136.9,101.7c-3.9,0-7,3.1-7,7v104.4s14,0,14,0v-104.4c0-3.9-3.1-7-7-7"/>
<path class="st2" d="M385.7,117.8c-.4-.6-1.2-1-2-1-1.3,0-2.4,1.1-2.4,2.4v93.9s-14,0-14,0v-93.9c0-7.9,4.7-14.6,11.7-16.8,6.5-2,13.3.4,17.4,6.2l72.8,104.5h-17l-66.5-95.3Z"/>
<path class="st2" d="M915.3,117.8c.4-.6,1.2-1,2-1,1.3,0,2.4,1.1,2.4,2.4v93.9s14,0,14,0v-93.9c0-7.9-4.7-14.6-11.7-16.8-6.5-2-13.3.4-17.4,6.2l-72.8,104.5h17l66.5-95.3Z"/>
<path class="st2" d="M727,101.7c-3.9,0-7,3.1-7,7v104.4h14v-104.4c0-3.9-3.1-7-7-7"/>
<path class="st2" d="M836.6,103c-3.2-2.2-7.5-1.4-9.7,1.7l-75.6,108.4h17l70-100.4c2.2-3.2,1.4-7.5-1.7-9.7"/>
<path class="st2" d="M595.1,101.7c-40.2,0-72.9,32.7-72.9,72.9s4,27.3,11,38.5h17.2c-8.9-10.3-14.3-23.8-14.3-38.5,0-32.5,26.4-59,59-59s59,26.5,59,59-5.4,28.2-14.3,38.5h17.3c7-11.2,11-24.4,11-38.5,0-40.2-32.8-72.9-73-72.9"/>
<path class="st2" d="M214.2,117.8c-.4-.6-1.2-1-2-1-1.3,0-2.4,1.1-2.4,2.4v93.9s-14,0-14,0v-93.9c0-7.9,4.7-14.6,11.7-16.8,6.5-2,13.3.4,17.4,6.2l72.8,104.5h-17l-66.5-95.3Z"/>
</svg>