<svg width="85" height="34" viewBox="0 0 85 34" fill="none" xmlns="http://www.w3.org/2000/svg">
<g id="logo-loacker">
<g id="Group 4863">
<path id="Vector" d="M78.9469 23.5196C77.5583 23.5206 76.1917 23.5212 74.8252 23.5206C74.3535 23.5204 74.2205 23.3859 74.2201 22.9146C74.2197 22.4699 74.2302 22.0248 74.2136 21.5807C74.2083 21.4397 74.1315 21.3013 74.0874 21.1618C73.9563 21.2222 73.8085 21.261 73.6969 21.3468C73.115 21.7939 72.586 22.3276 71.9588 22.6948C69.3349 24.2307 66.6739 24.2266 64.0262 22.733C63.7283 22.5649 63.5099 22.6063 63.2533 22.787C62.3364 23.4325 61.311 23.7364 60.1908 23.7766C59.0845 23.8163 58.1873 23.3906 57.5289 22.5433C56.9266 21.7681 56.4169 20.921 55.8682 20.1043C55.6521 19.7827 55.4502 19.4511 55.2234 19.1374C55.1318 19.0107 55.006 18.8915 54.8694 18.8179C54.5781 18.6609 54.2889 18.8234 54.2839 19.146C54.2729 19.8574 54.2767 20.5691 54.2827 21.2806C54.2848 21.5257 54.4518 21.6744 54.6428 21.7924C54.9035 21.9534 55.1752 22.0971 55.4308 22.2655C55.6763 22.4274 55.8102 22.6566 55.771 22.9655C55.7343 23.2553 55.5912 23.4224 55.3053 23.4777C55.1713 23.5036 55.033 23.5187 54.8966 23.5191C53.6433 23.5221 52.39 23.5212 51.1367 23.5207C50.6348 23.5205 50.5127 23.3961 50.5116 22.8867C50.5111 22.6279 50.5193 22.3688 50.5064 22.1107C50.5025 22.0323 50.4575 21.9107 50.4023 21.8913C50.3305 21.8661 50.2079 21.8969 50.1455 21.9493C49.8795 22.1722 49.636 22.422 49.3692 22.6438C48.2319 23.5892 46.9058 23.9147 45.4562 23.7996C44.3303 23.7102 43.3004 23.3412 42.3688 22.6975C42.0285 22.4623 41.8626 22.4771 41.5469 22.7426C40.4758 23.6433 39.255 23.9646 37.8844 23.6737C37.1696 23.522 36.6269 23.1107 36.2264 22.5037C36.0194 22.19 35.9329 22.1811 35.6676 22.4438C33.5959 24.4958 30.4925 24.0533 28.9507 22.4845C28.4161 21.9405 28.0732 21.2941 27.936 20.5007C27.8935 20.5541 27.8692 20.5772 27.8537 20.6051C26.888 22.3469 25.3568 23.2897 23.4517 23.6662C21.9562 23.9618 20.472 23.8907 19.0526 23.2884C17.1641 22.4871 16.1038 21.0207 15.7552 19.0252C15.532 17.7477 15.6099 16.4945 16.212 15.3181C17.0046 13.7694 18.2905 12.807 19.9307 12.3169C21.6857 11.7926 23.444 11.7904 25.1485 12.5167C26.9941 13.3032 28.0117 14.7596 28.3606 16.7051C28.4371 17.1318 28.456 17.5688 28.5027 18.0134C28.5254 17.9936 28.5615 17.97 28.5874 17.9382C29.5224 16.7876 30.7647 16.2484 32.2129 16.1542C32.6111 16.1282 33.0158 16.1991 33.4172 16.2283C33.667 16.2464 33.9417 16.3037 34.117 16.0778C34.2925 15.8515 34.2216 15.5816 34.1257 15.3368C33.709 14.2728 32.6903 13.8681 31.5711 14.3489C31.2043 14.5065 30.8751 14.751 30.5269 14.9525C30.3252 15.0692 30.1301 15.2072 29.9141 15.287C29.349 15.4955 28.9025 15.1246 29.0208 14.5328C29.0714 14.2799 29.1874 14.0239 29.3328 13.8094C29.6903 13.2819 30.2056 12.9269 30.768 12.6479C32.1673 11.9538 33.6239 11.7259 35.1329 12.2251C36.7101 12.7469 37.6286 13.9105 38.0573 15.4614C38.4117 16.7435 38.6723 18.0513 38.9948 19.3427C39.1057 19.7867 39.2634 20.2211 39.429 20.6486C39.5059 20.8474 39.6357 21.0331 39.7721 21.1997C39.9728 21.4448 40.2469 21.5216 40.558 21.4507C40.8112 21.393 40.9032 21.2029 40.77 20.9797C40.1238 19.8964 39.8956 18.7191 39.9537 17.4714C40.0688 15.0016 41.728 12.9311 44.1741 12.2331C45.554 11.8393 46.9377 11.8848 48.3099 12.2735C48.5679 12.3466 48.8171 12.4831 49.0417 12.6332C49.3726 12.8544 49.5218 13.1814 49.4119 13.5806C49.2045 14.3336 48.9883 15.0843 48.7634 15.8322C48.7178 15.9836 48.6288 16.1261 48.5397 16.2593C48.3117 16.6004 47.9476 16.737 47.5443 16.6399C47.1683 16.5493 47.0487 16.2489 46.9968 15.9179C46.9356 15.5274 46.9004 15.1327 46.8541 14.7398C46.7255 13.6483 45.9098 13.5629 45.2179 13.8238C44.724 14.01 44.4368 14.4098 44.2382 14.8755C43.9071 15.6521 43.8514 16.4727 43.9003 17.3014C43.9638 18.3784 44.2424 19.3881 44.9298 20.2474C45.455 20.9041 46.1198 21.3359 46.9737 21.4186C47.6582 21.4848 48.2816 21.2693 48.8716 20.9486C49.4674 20.6247 49.9795 20.1946 50.3978 19.6599C50.4612 19.5789 50.5067 19.4591 50.5069 19.3571C50.5127 16.5836 50.5094 13.8102 50.5142 11.0367C50.5148 10.6873 50.371 10.453 50.0571 10.3109C49.8076 10.1979 49.559 10.0823 49.3137 9.96024C49.0739 9.84094 48.8288 9.72786 48.8275 9.39335C48.8262 9.06078 49.0443 8.90049 49.298 8.77993C49.8076 8.53775 50.3249 8.31168 50.8393 8.07958C51.6625 7.70818 52.4835 7.33185 53.3111 6.97059C53.484 6.89511 53.6797 6.85089 53.8682 6.83736C54.1053 6.82033 54.2394 6.9575 54.2707 7.19676C54.2821 7.28444 54.2798 7.37421 54.2798 7.46303C54.2803 10.568 54.2802 13.673 54.2802 16.7779C54.2802 16.8648 54.2802 16.9516 54.2802 17.1073C54.5543 16.8392 54.8023 16.6257 55.0157 16.3818C55.4616 15.872 55.9057 15.3587 56.3161 14.8206C56.4767 14.6101 56.5657 14.3358 56.6487 14.0782C56.7254 13.8405 56.6128 13.6541 56.3878 13.5432C56.3084 13.5041 56.2264 13.47 56.1472 13.4303C55.8569 13.2847 55.7784 13.135 55.8165 12.8045C55.8491 12.5211 55.9714 12.3803 56.2659 12.3101C56.3745 12.2843 56.4893 12.2745 56.6013 12.2743C58.0406 12.272 59.4799 12.2716 60.9191 12.2749C61.0468 12.2752 61.1783 12.2903 61.3014 12.3232C61.7892 12.4539 61.9295 12.9452 61.5605 13.2939C61.3709 13.4732 61.139 13.6302 60.8982 13.7291C59.4267 14.3333 58.2432 15.3431 57.0855 16.3925C57.069 16.4075 57.0606 16.4316 57.0356 16.4723C58.2445 16.976 58.9591 17.9756 59.6504 19.0113C60.107 19.6952 60.604 20.3535 61.1067 21.0049C61.3315 21.2962 61.6342 21.5183 62.0314 21.5082C62.1568 21.505 62.3204 21.4575 62.3901 21.3697C62.4355 21.3126 62.3691 21.1298 62.3081 21.0307C61.0122 18.924 61.1702 16.052 62.7151 14.1713C63.7562 12.9037 65.1392 12.2468 66.7437 12.0315C67.9716 11.8667 69.1688 11.9742 70.2754 12.5757C71.6096 13.301 72.362 14.4258 72.4523 15.9529C72.4929 16.6403 72.1558 17.14 71.5215 17.3973C70.8202 17.6818 70.1061 17.9363 69.3915 18.1863C68.2506 18.5853 67.1046 18.9699 65.9382 19.3683C66.3773 20.2294 67.0125 20.8501 67.9017 21.1952C68.9435 21.5994 69.967 21.4538 70.9681 21.0493C72.2441 20.5339 73.2764 19.7002 74.07 18.578C74.1596 18.4513 74.2106 18.2707 74.2135 18.1139C74.2278 17.3298 74.21 16.5451 74.2244 15.7611C74.2312 15.389 74.1073 15.1233 73.7657 14.9578C73.5995 14.8772 73.4421 14.7752 73.2901 14.6694C72.9974 14.4655 72.9571 14.1129 73.2093 13.8587C73.32 13.7471 73.4637 13.6591 73.6068 13.5904C74.7189 13.0568 75.8344 12.5304 76.9493 12.0025C77.0147 11.9715 77.0825 11.9444 77.151 11.9211C77.671 11.7449 77.9237 11.926 77.924 12.474C77.9242 12.951 77.9238 13.4281 77.9243 13.9052C77.9244 13.9697 77.9128 14.04 77.9343 14.0973C77.9628 14.1732 78.0185 14.2388 78.0625 14.3088C78.1312 14.2643 78.228 14.2357 78.2637 14.1726C78.3945 13.9413 78.5023 13.6972 78.6236 13.4604C79.0576 12.6127 79.6988 12.0295 80.6761 11.9076C81.3369 11.8252 81.9848 11.8873 82.5809 12.215C83.0714 12.4845 83.1724 12.783 82.9743 13.303C82.6901 14.0488 82.4084 14.7955 82.1222 15.5404C81.8991 16.1211 81.5677 16.2186 81.0565 15.8575C80.8851 15.7363 80.7237 15.6 80.5467 15.488C79.9197 15.0912 79.2068 15.1321 78.6337 15.6038C78.2223 15.9423 77.9634 16.3266 77.9823 16.9216C78.0268 18.3271 78.0037 19.7351 77.9907 21.1419C77.9881 21.4328 78.0998 21.623 78.3363 21.7537C78.6325 21.9175 78.9389 22.063 79.2338 22.2289C79.4489 22.3499 79.6312 22.5058 79.6738 22.7741C79.7315 23.1388 79.5457 23.4128 79.1843 23.4831C79.113 23.497 79.0408 23.5069 78.9469 23.5196ZM22.8347 22.0649C23.6945 21.9629 24.1645 21.4286 24.3785 20.6381C24.6445 19.6553 24.6286 18.6558 24.4754 17.6592C24.3029 16.536 23.9496 15.4781 23.2095 14.5891C22.7717 14.0632 22.2461 13.6651 21.5142 13.7095C20.5709 13.7666 20.0272 14.2215 19.7824 15.1832C19.4816 16.3647 19.5451 17.552 19.8125 18.7316C20.0218 19.6553 20.3718 20.5176 21.0003 21.2425C21.4701 21.7844 22.0294 22.1503 22.8347 22.0649ZM34.4106 21.4547C35.1618 21.145 35.4019 20.7014 35.2349 19.9099C35.1534 19.5238 35.0353 19.1444 34.9715 18.7557C34.851 18.0228 34.3765 17.7894 33.811 17.7369C32.6964 17.6336 31.8519 18.2486 31.7056 19.2701C31.5436 20.401 32.1713 21.3699 33.2071 21.5667C33.6011 21.6416 33.9947 21.6045 34.4106 21.4547ZM67.0338 13.7152C66.8184 13.7972 66.5831 13.8478 66.3918 13.9681C66.0313 14.1946 65.8266 14.5574 65.6733 14.9456C65.3508 15.7623 65.3319 16.6122 65.4095 17.471C65.422 17.6088 65.4507 17.7451 65.4787 17.9259C66.4253 17.5039 67.3271 17.0966 68.2335 16.7002C68.5821 16.5478 68.7323 16.2786 68.7352 15.919C68.7407 15.2646 68.5101 14.689 68.1064 14.1831C67.8449 13.8554 67.5009 13.6849 67.0338 13.7152Z" fill="white"/>
<path id="Vector_2" d="M9.00462 6.52301C11.4627 6.52302 13.8964 6.52123 16.3302 6.52408C17.0948 6.52497 17.572 7.119 17.4017 7.84548C17.3206 8.19146 17.08 8.40558 16.773 8.53439C16.4544 8.66803 16.1191 8.76121 15.7925 8.87598C15.6027 8.94269 15.4108 9.00678 15.2281 9.09016C14.8869 9.2459 14.7255 9.50713 14.726 9.89587C14.7318 14.4076 14.7294 18.9194 14.7299 23.4312C14.73 24.4525 15.2658 24.9911 16.2823 24.9915C18.6837 24.9923 21.0852 24.9801 23.4865 24.999C24.1933 25.0046 24.8051 24.7979 25.3541 24.3801C25.7139 24.1063 26.0447 23.7939 26.409 23.5267C26.6861 23.3234 26.9805 23.1288 27.2947 22.9946C27.6366 22.8487 27.9987 22.8792 28.291 23.15C28.5849 23.4222 28.6203 23.7798 28.5185 24.1353C28.4444 24.3943 28.3275 24.6535 28.1756 24.8756C27.3914 26.0221 26.5946 27.1602 25.7919 28.2939C25.41 28.8333 24.9155 28.8627 24.4855 28.3639C24.2147 28.0499 23.9067 27.928 23.4914 27.929C18.7289 27.9395 13.9665 27.9365 9.20403 27.9328C9.00425 27.9326 8.79576 27.9197 8.60627 27.8629C7.85137 27.6365 7.63046 26.5925 8.20243 25.966C8.33759 25.818 8.50252 25.6967 8.65649 25.5664C8.75507 25.4829 8.85914 25.4059 8.95994 25.3251C9.31105 25.0433 9.46936 24.6824 9.46851 24.2271C9.46224 20.8554 9.46511 17.4837 9.46511 14.112C9.46511 12.7051 9.46536 11.2982 9.465 9.89127C9.46484 9.24529 9.2175 8.99835 8.57139 8.99821C7.48791 8.99798 6.40434 8.98955 5.32099 9.00146C4.68429 9.00845 4.20284 9.31194 3.92217 9.88149C3.6551 10.4234 3.73509 10.9518 4.09844 11.4288C4.47397 11.9218 5.11113 12.0735 5.71294 11.8258C5.90665 11.7461 6.09201 11.6431 6.29011 11.5778C6.648 11.4598 6.99155 11.5584 7.16627 11.8065C7.33692 12.0488 7.3066 12.4096 7.07063 12.7054C6.6621 13.2175 6.0884 13.4508 5.47848 13.609C3.49876 14.1224 1.57534 12.9349 1.22393 10.9306C0.972011 9.49371 1.52455 8.34857 2.70311 7.51059C3.56995 6.89424 4.56323 6.60418 5.61012 6.55705C6.73177 6.50655 7.85681 6.53117 9.00462 6.52301Z" fill="white"/>
</g>
</g>
</svg>
