<svg width="68" height="34" viewBox="0 0 68 34" fill="none" xmlns="http://www.w3.org/2000/svg">
<g id="logo-lango">
<g id="Group 4862">
<g id="Group">
<path id="Vector" opacity="0.971" fill-rule="evenodd" clip-rule="evenodd" d="M4.74183 6.05859C4.94466 6.05859 5.14749 6.05859 5.35033 6.05859C5.30207 10.9305 5.35278 15.7984 5.50245 20.6624C5.74483 21.1303 6.13356 21.3501 6.66873 21.3216C7.74992 21.3723 8.83171 21.3893 9.91402 21.3723C9.80033 22.5663 9.56363 23.7326 9.20411 24.8712C8.08854 24.9388 6.97297 24.9388 5.8574 24.8712C3.51323 24.5553 2.17793 23.22 1.85149 20.8652C1.78388 16.1664 1.78388 11.4674 1.85149 6.7685C2.81399 6.48518 3.77743 6.24854 4.74183 6.05859Z" fill="white"/>
</g>
<g id="Group_2">
<path id="Vector_2" opacity="0.967" fill-rule="evenodd" clip-rule="evenodd" d="M15.796 6.16052C19.9508 5.90481 22.5031 7.7979 23.4529 11.8398C24.0307 14.7827 23.8954 17.6899 23.0472 20.5615C21.6117 23.8745 19.0931 25.2774 15.4917 24.7703C13.1509 24.3228 11.5452 22.9875 10.6745 20.7643C9.52516 17.2824 9.52516 13.8004 10.6745 10.3186C11.6194 7.96881 13.3265 6.58279 15.796 6.16052ZM16.6073 9.10157C17.7424 9.08575 18.6044 9.55905 19.1934 10.5214C19.8573 12.1075 20.1784 13.764 20.1569 15.4907C20.1152 16.6151 19.9969 17.7307 19.8019 18.8375C19.6005 19.9348 19.0766 20.8306 18.23 21.525C16.1498 22.3295 14.7469 21.6703 14.0212 19.5474C13.2861 16.7662 13.3198 13.9943 14.1226 11.2313C14.5386 10.0196 15.3669 9.30967 16.6073 9.10157Z" fill="white"/>
</g>
<g id="Group_3">
<path id="Vector_3" opacity="0.967" fill-rule="evenodd" clip-rule="evenodd" d="M58.8935 6.16033C62.9138 6.0328 65.3985 7.9259 66.3475 11.8396C66.7774 14.166 66.8112 16.4985 66.449 18.8373C65.584 23.3836 62.8627 25.3951 58.285 24.8715C55.883 24.3289 54.2773 22.8923 53.4678 20.5613C52.4259 17.1699 52.4597 13.7893 53.5692 10.4198C54.5538 7.99715 56.3286 6.57733 58.8935 6.16033ZM59.0963 9.2028C60.4773 9.02502 61.5083 9.53209 62.1895 10.724C63.0691 13.2695 63.2719 15.8724 62.798 18.533C62.655 19.7082 62.1649 20.7055 61.3275 21.5248C59.873 22.316 58.6053 22.0964 57.5244 20.8656C56.9031 19.8005 56.5651 18.6511 56.5102 17.4174C56.3754 15.5769 56.4768 13.7514 56.8145 11.941C57.104 10.609 57.8646 9.69628 59.0963 9.2028Z" fill="white"/>
</g>
<g id="Group_4">
<path id="Vector_4" opacity="0.966" fill-rule="evenodd" clip-rule="evenodd" d="M29.2814 6.26219C30.3637 6.2453 31.4455 6.26221 32.5267 6.3129C35.0346 6.62341 36.6403 7.99252 37.344 10.4202C37.4846 11.0222 37.586 11.6307 37.6482 12.2457C37.6989 16.3022 37.7158 20.3588 37.6989 24.4156C36.5157 24.4156 35.3326 24.4156 34.1494 24.4156C34.1663 20.4603 34.1494 16.505 34.0987 12.5499C34.0554 11.5746 33.7511 10.6957 33.1859 9.91314C32.4659 9.37808 31.6545 9.14137 30.752 9.20324C30.0204 9.22808 29.2936 9.29573 28.5715 9.40607C28.5715 14.4092 28.5715 19.4124 28.5715 24.4156C27.3883 24.4156 26.2052 24.4156 25.022 24.4156C25.005 18.77 25.022 13.1246 25.0727 7.47917C25.2228 7.15844 25.4763 6.9725 25.8333 6.92139C26.9905 6.6669 28.1398 6.44717 29.2814 6.26219Z" fill="white"/>
</g>
<g id="Group_5">
<path id="Vector_5" opacity="0.966" fill-rule="evenodd" clip-rule="evenodd" d="M44.1957 6.26068C46.0482 6.1138 47.7723 6.50255 49.3678 7.42695C50.6447 8.57761 51.3715 10.0144 51.5483 11.7371C51.6624 14.7943 51.7131 17.8537 51.7004 20.9152C51.714 23.9096 51.6633 26.9014 51.5483 29.8905C50.9987 32.0613 49.5958 33.1938 47.3395 33.2879C46.9632 33.3716 46.5913 33.3547 46.224 33.2372C45.9795 32.3441 45.7429 31.4483 45.5141 30.5497C45.5551 30.4538 45.6228 30.3862 45.7169 30.3468C46.3152 30.2564 46.89 30.0874 47.4409 29.8398C47.8541 29.4805 48.0739 29.0241 48.1001 28.4707C48.1678 27.2537 48.1678 26.0367 48.1001 24.8197C46.8102 25.017 45.5087 25.0677 44.1957 24.9718C41.8087 24.7146 40.2368 23.4469 39.4798 21.1687C39.2792 20.5063 39.144 19.8303 39.0742 19.1404C39.0065 15.2529 39.0065 11.3652 39.0742 7.47766C39.3042 7.15085 39.6253 6.96493 40.0376 6.91988C41.4281 6.63166 42.8141 6.41194 44.1957 6.26068ZM43.5872 9.30314C46.6043 8.82172 48.1087 10.1062 48.1001 13.1569C48.1509 16.0301 48.1678 18.9036 48.1509 21.7772C47.4096 21.8919 46.6659 21.9934 45.9197 22.0815C44.5903 22.1529 43.6268 21.612 43.0294 20.4588C42.8143 19.9029 42.6791 19.3282 42.6237 18.7348C42.573 15.6586 42.5561 12.5824 42.573 9.50597C42.932 9.48031 43.27 9.41277 43.5872 9.30314Z" fill="white"/>
</g>
</g>
</g>
</svg>
