<svg width="126" height="31" viewBox="0 0 126 31" fill="none" xmlns="http://www.w3.org/2000/svg">
<g id="Volksbank 1" clip-path="url(#clip0_58_817)">
<path id="Vector" fill-rule="evenodd" clip-rule="evenodd" d="M63.8789 8.59668V22.3641H66.9628V18.4915H67.8235L69.9034 22.3641H73.4891L70.5488 17.2723L73.4891 12.539H70.0467L67.8235 16.1247H66.9628V8.59668H63.8789Z" fill="white"/>
<path id="Vector_2" fill-rule="evenodd" clip-rule="evenodd" d="M116.305 8.59668V22.3641H119.389V18.4915H120.249L122.329 22.3641H125.915L122.975 17.2723L125.915 12.539H122.472L120.249 16.1247H119.389V8.59668H116.305Z" fill="white"/>
<path id="Vector_3" fill-rule="evenodd" clip-rule="evenodd" d="M88.9815 12.3242C87.8336 12.3242 86.83 12.7543 86.83 12.7543V8.59668H83.7461V22.3604C83.7461 22.3604 85.5828 22.4497 87.9056 22.4497C89.8455 22.4497 92.9974 21.9887 92.9974 17.344C92.9974 12.6992 90.1295 12.3238 88.9812 12.3238L88.9815 12.3242ZM87.7623 20.0693H86.83V14.9059C86.83 14.9059 87.5323 14.619 88.1208 14.619C88.7093 14.619 89.8419 14.7564 89.8419 17.2007C89.8419 19.645 88.99 20.0693 87.7619 20.0693H87.7623Z" fill="white"/>
<path id="Vector_4" fill-rule="evenodd" clip-rule="evenodd" d="M102.677 19.9977V15.1928C102.677 14.4188 102.456 12.3242 99.0197 12.3242C96.7705 12.3242 95.2188 12.9696 95.2188 12.9696V15.2645C95.2188 15.2645 96.8193 14.6907 98.159 14.6907C99.4988 14.6907 99.5935 15.3659 99.5935 15.623V16.3401C99.5935 16.3401 97.8935 16.3669 97.1551 16.4833C96.4171 16.5998 94.2148 16.9914 94.2148 19.4956C94.2148 21.9998 95.959 22.5078 97.2271 22.5078C98.6744 22.5078 100.024 21.4322 100.024 21.4322C100.024 21.4322 100.515 22.4362 102.391 22.4362C103.013 22.4362 103.897 22.2209 103.897 22.2209V20.6432C103.897 20.6432 102.677 20.8456 102.677 19.9977ZM99.6652 19.9261C99.6652 19.9261 98.9121 20.2846 98.3743 20.2846C97.8365 20.2846 97.2987 20.2115 97.2987 19.2807C97.2987 18.2694 98.0382 18.01 98.7332 17.9898C99.4282 17.9696 99.6655 17.9898 99.6655 17.9898V19.9261H99.6652Z" fill="white"/>
<path id="Vector_5" fill-rule="evenodd" clip-rule="evenodd" d="M51.3899 12.3242C48.9236 12.3242 46.4414 13.7422 46.4414 17.5596C46.4414 21.0796 48.7832 22.5082 51.3899 22.5082C53.9966 22.5082 56.1232 20.9528 56.1232 17.5596C56.1232 14.1665 54.0984 12.3242 51.3899 12.3242ZM51.3899 20.213C50.1872 20.213 49.5969 19.306 49.5969 17.5596C49.5969 15.5117 50.1241 14.691 51.3899 14.691C52.6558 14.691 52.9677 15.7479 52.9677 17.5596C52.9677 19.2498 52.5926 20.213 51.3899 20.213Z" fill="white"/>
<path id="Vector_6" fill-rule="evenodd" clip-rule="evenodd" d="M105.199 22.3641H108.355V15.1923C108.355 15.1923 109.001 14.6902 109.932 14.6902C110.864 14.6902 111.008 15.4083 111.008 15.9094V22.3637H114.092V16.1963C114.092 14.5465 113.633 12.3237 110.936 12.3237C109.368 12.3237 108.211 13.1844 108.211 13.1844L107.853 12.539H105.271L105.199 22.3641Z" fill="white"/>
<path id="Vector_7" d="M43.8685 8.59668L40.8195 17.5082L37.7701 8.59668H34.4141L39.1238 22.3604H39.1591H42.4795H42.5152L47.2246 8.59668H43.8685Z" fill="white"/>
<path id="Vector_8" fill-rule="evenodd" clip-rule="evenodd" d="M61.8643 19.9804C61.3651 19.9804 60.961 19.5796 60.9525 19.0826C60.9525 19.0797 60.9511 19.076 60.9511 19.0731V8.59668H57.8672V19.7222C57.8672 19.7416 57.8727 19.7629 57.8742 19.7828C57.8723 19.8206 57.8672 19.8573 57.8672 19.8959C57.8672 21.2591 58.9722 22.3645 60.3358 22.3645H62.4572V19.9808H61.8643V19.9804Z" fill="white"/>
<path id="Vector_9" fill-rule="evenodd" clip-rule="evenodd" d="M77.3634 15.4077C77.3634 13.8594 81.3796 15.0492 81.3796 15.0492V12.6827C81.3796 12.6827 79.9275 12.3242 78.511 12.3242C77.0945 12.3242 74.3516 12.5285 74.3516 15.4797C74.3516 19.0426 79.0856 18.075 79.0856 19.4959C79.0856 20.9168 75.5197 19.983 74.6745 19.7597L74.7046 22.0453C75.0767 22.2121 75.9903 22.5078 77.7947 22.5078C80.3085 22.5078 82.0978 21.7474 82.0978 19.209C82.0978 15.7336 77.3638 16.6501 77.3638 15.4081L77.3634 15.4077Z" fill="white"/>
<path id="Vector_10" d="M1.91483 4.81878V26.2829C1.91483 27.4621 2.87397 28.4212 4.05316 28.4212H10.582L9.99941 30.1294H3.85773C1.84467 30.1294 0.207031 28.4914 0.207031 26.4787V4.62335C0.207031 2.61066 1.84467 0.972656 3.85773 0.972656H19.9486L19.366 2.68045H4.05316C2.87397 2.68045 1.91483 3.63996 1.91483 4.81878Z" fill="white"/>
<path id="Vector_11" d="M29.364 4.62335V26.4787C29.364 28.4914 27.726 30.1294 25.7129 30.1294H10L10.5826 28.4212H25.5175C26.6967 28.4212 27.6558 27.4621 27.6558 26.2829V4.81878C27.6558 3.63996 26.6967 2.68045 25.5175 2.68045H19.3666L19.9492 0.972656H25.7129C27.726 0.972656 29.364 2.61066 29.364 4.62335Z" fill="white"/>
<path id="Vector_12" d="M17.2752 23.353H12.3153L6.98438 7.73193H11.9439L14.7953 16.0861L17.2752 23.353Z" fill="white"/>
<path id="Vector_13" d="M22.6039 7.73193L17.2729 23.353L14.793 16.0861L17.644 7.73193H22.6039Z" fill="white"/>
</g>
<defs>
<clipPath id="clip0_58_817">
<rect width="125.706" height="29.1567" fill="white" transform="translate(0.207031 0.972656)"/>
</clipPath>
</defs>
</svg>
