<svg width="83" height="19" viewBox="0 0 83 19" fill="none" xmlns="http://www.w3.org/2000/svg">
<g id="Wu&#204;&#136;rth_logo" clip-path="url(#clip0_58_904)">
<path id="Vector" d="M58.0258 15.3612H61.5247L59.0067 11.0402C60.4002 10.4535 61.1914 9.32946 61.1914 7.84153C61.1914 5.62466 59.7362 4.16976 56.8548 4.16976H51.3304V15.3612H54.369V11.4827H55.905L58.0258 15.3612ZM58.1538 7.84153C58.1538 8.63327 57.6149 9.20387 56.4901 9.20387H54.369V6.48028H56.4901C57.6149 6.48056 58.1538 7.05006 58.1538 7.84153ZM45.8846 7.31925V10.8963C45.8846 12.5112 45.0939 13.0809 44.0647 13.0809C43.0368 13.0809 42.2289 12.5112 42.2289 10.9116V7.31925H39.1258V11.0546C39.1258 13.9983 40.7568 15.614 44.0649 15.614C47.3897 15.614 48.9896 13.9983 48.9896 11.0705V7.31925H45.8846ZM42.2292 4.16976H39.1266V6.27552H42.2292V4.16976ZM45.8846 6.2747H48.9885V4.16895H45.8846V6.2747ZM26.3349 11.5772L24.7672 4.16976H21.6797L24.53 15.3612H27.8069L29.7224 8.06376L31.6376 15.3612H34.9154L37.7643 4.16976H34.6773L33.1097 11.5772L31.1626 4.16976H28.2817L26.3349 11.5772ZM79.753 8.17433H75.9844V4.16976H72.8821V15.3612H75.9844V10.7085H79.753V15.3612H82.8709V4.16976H79.753V8.17433ZM65.22 6.60669V15.3612H68.3225V6.60669H71.2031V4.16976H62.3391V6.60669H65.22Z" fill="#FFD865"/>
<path id="Vector_2" d="M17.002 7.57924H0.964844V0.705566H7.63922V3.40841H10.3281V0.705566H17.002V7.57924Z" fill="#FFD865"/>
<path id="Vector_3" d="M10.3281 15.5646V18.2557C14.1667 17.5349 17.002 14.1916 17.002 10.4371V10.2954H0.964844V10.4371C0.964844 14.1916 3.80228 17.5349 7.63922 18.2557V15.5646H10.3281Z" fill="#FFD865"/>
</g>
<defs>
<clipPath id="clip0_58_904">
<rect width="81.9042" height="17.5502" fill="#FFD865" transform="translate(0.964844 0.705566)"/>
</clipPath>
</defs>
</svg>
