<svg width="60" height="30" viewBox="0 0 60 30" fill="none" xmlns="http://www.w3.org/2000/svg">
<g clip-path="url(#clip0_1129_24673)">
<path d="M2.15658 27.1083H3.38901L4.20431 24.7382H4.22327L5.03857 27.1083H6.27099L7.44654 23.5058H6.38476L5.62634 26.1602L4.71624 23.5058H3.7303L2.8202 26.1602L2.06178 23.5058H1L2.15658 27.1083ZM9.00129 23.1076H9.98723V22.3682H9.00129V23.1076ZM10.4044 23.1076H11.3903V22.3682H10.4044V23.1076ZM7.82575 25.781L7.84471 26.1034L7.88263 26.2361L7.92055 26.3688L7.95847 26.4826L8.01535 26.5774L8.09119 26.6722L8.16703 26.767L8.26184 26.8428L8.39456 26.8997L8.50832 26.9566L8.66001 26.9945L8.81169 27.0324L8.98233 27.0514L9.36154 27.0703H11.0111L11.3903 27.0514L11.5609 27.0324L11.7126 26.9945L11.8643 26.9566L11.997 26.8997L12.1108 26.8428L12.2246 26.767L12.3004 26.6722L12.3762 26.5774L12.4331 26.4826L12.471 26.3688L12.509 26.2361L12.5469 26.1034L12.5658 25.781V23.4679H11.4093V25.5535L11.3903 25.7052L11.3713 25.8379L11.3334 25.9517L11.2765 26.0275L11.2007 26.0844L11.068 26.1602L10.9353 26.1792H9.45634L9.32362 26.1602L9.1909 26.1034L9.11505 26.0465L9.05817 25.9706L9.02025 25.8569L8.98233 25.7242V23.4679H7.82575V25.781ZM13.95 24.3969H15.5237L15.7133 24.4159L15.7891 24.4348L15.865 24.4728L15.9218 24.5107L15.9598 24.5865L15.9787 24.6624V24.9847L15.9598 25.0605L15.9408 25.1174L15.9029 25.1743L15.846 25.2122L15.7702 25.2312L15.6943 25.2501L15.5995 25.2881H13.95V24.3969ZM12.9451 27.1083H13.95V26.1792H15.6185L15.7133 26.1982L15.7891 26.2361L15.846 26.274L15.8839 26.3498L15.9218 26.4257L15.9408 26.5395V27.1083H16.9457V26.5015L16.9267 26.3119L16.8888 26.1602L16.8509 26.0275L16.7751 25.9327L16.6803 25.8569L16.5855 25.8L16.4717 25.7621L16.3579 25.7052V25.6862L16.5096 25.6483L16.6423 25.5725L16.7561 25.4966L16.8319 25.4018L16.8888 25.2881L16.9078 25.1553L16.9267 25.0037L16.9457 24.852V24.6055L16.9267 24.359L16.8888 24.1694L16.8319 23.9988L16.7751 23.885L16.7182 23.8092L16.6613 23.7333L16.5855 23.6764L16.5096 23.6385L16.4148 23.6006L16.301 23.5627L16.1873 23.5437L15.9408 23.5058H12.9451V27.1083ZM17.306 24.3969H18.7849V27.1083H19.8087V24.3969H21.2876V23.5058H17.306V24.3969ZM22.2357 27.1083H23.2026V25.7431H25.2504V27.1083H26.2173V23.5058H25.2504V24.7951H23.2026V23.5058H22.2357V27.1083Z" fill="white" />
<path d="M27.355 27.1083H28.3788V26.1982H30.5403L30.6731 26.1793L30.7679 26.1414L30.8816 26.1034L30.9575 26.0466L31.0523 25.9897L31.1091 25.9138L31.185 25.838L31.2798 25.6673L31.3367 25.4967L31.3746 25.2881V24.5108L31.3367 24.3022L31.2987 24.1884L31.2608 24.0936L31.2039 23.9988L31.1281 23.923L31.0523 23.8471L30.9575 23.6955L30.8437 23.6386L30.7299 23.6007L30.5972 23.5627L30.4645 23.5248L30.2938 23.5059H27.355V27.1083ZM28.3788 24.397H29.8767L29.9905 24.416L30.0853 24.4349L30.1611 24.4539L30.218 24.4918L30.2559 24.5487L30.2938 24.6056L30.3128 24.6814V24.9279L30.2938 25.0606L30.2749 25.1365L30.237 25.1744L30.1801 25.2313L30.1232 25.2692L30.0474 25.2881H28.3788V24.397ZM32.2847 27.1083H33.2327V25.7432H35.2804V27.1083H36.2474V23.5059H35.2804V24.7952H33.2327V23.5059H32.2847V27.1083ZM37.0248 25.838V26.0276L37.0438 26.1793L37.0817 26.331L37.1196 26.4637L37.1765 26.5774L37.2523 26.6912L37.3282 26.7671L37.423 26.8429L37.5178 26.9187L37.6315 26.9567L37.7642 27.0135L37.897 27.0325L38.2003 27.0894H40.5704L40.8738 27.0325L41.0065 27.0135L41.1392 26.9567L41.253 26.9187L41.3667 26.8429L41.4426 26.7671L41.5374 26.6912L41.5942 26.5774L41.6511 26.4637L41.708 26.331L41.727 26.1793L41.7459 26.0276L41.7649 25.838V24.7952L41.7459 24.6056L41.727 24.4539L41.708 24.3022L41.6511 24.1695L41.5942 24.0557L41.5374 23.9609L41.4426 23.8661L41.3667 23.7903L41.253 23.7334L41.1392 23.6765L41.0065 23.6386L40.8738 23.6007L40.5704 23.5627L40.2481 23.5059H38.5416L38.2003 23.5248L37.897 23.5627L37.7642 23.6007L37.6315 23.6386L37.5178 23.6955L37.423 23.7523L37.3282 23.8282L37.2523 23.923L37.1765 24.0178L37.1196 24.1316L37.0817 24.2643L37.0438 24.416L37.0248 24.5676V25.838ZM38.1055 25.1175V24.9658L38.1245 24.8331L38.1624 24.7193L38.2383 24.6245L38.3141 24.5297L38.4279 24.4728L38.5795 24.4349H40.1912L40.3429 24.4728L40.4566 24.5297L40.5514 24.6245L40.6083 24.7193L40.6462 24.8331L40.6652 24.9658V25.6863L40.6462 25.838L40.6083 25.9518L40.5514 26.0466L40.4756 26.1224L40.3808 26.1603L40.2291 26.1982H38.5416L38.4089 26.1603L38.2951 26.1224L38.2193 26.0466L38.1624 25.9518L38.1245 25.838L38.1055 25.6863V25.1175ZM42.1441 27.1083H45.7466V26.2362H43.13V25.6673H45.557V24.9089H43.13V24.3401H45.7087V23.5059H42.1441V27.1083ZM47.0738 27.1083H48.1356V24.4918L50.1454 27.1083H51.8139V23.5059H50.7521V26.1224H50.7332L48.7234 23.5059H47.0738V27.1083ZM52.5723 27.1083H53.7099V23.5059H52.5723V27.1083ZM54.2788 27.1083H55.7008L56.8384 25.8001L57.976 27.1083H59.3981L57.7106 25.3071L59.2843 23.5059H57.9192L56.8384 24.7762L55.7577 23.5059H54.3925L55.9662 25.3071L54.2788 27.1083Z" fill="white"/>
<path d="M55.0372 20.5481H51.814V19.145H53.1602V19.6949H53.691V19.145H55.0372V20.5481ZM53.691 22.1787V22.7475L53.8427 22.7096L53.9755 22.6717L54.1082 22.6148L54.2219 22.5389L54.3357 22.4631L54.4684 22.3683L54.5632 22.2735L54.658 22.1787L54.7528 22.0649L54.8287 21.9512L54.8856 21.8374L54.9424 21.7047L54.9804 21.572L55.0183 21.4392L55.0372 21.3065V21.1359H51.814V21.1738L51.8329 21.3065L51.8519 21.4392L51.8708 21.572L51.9277 21.7047L51.9656 21.8374L52.0415 21.9512L52.1173 22.0649L52.1932 22.1787L52.288 22.2735L52.3828 22.3683L52.4965 22.4441L52.6103 22.52L52.743 22.5958L52.8757 22.6527L53.0085 22.6906L53.1412 22.7285V22.1597L53.691 22.1787Z" fill="white"/>
</g>
<g clip-path="url(#clip1_1129_24673)">
<path fill-rule="evenodd" clip-rule="evenodd" d="M11.2344 12.6508L11.6055 12.0351L12.0146 11.4371L12.4418 10.8216L12.8899 10.2476L13.338 9.69016L13.8266 9.15509L14.2941 8.63738L14.7999 8.16095L15.3055 7.704L15.8315 7.2673L16.358 6.85028L16.884 6.47203L17.4286 6.11596L17.9746 5.77744L18.5386 5.4802L19.0849 5.22251L19.6481 4.9623L20.2152 4.74395L20.7597 4.5665L21.3239 4.40698L21.8895 4.26752L22.434 4.16915L23.0005 4.10858L23.545 4.06885H24.0701L24.6161 4.08814L25.1415 4.14967L25.6473 4.22817L26.1552 4.34873L26.6615 4.50574L27.1485 4.70538L27.6161 4.92411L28.0642 5.18181L28.5117 5.46091L28.7651 5.65997L28.9993 5.83608L29.2327 6.05501L29.4668 6.25387L29.681 6.4919L29.8752 6.7114L30.0706 6.95078L30.2658 7.18957L30.4394 7.44727L30.6151 7.70477L30.9069 8.26222L31.1808 8.81715L31.4148 9.41356L31.492 9.1358L31.5498 8.83702L31.6486 8.55965L31.7258 8.30118L31.844 8.04348L31.9597 7.78424L32.0774 7.54545L32.2124 7.30762L32.3494 7.06902L32.5253 6.85105L32.6796 6.65199L32.8547 6.45293L33.0499 6.25465L33.2453 6.07719L33.4592 5.91767L33.6739 5.75835L33.9656 5.57915L34.2769 5.42214L34.5895 5.28192L34.9001 5.182L35.2307 5.10272L35.5629 5.02422L35.912 4.98448L36.2638 4.96327H36.6154L36.9646 4.98448L37.3164 5.02422L37.6852 5.10272L38.0561 5.182L38.4054 5.28192L38.7767 5.39977L39.1471 5.55929L39.5159 5.71861L39.887 5.8978L40.2361 6.09667L40.6074 6.3156L40.9591 6.55343L41.3082 6.81113L41.66 7.08869L42.0091 7.36606L42.3415 7.6849L42.6721 8.00201L43.0043 8.34053L43.3148 8.69814L43.6259 9.07388L43.9191 9.45214L44.211 9.84948L44.4831 10.2665L44.736 10.7032L44.9896 11.1214L44.659 10.763L44.3074 10.426L43.9776 10.0875L43.6259 9.79085L43.2571 9.4911L42.9065 9.19386L42.5377 8.93616L42.1665 8.67692L41.7962 8.43832L41.4276 8.22036L41.0547 8.0213L40.6836 7.84365L40.2953 7.66523L39.925 7.525L39.5346 7.38766L39.1658 7.2673L38.7947 7.16893L38.4051 7.06824L38.0362 7.01038L37.6651 6.97064L37.2963 6.92936H36.5744L36.2243 6.97064L35.8734 7.01038L35.5233 7.06824L35.1912 7.16893L34.8613 7.2673L34.5292 7.38766L34.2179 7.54468L33.9067 7.704L33.5941 7.88338L33.3022 8.10212L33.0113 8.33995L32.739 8.59765L32.4838 8.85534L32.2496 9.13503L32.0162 9.45233L31.821 9.7488L31.6281 10.0875L31.4522 10.4457L31.296 10.8216L31.2767 10.8826L31.1018 11.36L30.9474 11.9348L30.8292 12.552L30.7521 13.1886L30.6942 13.8444V14.5002L30.7328 15.1946L30.7906 15.8917L30.9064 16.5861L31.0628 17.2998L31.2387 18.0134L31.4725 18.7283L31.7447 19.4628L32.0575 20.1765L32.4076 20.8929L32.778 21.6065L33.2065 22.3009L33.5177 22.7577L30.1086 22.7789L30.0121 22.1844L29.9523 21.588L29.9138 20.9918L29.8752 20.3757L29.8559 19.8009V19.2047L29.8752 18.628L29.8945 18.073L29.9716 16.9805L30.0704 15.9474L30.1668 14.973L30.2463 14.0797L30.3042 13.2447V12.4913L30.2849 12.1528L30.2656 11.8356L30.2058 11.5581L30.1286 11.2784L30.0322 11.0404L29.9147 10.8216L29.7585 10.6233L29.5849 10.4656L29.3708 10.3261L29.1368 10.2277L28.8629 10.1467L28.5518 10.1072H28.2011L27.791 10.1265L27.4597 10.1662L27.1291 10.247L26.8179 10.3255L26.5051 10.4451L26.1752 10.5634L25.8813 10.7227L25.5707 10.882L25.2791 11.0811L24.9849 11.2778L24.694 11.5185L24.4217 11.7571L24.1493 12.0158L23.8959 12.2934L23.643 12.5906L23.3884 12.8896L23.1548 13.2057L22.9426 13.5442L22.7285 13.9019L22.5138 14.2587L22.3186 14.636L22.1429 15.0341L21.967 15.4314L21.7921 15.8467L21.657 16.2638L21.5008 16.7006L21.3851 17.1383L21.2645 17.5951L21.1681 18.0532L21.0888 18.5296L21.0116 19.0055L20.9538 19.4821L20.9152 19.9782L20.8359 19.4624L20.7588 18.9468L20.7202 18.2524L20.7009 17.5752L20.7202 16.9001L20.7588 16.2443L20.8359 15.6077L20.9347 14.9712L21.0716 14.3783L21.2279 13.7823L21.4225 13.2248L21.6372 12.6896L21.8706 12.1742L22.1242 11.6763L22.4151 11.2196L22.7287 10.7827L23.0391 10.3847L23.3886 10.0098L23.0005 10.127L22.6101 10.2476L22.239 10.3649L21.8507 10.5053L21.4804 10.6646L21.1312 10.8415L20.7794 11.0207L20.4278 11.2196L20.0784 11.4178L19.7461 11.6358L19.4155 11.8547L19.1042 12.093L18.7913 12.3507L18.4997 12.6107L18.2086 12.8684L17.9146 13.1459L17.6425 13.4432L17.3701 13.7421L17.1174 14.0398L16.884 14.3586L16.6499 14.6757L16.4165 15.0142L16.2211 15.3512L16.0072 15.7088L15.812 16.0458L15.6361 16.4231L15.4818 16.7815L15.3253 17.1574L15.1884 17.5355L15.0533 17.9328L14.9359 18.3307L14.8387 18.7283L14.8001 18.2302L14.7808 17.7347L14.8001 17.2384L14.8387 16.7427L14.8965 16.245L14.9764 15.7682L15.0921 15.2918L15.2096 14.835L15.3639 14.3783L15.5396 13.9217L15.735 13.5047L15.9489 13.0678L16.1823 12.6697L16.4165 12.2725L16.6886 11.8752L16.9805 11.5183L17.2737 11.1602L17.6043 10.8216L17.9366 10.4854L18.2858 10.1865L18.6376 9.88922L19.0257 9.61165L19.4155 9.35319L19.8061 9.13522L20.2347 8.9163L20.6633 8.71743L21.0896 8.53804L21.5378 8.37891L21.9859 8.26067L22.4535 8.14012L22.921 8.06161L23.4096 8.00066L23.8957 7.96093L24.4022 7.94164L24.8503 7.96093L25.2986 7.98021L25.7466 8.04232L26.1752 8.12083L26.6038 8.19991L27.0301 8.3197L27.4597 8.4578L27.8493 8.59726L28.1606 8.67654L28.4733 8.77645L28.7838 8.8945L29.0764 9.03454L28.5904 8.65706L28.1421 8.35982L27.6745 8.08225L27.1861 7.84365L26.7001 7.64536L26.1947 7.4465L25.6882 7.30685L25.1608 7.16893L24.6356 7.08792L24.0911 7.00961L23.545 6.96987H22.4145L21.87 7.02928L21.285 7.08715L20.721 7.18783L20.1359 7.30588L19.5719 7.46521L18.9869 7.64459L18.4229 7.84365L17.8377 8.06161L17.2544 8.32008L16.6886 8.59765L16.1246 8.89489L15.5396 9.21373L14.9957 9.57211L14.4294 9.94786L13.8846 10.3259L13.3386 10.763L12.7935 11.1999L12.2683 11.6565L11.7409 12.1528L11.2344 12.6508Z" fill="white"/>
</g>
<defs>
<clipPath id="clip0_1129_24673">
<rect width="58.3981" height="7.96337" fill="white" transform="translate(1 19.145)"/>
</clipPath>
<clipPath id="clip1_1129_24673">
<rect width="33.7553" height="18.7101" fill="white" transform="translate(11.2344 4.06885)"/>
</clipPath>
</defs>
</svg>
