<svg width="32" height="20" viewBox="0 0 32 20" fill="none" xmlns="http://www.w3.org/2000/svg">
<g clip-path="url(#clip0_2205_85)">
<path d="M28 20H32V16H28V20Z" fill="#E713FF" fill-opacity="0.2"/>
<path d="M28 4L32 4V0L28 0V4Z" fill="#E713FF" fill-opacity="0.2"/>
<path d="M24 16H28V12H24V16Z" fill="#E713FF" fill-opacity="0.2"/>
<path d="M28 12H32V8L28 8V12Z" fill="#E713FF" fill-opacity="0.2"/>
<path d="M24 8L28 8V4L24 4V8Z" fill="#E713FF" fill-opacity="0.2"/>
<path d="M20 20H24V16H20V20Z" fill="#E713FF" fill-opacity="0.2"/>
<path d="M20 4L24 4V0L20 0V4Z" fill="#E713FF" fill-opacity="0.2"/>
<path d="M16 16H20V12H16V16Z" fill="#E713FF" fill-opacity="0.2"/>
<path d="M20 12H24V8L20 8V12Z" fill="#E713FF" fill-opacity="0.2"/>
<path d="M16 8L20 8V4L16 4V8Z" fill="#E713FF" fill-opacity="0.2"/>
<path d="M12 20H16V16H12V20Z" fill="#E713FF" fill-opacity="0.2"/>
<path d="M12 4L16 4V0L12 0V4Z" fill="#E713FF" fill-opacity="0.2"/>
<path d="M8 16H12V12H8V16Z" fill="#E713FF" fill-opacity="0.2"/>
<path d="M12 12H16V8L12 8V12Z" fill="#E713FF" fill-opacity="0.2"/>
<path d="M8 8L12 8V4L8 4V8Z" fill="#E713FF" fill-opacity="0.2"/>
<path d="M4 20H8V16H4V20Z" fill="#E713FF" fill-opacity="0.2"/>
<path d="M4 4L8 4V0L4 0V4Z" fill="#E713FF" fill-opacity="0.2"/>
<path d="M0 16H4L4 12H0L0 16Z" fill="#E713FF" fill-opacity="0.2"/>
<path d="M4 12H8V8L4 8V12Z" fill="#E713FF" fill-opacity="0.2"/>
<path d="M0 8L4 8L4 4L0 4L0 8Z" fill="#E713FF" fill-opacity="0.2"/>
</g>
<defs>
<clipPath id="clip0_2205_85">
<rect width="32" height="20" fill="white"/>
</clipPath>
</defs>
</svg>
