<svg width="62" height="47" viewBox="0 0 62 47" fill="none" xmlns="http://www.w3.org/2000/svg">
<path d="M43.9626 15.6617H46.1613V17.8709V20.0801V22.2893V24.4985V26.7077V28.9169V31.126H48.36V28.9169V26.7077H50.5586V28.9169H52.7573V31.126V33.3352V35.5444H54.9503V33.3352H57.149V35.5444V37.7536V39.9628H54.9503V42.172H57.149H59.3476V44.3812H57.149H54.9503H52.7573H50.5586H48.36H46.1613H43.9626H41.764H39.5653H37.3666H35.168V46.5904H37.3666H39.5653H41.764H43.9626H46.1613H48.36H50.5586H52.7573H54.9503H57.149H59.3476H61.5463V44.3812V42.172V39.9628V37.7536V35.5444V33.3352H59.3476V31.126H57.149V28.9169H54.9503V26.7077H52.7573V24.4985V22.2893V20.0801H50.5586V17.8709V15.6617H48.36V13.4582V11.2491H46.1613V9.03987H43.9626V11.2491V13.4582V15.6617Z" fill="#B45CFF"/>
<path d="M24.1766 44.3877H21.978H19.7793V46.5968H21.978H24.1766H26.3753V44.3877H24.1766Z" fill="#B45CFF"/>
<path d="M21.9746 11.248H24.1733V13.4571V15.6606V17.8698V20.079V22.2882H26.3719H28.5706V24.4974V26.7066V28.9158H30.7693V31.1249H28.5706V33.3341V35.5433V37.7525H30.7693V35.5433V33.3341H32.9679V31.1249V28.9158H35.1666V26.7066V24.4974H32.9679V22.2882V20.079H30.7693H28.5706V17.8698V15.6606V13.4571V11.248H26.3719V9.03877H24.1733V6.82959V4.6204H21.9746V6.82959V9.03877V11.248Z" fill="#B45CFF"/>
<path d="M6.596 44.3877H4.39733H2.19866H0V46.5968H2.19866H4.39733H6.596V44.3877Z" fill="#B45CFF"/>
<path d="M4.39062 20.0803H6.58929V22.2895V24.4987H4.39062V26.7078H6.58929V28.917H8.78796V31.1262H10.9866V33.3354H8.78796V35.5446V37.7538H10.9866V35.5446H13.1853V33.3354V31.1262V28.917H15.384V26.7078V24.4987H13.1853V26.7078H10.9866V24.4987V22.2895H8.78796V20.0803V17.8711H6.58929V15.6619H4.39062V17.8711V20.0803Z" fill="#B45CFF"/>
<path d="M36.0485 31.2212V44.351H39.0632V39.3006H49.1158V36.2715H39.0632V34.2502H49.1158V31.2212H36.0485ZM35.0398 34.2559V31.2268H21.9725V34.2559H26.9988V44.3567H30.0135V34.2559H35.0398ZM7.89648 31.2212V44.351H20.9638V41.3219H10.9168V34.2559H20.9695V31.2268H7.89648V31.2212Z" fill="white"/>
<path d="M51.2292 2.08825V3.48403H46.89V5.57769H53.4016V0H43.9991V9.06172H46.1715V2.08825H51.2292ZM39.6544 6.96806V0H37.482V6.97347H36.0337V0H33.8613V9.06172H43.2638V0H41.1026V6.97347H39.6544V6.96806Z" fill="white"/>
</svg>
