<svg width="76" height="56" viewBox="0 0 76 56" fill="none" xmlns="http://www.w3.org/2000/svg">
<mask id="mask0_535_8022" style="mask-type:alpha" maskUnits="userSpaceOnUse" x="0" y="0" width="76" height="56">
<rect width="76" height="56" fill="#D9D9D9"/>
</mask>
<g mask="url(#mask0_535_8022)">
<path d="M56.4612 21.5406H58.9185V24.0096V26.4787V28.9478V31.4169V33.886V36.3551V38.8242H61.3758V36.3551V33.886H63.8332V36.3551H66.2905V38.8242V41.2933V43.7624H68.7415V41.2933H71.1988V43.7624V46.2315V48.7006H68.7415V51.1697H71.1988H73.6562V53.6387H71.1988H68.7415H66.2905H63.8332H61.3758H58.9185H56.4612H54.0038H51.5465H49.0892H46.6318V56.1078H49.0892H51.5465H54.0038H56.4612H58.9185H61.3758H63.8332H66.2905H68.7415H71.1988H73.6562H76.1135V53.6387V51.1697V48.7006V46.2315V43.7624V41.2933H73.6562V38.8242H71.1988V36.3551H68.7415V33.886H66.2905V31.4169V28.9478V26.4787H63.8332V24.0096V21.5406H61.3758V19.0778V16.6087H58.9185V14.1396H56.4612V16.6087V19.0778V21.5406Z" fill="black"/>
<mask id="mask1_535_8022" style="mask-type:alpha" maskUnits="userSpaceOnUse" x="-21" y="-9" width="116" height="81">
<path d="M94.1475 -8.90869H-20.8975V71.1395H94.1475V-8.90869Z" fill="url(#paint0_linear_535_8022)"/>
</mask>
<g mask="url(#mask1_535_8022)">
<path d="M54.0054 53.6397H56.4627H58.9201H61.3774H63.8347H66.2921H68.7431H71.2004H73.6577V51.1706H71.2004H68.7431V48.7015H71.2004V46.2324V43.7633V41.2942H68.7431V43.7633H66.2921V41.2942V38.8251V36.356H63.8347V33.887H61.3774V36.356V38.8251H58.9201V36.356V33.887V31.4179V28.9488V26.4797V24.0106V21.5415H56.4627V24.0106H54.0054V26.4797H51.5481V28.9488V31.4179H49.0907V33.887V36.356V38.8251H46.6334V41.2942V43.7633H44.1761V46.2324V48.7015H41.7188V51.1706H44.1761H46.6334H49.0907V53.6397H51.5481H54.0054Z" fill="#383838"/>
</g>
<path d="M46.6335 36.3552H44.1762V38.8243V41.2934H41.7189V43.7625V46.2316H39.2615V48.7007V51.1698V53.6389H36.8042V56.1016H39.2615H41.7189H44.1762H46.6335V53.6389H49.0909V51.1698H46.6335H44.1762H41.7189V48.7007H44.1762V46.2316V43.7625H46.6335V41.2934V38.8243H49.0909V36.3552V33.8862V31.4171H51.5482V28.948V26.4789H54.0055V24.0098H56.4629V21.5407V19.078V16.6089H54.0055V19.078H51.5482V21.5407V24.0098H49.0909V26.4789V28.948H46.6335V31.4171V33.8862V36.3552Z" fill="#888888"/>
<path d="M34.3444 53.6396H31.887H29.4297V56.1087H31.887H34.3444H36.8017V53.6396H34.3444Z" fill="black"/>
<mask id="mask2_535_8022" style="mask-type:alpha" maskUnits="userSpaceOnUse" x="-21" y="-9" width="116" height="81">
<path d="M94.1475 -8.90869H-20.8975V71.1395H94.1475V-8.90869Z" fill="url(#paint1_linear_535_8022)"/>
</mask>
<g mask="url(#mask2_535_8022)">
<path d="M34.3463 53.6384H36.8036H39.2609V51.1693V48.7002V46.2311V43.762V41.2929V38.8239H41.7183V36.3548H39.2609V33.8857V31.4166V28.9475H36.8036H34.3463V26.4784V24.0093V21.5402V19.0775V16.6084H31.8889V19.0775V21.5402H29.4316V24.0093V26.4784H26.9806V28.9475H29.4316V31.4166V33.8857V36.3548H26.9806V38.8239V41.2929V43.762H24.5233V46.2311V48.7002H22.0659V51.1693H24.5233H26.9806V53.6384H29.4316H31.8889H34.3463Z" fill="#383838"/>
</g>
<path d="M31.8892 16.6094H34.3465V19.0785V21.5412V24.0103V26.4794V28.9485H36.8038H39.2612V31.4176V33.8867V36.3558H41.7185V38.8249H39.2612V41.294V43.7631V46.2321H41.7185V43.7631V41.294H44.1758V38.8249V36.3558H46.6332V33.8867V31.4176H44.1758V28.9485V26.4794H41.7185H39.2612V24.0103V21.5412V19.0785V16.6094H36.8038V14.1403H34.3465V11.6712V9.20215H31.8892V11.6712V14.1403V16.6094Z" fill="black"/>
<path d="M24.5237 36.3559H22.0663V38.825V41.2941V43.7632H19.609V46.2323H17.1517V48.7014H19.609V51.1705H17.1517V53.6396H14.6943V56.1023H17.1517H19.609H22.0663H24.5237H26.981H29.432V53.6396H26.981V51.1705H24.5237H22.0663V48.7014H24.5237V46.2323V43.7632H26.981V41.2941V38.825V36.3559H29.432V33.8868V31.4178V28.9487H26.981V26.4796H29.432V24.0105V21.5414H31.8893V19.0787V16.6096V14.1405V11.6714H29.432V14.1405V16.6096H26.981V19.0787V21.5414V24.0105H24.5237V26.4796V28.9487V31.4178V33.8868V36.3559Z" fill="#888888"/>
<mask id="mask3_535_8022" style="mask-type:alpha" maskUnits="userSpaceOnUse" x="-21" y="-9" width="116" height="81">
<path d="M94.1475 -8.90869H-20.8975V71.1395H94.1475V-8.90869Z" fill="url(#paint2_linear_535_8022)"/>
</mask>
<g mask="url(#mask3_535_8022)">
<path d="M17.1542 51.1709H19.6115V48.7018H17.1542V46.2327V43.7636V41.2945H19.6115V38.8254H17.1542V36.3563H14.6968V33.8873H12.2395V31.4182H14.6968V28.9491V26.48H12.2395H9.78216V28.9491V31.4182H7.32482V33.8873H4.86749V36.3563V38.8254V41.2945V43.7636H2.41016V46.2327H4.86749V48.7018H7.32482V51.1709H4.86749H2.41016V53.64H4.86749H7.32482H9.78216H12.2395H14.6968H17.1542V51.1709Z" fill="#383838"/>
</g>
<path d="M14.6938 53.6396H12.2364H9.77911H7.32178V56.1087H9.77911H12.2364H14.6938V53.6396Z" fill="black"/>
<path d="M12.2368 26.4792H14.6942V28.9483V31.4174H12.2368V33.8865H14.6942V36.3556H17.1515V38.8247H19.6088V41.2937H17.1515V43.7628V46.2319H19.6088V43.7628H22.0661V41.2937V38.8247V36.3556H24.5235V33.8865V31.4174H22.0661V33.8865H19.6088V31.4174V28.9483H17.1515V26.4792V24.0101H14.6942V21.541H12.2368V24.0101V26.4792Z" fill="black"/>
<path d="M4.86389 53.6392H2.40655V51.1701H4.86389H7.32122V48.701H4.86389V46.2319H2.40655V43.7628H4.86389V41.2937V38.8247V36.3556V33.8865H7.32122V31.4174H9.77855V28.9483V26.4792H12.2359V24.0101V21.541H9.77855V24.0101H7.32122V26.4792V28.9483H4.86389V31.4174H2.40655V33.8865V36.3556V38.8247V41.2937H-0.0507812V43.7628V46.2319V48.701V51.1701V53.6392V56.1083H2.40655H4.86389H7.32122V53.6392H4.86389Z" fill="#888888"/>
<path d="M47.6212 38.9209V53.5954H50.9906V47.9509H62.2259V44.5654H50.9906V42.3064H62.2259V38.9209H47.6212ZM46.4939 42.3127V38.9273H31.8892V42.3127H37.5069V53.6018H40.8762V42.3127H46.4939ZM16.1572 38.9209V53.5954H30.7619V50.21H19.5329V42.3127H30.7682V38.9273H16.1572V38.9209Z" fill="#E7001C"/>
</g>
<path d="M64.5762 6.37202V7.932H59.7265V10.272H67.0041V4.03809H56.4955V14.1659H58.9235V6.37202H64.5762ZM51.6396 11.8259V4.03809H49.2116V11.832H47.593V4.03809H45.165V14.1659H55.6736V4.03809H53.2582V11.832H51.6396V11.8259Z" fill="#E7001C"/>
<defs>
<linearGradient id="paint0_linear_535_8022" x1="36.6246" y1="60.6759" x2="36.6246" y2="26.4812" gradientUnits="userSpaceOnUse">
<stop stop-color="white"/>
<stop offset="1"/>
</linearGradient>
<linearGradient id="paint1_linear_535_8022" x1="36.6246" y1="60.6759" x2="36.6246" y2="26.4812" gradientUnits="userSpaceOnUse">
<stop stop-color="white"/>
<stop offset="1"/>
</linearGradient>
<linearGradient id="paint2_linear_535_8022" x1="36.6282" y1="70.9819" x2="36.6282" y2="17.9146" gradientUnits="userSpaceOnUse">
<stop stop-color="white"/>
<stop offset="1"/>
</linearGradient>
</defs>
</svg>
