<svg width="113" height="30" viewBox="0 0 113 30" fill="none" xmlns="http://www.w3.org/2000/svg">
<g clip-path="url(#clip0_1129_24685)">
<path fill-rule="evenodd" clip-rule="evenodd" d="M57.3062 9.3501V21.4978H60.0272V18.0809H60.7867L62.6219 21.4978H65.7857L63.1914 17.0051L65.7857 12.8287H62.7483L60.7867 15.9925H60.0272V9.3501H57.3062Z" fill="#377D79"/>
<path fill-rule="evenodd" clip-rule="evenodd" d="M103.563 9.3501V21.4978H106.284V18.0809H107.043L108.878 21.4978H112.042L109.448 17.0051L112.042 12.8287H109.005L107.043 15.9925H106.284V9.3501H103.563Z" fill="#377D79"/>
<path fill-rule="evenodd" clip-rule="evenodd" d="M79.454 12.639C78.4411 12.639 77.5555 13.0186 77.5555 13.0186V9.3501H74.8345V21.4946C74.8345 21.4946 76.4551 21.5734 78.5046 21.5734C80.2163 21.5734 82.9974 21.1666 82.9974 17.0683C82.9974 12.97 80.4669 12.6387 79.4536 12.6387L79.454 12.639ZM78.3782 19.473H77.5555V14.917C77.5555 14.917 78.1753 14.6639 78.6945 14.6639C79.2138 14.6639 80.2131 14.7851 80.2131 16.9419C80.2131 19.0986 79.4614 19.473 78.3779 19.473H78.3782Z" fill="#377D79"/>
<path fill-rule="evenodd" clip-rule="evenodd" d="M91.54 19.4099V15.1703C91.54 14.4873 91.3448 12.6392 88.3126 12.6392C86.328 12.6392 84.9588 13.2087 84.9588 13.2087V15.2335C84.9588 15.2335 86.3711 14.7272 87.5532 14.7272C88.7353 14.7272 88.8189 15.323 88.8189 15.5498V16.1825C88.8189 16.1825 87.3188 16.2062 86.6673 16.309C86.0162 16.4117 84.073 16.7572 84.073 18.9668C84.073 21.1764 85.612 21.6247 86.7309 21.6247C88.0079 21.6247 89.1988 20.6756 89.1988 20.6756C89.1988 20.6756 89.6321 21.5615 91.2868 21.5615C91.8362 21.5615 92.6158 21.3715 92.6158 21.3715V19.9794C92.6158 19.9794 91.54 20.158 91.54 19.4099ZM88.8821 19.3467C88.8821 19.3467 88.2176 19.6631 87.7431 19.6631C87.2686 19.6631 86.7941 19.5986 86.7941 18.7772C86.7941 17.8849 87.4465 17.656 88.0598 17.6382C88.673 17.6204 88.8824 17.6382 88.8824 17.6382V19.3467H88.8821Z" fill="#377D79"/>
<path fill-rule="evenodd" clip-rule="evenodd" d="M46.2858 12.6392C44.1096 12.6392 41.9194 13.8903 41.9194 17.2587C41.9194 20.3645 43.9858 21.625 46.2858 21.625C48.5858 21.625 50.4622 20.2526 50.4622 17.2587C50.4622 14.2647 48.6756 12.6392 46.2858 12.6392ZM46.2858 19.5998C45.2246 19.5998 44.7037 18.7996 44.7037 17.2587C44.7037 15.4516 45.1688 14.7275 46.2858 14.7275C47.4027 14.7275 47.6779 15.66 47.6779 17.2587C47.6779 18.75 47.347 19.5998 46.2858 19.5998Z" fill="#377D79"/>
<path fill-rule="evenodd" clip-rule="evenodd" d="M93.7668 21.4978H96.5511V15.1698C96.5511 15.1698 97.1209 14.7267 97.9433 14.7267C98.7656 14.7267 98.8923 15.3604 98.8923 15.8025V21.4975H101.613V16.0556C101.613 14.6 101.208 12.6387 98.8291 12.6387C97.4451 12.6387 96.4244 13.3981 96.4244 13.3981L96.108 12.8286H93.8301L93.7668 21.4978Z" fill="#377D79"/>
<path d="M39.6498 9.3501L36.9595 17.2132L34.2689 9.3501H31.3076L35.4633 21.4946H35.4944H38.4242H38.4557L42.611 9.3501H39.6498Z" fill="#377D79"/>
<path fill-rule="evenodd" clip-rule="evenodd" d="M55.5295 19.3946C55.089 19.3946 54.7325 19.0409 54.7251 18.6024C54.7251 18.5998 54.7238 18.5966 54.7238 18.594V9.3501H52.0027V19.1667C52.0027 19.1839 52.0075 19.2027 52.0088 19.2202C52.0072 19.2536 52.0027 19.286 52.0027 19.32C52.0027 20.5229 52.9777 21.4982 54.1808 21.4982H56.0527V19.3949H55.5295V19.3946Z" fill="#377D79"/>
<path fill-rule="evenodd" clip-rule="evenodd" d="M69.2032 15.3599C69.2032 13.9937 72.7469 15.0436 72.7469 15.0436V12.9555C72.7469 12.9555 71.4656 12.6392 70.2158 12.6392C68.9659 12.6392 66.5457 12.8194 66.5457 15.4234C66.5457 18.5672 70.7227 17.7134 70.7227 18.9671C70.7227 20.2209 67.5764 19.3969 66.8306 19.1999L66.8571 21.2166C67.1855 21.3638 67.9916 21.6247 69.5837 21.6247C71.8017 21.6247 73.3806 20.9537 73.3806 18.714C73.3806 15.6474 69.2035 16.4561 69.2035 15.3602L69.2032 15.3599Z" fill="#377D79"/>
<path d="M2.63188 6.01669V24.9556C2.63188 25.9961 3.47818 26.8424 4.51864 26.8424H10.2794L9.76533 28.3496H4.3462C2.56997 28.3496 1.125 26.9043 1.125 25.1284V5.84425C1.125 4.06834 2.56997 2.62305 4.3462 2.62305H18.5441L18.03 4.12993H4.51864C3.47818 4.12993 2.63188 4.97655 2.63188 6.01669Z" fill="#377D79"/>
<path d="M26.8512 5.84425V25.1284C26.8512 26.9043 25.4059 28.3496 23.6297 28.3496H9.76538L10.2795 26.8424H23.4573C24.4977 26.8424 25.344 25.9961 25.344 24.9556V6.01669C25.344 4.97655 24.4977 4.12993 23.4573 4.12993H18.03L18.5441 2.62305H23.6297C25.4059 2.62305 26.8512 4.06834 26.8512 5.84425Z" fill="#377D79"/>
<path d="M16.1837 22.3702H11.8073L7.10352 8.58691H11.4796L13.9955 15.9583L16.1837 22.3702Z" fill="#377D79"/>
<path d="M20.8876 8.58691L16.1838 22.3702L13.9956 15.9583L16.5112 8.58691H20.8876Z" fill="#377D79"/>
</g>
<defs>
<clipPath id="clip0_1129_24685">
<rect width="110.917" height="25.7265" fill="white" transform="translate(1.125 2.62305)"/>
</clipPath>
</defs>
</svg>
