<svg width="74" height="30" viewBox="0 0 74 30" fill="none" xmlns="http://www.w3.org/2000/svg">
<g clip-path="url(#clip0_1129_24710)">
<path d="M68.1406 14.6369C68.1398 14.9028 68.1776 15.1757 68.1309 15.4333C67.9847 16.24 67.7138 16.9999 67.2377 17.6828C66.4046 18.8777 65.2846 19.6264 63.8571 19.9088C62.2579 20.2252 60.7919 19.8953 59.5025 18.9084C58.4244 18.0833 57.7378 16.9893 57.5114 15.6349C57.4535 15.2883 57.4141 14.9353 57.4062 14.5843C57.3749 13.1803 56.4098 11.9638 55.0389 11.6512C53.425 11.2831 51.8707 12.1932 51.3941 13.8032C51.3277 14.0276 51.2874 14.2685 51.2861 14.502C51.2772 16.2108 51.2813 17.9196 51.2813 19.6284C51.2813 19.7261 51.2813 19.8239 51.2813 19.9413C50.5158 19.9413 49.7612 19.9413 48.9726 19.9413C48.9726 19.8499 48.9726 19.7551 48.9726 19.6603C48.9726 18.0051 48.9848 16.3499 48.9675 14.695C48.9587 13.85 48.6731 13.0893 48.0681 12.4849C46.9489 11.3666 45.1723 11.2495 43.9484 12.28C43.3041 12.8225 42.9179 13.4878 42.8547 14.3263C42.818 14.8132 42.8032 15.3027 42.8005 15.7911C42.793 17.1509 42.7971 18.5108 42.7961 19.8707C42.7961 19.8879 42.7898 19.9051 42.7827 19.9416C42.032 19.9416 41.2774 19.9416 40.4894 19.9416C40.4894 19.8492 40.4894 19.7543 40.4894 19.6595C40.4894 17.9775 40.4797 16.2955 40.4935 14.6136C40.5003 13.7806 40.6752 12.9726 41.058 12.229C41.8599 10.6712 43.135 9.67174 44.8449 9.35052C46.4318 9.05244 47.9335 9.36503 49.22 10.4144C49.5333 10.6699 49.8178 10.9606 50.1153 11.235C50.3551 11.0077 50.6079 10.7523 50.8773 10.5157C51.6206 9.86297 52.4872 9.46718 53.4662 9.33225C54.296 9.21786 55.1196 9.23296 55.9302 9.48822C56.6157 9.70408 57.2285 10.0396 57.7895 10.4894C58.3361 10.9277 58.7743 11.4629 59.0765 12.0758C59.3394 12.609 59.5139 13.1979 59.6444 13.7808C59.7741 14.3604 59.7356 14.9804 59.8868 15.552C60.119 16.4305 60.7267 17.0447 61.5426 17.4304C61.9825 17.6384 62.4574 17.7333 62.9518 17.7071C64.299 17.6355 65.5287 16.5936 65.7783 15.2814C65.8157 15.0845 65.8496 14.8869 65.9143 14.6676C66.6758 14.6427 67.4082 14.6398 68.1406 14.6369Z" fill="#377D79"/>
<path d="M23.0791 10.7385C23.9857 11.6305 24.5074 12.6975 24.7017 13.9296C24.7127 13.9995 24.704 14.0725 24.704 14.144C24.7041 16.1743 24.7122 18.2046 24.7009 20.2348C24.6945 21.3931 24.2506 22.3969 23.5434 23.2965C22.6707 24.4066 21.5023 25.0097 20.1394 25.2683C19.8846 25.3167 19.6178 25.3021 19.3456 25.3172C19.3456 24.5378 19.3456 23.7713 19.3456 22.9753C20.221 23.0037 20.9599 22.6544 21.5549 22.049C22.3441 21.246 22.5056 20.2315 22.3676 19.1277C22.199 19.2177 22.0207 19.3114 21.8435 19.4075C20.9186 19.9092 19.9209 20.0977 18.8854 20.0062C17.8111 19.9113 16.8359 19.5365 15.9834 18.8453C15.0187 18.0632 14.3837 17.0803 14.1031 15.8788C13.8226 14.6783 13.9402 13.5078 14.4492 12.3777C14.7162 11.7849 15.0754 11.2485 15.538 10.806C16.3636 10.016 17.3351 9.48227 18.4905 9.32795C19.8944 9.14043 21.206 9.36164 22.3825 10.1887C22.619 10.355 22.8383 10.5457 23.0791 10.7385ZM17.2705 16.902C17.3406 16.9544 17.4108 17.0068 17.4809 17.0592C18.2398 17.6257 19.0878 17.8481 20.012 17.631C21.3985 17.3053 22.4387 16.0687 22.3989 14.5932C22.3658 13.3661 21.7792 12.4784 20.7302 11.917C19.7464 11.3906 18.7363 11.4497 17.7727 12.0174C16.857 12.5569 16.3772 13.3949 16.2843 14.4281C16.1984 15.3835 16.5818 16.1929 17.2705 16.902Z" fill="#377D79"/>
<path d="M12.14 13.8532C12.1402 15.8943 12.1402 17.9112 12.1402 19.9447C11.4226 19.9447 10.6679 19.9447 9.88976 19.9447C9.88976 19.6674 9.88976 19.3943 9.88976 19.1392C9.4007 19.3515 8.93798 19.5959 8.44786 19.7568C7.17191 20.1756 5.90584 20.1121 4.666 19.584C3.98565 19.2943 3.38207 18.8863 2.88276 18.3468C2.16684 17.5733 1.70535 16.6659 1.50403 15.6199C1.27579 14.434 1.45495 13.3048 1.9699 12.2389C2.45555 11.2337 3.21939 10.4712 4.19947 9.91406C5.21722 9.33549 6.31489 9.17821 7.44488 9.28891C8.44214 9.38661 9.34863 9.76592 10.1406 10.4103C10.9977 11.1076 11.6202 11.9555 11.9383 13.017C12.0183 13.2838 12.0733 13.5581 12.14 13.8532ZM9.61348 13.3989C9.37336 12.9457 9.08563 12.54 8.67151 12.2154C7.39313 11.2133 5.48633 11.4137 4.47105 12.6722C3.82414 13.4741 3.57129 14.3715 3.82577 15.3681C4.15909 16.6735 5.23381 17.5809 6.53762 17.6961C7.47383 17.7788 8.28046 17.4523 8.9713 16.7813C9.80706 15.9696 10.1408 14.5416 9.61348 13.3989Z" fill="#377D79"/>
<path d="M31.4692 13.5719C31.4692 10.6118 31.4692 7.67842 31.4692 4.729C32.2413 4.729 32.996 4.729 33.7644 4.729C33.7644 9.7968 33.7644 14.8581 33.7644 19.9403C33.0157 19.9403 32.2608 19.9403 31.4692 19.9403C31.4692 17.8318 31.4692 15.7153 31.4692 13.5719Z" fill="#377D79"/>
<path d="M69.067 10.3913C68.1923 9.10287 67.0407 8.19001 65.6201 7.6089C64.8177 7.28064 63.9905 7.07626 63.1184 7.07146C63.0085 7.07085 62.8988 7.02701 62.7812 7.00154C62.7812 6.24624 62.7812 5.4975 62.7812 4.72266C65.1238 4.74845 67.2275 5.45559 69.0363 6.93444C71.7885 9.18473 72.7315 12.228 72.6854 14.6298C71.9312 14.6298 71.1765 14.6298 70.4028 14.6298C70.3467 13.0986 69.9439 11.6789 69.067 10.3913Z" fill="#377D79"/>
<path d="M29.2427 19.9364C28.4823 19.9543 27.7403 19.9543 26.9788 19.9543C26.9788 16.3859 26.9788 12.8213 26.9788 9.23975C27.7296 9.23975 28.4843 9.23975 29.2584 9.23975C29.2616 9.30249 29.2675 9.36242 29.2675 9.42235C29.2679 12.8764 29.2679 16.3305 29.2676 19.7846C29.2676 19.8293 29.2633 19.8739 29.2427 19.9364Z" fill="#377D79"/>
<path d="M35.9792 14.0549C35.9792 12.437 35.9792 10.8459 35.9792 9.23877C36.7514 9.23877 37.5062 9.23877 38.2745 9.23877C38.2745 12.8034 38.2745 16.3614 38.2745 19.9402C37.5255 19.9402 36.7707 19.9402 35.9792 19.9402C35.9792 17.9926 35.9792 16.0372 35.9792 14.0549Z" fill="#377D79"/>
<path d="M68.1499 14.6179C67.4081 14.6398 66.6757 14.6427 65.9187 14.6456C65.8249 14.0506 65.6974 13.4715 65.3568 12.9665C64.7503 12.0671 63.8961 11.6096 62.792 11.5686C62.792 10.8241 62.792 10.07 62.792 9.29805C63.3045 9.21356 63.8167 9.30362 64.3083 9.45934C65.6922 9.89775 66.7837 10.7173 67.4944 12.0055C67.8614 12.6709 68.1028 13.3745 68.1403 14.1397C68.1477 14.2927 68.1531 14.4458 68.1499 14.6179Z" fill="#377D79"/>
<path d="M62.7254 13.1957C63.421 13.1518 64.0285 13.6281 64.207 14.2884C64.3686 14.8864 64.074 15.6095 63.4941 15.9185C62.6064 16.3916 61.5287 15.8043 61.4242 14.8373C61.3513 14.1624 61.5817 13.6587 62.1773 13.3403C62.3331 13.257 62.5255 13.242 62.7254 13.1957Z" fill="#377D79"/>
<path d="M35.9776 5.31375C36.4923 4.61829 37.4048 4.51409 38.0727 5.07698C38.6646 5.57573 38.7407 6.52816 38.2086 7.13294C37.7155 7.69332 36.8824 7.78517 36.2845 7.32955C35.7311 6.9078 35.4708 6.03158 35.9776 5.31375Z" fill="#377D79"/>
<path d="M27.9932 7.61174C26.7576 7.457 26.3738 6.16086 26.9147 5.34465C27.2144 4.89242 27.672 4.66724 28.2067 4.7226C28.8226 4.78637 29.2821 5.13598 29.4516 5.73929C29.7136 6.67167 29.1214 7.64948 27.9932 7.61174Z" fill="#377D79"/>
<path d="M65.8827 23.5151C66.3266 22.9003 66.9287 22.7328 67.5135 23.0686C67.8679 23.2721 68.0925 23.5754 68.0877 24.012C68.0826 24.4769 68.084 24.942 68.0872 25.407C68.0904 25.8543 67.4583 26.5208 66.9165 26.376C66.9165 26.2207 66.9165 26.0622 66.9165 25.904C67.3679 25.783 67.5232 25.5965 67.469 25.2404C66.8837 25.3423 66.3316 25.3039 65.9521 24.7727C65.6764 24.3868 65.6646 23.9621 65.8827 23.5151ZM66.3631 23.8073C66.195 24.2971 66.4873 24.7616 66.9496 24.7394C67.1896 24.7279 67.5171 24.4426 67.5489 24.2175C67.5944 23.8954 67.4018 23.5691 67.1051 23.4657C66.861 23.3806 66.5479 23.5166 66.3631 23.8073Z" fill="#377D79"/>
<path d="M52.0115 25.3821C51.2121 25.3917 50.7581 24.9868 50.6392 24.2299C50.5632 23.7457 50.9868 23.131 51.5035 22.9904C52.205 22.7997 52.8639 23.1487 53.0333 23.799C53.2155 24.4982 52.8898 25.2096 52.1055 25.3449C52.0806 25.3492 52.0583 25.3685 52.0115 25.3821ZM51.8074 24.7895C51.9093 24.7689 52.018 24.7643 52.1118 24.7245C52.3221 24.6352 52.4855 24.3338 52.4614 24.1009C52.4345 23.8402 52.2877 23.6571 52.0499 23.5699C51.7901 23.4746 51.5752 23.5813 51.4045 23.784C51.1175 24.1247 51.2993 24.6151 51.8074 24.7895Z" fill="#377D79"/>
<path d="M64.0927 23.7654C64.0544 23.9547 64.0152 24.1269 64.0093 24.3003C63.9982 24.63 64.0061 24.9603 64.0061 25.3102C63.7958 25.3102 63.5961 25.3102 63.3789 25.3102C63.3789 24.5601 63.3789 23.806 63.3789 22.9869C63.6018 23.0288 63.8117 23.075 64.0238 23.1041C64.0838 23.1123 64.154 23.0785 64.2137 23.0511C64.8495 22.7589 65.441 23.0695 65.4542 23.8179C65.4624 24.2825 65.4555 24.7474 65.4548 25.2121C65.4547 25.2384 65.4493 25.2646 65.4441 25.3103C65.2452 25.3103 65.0456 25.3103 64.8115 25.3103C64.8115 24.907 64.8129 24.4993 64.8103 24.0916C64.8098 24.004 64.823 23.8976 64.78 23.8332C64.6991 23.7117 64.5905 23.5412 64.4771 23.5277C64.3641 23.5143 64.2311 23.6683 64.0927 23.7654Z" fill="#377D79"/>
<path d="M54.8248 25.0025C54.8069 24.6052 54.8044 24.2322 54.7621 23.8638C54.7488 23.7472 54.651 23.5855 54.5528 23.5486C54.4538 23.5115 54.2458 23.5647 54.1924 23.6474C54.0799 23.8218 53.9951 24.0371 53.9752 24.243C53.9411 24.5945 53.9658 24.9517 53.9658 25.318C53.7646 25.318 53.5891 25.318 53.3943 25.318C53.3943 24.5651 53.3943 23.8114 53.3943 22.984C53.6008 23.0296 53.7973 23.0863 53.9979 23.1105C54.0731 23.1195 54.1583 23.055 54.2374 23.0203C54.6788 22.8269 55.2622 23.0134 55.3731 23.4319C55.3863 23.4816 55.4132 23.5308 55.4135 23.5804C55.4163 24.151 55.4153 24.7217 55.4153 25.3112C55.2213 25.3112 55.0396 25.3112 54.8248 25.3112C54.8248 25.2183 54.8248 25.1234 54.8248 25.0025Z" fill="#377D79"/>
<path d="M58.8637 24.6997C58.9238 24.5376 58.9999 24.392 59.0066 24.2433C59.0245 23.8448 59.0127 23.4449 59.0127 23.0337C59.2313 23.0337 59.4247 23.0337 59.6562 23.0337C59.6418 23.62 59.7275 24.2129 59.5444 24.7882C59.3862 25.2853 58.8467 25.4936 58.2341 25.3178C57.9026 25.2227 57.6298 24.9041 57.6203 24.5558C57.6068 24.0571 57.6169 23.5577 57.6169 23.04C57.8112 23.04 57.9928 23.04 58.2073 23.04C58.2073 23.41 58.2039 23.7819 58.2096 24.1536C58.2111 24.2566 58.2282 24.3629 58.2583 24.4615C58.3634 24.806 58.5105 24.8663 58.8637 24.6997Z" fill="#377D79"/>
<path d="M49.962 23.0316C50.1538 23.1714 50.3256 23.3036 50.5184 23.4519C50.3432 23.5675 50.2408 23.6568 50.1218 23.7052C50.0534 23.733 49.944 23.7193 49.8773 23.6815C49.6512 23.5534 49.4385 23.447 49.1626 23.5541C48.8046 23.6929 48.63 24.016 48.7558 24.3694C48.8723 24.6967 49.2969 24.8893 49.6215 24.7608C49.6621 24.7447 49.7084 24.729 49.7371 24.6989C49.9374 24.4885 50.1024 24.5928 50.2894 24.7324C50.4296 24.837 50.4642 24.9046 50.3211 25.0311C49.8605 25.4387 49.339 25.4704 48.7948 25.2642C48.3939 25.1123 48.1205 24.6883 48.1001 24.181C48.0684 23.3909 48.7973 22.8471 49.5261 22.9654C49.6642 22.9878 49.8033 23.0047 49.962 23.0316Z" fill="#377D79"/>
<path d="M72.4495 18.1229C72.8672 18.7483 72.7413 19.3948 72.28 19.766C71.9199 20.0559 71.5119 20.1028 71.0941 19.9277C70.6833 19.7556 70.4365 19.4341 70.3976 18.9833C70.34 18.3155 70.6886 17.9896 71.0435 17.821C71.5562 17.5776 72.0452 17.7362 72.4495 18.1229ZM71.0934 18.2434C71.2608 18.2431 71.4282 18.2428 71.5956 18.2428C72.0322 18.2428 72.1162 18.3508 72.0072 18.8065C72.0076 18.8174 72.008 18.8284 72.0084 18.8834C72.0091 19.1007 72.0097 19.3179 71.9648 19.5318C71.815 19.5459 71.7173 19.4975 71.7386 19.3273C71.7774 19.0165 71.5944 19.0268 71.3593 19.0667C71.3593 19.2223 71.3593 19.3697 71.3593 19.5223C71.2499 19.5287 71.1636 19.5337 71.0401 19.5409C71.4817 19.8003 71.7525 19.7904 72.0208 19.4902C72.1107 19.4204 72.2278 19.3681 72.2856 19.2779C72.5334 18.8912 72.3829 18.4901 72.1326 18.2379C71.8454 17.9484 71.2614 17.942 70.9752 18.2311C70.5509 18.6567 70.5667 19.227 71.0438 19.4802C71.0438 19.0572 71.0438 18.6521 71.0934 18.2434ZM71.4033 18.5176C71.3881 18.5971 71.373 18.6766 71.3575 18.758C71.799 18.8027 71.8108 18.7931 71.6883 18.5122C71.6105 18.5122 71.5303 18.5122 71.4033 18.5176Z" fill="#377D79"/>
<path d="M56.0891 23.0312C56.602 22.8385 56.9686 22.9371 57.2885 23.3394C57.1655 23.4522 57.0421 23.5654 56.9074 23.6889C56.7913 23.6404 56.6371 23.5667 56.4756 23.5168C56.4437 23.5069 56.3835 23.5888 56.318 23.6437C56.536 23.7664 56.7441 23.8736 56.942 23.997C57.2358 24.1803 57.4 24.5089 57.3388 24.7608C57.2489 25.1303 56.9889 25.3456 56.5867 25.3837C56.1868 25.4216 55.8258 25.2431 55.6875 24.9367C55.7973 24.8011 55.908 24.6644 56.0189 24.5274C56.3843 24.8413 56.541 24.8675 56.764 24.6287C56.5989 24.5206 56.4459 24.4029 56.2778 24.3134C55.7016 24.0065 55.5268 23.517 56.0891 23.0312Z" fill="#377D79"/>
<path d="M61.1605 24.2569C61.1605 24.017 61.1605 23.8038 61.1605 23.5708C61.0514 23.5626 60.9581 23.5556 60.8521 23.5477C60.8521 23.3728 60.8521 23.2082 60.8521 23.0325C60.9509 23.0256 61.0379 23.0196 61.1517 23.0117C61.1517 22.7394 61.1517 22.467 61.1517 22.1787C61.3598 22.1787 61.5415 22.1787 61.7508 22.1787C61.7508 22.4564 61.7508 22.7289 61.7508 23.0112C61.8642 23.0179 61.9511 23.0231 62.0555 23.0293C62.0555 23.1973 62.0555 23.3619 62.0555 23.5474C61.9631 23.5541 61.8698 23.5609 61.7598 23.5689C61.7598 24.1492 61.7598 24.7185 61.7598 25.3089C61.5612 25.3089 61.3794 25.3089 61.1605 25.3089C61.1605 24.9732 61.1605 24.6284 61.1605 24.2569Z" fill="#377D79"/>
<path d="M59.9792 23.0216C59.9792 22.7102 59.9792 22.4255 59.9792 22.125C60.1969 22.125 60.3966 22.125 60.6101 22.125C60.6101 23.1841 60.6101 24.2361 60.6101 25.3092C60.4155 25.3092 60.2157 25.3092 59.9792 25.3092C59.9792 24.5608 59.9792 23.8046 59.9792 23.0216Z" fill="#377D79"/>
<path d="M62.9322 25.0545C62.9276 25.158 62.923 25.2354 62.9179 25.3209C62.7069 25.3209 62.5135 25.3209 62.304 25.3209C62.304 24.5577 62.304 23.8033 62.304 23.0352C62.5039 23.0352 62.6975 23.0352 62.9322 23.0352C62.9322 23.696 62.9322 24.3622 62.9322 25.0545Z" fill="#377D79"/>
<path d="M62.7403 22.85C62.5115 22.8788 62.3101 22.8502 62.2536 22.6189C62.2142 22.4576 62.1662 22.2635 62.3495 22.1319C62.5423 21.9935 62.8138 22.0528 62.9491 22.2631C63.065 22.4431 62.9796 22.7066 62.7403 22.85Z" fill="#377D79"/>
<path d="M72.0078 18.79C72.0174 18.7921 72.0264 18.8105 72.0219 18.8341C72.0081 18.8284 72.0076 18.8174 72.0078 18.79Z" fill="#377D79"/>
</g>
<defs>
<clipPath id="clip0_1129_24710">
<rect width="72.2684" height="22.8188" fill="white" transform="translate(0.757812 4.06836)"/>
</clipPath>
</defs>
</svg>
