<svg width="74" height="30" viewBox="0 0 74 30" fill="none" xmlns="http://www.w3.org/2000/svg">
<g clip-path="url(#clip0_1129_24703)">
<path d="M51.0806 20.6138H54.1679L51.9461 16.8011C53.1756 16.2834 53.8737 15.2917 53.8737 13.9788C53.8737 12.0227 52.5898 10.739 50.0474 10.739H45.1729V20.6138H47.854V17.1916H49.2093L51.0806 20.6138ZM51.1935 13.9788C51.1935 14.6774 50.718 15.1809 49.7255 15.1809H47.854V12.7777H49.7255C50.718 12.7779 51.1935 13.2804 51.1935 13.9788ZM40.3677 13.518V16.6742C40.3677 18.0991 39.6701 18.6018 38.7619 18.6018C37.855 18.6018 37.1422 18.0991 37.1422 16.6877V13.518H34.4042V16.8139C34.4042 19.4112 35.8433 20.8368 38.7622 20.8368C41.6958 20.8368 43.1074 19.4112 43.1074 16.8279V13.518H40.3677ZM37.1424 10.739H34.4049V12.597H37.1424V10.739ZM40.3677 12.5963H43.1065V10.7383H40.3677V12.5963ZM23.118 17.275L21.7348 10.739H19.0105L21.5254 20.6138H24.4169L26.107 14.1749L27.7969 20.6138H30.6891L33.2028 10.739H30.479L29.0958 17.275L27.3777 10.739H24.8358L23.118 17.275ZM70.2517 14.2724H66.9264V10.739H64.1891V20.6138H66.9264V16.5084H70.2517V20.6138H73.0027V10.739H70.2517V14.2724ZM57.4284 12.8892V20.6138H60.1659V12.8892H62.7076V10.739H54.8865V12.8892H57.4284Z" fill="#377D79"/>
<path d="M14.8848 13.7471H0.734375V7.68213H6.62353V10.067H8.9961V7.68213H14.8848V13.7471Z" fill="#377D79"/>
<path d="M8.9961 20.7928V23.1673C12.3831 22.5314 14.8848 19.5814 14.8848 16.2686V16.1436H0.734375V16.2686C0.734375 19.5814 3.23799 22.5314 6.62353 23.1673V20.7928H8.9961Z" fill="#377D79"/>
</g>
<defs>
<clipPath id="clip0_1129_24703">
<rect width="72.2684" height="15.4854" fill="white" transform="translate(0.734375 7.68213)"/>
</clipPath>
</defs>
</svg>
