<svg width="74" height="30" viewBox="0 0 74 30" fill="none" xmlns="http://www.w3.org/2000/svg">
<path d="M69.3663 20.7521C68.141 20.7531 66.9353 20.7536 65.7295 20.753C65.3133 20.7528 65.196 20.6342 65.1956 20.2183C65.1952 19.8259 65.2045 19.4332 65.1898 19.0413C65.1852 18.9169 65.1174 18.7948 65.0785 18.6717C64.9628 18.725 64.8324 18.7592 64.7339 18.8349C64.2205 19.2294 63.7538 19.7004 63.2003 20.0243C60.8851 21.3796 58.5371 21.376 56.201 20.0581C55.9381 19.9098 55.7454 19.9462 55.519 20.1057C54.71 20.6753 53.8052 20.9434 52.8168 20.9789C51.8407 21.0139 51.049 20.6383 50.4681 19.8907C49.9367 19.2067 49.4868 18.4592 49.0027 17.7386C48.8121 17.4548 48.6339 17.1623 48.4338 16.8855C48.3529 16.7736 48.242 16.6685 48.1214 16.6035C47.8644 16.465 47.6092 16.6084 47.6048 16.8931C47.5952 17.5208 47.5984 18.1487 47.6037 18.7765C47.6056 18.9928 47.7529 19.124 47.9215 19.2281C48.1515 19.3702 48.3913 19.4969 48.6168 19.6456C48.8334 19.7884 48.9515 19.9907 48.917 20.2633C48.8846 20.5189 48.7583 20.6663 48.506 20.7151C48.3878 20.738 48.2658 20.7514 48.1454 20.7516C47.0396 20.7543 45.9337 20.7535 44.8278 20.7531C44.385 20.7529 44.2773 20.6432 44.2763 20.1937C44.2758 19.9654 44.2831 19.7367 44.2717 19.509C44.2682 19.4398 44.2285 19.3325 44.1799 19.3154C44.1165 19.2931 44.0084 19.3204 43.9533 19.3666C43.7186 19.5632 43.5038 19.7836 43.2683 19.9793C42.2649 20.8135 41.0947 21.1007 39.8157 20.9992C38.8223 20.9203 37.9135 20.5947 37.0915 20.0267C36.7913 19.8192 36.6448 19.8323 36.3663 20.0665C35.4212 20.8613 34.344 21.1448 33.1347 20.8881C32.5039 20.7542 32.0251 20.3913 31.6717 19.8558C31.489 19.5789 31.4128 19.5711 31.1787 19.8029C29.3507 21.6135 26.6124 21.2231 25.252 19.8388C24.7803 19.3588 24.4777 18.7885 24.3567 18.0884C24.3192 18.1355 24.2977 18.1558 24.2841 18.1805C23.432 19.7174 22.0809 20.5493 20.3999 20.8815C19.0803 21.1423 17.7708 21.0796 16.5184 20.5482C14.8521 19.8411 13.9165 18.5472 13.6089 16.7865C13.412 15.6593 13.4807 14.5535 14.012 13.5155C14.7113 12.149 15.8459 11.2999 17.2932 10.8674C18.8417 10.4047 20.3932 10.4028 21.8971 11.0437C23.5256 11.7376 24.4235 13.0227 24.7313 14.7394C24.7988 15.1158 24.8155 15.5014 24.8567 15.8937C24.8767 15.8762 24.9086 15.8555 24.9314 15.8274C25.7565 14.8121 26.8526 14.3364 28.1304 14.2532C28.4817 14.2303 28.8388 14.2929 29.1931 14.3186C29.4134 14.3346 29.6558 14.3852 29.8105 14.1858C29.9654 13.9861 29.9028 13.748 29.8182 13.532C29.4505 12.5932 28.5517 12.2361 27.5641 12.6603C27.2405 12.7994 26.95 13.0151 26.6427 13.1929C26.4648 13.2959 26.2926 13.4177 26.102 13.488C25.6035 13.6721 25.2095 13.3448 25.3139 12.8226C25.3585 12.5994 25.4609 12.3736 25.5892 12.1843C25.9046 11.7189 26.3593 11.4056 26.8555 11.1595C28.0902 10.547 29.3754 10.3459 30.7068 10.7864C32.0985 11.2468 32.9089 12.2735 33.2872 13.642C33.6 14.7733 33.8299 15.9272 34.1145 17.0666C34.2123 17.4584 34.3514 17.8417 34.4975 18.2189C34.5654 18.3943 34.6799 18.5582 34.8003 18.7052C34.9774 18.9214 35.2193 18.9892 35.4937 18.9266C35.7172 18.8757 35.7983 18.708 35.6808 18.511C35.1106 17.5552 34.9092 16.5164 34.9605 15.4155C35.0621 13.2363 36.526 11.4094 38.6844 10.7934C39.902 10.446 41.1229 10.4862 42.3337 10.8291C42.5613 10.8936 42.7812 11.0141 42.9794 11.1465C43.2713 11.3416 43.403 11.6302 43.306 11.9824C43.123 12.6468 42.9323 13.3092 42.7338 13.9692C42.6936 14.1027 42.615 14.2285 42.5364 14.346C42.3353 14.6469 42.014 14.7675 41.6581 14.6818C41.3263 14.6018 41.2208 14.3368 41.175 14.0448C41.121 13.7002 41.0899 13.3519 41.0491 13.0053C40.9357 12.0421 40.2159 11.9668 39.6054 12.197C39.1696 12.3613 38.9162 12.7141 38.741 13.125C38.4488 13.8102 38.3997 14.5343 38.4428 15.2655C38.4989 16.2157 38.7447 17.1067 39.3512 17.8649C39.8146 18.4443 40.4012 18.8254 41.1547 18.8983C41.7586 18.9567 42.3087 18.7665 42.8292 18.4836C43.355 18.1978 43.8068 17.8183 44.1759 17.3466C44.2319 17.2751 44.272 17.1693 44.2722 17.0793C44.2773 14.6321 44.2744 12.185 44.2786 9.73783C44.2791 9.42949 44.1523 9.22278 43.8753 9.09736C43.6551 8.99765 43.4358 8.89566 43.2194 8.78799C43.0078 8.68272 42.7915 8.58295 42.7903 8.28779C42.7892 7.99435 42.9816 7.85291 43.2055 7.74654C43.6552 7.53285 44.1116 7.33338 44.5655 7.12858C45.2918 6.80087 46.0163 6.46882 46.7465 6.15006C46.899 6.08346 47.0717 6.04444 47.238 6.0325C47.4473 6.01748 47.5656 6.13851 47.5931 6.34963C47.6032 6.42699 47.6012 6.5062 47.6012 6.58457C47.6016 9.32425 47.6015 12.0639 47.6015 14.8036C47.6015 14.8802 47.6015 14.9568 47.6015 15.0942C47.8434 14.8577 48.0623 14.6693 48.2505 14.4541C48.644 14.0043 49.0358 13.5514 49.3979 13.0766C49.5396 12.8908 49.6181 12.6488 49.6914 12.4214C49.7591 12.2117 49.6598 12.0473 49.4612 11.9495C49.3911 11.9149 49.3188 11.8848 49.2489 11.8498C48.9928 11.7213 48.9235 11.5893 48.9571 11.2976C48.9859 11.0476 49.0938 10.9233 49.3537 10.8614C49.4495 10.8386 49.5508 10.83 49.6496 10.8298C50.9195 10.8278 52.1895 10.8274 53.4594 10.8303C53.5721 10.8306 53.6881 10.8439 53.7967 10.873C54.2271 10.9883 54.3509 11.4218 54.0254 11.7295C53.858 11.8876 53.6534 12.0262 53.4409 12.1135C52.1426 12.6465 51.0983 13.5376 50.0768 14.4635C50.0622 14.4767 50.0548 14.498 50.0328 14.534C51.0995 14.9783 51.73 15.8604 52.34 16.7742C52.7429 17.3777 53.1813 17.9585 53.6249 18.5333C53.8233 18.7903 54.0904 18.9863 54.4409 18.9774C54.5515 18.9746 54.6958 18.9326 54.7574 18.8552C54.7974 18.8048 54.7388 18.6435 54.685 18.5561C53.5416 16.6972 53.6809 14.1631 55.0441 12.5036C55.9628 11.3852 57.183 10.8055 58.5987 10.6155C59.6822 10.4701 60.7385 10.565 61.715 11.0958C62.8922 11.7357 63.5561 12.7282 63.6357 14.0756C63.6716 14.6821 63.3742 15.1231 62.8145 15.3501C62.1957 15.6011 61.5656 15.8257 60.935 16.0462C59.9284 16.3984 58.9172 16.7377 57.888 17.0892C58.2754 17.849 58.8359 18.3967 59.6205 18.7012C60.5397 19.0579 61.4428 18.9294 62.3262 18.5725C63.452 18.1177 64.3629 17.3821 65.0631 16.3919C65.1422 16.2801 65.1872 16.1207 65.1898 15.9823C65.2024 15.2905 65.1867 14.5982 65.1994 13.9064C65.2054 13.578 65.096 13.3436 64.7947 13.1976C64.648 13.1265 64.5091 13.0365 64.375 12.9431C64.1167 12.7632 64.0812 12.4521 64.3037 12.2278C64.4014 12.1294 64.5281 12.0517 64.6544 11.9911C65.6357 11.5203 66.62 11.0557 67.6037 10.59C67.6614 10.5627 67.7212 10.5387 67.7817 10.5182C68.2405 10.3627 68.4635 10.5225 68.4637 11.006C68.4639 11.4269 68.4635 11.8479 68.464 12.2688C68.4641 12.3257 68.4538 12.3878 68.4728 12.4383C68.4979 12.5053 68.5471 12.5631 68.5859 12.6249C68.6466 12.5857 68.7319 12.5605 68.7634 12.5048C68.8788 12.3007 68.974 12.0853 69.081 11.8763C69.4639 11.1284 70.0297 10.6138 70.8921 10.5062C71.4751 10.4335 72.0467 10.4884 72.5728 10.7775C73.0055 11.0152 73.0947 11.2787 72.9199 11.7375C72.6691 12.3955 72.4206 13.0544 72.168 13.7117C71.9711 14.224 71.6788 14.3101 71.2277 13.9914C71.0764 13.8845 70.934 13.7642 70.7778 13.6654C70.2247 13.3153 69.5956 13.3514 69.0899 13.7676C68.727 14.0663 68.4985 14.4054 68.5151 14.9304C68.5545 16.1705 68.5341 17.4129 68.5226 18.6542C68.5203 18.9109 68.6188 19.0787 68.8275 19.194C69.0889 19.3385 69.3592 19.4669 69.6195 19.6133C69.8093 19.7201 69.9701 19.8576 70.0076 20.0943C70.0586 20.4161 69.8947 20.6579 69.5758 20.72C69.5128 20.7322 69.4492 20.7409 69.3663 20.7521ZM19.8555 19.4685C20.6142 19.3786 21.0289 18.9071 21.2177 18.2096C21.4524 17.3424 21.4383 16.4605 21.3032 15.5812C21.151 14.5901 20.8392 13.6567 20.1863 12.8723C19.8 12.4082 19.3362 12.057 18.6904 12.0961C17.858 12.1465 17.3783 12.5479 17.1623 13.3965C16.8969 14.439 16.953 15.4866 17.1888 16.5274C17.3736 17.3425 17.6824 18.1033 18.2369 18.7429C18.6515 19.221 19.1449 19.5439 19.8555 19.4685ZM30.0696 18.9302C30.7324 18.6569 30.9442 18.2654 30.7969 17.5671C30.725 17.2264 30.6208 16.8916 30.5644 16.5487C30.4582 15.902 30.0395 15.696 29.5405 15.6498C28.557 15.5586 27.8119 16.1012 27.6828 17.0026C27.5399 18.0004 28.0937 18.8553 29.0077 19.029C29.3553 19.0951 29.7025 19.0623 30.0696 18.9302ZM58.8547 12.1012C58.6646 12.1736 58.4571 12.2182 58.2882 12.3243C57.9702 12.5242 57.7895 12.8443 57.6543 13.1869C57.3697 13.9074 57.3531 14.6574 57.4215 15.4151C57.4325 15.5367 57.4579 15.657 57.4826 15.8165C58.3178 15.4441 59.1135 15.0848 59.9133 14.735C60.2209 14.6005 60.3534 14.363 60.356 14.0457C60.3608 13.4683 60.1573 12.9604 59.8011 12.514C59.5704 12.2249 59.2669 12.0744 58.8547 12.1012Z" fill="#377D79"/>
<path d="M7.65251 5.75537C9.82137 5.75537 11.9688 5.75379 14.1163 5.75631C14.7909 5.7571 15.2119 6.28124 15.0617 6.92225C14.9901 7.22753 14.7778 7.41646 14.5069 7.53012C14.2259 7.64803 13.93 7.73025 13.6418 7.83152C13.4743 7.89038 13.305 7.94693 13.1438 8.0205C12.8427 8.15792 12.7004 8.38841 12.7008 8.73142C12.7059 12.7124 12.7038 16.6934 12.7042 20.6744C12.7043 21.5755 13.1771 22.0507 14.074 22.0511C16.1929 22.0518 18.3119 22.041 20.4307 22.0577C21.0543 22.0626 21.5941 21.8803 22.0785 21.5116C22.396 21.2701 22.6879 20.9944 23.0093 20.7586C23.2539 20.5792 23.5136 20.4075 23.7908 20.2891C24.0925 20.1604 24.412 20.1873 24.67 20.4263C24.9292 20.6665 24.9605 20.982 24.8706 21.2957C24.8052 21.5241 24.7021 21.7528 24.5681 21.9488C23.8761 22.9604 23.1731 23.9646 22.4648 24.965C22.1278 25.441 21.6915 25.4668 21.3121 25.0267C21.0732 24.7496 20.8014 24.6422 20.4349 24.643C16.2328 24.6523 12.0306 24.6496 7.82847 24.6464C7.65219 24.6462 7.46822 24.6348 7.30103 24.5847C6.63494 24.3849 6.44002 23.4637 6.9447 22.9109C7.06396 22.7803 7.20948 22.6733 7.34534 22.5583C7.43233 22.4847 7.52415 22.4168 7.61309 22.3454C7.92289 22.0968 8.06258 21.7783 8.06183 21.3766C8.05629 18.4016 8.05883 15.4265 8.05883 12.4515C8.05883 11.2101 8.05905 9.96874 8.05873 8.72736C8.05859 8.15738 7.84035 7.93949 7.27025 7.93937C6.31424 7.93916 5.35815 7.93173 4.40226 7.94223C3.84045 7.94841 3.41565 8.21619 3.168 8.71873C2.93235 9.19692 3.00293 9.6631 3.32354 10.084C3.65488 10.519 4.21708 10.6528 4.74809 10.4343C4.91901 10.364 5.08257 10.2731 5.25736 10.2155C5.57314 10.1113 5.87628 10.1984 6.03044 10.4173C6.18101 10.6311 6.15426 10.9494 5.94605 11.2104C5.58558 11.6623 5.07938 11.8682 4.54122 12.0077C2.7944 12.4607 1.09726 11.4129 0.787204 9.64443C0.564918 8.37657 1.05245 7.36615 2.09236 6.62676C2.85722 6.08293 3.73364 5.82699 4.65737 5.7854C5.64706 5.74084 6.63974 5.76257 7.65251 5.75537Z" fill="#377D79"/>
</svg>
