<svg width="74" height="30" viewBox="0 0 74 30" fill="none" xmlns="http://www.w3.org/2000/svg">
<g clip-path="url(#clip0_1129_24765)">
<mask id="mask0_1129_24765" style="mask-type:luminance" maskUnits="userSpaceOnUse" x="0" y="1" width="74" height="25">
<path d="M73.0186 1H0.75V25.3483H73.0186V1Z" fill="white"/>
</mask>
<g mask="url(#mask0_1129_24765)">
<path fill-rule="evenodd" clip-rule="evenodd" d="M24.0843 16.6412C24.0843 16.0139 24.2034 15.4206 24.4418 14.862C24.6801 14.3037 25.0067 13.8169 25.4209 13.403C25.8352 12.9888 26.3214 12.6625 26.8803 12.4238C27.4385 12.1855 28.0382 12.066 28.6783 12.066C29.1426 12.066 29.5883 12.132 30.0153 12.2639C30.4417 12.3955 30.8374 12.5838 31.2012 12.8285C31.5654 13.0735 31.8885 13.3622 32.1711 13.6948C32.4535 14.0275 32.6826 14.3946 32.8581 14.7961C32.9082 14.884 32.9429 14.9783 32.962 15.0787C32.9808 15.1791 32.9903 15.2667 32.9903 15.3422C32.9903 15.5932 32.9021 15.8255 32.7265 16.039C32.5507 16.2525 32.2996 16.3589 31.9733 16.3589C31.5466 16.3589 31.2325 16.1518 31.032 15.7376C30.8437 15.2736 30.5391 14.8903 30.1188 14.589C29.6982 14.2878 29.2178 14.1371 28.6783 14.1371C28.3268 14.1371 27.9971 14.2031 27.6899 14.3347C27.3821 14.4669 27.1122 14.6456 26.8803 14.8715C26.6477 15.0975 26.466 15.3642 26.3341 15.672C26.2022 15.9794 26.1366 16.3023 26.1366 16.6412V20.727C26.1366 21.0661 26.2054 21.3892 26.3436 21.6967C26.4817 22.0044 26.6665 22.2711 26.8991 22.497C27.131 22.7226 27.4009 22.9017 27.7087 23.0336C28.0162 23.1655 28.3393 23.2312 28.6783 23.2312C29.2178 23.2312 29.6982 23.0776 30.1188 22.7701C30.5391 22.4626 30.8498 22.0765 31.0509 21.6119C31.1385 21.4363 31.2736 21.292 31.4555 21.1792C31.6375 21.0661 31.8101 21.0097 31.9733 21.0097C32.2869 21.0097 32.535 21.1164 32.7173 21.3295C32.8989 21.543 32.9903 21.775 32.9903 22.0261C32.9903 22.1768 32.9649 22.3088 32.9148 22.4216C32.7514 22.8485 32.5289 23.2378 32.2464 23.5892C31.964 23.9405 31.6407 24.245 31.2768 24.5022C30.9126 24.7596 30.5111 24.9569 30.0716 25.0954C29.632 25.2332 29.1678 25.3022 28.6783 25.3022C28.0503 25.3022 27.4573 25.1799 26.8991 24.9352C26.3402 24.6902 25.8539 24.361 25.44 23.9468C25.0255 23.5326 24.696 23.0492 24.4513 22.497C24.2066 21.9446 24.0843 21.3548 24.0843 20.727V16.6412ZM51.0275 16.6603C51.0275 16.033 51.1496 15.4397 51.3946 14.8808C51.6393 14.3225 51.9685 13.836 52.383 13.4218C52.7975 13.0075 53.2835 12.6813 53.842 12.4426C54.4009 12.2043 54.9936 12.0848 55.6216 12.0848C56.0986 12.0848 56.5565 12.154 56.9959 12.2919C57.4352 12.4302 57.8399 12.6246 58.2105 12.8756C58.5804 13.127 58.907 13.4282 59.1894 13.7796C59.4719 14.1311 59.7007 14.5204 59.8766 14.9468C59.9018 15.0098 59.9171 15.0755 59.9238 15.1446C59.9301 15.2138 59.9333 15.2858 59.9333 15.361C59.9333 15.6121 59.8453 15.8443 59.6695 16.0578C59.4936 16.2713 59.2425 16.3777 58.9165 16.3777C58.7407 16.3777 58.5648 16.3277 58.3895 16.227C58.2131 16.1267 58.0814 15.9762 57.9938 15.7752C57.7928 15.2985 57.4821 14.9092 57.0618 14.6077C56.6412 14.3066 56.1613 14.1559 55.6216 14.1559C55.2698 14.1559 54.9403 14.2219 54.6329 14.3538C54.3251 14.4854 54.0587 14.6644 53.8328 14.8903C53.6069 15.1162 53.4278 15.383 53.2962 15.6904C53.1643 15.9983 53.0986 16.3213 53.0986 16.6603V20.727C53.0986 21.0661 53.1643 21.3892 53.2962 21.6967C53.4278 22.0044 53.6098 22.2711 53.842 22.497C54.0743 22.7226 54.3442 22.9017 54.6517 23.0336C54.9591 23.1655 55.2825 23.2312 55.6216 23.2312C55.9727 23.2312 56.3022 23.1655 56.6097 23.0336C56.9175 22.9017 57.1844 22.7226 57.4103 22.497C57.6359 22.2711 57.8147 22.0044 57.9467 21.6967C58.0785 21.3892 58.1445 21.0661 58.1445 20.727V20.2185H57.1278C56.8388 20.2185 56.5972 20.1185 56.4029 19.9174C56.2082 19.7169 56.111 19.4719 56.111 19.183C56.111 18.9073 56.2082 18.6687 56.4029 18.468C56.5972 18.2672 56.8388 18.1665 57.1278 18.1665H59.18C59.4684 18.1665 59.7135 18.2637 59.9142 18.4581C60.115 18.653 60.2154 18.8943 60.2154 19.183V20.727C60.2154 21.3548 60.0932 21.9446 59.8485 22.497C59.6035 23.0492 59.274 23.5326 58.8602 23.9468C58.4459 24.361 57.9588 24.6902 57.4008 24.9352C56.842 25.1799 56.2487 25.3022 55.6216 25.3022C54.9936 25.3022 54.4009 25.1799 53.842 24.9352C53.2835 24.6902 52.7975 24.361 52.383 23.9468C51.9685 23.5326 51.6393 23.0492 51.3946 22.497C51.1496 21.9446 51.0275 21.3548 51.0275 20.727V16.6603ZM19.6973 13.5158C19.6973 13.2271 19.7977 12.9824 19.9984 12.7816C20.1992 12.5809 20.4439 12.4803 20.7329 12.4803C21.0088 12.4803 21.2506 12.5809 21.4577 12.7816C21.6649 12.9824 21.7684 13.2271 21.7684 13.5158V23.9468C21.7684 24.2355 21.6677 24.4805 21.4673 24.6809C21.2663 24.8817 21.0216 24.9823 20.7329 24.9823C20.4566 24.9823 20.2151 24.8817 20.008 24.6809C19.8009 24.4805 19.6973 24.2355 19.6973 23.9468V13.5158ZM35.1555 13.5158C35.1555 13.2271 35.2559 12.9824 35.4566 12.7816C35.6573 12.5809 35.902 12.4803 36.191 12.4803C36.4669 12.4803 36.7088 12.5809 36.9159 12.7816C37.123 12.9824 37.2266 13.2271 37.2266 13.5158V23.9468C37.2266 24.2355 37.1259 24.4805 36.9254 24.6809C36.7244 24.8817 36.4797 24.9823 36.191 24.9823C35.9147 24.9823 35.6732 24.8817 35.4661 24.6809C35.259 24.4805 35.1555 24.2355 35.1555 23.9468V13.5158ZM39.6364 16.9802C39.6364 16.3526 39.7556 15.7628 39.9942 15.2103C40.2326 14.6581 40.5591 14.1747 40.9734 13.7608C41.3873 13.3463 41.8739 13.0168 42.4327 12.7721C42.9907 12.5274 43.5839 12.405 44.2117 12.405C44.8393 12.405 45.4326 12.5274 45.9909 12.7721C46.5495 13.0168 47.036 13.3463 47.45 13.7608C47.8644 14.1747 48.1942 14.6581 48.4386 15.2103C48.6833 15.7628 48.806 16.3526 48.806 16.9802V23.9468C48.806 24.2355 48.7085 24.4805 48.5139 24.6809C48.3191 24.8817 48.0776 24.9823 47.789 24.9823C47.5127 24.9823 47.2715 24.8817 47.064 24.6809C46.8572 24.4805 46.7534 24.2355 46.7534 23.9468V16.9802C46.7534 16.6412 46.6877 16.3182 46.5558 16.0107C46.4239 15.7032 46.2423 15.4362 46.01 15.2103C45.7774 14.9843 45.5075 14.8056 45.2003 14.6737C44.8926 14.5421 44.5631 14.4762 44.2117 14.4762C43.8602 14.4762 43.5307 14.5421 43.2232 14.6737C42.9158 14.8056 42.649 14.9843 42.4229 15.2103C42.197 15.4362 42.0182 15.7032 41.8863 16.0107C41.7547 16.3182 41.6884 16.6412 41.6884 16.9802V23.9468C41.6884 24.2355 41.5912 24.4805 41.3971 24.6809C41.2022 24.8817 40.9607 24.9823 40.6722 24.9823C40.383 24.9823 40.1383 24.8817 39.9378 24.6809C39.7367 24.4805 39.6364 24.2355 39.6364 23.9468V16.9802ZM66.5606 13.0263C66.761 12.6122 67.0752 12.405 67.5021 12.405C67.7153 12.405 67.9068 12.4678 68.0763 12.5934C68.2458 12.7189 68.3681 12.8635 68.4433 13.0263L72.9248 23.5699C72.9873 23.7209 73.0185 23.8525 73.0185 23.9653C73.0185 24.2043 72.9276 24.4334 72.7457 24.6526C72.5638 24.8725 72.3152 24.9823 72.0021 24.9823C71.537 24.9823 71.2239 24.775 71.0601 24.361L69.8932 21.5746H65.1293C64.9285 22.0388 64.7313 22.5034 64.5366 22.9676C64.3419 23.4322 64.1504 23.8964 63.9622 24.361C63.8618 24.5745 63.7302 24.7312 63.5667 24.8316C63.4036 24.932 63.2216 24.9823 63.0209 24.9823C62.7067 24.9823 62.4588 24.8725 62.2769 24.6526C62.095 24.4334 62.0041 24.2043 62.0041 23.9653C62.0041 23.9028 62.0102 23.8337 62.0229 23.7585C62.0351 23.683 62.0542 23.6202 62.0794 23.5699L66.5606 13.0263ZM12.4811 4.74641C12.2311 4.62492 12.003 4.44838 11.8161 4.21866C11.1268 3.37434 11.2543 2.13141 12.0984 1.44322C12.9425 0.755384 14.1857 0.882078 14.8747 1.72639C15.5624 2.5705 15.4357 3.81344 14.5918 4.50218C14.0569 4.93697 13.3625 5.04618 12.7505 4.8536L10.9041 8.69044C11.3509 8.92175 11.7588 9.2463 12.097 9.66082C12.5155 10.1747 12.777 10.7655 12.8873 11.375L19.1804 9.82278C19.1414 9.7049 19.1161 9.5805 19.1063 9.4511C19.0421 8.5981 19.682 7.85355 20.5359 7.78905C21.3892 7.72512 22.1335 8.36491 22.198 9.21943C22.2619 10.0724 21.6221 10.817 20.7682 10.8806C20.1472 10.9274 19.5842 10.6013 19.2988 10.0915L12.928 11.6629C13.054 12.8897 12.5802 14.1547 11.5537 14.9925C11.4581 15.0702 11.3598 15.1425 11.2593 15.2094L12.5932 17.4377C12.6844 17.4145 12.7814 17.4071 12.8806 17.4185C13.3165 17.4688 13.6286 17.8636 13.5783 18.299C13.5271 18.7349 13.1337 19.0467 12.6978 18.9973C12.2619 18.9466 11.9495 18.5527 12.0001 18.1165C12.0268 17.8836 12.152 17.6859 12.3293 17.56L11.0125 15.3604C9.88357 15.9933 8.52178 15.9954 7.40587 15.4139L5.06279 18.7737C5.50605 19.1947 5.8004 19.7755 5.84949 20.4332C5.95508 21.8395 4.90131 23.0655 3.49494 23.171C2.08823 23.2768 0.86264 22.2225 0.757326 20.8158C0.651456 19.41 1.7055 18.1844 3.11277 18.0792C3.75681 18.0302 4.36307 18.2251 4.84112 18.5858L7.15366 15.2698C6.80891 15.0548 6.49324 14.7802 6.22235 14.4475C5.06195 13.0265 5.1068 11.0171 6.22728 9.65221L4.2277 8.01503C4.13558 8.11458 4.02388 8.19913 3.89468 8.26224C3.33291 8.53708 2.65548 8.30417 2.38071 7.74275C2.10614 7.18216 2.33905 6.50439 2.9002 6.22934C3.46134 5.95457 4.13912 6.18713 4.41389 6.74827C4.57933 7.0874 4.5603 7.46909 4.39556 7.77864L6.41938 9.43568C6.5265 9.32385 6.64167 9.21735 6.76469 9.11704C7.89183 8.19844 9.38949 8.03613 10.6423 8.56742L12.4811 4.74641ZM67.5021 16.0199C67.3639 16.3213 67.2351 16.6129 67.116 16.8955C66.9968 17.1781 66.8741 17.4572 66.7486 17.7332C66.6233 18.0098 66.4978 18.292 66.3722 18.5808C66.2467 18.8694 66.1148 19.1769 65.9768 19.5035H69.0083L67.5021 16.0199Z" fill="#377D79"/>
</g>
</g>
<defs>
<clipPath id="clip0_1129_24765">
<rect width="72.2684" height="24.3482" fill="white" transform="translate(0.75 1)"/>
</clipPath>
</defs>
</svg>
