<svg width="59" height="30" viewBox="0 0 59 30" fill="none" xmlns="http://www.w3.org/2000/svg">
<path opacity="0.971" fill-rule="evenodd" clip-rule="evenodd" d="M3.36067 5.3457C3.53964 5.3457 3.71861 5.3457 3.89758 5.3457C3.855 9.64444 3.89974 13.9397 4.0318 18.2314C4.24567 18.6443 4.58866 18.8382 5.06087 18.8131C6.01486 18.8578 6.96939 18.8728 7.92437 18.8578C7.82405 19.9113 7.6152 20.9404 7.29798 21.945C6.31365 22.0047 5.32932 22.0047 4.345 21.945C2.27661 21.6664 1.0984 20.4881 0.810369 18.4104C0.75071 14.2643 0.75071 10.1182 0.810369 5.97209C1.65963 5.7221 2.50973 5.51331 3.36067 5.3457Z" fill="#377D79"/>
<path opacity="0.967" fill-rule="evenodd" clip-rule="evenodd" d="M13.1155 5.43518C16.7815 5.20955 19.0335 6.87993 19.8715 10.4463C20.3814 13.0429 20.2621 15.6082 19.5136 18.1419C18.247 21.0651 16.0247 22.303 12.847 21.8555C10.7816 21.4607 9.36475 20.2825 8.59653 18.3209C7.58241 15.2486 7.58241 12.1763 8.59653 9.10403C9.43026 7.03072 10.9365 5.80777 13.1155 5.43518ZM13.8314 8.03022C14.8329 8.01626 15.5935 8.43388 16.1132 9.283C16.699 10.6825 16.9823 12.1442 16.9633 13.6677C16.9265 14.6598 16.8222 15.6442 16.6501 16.6207C16.4724 17.5889 16.0101 18.3793 15.2631 18.992C13.4277 19.7019 12.1899 19.1203 11.5495 17.2471C10.9008 14.7932 10.9306 12.3473 11.639 9.90939C12.0061 8.84023 12.7369 8.21384 13.8314 8.03022Z" fill="#377D79"/>
<path opacity="0.967" fill-rule="evenodd" clip-rule="evenodd" d="M51.1427 5.43501C54.69 5.32249 56.8824 6.99286 57.7198 10.4461C58.0991 12.4988 58.1289 14.5569 57.8093 16.6205C57.0461 20.632 54.6449 22.4069 50.6058 21.9449C48.4864 21.4661 47.0696 20.1985 46.3553 18.1418C45.436 15.1493 45.4658 12.1665 46.4448 9.19335C47.3136 7.05573 48.8796 5.80296 51.1427 5.43501ZM51.3217 8.11954C52.5402 7.96268 53.4499 8.4101 54.0509 9.4618C54.827 11.7078 55.006 14.0045 54.5878 16.3521C54.4617 17.389 54.0292 18.269 53.2903 18.9919C52.0069 19.69 50.8884 19.4962 49.9347 18.4102C49.3865 17.4705 49.0882 16.4562 49.0398 15.3678C48.9208 13.7437 49.0103 12.133 49.3083 10.5356C49.5638 9.36033 50.2349 8.55497 51.3217 8.11954Z" fill="#377D79"/>
<path opacity="0.966" fill-rule="evenodd" clip-rule="evenodd" d="M25.0139 5.52512C25.9689 5.51022 26.9234 5.52513 27.8774 5.56986C30.0903 5.84384 31.5071 7.05188 32.1279 9.19397C32.2521 9.72515 32.3415 10.2621 32.3964 10.8047C32.4411 14.384 32.4561 17.9633 32.4411 21.5428C31.3971 21.5428 30.3532 21.5428 29.3092 21.5428C29.3241 18.0528 29.3092 14.5629 29.2644 11.0731C29.2262 10.2126 28.9578 9.43701 28.4591 8.74655C27.8237 8.27443 27.1079 8.06557 26.3115 8.12016C25.666 8.14208 25.0247 8.20177 24.3876 8.29913C24.3876 12.7137 24.3876 17.1283 24.3876 21.5428C23.3435 21.5428 22.2996 21.5428 21.2556 21.5428C21.2407 16.5614 21.2556 11.5802 21.3003 6.59893C21.4328 6.31592 21.6565 6.15186 21.9715 6.10676C22.9925 5.88221 24.0066 5.68833 25.0139 5.52512Z" fill="#377D79"/>
<path opacity="0.966" fill-rule="evenodd" clip-rule="evenodd" d="M38.1731 5.5247C39.8077 5.3951 41.3289 5.73812 42.7368 6.55377C43.8634 7.56906 44.5047 8.83678 44.6607 10.3568C44.7614 13.0544 44.8061 15.7538 44.7949 18.4552C44.8069 21.0973 44.7622 23.7371 44.6607 26.3745C44.1758 28.2899 42.9379 29.2892 40.9471 29.3722C40.615 29.4461 40.2869 29.4312 39.9628 29.3275C39.7471 28.5395 39.5384 27.7491 39.3364 26.9562C39.3726 26.8716 39.4323 26.8119 39.5154 26.7772C40.0433 26.6974 40.5504 26.5483 41.0366 26.3298C41.4011 26.0127 41.5951 25.6101 41.6182 25.1217C41.6779 24.0479 41.6779 22.9741 41.6182 21.9003C40.4801 22.0744 39.3316 22.1191 38.1731 22.0345C36.067 21.8076 34.68 20.6891 34.0121 18.6789C33.8351 18.0944 33.7158 17.4979 33.6541 16.8892C33.5945 13.459 33.5945 10.0287 33.6541 6.59851C33.8571 6.31015 34.1404 6.1461 34.5042 6.10635C35.7312 5.85204 36.954 5.65817 38.1731 5.5247ZM37.6362 8.20923C40.2983 7.78445 41.6258 8.91785 41.6182 11.6096C41.663 14.1448 41.6779 16.6803 41.663 19.2158C41.0089 19.317 40.3527 19.4065 39.6943 19.4842C38.5213 19.5472 37.6712 19.07 37.144 18.0525C36.9542 17.5619 36.8349 17.0548 36.7861 16.5313C36.7413 13.817 36.7264 11.1027 36.7413 8.3882C37.0581 8.36556 37.3564 8.30596 37.6362 8.20923Z" fill="#377D79"/>
</svg>
