<svg width="267" height="844" viewBox="0 0 267 844" fill="none" xmlns="http://www.w3.org/2000/svg">
<path d="M229.312 844L229.312 836.444L221.8 836.444L221.8 828.933L214.245 828.933L214.245 821.378L214.245 813.822L206.689 813.822L206.689 806.311L206.689 798.755L206.689 791.244L214.245 791.244L214.245 783.688L219.401 783.688L219.401 776.177L214.245 776.177L214.245 768.622L214.245 761.111L214.245 753.555L221.8 753.555L221.8 761.111L229.312 761.111L236.867 761.111L244.378 761.111L244.378 768.622L251.934 768.622L251.934 761.111L244.378 761.111L244.378 753.555L236.867 753.555L229.312 753.555L221.8 753.555L221.8 746.044L229.312 746.044L236.867 746.044L244.378 746.044L251.934 746.044L251.934 738.488L244.378 738.488L236.867 738.488L229.312 738.488L229.312 730.933L221.8 730.933L214.245 730.933L214.245 723.422L206.689 723.422L206.689 730.933L214.245 730.933L214.245 738.488L206.689 738.488L199.178 738.488L191.623 738.488L191.623 746.044L191.623 753.555L196.778 753.555L196.778 761.111L189.267 761.111L189.267 753.555L184.111 753.555L184.111 746.044L184.111 738.488L176.556 738.488L176.556 730.933L169.044 730.933L161.489 730.933L161.489 738.488L153.978 738.488L153.978 730.933L146.422 730.933L138.911 730.933L131.355 730.933L131.355 723.422L131.355 715.866L138.911 715.866L138.911 708.355L146.422 708.355L146.422 700.799L138.911 700.799L138.911 693.288L138.911 685.733L138.911 678.221L146.422 678.221L146.422 670.666L138.911 670.666L138.911 663.154L146.422 663.154L146.422 655.599L146.422 648.044L146.422 640.532L146.422 632.977L138.911 632.977L131.355 632.977L131.355 625.465L131.355 617.91L131.355 610.399L138.911 610.399L138.911 617.91L146.422 617.91L153.978 617.91L159.089 617.91L159.089 610.399L166.645 610.399L166.645 602.843L166.645 595.332L159.089 595.332L159.089 587.776L151.578 587.776L151.578 595.332L144.022 595.332L144.022 602.843L136.511 602.843L136.511 595.332L128.956 595.332L128.956 602.843L121.444 602.843L121.444 595.332L121.444 587.776L121.444 580.266L121.444 572.71L128.956 572.71L128.956 580.266L128.956 587.776L136.511 587.776L136.511 580.266L144.022 580.266L151.578 580.266L159.089 580.266L166.645 580.266L166.645 587.776L174.156 587.776L174.156 595.332L181.712 595.332L189.267 595.332L189.267 602.843L196.778 602.843L204.334 602.843L204.334 610.399L204.334 617.91L196.778 617.91L196.778 610.399L189.267 610.399L181.712 610.399L181.712 602.843L174.156 602.843L174.156 610.399L181.712 610.399L181.712 617.91L174.156 617.91L166.645 617.91L161.489 617.91L161.489 625.465L169.044 625.465L169.044 632.977L161.489 632.977L161.489 640.532L161.489 648.044L166.645 648.044L166.645 640.532L174.156 640.532L174.156 648.044L169.044 648.044L169.044 655.599L176.556 655.599L176.556 648.044L184.111 648.044L184.111 655.599L184.111 663.154L176.556 663.154L176.556 670.666L184.111 670.666L191.623 670.666L191.623 663.154L199.178 663.154L206.689 663.154L206.689 655.599L199.178 655.599L199.178 648.044L206.689 648.044L206.689 640.532L199.178 640.532L199.178 648.044L191.623 648.044L191.623 640.532L184.111 640.532L176.556 640.532L176.556 632.977L176.556 625.465L181.712 625.465L181.712 617.91L189.267 617.91L196.778 617.91L196.778 625.465L189.267 625.465L184.111 625.465L184.111 632.977L191.623 632.977L199.178 632.977L199.178 625.465L206.689 625.465L206.689 617.91L214.245 617.91L214.245 610.399L214.245 602.843L206.689 602.843L206.689 595.332L199.178 595.332L191.623 595.332L191.623 587.776L184.111 587.776L176.556 587.776L176.556 580.266L176.556 572.71L176.556 565.154L184.111 565.154L184.111 557.643L184.111 550.088L189.267 550.088L189.267 542.576L181.712 542.576L174.156 542.576L166.645 542.576L166.645 535.021L166.645 527.51L174.156 527.51L174.156 535.021L181.712 535.021L189.267 535.021L189.267 527.51L196.778 527.51L196.778 519.954L196.778 512.443L189.267 512.443L189.267 519.954L189.267 527.51L181.712 527.51L181.712 519.954L181.712 512.443L174.156 512.443L166.645 512.443L166.645 504.887L159.089 504.887L159.089 512.443L166.645 512.443L166.645 519.954L159.089 519.954L151.578 519.954L151.578 512.443L151.578 504.887L151.578 497.376L151.578 489.82L159.089 489.82L159.089 497.376L166.645 497.376L174.156 497.376L174.156 504.887L181.712 504.887L189.267 504.887L196.778 504.887L196.778 497.376L196.778 489.82L196.778 482.265L204.334 482.265L211.845 482.265L219.4 482.265L219.4 489.82L211.845 489.82L204.334 489.82L204.334 497.376L211.845 497.376L219.4 497.376L219.4 489.82L226.911 489.82L226.911 497.376L234.467 497.376L234.467 504.887L226.911 504.887L219.4 504.887L219.4 512.443L211.845 512.443L211.845 519.954L204.334 519.954L204.334 527.51L204.334 535.021L196.778 535.021L196.778 542.576L204.334 542.576L204.334 550.088L211.845 550.088L211.845 557.643L204.334 557.643L199.178 557.643L199.178 565.154L206.689 565.154L206.689 572.71L206.689 580.266L214.245 580.266L214.245 587.776L214.245 595.332L221.8 595.332L221.8 587.776L221.8 580.266L221.8 572.71L229.312 572.71L236.867 572.71L236.867 580.266L229.312 580.266L229.312 587.776L229.312 595.332L234.467 595.332L234.467 587.776L241.978 587.776L241.978 595.332L236.867 595.332L236.867 602.843L229.312 602.843L229.312 610.399L236.867 610.399L236.867 602.843L241.978 602.843L241.978 595.332L249.534 595.332L249.534 587.776L249.534 580.266L241.978 580.266L241.978 572.71L241.978 565.154L249.534 565.154L257.045 565.154L257.045 557.643L249.534 557.643L241.978 557.643L241.978 550.088L249.534 550.088L249.534 542.576L241.978 542.576L241.978 550.088L234.467 550.088L234.467 542.576L234.467 535.021L226.911 535.021L226.911 527.51L219.4 527.51L219.4 535.021L211.845 535.021L211.845 527.51L211.845 519.954L219.4 519.954L219.4 512.443L226.911 512.443L234.467 512.443L241.978 512.443L249.534 512.443L249.534 519.954L257.045 519.954L257.045 527.51L249.534 527.51L241.978 527.51L241.978 519.954L234.467 519.954L234.467 527.51L241.978 527.51L241.978 535.021L249.534 535.021L257.045 535.021L257.045 542.576L264.6 542.576L264.6 572.71L257.045 572.71L257.045 580.266L264.6 580.266L264.6 595.332L257.045 595.332L257.045 602.843L249.534 602.843L244.378 602.843L244.378 610.399L251.934 610.399L257.045 610.399L257.045 602.843L264.6 602.843L264.6 610.399L259.445 610.399L259.445 617.91L264.6 617.91L264.6 640.532L257.045 640.532L249.534 640.532L249.534 632.977L249.534 625.465L244.378 625.465L236.867 625.465L236.867 617.91L229.312 617.91L221.8 617.91L221.8 625.465L214.245 625.465L214.245 632.977L221.8 632.977L221.8 640.532L221.8 648.044L221.8 655.599L226.911 655.599L226.911 663.154L219.401 663.154L219.401 655.599L214.245 655.599L214.245 663.154L214.245 670.666L214.245 678.221L219.401 678.221L219.401 670.666L226.911 670.666L226.911 678.221L234.467 678.221L234.467 685.733L241.978 685.733L241.978 678.221L241.978 670.666L249.534 670.666L257.045 670.666L264.6 670.666L264.6 700.799L257.045 700.799L257.045 708.355L264.6 708.355L264.6 730.933L259.445 730.933L259.445 738.488L259.445 746.044L267.001 746.044L267.001 768.622L259.445 768.622L259.445 776.177L259.445 783.688L267.001 783.688L267.001 813.822L259.445 813.822L259.445 806.311L259.445 798.755L259.445 791.244L251.934 791.244L244.378 791.244L244.378 798.755L236.867 798.755L229.312 798.755L229.312 806.311L234.467 806.311L234.467 813.822L229.312 813.822L229.312 821.378L229.312 828.933L236.867 828.933L244.378 828.933L244.378 821.378L251.934 821.378L251.934 813.822L259.445 813.822L259.445 821.378L267.001 821.378L267.001 844" fill="#377D79" fill-opacity="0.5"/>
<path d="M259.441 844L259.441 836.444L251.93 836.444L251.93 844" fill="#377D79" fill-opacity="0.5"/>
<path d="M211.845 844L211.845 836.444L219.401 836.444L219.401 844" fill="#377D79" fill-opacity="0.5"/>
<path d="M199.178 844L199.178 836.444L206.689 836.444L206.689 844" fill="#377D79" fill-opacity="0.5"/>
<path d="M153.978 844L153.978 836.444L161.488 836.444L161.488 828.933L169.044 828.933L169.044 836.444L176.555 836.444L176.555 828.933L184.111 828.933L191.622 828.933L191.622 821.378L199.177 821.378L199.177 828.933L199.177 836.444L191.622 836.444L184.111 836.444L184.111 844" fill="#377D79" fill-opacity="0.5"/>
<path d="M251.93 617.911L251.93 625.467L257.085 625.467L257.085 617.911L251.93 617.911Z" fill="#377D79" fill-opacity="0.5"/>
<path d="M191.626 550.089L191.626 557.645L196.781 557.645L196.781 550.089L191.626 550.089Z" fill="#377D79" fill-opacity="0.5"/>
<path d="M199.175 580.265L199.175 572.709L191.62 572.709L184.108 572.709L184.108 580.265L191.62 580.265L199.175 580.265Z" fill="#377D79" fill-opacity="0.5"/>
<path d="M221.793 700.801L221.793 708.357L226.949 708.357L226.949 700.801L221.793 700.801Z" fill="#377D79" fill-opacity="0.5"/>
<path d="M214.246 708.356L206.69 708.356L206.69 700.8L206.69 693.289L199.179 693.289L199.179 700.8L199.179 708.356L206.69 708.356L206.69 715.867L214.246 715.867L214.246 708.356Z" fill="#377D79" fill-opacity="0.5"/>
<path d="M249.534 685.732L249.534 693.288L257.045 693.288L257.045 685.732L257.045 678.221L249.534 678.221L249.534 685.732Z" fill="#377D79" fill-opacity="0.5"/>
<path d="M214.244 685.73L214.244 693.285L214.244 700.797L219.4 700.797L219.4 693.285L219.4 685.73L214.244 685.73Z" fill="#377D79" fill-opacity="0.5"/>
<path d="M184.108 685.732L184.108 693.288L191.664 693.288L191.664 685.732L184.108 685.732Z" fill="#377D79" fill-opacity="0.5"/>
<path d="M199.179 678.224L199.179 685.736L206.69 685.736L211.845 685.736L211.845 678.224L206.69 678.224L199.179 678.224Z" fill="#377D79" fill-opacity="0.5"/>
<path d="M153.975 693.288L153.975 685.732L161.486 685.732L161.486 678.221L169.041 678.221L169.041 670.666L169.041 663.154L161.486 663.154L153.975 663.154L153.975 670.666L161.486 670.666L161.486 678.221L153.975 678.221L153.975 685.732L146.419 685.732L146.419 693.288L153.975 693.288Z" fill="#377D79" fill-opacity="0.5"/>
<path d="M199.175 723.424L191.619 723.424L191.619 715.869L184.108 715.869L184.108 708.357L191.619 708.357L191.619 700.802L184.108 700.802L184.108 708.357L176.553 708.357L176.553 715.869L169.041 715.869L169.041 708.357L161.486 708.357L161.486 700.802L169.041 700.802L169.041 693.29L161.486 693.29L161.486 700.802L153.975 700.802L153.975 708.357L153.975 715.869L146.419 715.869L146.419 723.424L153.975 723.424L153.975 715.869L161.486 715.869L161.486 723.424L169.041 723.424L176.553 723.424L176.553 715.869L184.108 715.869L184.108 723.424L191.619 723.424L191.619 730.935L199.175 730.935L199.175 723.424Z" fill="#377D79" fill-opacity="0.5"/>
<path d="M229.304 723.418L229.304 715.862L234.46 715.862L234.46 708.351L229.304 708.351L229.304 715.862L221.793 715.862L221.793 723.418L229.304 723.418Z" fill="#377D79" fill-opacity="0.5"/>
<path d="M257.041 730.935L257.041 723.424L257.041 715.869L249.53 715.869L241.975 715.869L236.863 715.869L236.863 723.424L244.375 723.424L244.375 730.935L251.93 730.935L257.041 730.935Z" fill="#377D79" fill-opacity="0.5"/>
<path d="M229.304 791.248L229.304 783.692L236.86 783.692L236.86 776.181L229.304 776.181L229.304 768.626L221.793 768.626L221.793 776.181L226.904 776.181L226.904 783.692L221.793 783.692L221.793 791.248L229.304 791.248Z" fill="#377D79" fill-opacity="0.5"/>
<path d="M221.793 806.27L221.793 813.825L226.949 813.825L226.949 806.27L221.793 806.27Z" fill="#377D79" fill-opacity="0.5"/>
<path d="M91.2656 542.573L98.8215 542.573L106.377 542.573L106.377 535.018L113.888 535.018L113.888 527.507L121.444 527.507L121.444 519.951L113.888 519.951L113.888 527.507L106.377 527.507L98.8215 527.507L98.8215 535.018L91.2656 535.018L91.2656 542.573Z" fill="#377D79" fill-opacity="0.5"/>
<path d="M76.1992 542.528L76.1992 550.083L83.7546 550.083L83.7546 542.528L76.1992 542.528Z" fill="#377D79" fill-opacity="0.5"/>
<path d="M76.1989 504.885L76.1989 497.374L76.1989 489.818L68.6875 489.818L68.6875 497.374L68.6875 504.885L76.1989 504.885Z" fill="#377D79" fill-opacity="0.5"/>
<path d="M68.6875 271.287L68.6875 278.842L76.2429 278.842L76.2429 271.287L68.6875 271.287Z" fill="#377D79" fill-opacity="0.5"/>
<path d="M101.226 233.599L106.381 233.599L106.381 226.088L113.893 226.088L113.893 218.532L108.737 218.532L101.226 218.532L101.226 226.088L101.226 233.599Z" fill="#377D79" fill-opacity="0.5"/>
<path d="M31.002 67.8216L31.002 75.377L38.5573 75.377L38.5573 67.8216L31.002 67.8216Z" fill="#377D79" fill-opacity="0.5"/>
<path d="M71.0923 844L71.0923 836.444L78.6032 836.444L78.6032 828.933L71.0923 828.933L71.0923 821.378L63.5364 821.378L56.0255 821.378L56.0255 813.822L48.4696 813.822L40.9142 813.822L33.4033 813.822L33.4033 821.378L40.9142 821.378L48.4696 821.378L56.0255 821.378L56.0255 828.933L56.0255 836.444L63.5364 836.444L63.5364 844" fill="#377D79" fill-opacity="0.5"/>
<path d="M18.3363 844L18.3363 836.444L10.7804 836.444L10.7804 828.933L10.7804 821.378L10.7804 813.822L3.26953 813.822L3.26953 821.378L3.26953 828.933L3.26953 836.444L10.7804 836.444L10.7804 844" fill="#377D79" fill-opacity="0.5"/>
<path d="M33.3998 844L33.3998 836.444L33.3998 828.933L25.8439 828.933L25.8439 821.378L18.333 821.378L18.333 828.933L25.8439 828.933L25.8439 836.444L25.8439 844" fill="#377D79" fill-opacity="0.5"/>
<path d="M48.4606 844L48.4606 836.444L40.9053 836.444L40.9053 844" fill="#377D79" fill-opacity="0.5"/>
<path d="M18.333 806.27L18.333 813.825L25.8884 813.825L25.8884 806.27L18.333 806.27Z" fill="#377D79" fill-opacity="0.5"/>
<path d="M10.7734 791.202L10.7734 798.757L18.3294 798.757L18.3294 791.202L10.7734 791.202Z" fill="#377D79" fill-opacity="0.5"/>
<path d="M138.913 844L138.913 836.444L131.358 836.444L131.358 828.933L123.802 828.933L116.291 828.933L116.291 821.378L123.802 821.378L131.358 821.378L131.358 813.822L123.802 813.822L123.802 806.311L116.291 806.311L116.291 813.822L108.735 813.822L108.735 821.378L108.735 828.933L116.291 828.933L116.291 836.444L116.291 844" fill="#377D79" fill-opacity="0.5"/>
<path d="M169.042 768.627L174.153 768.627L174.153 761.116L174.153 753.56L169.042 753.56L169.042 761.116L169.042 768.627Z" fill="#377D79" fill-opacity="0.5"/>
<path d="M78.5986 708.352L78.5986 715.864L78.5986 723.419L86.1545 723.419L86.1545 730.93L86.1545 738.486L93.6654 738.486L93.6654 730.93L93.6654 723.419L86.1545 723.419L86.1545 715.864L86.1545 708.352L78.5986 708.352Z" fill="#377D79" fill-opacity="0.5"/>
<path d="M83.7559 768.623L83.7559 776.178L91.3112 776.178L91.3112 768.623L83.7559 768.623Z" fill="#377D79" fill-opacity="0.5"/>
<path d="M25.8439 715.862L18.333 715.862L18.333 723.418L25.8439 723.418L25.8439 715.862L33.3998 715.862L33.3998 708.351L33.3998 700.796L25.8439 700.796L25.8439 708.351L25.8439 715.862Z" fill="#377D79" fill-opacity="0.5"/>
<path d="M33.4033 655.6L33.4033 663.156L38.5585 663.156L38.5585 655.6L33.4033 655.6Z" fill="#377D79" fill-opacity="0.5"/>
<path d="M18.3294 655.596L25.8402 655.596L25.8402 648.04L33.3962 648.04L33.3961 640.529L33.3961 632.974L25.8402 632.974L25.8402 640.529L18.3294 640.529L18.3294 632.974L10.7734 632.974L10.7734 640.529L18.3294 640.529L18.3294 648.04L18.3294 655.596Z" fill="#377D79" fill-opacity="0.5"/>
<path d="M3.26953 648.04L3.26953 655.596L10.8249 655.596L10.8249 648.04L3.26953 648.04Z" fill="#377D79" fill-opacity="0.5"/>
<path d="M93.6662 632.974L93.6662 640.529L86.1553 640.529L86.1553 648.04L93.6662 648.04L93.6662 640.529L101.222 640.529L101.222 648.04L108.733 648.04L108.733 655.596L113.889 655.596L113.889 648.04L113.889 640.529L108.733 640.529L101.222 640.529L101.222 632.974L93.6662 632.974Z" fill="#377D79" fill-opacity="0.5"/>
<path d="M91.2656 595.289L91.2656 602.844L98.8215 602.844L98.8215 595.289L91.2656 595.289Z" fill="#377D79" fill-opacity="0.5"/>
<path d="M76.1955 580.265L76.1955 572.709L68.6841 572.709L68.6841 565.154L63.5283 565.154L63.5283 572.709L63.5283 580.265L71.0842 580.265L76.1955 580.265Z" fill="#377D79" fill-opacity="0.5"/>
<path d="M78.5986 580.219L78.5986 587.775L83.7544 587.775L83.7544 580.219L78.5986 580.219Z" fill="#377D79" fill-opacity="0.5"/>
<path d="M63.5274 625.466L63.5274 632.978L56.0166 632.978L48.4606 632.978L48.4606 625.466L40.9053 625.466L40.9053 632.978L40.9053 640.533L48.4606 640.533L56.0166 640.533L63.5274 640.533L63.5274 648.044L71.0834 648.044L78.5942 648.044L78.5942 640.533L71.0834 640.533L63.5274 640.533L63.5274 632.978L71.0834 632.978L78.5942 632.978L86.1502 632.978L86.1502 625.466L93.661 625.466L101.216 625.466L108.728 625.466L108.728 617.911L113.884 617.911L113.884 610.399L106.372 610.399L98.8168 610.399L98.8168 617.911L91.2609 617.911L91.2609 610.399L83.75 610.399L83.75 602.844L76.1946 602.844L76.1946 595.333L76.1946 587.777L71.0834 587.777L63.5274 587.777L56.0166 587.777L56.0166 595.333L56.0166 602.844L63.5274 602.844L63.5274 595.333L71.0834 595.333L71.0834 602.844L71.0834 610.399L71.0834 617.911L76.1946 617.911L83.75 617.911L83.75 625.466L76.1946 625.466L68.6832 625.466L68.6832 617.911L63.5274 617.911L63.5274 625.466Z" fill="#377D79" fill-opacity="0.5"/>
<path d="M8.37666 482.262L8.37666 489.818L0.865234 489.818L0.865234 497.374L0.865234 504.885L8.37666 504.885L8.37666 497.374L15.932 497.374L23.4874 497.374L23.4874 489.818L15.932 489.818L15.932 482.262L8.37666 482.262Z" fill="#377D79" fill-opacity="0.5"/>
<path d="M63.5283 165.773L63.5283 173.328L68.6841 173.328L68.6841 165.773L63.5283 165.773Z" fill="#377D79" fill-opacity="0.5"/>
<path d="M128.956 844L128.956 836.444L121.444 836.444L121.444 844" fill="#377D79" fill-opacity="0.5"/>
<path d="M46.0723 685.732L46.0723 693.288L53.6276 693.288L53.6276 685.732L46.0723 685.732Z" fill="#377D79" fill-opacity="0.5"/>
<path d="M68.6882 693.288L76.1996 693.288L76.1996 685.732L68.6882 685.732L61.1328 685.732L61.1328 693.288L68.6882 693.288Z" fill="#377D79" fill-opacity="0.5"/>
<path d="M68.6882 670.661L61.1328 670.661L61.1328 678.217L68.6882 678.217L76.1996 678.217L76.1996 670.661L68.6882 670.661Z" fill="#377D79" fill-opacity="0.5"/>
<path d="M234.47 557.598L234.47 565.154L242.025 565.154L242.025 557.598L234.47 557.598Z" fill="#377D79" fill-opacity="0.5"/>
<path d="M31.002 339.109L31.002 346.664L38.5573 346.664L38.5573 339.109L31.002 339.109Z" fill="#377D79" fill-opacity="0.5"/>
<path d="M136.515 391.824L136.515 399.379L144.07 399.379L144.07 391.824L136.515 391.824Z" fill="#377D79" fill-opacity="0.5"/>
<path d="M174.156 459.685L166.645 459.685L159.089 459.685L159.089 452.129L151.578 452.129L151.578 459.685L144.022 459.685L136.511 459.685L136.511 467.196L128.956 467.196L121.444 467.196L121.444 474.752L128.956 474.752L136.511 474.752L144.022 474.752L144.022 482.263L151.578 482.263L159.089 482.263L159.089 474.752L151.578 474.752L151.578 467.196L159.089 467.196L159.089 474.752L166.645 474.752L166.645 467.196L174.156 467.196L181.712 467.196L189.267 467.196L189.267 459.685L181.712 459.685L174.156 459.685Z" fill="#377D79" fill-opacity="0.5"/>
<path d="M151.573 422.001L159.083 422.001L166.639 422.001L166.639 414.49L166.639 406.935L159.083 406.935L159.083 414.49L151.573 414.49L144.017 414.49L144.017 422.001L151.573 422.001Z" fill="#377D79" fill-opacity="0.5"/>
<path d="M166.644 444.577L166.644 452.132L174.199 452.132L174.199 444.577L166.644 444.577Z" fill="#377D79" fill-opacity="0.5"/>
<path d="M91.2611 467.196L83.7502 467.196L83.7502 459.685L91.2611 459.685L91.2611 452.129L98.817 452.129L98.817 459.685L106.372 459.685L106.372 452.129L98.817 452.129L98.817 444.618L91.2611 444.618L83.7502 444.618L83.7502 452.129L83.7502 459.685L76.1948 459.685L76.1948 467.196L68.6834 467.196L68.6834 459.685L61.128 459.685L53.6166 459.685L53.6166 452.129L61.128 452.129L61.128 444.618L53.6166 444.618L46.0612 444.618L46.0612 437.062L53.6166 437.062L53.6166 429.551L61.128 429.551L61.128 421.995L53.6166 421.995L53.6166 429.551L46.0612 429.551L46.0612 421.995L38.5498 421.995L38.5498 414.484L38.5498 406.929L46.0612 406.929L46.0612 414.484L53.6166 414.484L61.128 414.484L68.6834 414.484L76.1948 414.484L76.1948 406.929L68.6834 406.929L68.6834 399.373L68.6834 391.862L76.1948 391.862L76.1948 399.373L83.7502 399.373L83.7502 391.862L91.2611 391.862L98.817 391.862L106.372 391.862L113.884 391.862L113.884 384.306L106.372 384.306L98.817 384.306L91.2611 384.306L91.2611 376.795L98.817 376.795L106.372 376.795L106.372 369.239L106.372 361.728L113.884 361.728L113.884 369.239L113.884 376.795L121.439 376.795L121.439 384.306L128.951 384.306L128.951 376.795L136.506 376.795L136.506 384.306L136.506 391.862L128.951 391.862L121.439 391.862L121.439 399.373L113.884 399.373L113.884 406.929L121.439 406.929L128.951 406.929L136.506 406.929L144.017 406.929L144.017 414.484L136.506 414.484L136.506 421.995L128.951 421.995L128.951 429.551L136.506 429.551L144.017 429.551L144.017 437.062L136.506 437.062L136.506 444.618L144.017 444.618L144.017 437.062L151.573 437.062L151.573 444.618L151.573 452.129L144.017 452.129L136.506 452.129L136.506 459.685L128.951 459.685L128.951 452.129L121.439 452.129L121.439 459.685L113.884 459.685L113.884 467.196L113.884 474.751L106.372 474.751L106.372 467.196L98.817 467.196L98.817 474.751L91.2611 474.751L91.2611 467.196Z" fill="#377D79" fill-opacity="0.5"/>
<path d="M106.368 406.93L106.368 399.375L98.8128 399.375L91.2568 399.375L91.2568 406.93L98.8128 406.93L106.368 406.93Z" fill="#377D79" fill-opacity="0.5"/>
<path d="M106.372 421.996L106.372 429.552L113.928 429.552L113.928 421.996L106.372 421.996Z" fill="#377D79" fill-opacity="0.5"/>
<path d="M98.8243 437.059L98.8243 429.548L98.8243 421.993L98.8243 414.482L91.2684 414.482L83.7575 414.482L83.7575 421.993L76.2021 421.993L76.2021 429.548L76.2021 437.059L83.7575 437.059L91.2684 437.059L98.8243 437.059Z" fill="#377D79" fill-opacity="0.5"/>
<path d="M68.6865 444.576L68.6865 452.132L76.2419 452.132L76.2419 444.576L68.6865 444.576Z" fill="#377D79" fill-opacity="0.5"/>
<path d="M121.439 444.622L121.439 437.066L113.883 437.066L106.372 437.066L106.372 444.622L113.883 444.622L121.439 444.622Z" fill="#377D79" fill-opacity="0.5"/>
<path d="M113.892 700.8L113.892 708.356L121.447 708.356L121.447 715.867L128.958 715.867L128.958 708.356L136.514 708.356L136.514 700.8L128.958 700.8L128.958 693.289L121.447 693.289L121.447 700.8L113.892 700.8Z" fill="#377D79" fill-opacity="0.5"/>
<path d="M61.1328 369.246L61.1328 376.802L68.6882 376.802L68.6882 369.246L61.1328 369.246Z" fill="#377D79" fill-opacity="0.5"/>
<path d="M136.513 497.375L144.024 497.375L144.024 489.819L144.024 482.264L136.513 482.264L128.958 482.264L128.958 489.819L136.513 489.819L136.513 497.375Z" fill="#377D79" fill-opacity="0.5"/>
<path d="M38.5573 391.865L46.0688 391.865L53.6241 391.865L53.6241 399.375L53.6241 406.931L61.1356 406.931L61.1356 399.375L61.1356 391.865L68.6909 391.865L68.6909 384.309L61.1356 384.309L53.6241 384.309L53.6241 376.798L46.0688 376.798L46.0688 384.309L38.5573 384.309L31.002 384.309L31.002 391.865L31.002 399.375L38.5573 399.375L38.5573 391.865Z" fill="#377D79" fill-opacity="0.5"/>
<path d="M68.6879 37.686L68.6879 30.1752L61.1325 30.1752L53.6211 30.1752L53.6211 37.686L61.1325 37.686L68.6879 37.686Z" fill="#377D79" fill-opacity="0.5"/>
<path d="M46.0723 7.55199L46.0723 15.1079L53.6276 15.1079L53.6276 7.55199L53.6276 0.0411097L46.0723 0.04111L46.0723 7.55199Z" fill="#377D79" fill-opacity="0.5"/>
<path d="M144.017 188.394L144.017 195.949L151.573 195.949L151.573 188.394L144.017 188.394Z" fill="#377D79" fill-opacity="0.5"/>
<path d="M128.958 150.713L128.958 158.268L136.513 158.268L136.513 150.713L128.958 150.713Z" fill="#377D79" fill-opacity="0.5"/>
<path d="M53.6211 15.0618L53.6211 22.6172L61.177 22.6172L61.177 15.0618L53.6211 15.0618Z" fill="#377D79" fill-opacity="0.5"/>
<path d="M249.537 444.624L241.981 444.624L241.981 452.135L234.471 452.135L234.471 459.691L226.915 459.691L219.404 459.691L211.848 459.691L211.848 467.202L204.337 467.202L204.337 474.757L211.848 474.757L219.404 474.757L219.404 482.268L226.915 482.268L226.915 474.757L226.915 467.202L234.471 467.202L241.981 467.202L241.981 459.691L249.537 459.691L249.537 467.202L249.537 474.757L249.537 482.268L249.537 489.824L257.048 489.824L264.604 489.824L264.604 474.757L257.048 474.757L257.048 467.202L257.048 459.691L264.604 459.691L264.604 437.068L257.048 437.068L257.048 444.624L249.537 444.624Z" fill="#377D79" fill-opacity="0.5"/>
<path d="M234.47 489.818L234.47 497.374L241.981 497.374L241.981 504.885L249.537 504.885L249.537 497.374L249.537 489.818L241.981 489.818L234.47 489.818Z" fill="#377D79" fill-opacity="0.5"/>
<path d="M31.002 15.0618L31.002 22.6172L38.5573 22.6172L38.5573 15.0618L31.002 15.0618Z" fill="#377D79" fill-opacity="0.5"/>
<path d="M159.087 256.216L159.087 263.771L166.643 263.771L166.643 256.216L159.087 256.216Z" fill="#377D79" fill-opacity="0.5"/>
<path d="M219.403 535.018L219.403 542.573L226.959 542.573L226.959 535.018L219.403 535.018Z" fill="#377D79" fill-opacity="0.5"/>
<path d="M136.515 241.155L144.026 241.155L144.026 233.599L151.581 233.599L151.581 241.155L151.581 248.71L159.092 248.71L166.648 248.71L166.648 241.155L174.159 241.155L174.159 233.599L166.648 233.599L159.092 233.599L159.092 226.088L151.581 226.088L144.026 226.088L136.515 226.088L136.515 233.599L136.515 241.155Z" fill="#377D79" fill-opacity="0.5"/>
<path d="M128.958 256.216L128.958 263.771L136.513 263.771L136.513 256.216L136.513 248.704L136.513 241.149L128.958 241.149L128.958 248.704L128.958 256.216Z" fill="#377D79" fill-opacity="0.5"/>
<path d="M113.892 301.417L113.892 308.973L121.447 308.973L121.447 301.417L113.892 301.417Z" fill="#377D79" fill-opacity="0.5"/>
<path d="M204.337 535.018L204.337 542.573L211.892 542.573L211.892 535.018L204.337 535.018Z" fill="#377D79" fill-opacity="0.5"/>
<path d="M219.403 550.087L219.403 557.642L219.403 565.154L226.914 565.154L226.914 557.642L234.47 557.642L234.47 550.087L226.914 550.087L219.403 550.087Z" fill="#377D79" fill-opacity="0.5"/>
<path d="M121.444 278.842L128.956 278.842L128.956 271.287L128.956 263.775L121.444 263.775L121.444 271.287L121.444 278.842Z" fill="#377D79" fill-opacity="0.5"/>
<path d="M144.017 256.216L144.017 263.771L151.573 263.771L151.573 256.216L151.573 248.704L144.017 248.704L144.017 256.216Z" fill="#377D79" fill-opacity="0.5"/>
<path d="M181.71 256.216L181.71 263.771L189.265 263.771L189.265 256.216L181.71 256.216Z" fill="#377D79" fill-opacity="0.5"/>
<path d="M136.515 173.331L136.515 180.887L136.515 188.398L144.026 188.398L144.026 180.887L144.026 173.331L144.026 165.82L144.026 158.264L136.515 158.264L136.515 165.82L136.515 173.331Z" fill="#377D79" fill-opacity="0.5"/>
<path d="M128.956 188.4L128.956 180.888L121.444 180.888L121.444 188.4L121.444 195.955L121.444 203.466L128.956 203.466L128.956 195.955L128.956 188.4Z" fill="#377D79" fill-opacity="0.5"/>
<path d="M91.2656 316.484L91.2656 324.04L98.8215 324.04L98.8215 316.484L91.2656 316.484Z" fill="#377D79" fill-opacity="0.5"/>
<path d="M113.892 278.793L113.892 286.349L121.447 286.349L121.447 278.793L113.892 278.793Z" fill="#377D79" fill-opacity="0.5"/>
<path d="M136.513 45.2378L144.024 45.2378L144.024 37.6819L144.024 30.171L136.513 30.171L136.513 37.6819L128.958 37.6819L128.958 45.2378L136.513 45.2378Z" fill="#377D79" fill-opacity="0.5"/>
<path d="M128.964 150.707L121.453 150.707L121.453 143.195L121.453 135.64L128.964 135.64L128.964 128.128L121.453 128.128L121.453 135.64L113.897 135.64L113.897 128.128L113.897 120.573L121.453 120.573L128.964 120.573L128.964 113.062L136.52 113.062L136.52 105.506L128.964 105.506L128.964 113.062L121.453 113.062L121.453 105.506L113.897 105.506L113.897 97.9953L113.897 90.4394L106.386 90.4394L106.386 97.9953L98.8306 97.9953L91.2747 97.9953L91.2747 90.4394L98.8306 90.4394L98.8306 82.9285L98.8306 75.3726L91.2747 75.3726L83.7638 75.3726L76.2084 75.3726L76.2084 67.8172L68.697 67.8172L68.697 60.3063L61.1416 60.3063L61.1416 52.7504L61.1416 45.2395L68.697 45.2395L68.697 37.6836L76.2084 37.6836L83.7638 37.6836L83.7638 30.1727L76.2084 30.1727L76.2084 22.6168L83.7638 22.6168L91.2747 22.6168L91.2747 30.1727L98.8306 30.1727L106.386 30.1727L106.386 37.6836L106.386 45.2395L113.897 45.2395L121.453 45.2395L128.964 45.2395L128.964 52.7504L121.453 52.7504L113.897 52.7504L106.386 52.7504L98.8306 52.7504L98.8306 45.2395L91.2747 45.2395L91.2747 52.7504L83.7638 52.7504L83.7638 45.2395L76.2084 45.2395L76.2084 52.7504L83.7638 52.7504L83.7638 60.3063L83.7638 67.8172L91.2747 67.8172L91.2747 60.3063L98.8306 60.3063L106.386 60.3063L106.386 67.8172L113.897 67.8172L121.453 67.8172L121.453 60.3063L128.964 60.3063L136.52 60.3063L136.52 67.8172L144.03 67.8172L144.03 60.3063L136.52 60.3063L136.52 52.7504L144.03 52.7504L151.586 52.7504L151.586 60.3063L159.097 60.3063L159.097 67.8172L166.653 67.8172L166.653 60.3063L159.097 60.3063L159.097 52.7504L151.586 52.7504L151.586 45.2395L159.097 45.2395L159.097 37.6836L166.653 37.6836L166.653 45.2395L174.164 45.2395L174.164 52.7504L181.72 52.7504L181.72 60.3063L189.275 60.3063L189.275 52.7504L196.786 52.7504L196.786 45.2395L204.342 45.2395L204.342 52.7504L211.853 52.7504L211.853 60.3063L211.853 67.8172L211.853 75.3726L204.342 75.3726L204.342 67.8172L196.786 67.8172L196.786 75.3726L196.786 82.9285L196.786 90.4394L189.275 90.4394L189.275 82.9285L181.72 82.9285L181.72 90.4394L189.275 90.4394L189.275 97.9953L181.72 97.9953L174.164 97.9953L174.164 90.4394L166.653 90.4394L159.097 90.4394L151.586 90.4394L151.586 97.9953L151.586 105.506L144.03 105.506L144.03 113.062L151.586 113.062L151.586 120.573L144.03 120.573L144.03 128.128L136.52 128.128L136.52 135.64L144.03 135.64L144.03 128.128L151.586 128.128L151.586 120.573L159.097 120.573L159.097 128.128L159.097 135.64L159.097 143.195L159.097 150.707L159.097 158.262L159.097 165.818L151.586 165.818L151.586 158.262L151.586 150.707L144.03 150.707L144.03 143.195L136.52 143.195L128.964 143.195L128.964 150.707Z" fill="#377D79" fill-opacity="0.5"/>
<path d="M181.721 67.8206L181.721 75.376L189.276 75.376L189.276 67.8206L181.721 67.8206Z" fill="#377D79" fill-opacity="0.5"/>
<path d="M106.392 75.3718L106.392 82.9277L113.948 82.9277L113.948 75.3718L106.392 75.3718Z" fill="#377D79" fill-opacity="0.5"/>
<path d="M128.962 97.9961L128.962 90.4402L128.962 82.9293L136.517 82.9293L144.028 82.9293L151.584 82.9293L159.095 82.9293L166.651 82.9293L174.161 82.9293L174.161 75.3734L166.651 75.3734L159.095 75.3734L151.584 75.3734L144.028 75.3734L136.517 75.3734L128.962 75.3734L128.962 82.9293L121.45 82.9293L121.45 90.4402L121.45 97.9961L128.962 97.9961Z" fill="#377D79" fill-opacity="0.5"/>
<path d="M53.6276 97.998L61.1391 97.998L61.1391 90.4421L53.6276 90.4421L46.0723 90.4421L46.0723 97.998L53.6276 97.998Z" fill="#377D79" fill-opacity="0.5"/>
<path d="M83.7559 165.773L83.7559 173.328L91.3112 173.328L91.3112 165.773L83.7559 165.773Z" fill="#377D79" fill-opacity="0.5"/>
<path d="M196.776 391.824L196.776 399.379L204.332 399.379L204.332 391.824L196.776 391.824Z" fill="#377D79" fill-opacity="0.5"/>
<path d="M166.644 399.375L166.644 406.931L174.199 406.931L174.199 399.375L166.644 399.375Z" fill="#377D79" fill-opacity="0.5"/>
<path d="M181.718 406.931L181.718 399.375L189.273 399.375L196.784 399.375L196.784 406.931L204.34 406.931L204.34 414.486L211.851 414.486L211.851 421.997L211.851 429.553L219.407 429.553L219.407 437.064L211.851 437.064L211.851 444.62L204.34 444.62L204.34 452.131L211.851 452.131L211.851 459.687L204.34 459.687L196.784 459.687L189.273 459.687L189.273 452.131L196.784 452.131L196.784 444.62L189.273 444.62L181.718 444.62L181.718 437.064L181.718 429.553L174.162 429.553L174.162 437.064L166.651 437.064L159.095 437.064L151.584 437.064L151.584 429.553L159.095 429.553L166.651 429.553L166.651 421.997L174.162 421.997L174.162 414.486L181.718 414.486L181.718 406.931Z" fill="#377D79" fill-opacity="0.5"/>
<path d="M189.273 429.51L189.273 437.066L196.829 437.066L196.829 429.51L189.273 429.51Z" fill="#377D79" fill-opacity="0.5"/>
<path d="M76.1992 376.755L76.1992 384.311L83.7546 384.311L83.7546 376.755L76.1992 376.755Z" fill="#377D79" fill-opacity="0.5"/>
<path d="M204.337 399.375L204.337 406.931L211.892 406.931L211.892 399.375L204.337 399.375Z" fill="#377D79" fill-opacity="0.5"/>
<path d="M128.958 346.669L128.958 354.18L121.447 354.18L121.447 346.669L121.447 339.113L113.892 339.113L113.892 346.669L113.892 354.18L113.892 361.735L121.447 361.735L121.447 369.246L121.447 376.802L128.958 376.802L128.958 369.246L136.514 369.246L144.025 369.246L151.581 369.246L151.581 361.735L159.091 361.735L159.091 354.18L166.647 354.18L166.647 346.669L174.158 346.669L174.158 339.113L166.647 339.113L166.647 331.602L159.091 331.602L159.091 339.113L151.581 339.113L151.581 346.669L144.025 346.669L136.514 346.669L136.514 339.113L128.958 339.113L128.958 346.669Z" fill="#377D79" fill-opacity="0.5"/>
<path d="M128.958 497.329L128.958 504.885L136.513 504.885L136.513 497.329L128.958 497.329Z" fill="#377D79" fill-opacity="0.5"/>
<path d="M136.507 542.528L136.507 550.083L144.062 550.083L144.062 542.528L136.507 542.528Z" fill="#377D79" fill-opacity="0.5"/>
<path d="M144.017 535.018L144.017 542.573L151.573 542.573L151.573 535.018L144.017 535.018Z" fill="#377D79" fill-opacity="0.5"/>
<path d="M174.154 489.819L181.71 489.819L181.71 497.375L189.265 497.375L189.265 489.819L189.265 482.264L189.265 474.753L181.71 474.753L174.154 474.753L166.643 474.753L166.643 482.264L159.087 482.264L159.087 489.819L166.643 489.819L174.154 489.819Z" fill="#377D79" fill-opacity="0.5"/>
<path d="M159.083 550.093L151.573 550.093L144.017 550.093L144.017 557.648L144.017 565.159L144.017 572.715L151.573 572.715L159.083 572.715L166.639 572.715L166.639 565.159L159.083 565.159L159.083 557.648L166.639 557.648L166.639 550.093L166.639 542.581L159.083 542.581L159.083 550.093Z" fill="#377D79" fill-opacity="0.5"/>
<path d="M128.958 640.489L128.958 648.044L136.513 648.044L136.513 640.489L128.958 640.489Z" fill="#377D79" fill-opacity="0.5"/>
<path d="M151.577 173.334L151.577 180.889L159.133 180.889L159.133 173.334L151.577 173.334Z" fill="#377D79" fill-opacity="0.5"/>
<path d="M219.403 97.996L219.403 105.507L226.914 105.507L226.914 97.996L226.914 90.44L219.403 90.44L219.403 97.996Z" fill="#377D79" fill-opacity="0.5"/>
<path d="M226.907 105.512L226.907 113.068L234.463 113.068L234.463 105.512L226.907 105.512Z" fill="#377D79" fill-opacity="0.5"/>
<path d="M181.707 180.882L174.151 180.882L174.151 188.394L181.707 188.394L181.707 195.949L189.263 195.949L189.263 188.394L189.263 180.882L196.774 180.882L204.329 180.882L204.329 173.327L196.774 173.327L189.263 173.327L189.263 165.816L181.707 165.816L181.707 173.327L181.707 180.882Z" fill="#377D79" fill-opacity="0.5"/>
<path d="M204.334 271.286L204.334 263.774L196.778 263.774L196.778 271.286L189.267 271.286L181.712 271.286L181.712 278.841L174.156 278.841L174.156 271.286L181.712 271.286L181.712 263.774L174.156 263.774L166.645 263.774L166.645 271.286L159.089 271.286L151.578 271.286L144.022 271.286L136.511 271.286L136.511 278.841L128.956 278.841L128.956 286.353L121.444 286.353L121.444 293.908L128.956 293.908L136.511 293.908L136.511 286.353L144.022 286.353L144.022 293.908L151.578 293.908L151.578 301.419L159.089 301.419L159.089 293.908L159.089 286.353L151.578 286.353L151.578 278.841L159.089 278.841L159.089 286.353L166.645 286.353L174.156 286.353L181.712 286.353L189.267 286.353L189.267 278.841L196.778 278.841L196.778 286.353L204.334 286.353L211.845 286.353L211.845 278.841L204.334 278.841L204.334 271.286Z" fill="#377D79" fill-opacity="0.5"/>
<path d="M23.4883 565.159L23.4883 572.715L31.0442 572.715L31.0442 565.159L23.4883 565.159Z" fill="#377D79" fill-opacity="0.5"/>
<path d="M31.002 572.709L31.002 580.265L38.5573 580.265L38.5573 572.709L31.002 572.709Z" fill="#377D79" fill-opacity="0.5"/>
<path d="M166.644 195.953L166.644 203.464L166.644 211.02L159.088 211.02L159.088 203.464L151.577 203.464L151.577 211.02L151.577 218.531L159.088 218.531L159.088 226.087L166.644 226.087L174.155 226.087L174.155 218.531L181.711 218.531L181.711 226.087L181.711 233.598L181.711 241.153L174.155 241.153L174.155 248.709L166.644 248.709L166.644 256.22L174.155 256.22L181.711 256.22L181.711 248.709L189.266 248.709L189.266 241.153L189.266 233.598L196.777 233.598L196.777 241.153L204.333 241.153L204.333 233.598L204.333 226.087L196.777 226.087L189.266 226.087L189.266 218.531L189.266 211.02L189.266 203.464L181.711 203.464L181.711 211.02L174.155 211.02L174.155 203.464L174.155 195.953L174.155 188.398L166.644 188.398L166.644 195.953Z" fill="#377D79" fill-opacity="0.5"/>
<path d="M106.377 324.047L98.8213 324.047L98.8213 331.602L106.377 331.602L113.888 331.602L121.443 331.602L121.443 324.047L113.888 324.047L106.377 324.047Z" fill="#377D79" fill-opacity="0.5"/>
<path d="M159.087 180.843L159.087 188.398L166.643 188.398L166.643 180.843L159.087 180.843Z" fill="#377D79" fill-opacity="0.5"/>
<path d="M106.378 113.062L106.378 105.506L98.8227 105.506L91.2667 105.506L83.7559 105.506L83.7559 113.062L91.2667 113.062L91.2667 120.573L83.7559 120.573L83.7559 128.128L91.2667 128.128L98.8227 128.128L106.378 128.128L106.378 120.573L113.889 120.573L113.889 113.062L106.378 113.062Z" fill="#377D79" fill-opacity="0.5"/>
<path d="M226.907 482.268L226.907 489.824L234.463 489.824L234.463 482.268L226.907 482.268Z" fill="#377D79" fill-opacity="0.5"/>
<path d="M234.47 474.707L234.47 482.263L242.025 482.263L242.025 474.707L234.47 474.707Z" fill="#377D79" fill-opacity="0.5"/>
<path d="M226.909 113.062L226.909 120.573L219.398 120.573L219.398 128.129L211.842 128.129L211.842 135.64L219.398 135.64L219.398 143.196L211.842 143.196L204.331 143.196L204.331 150.707L196.775 150.707L196.775 158.262L204.331 158.262L211.842 158.262L211.842 150.707L219.398 150.707L219.398 158.262L219.398 165.818L211.842 165.818L211.842 173.329L204.331 173.329L204.331 165.818L196.775 165.818L189.264 165.818L189.264 158.262L181.709 158.262L181.709 165.818L174.153 165.818L174.153 173.329L166.642 173.329L159.086 173.329L159.086 165.818L166.642 165.818L166.642 158.262L166.642 150.707L166.642 143.196L174.153 143.196L174.153 135.64L174.153 128.129L166.642 128.129L166.642 120.573L174.153 120.573L174.153 113.062L166.642 113.062L166.642 120.573L159.086 120.573L159.086 113.062L159.086 105.507L159.086 97.9957L166.642 97.9957L174.153 97.9957L174.153 105.507L181.709 105.507L181.709 113.062L189.264 113.062L196.775 113.062L196.775 105.507L196.775 97.9956L204.331 97.9956L204.331 90.4397L211.842 90.4397L211.842 97.9956L211.842 105.507L219.398 105.507L219.398 113.062L226.909 113.062Z" fill="#377D79" fill-opacity="0.5"/>
<path d="M196.779 120.573L189.268 120.573L181.713 120.573L181.713 128.129L181.713 135.64L189.268 135.64L189.268 143.196L181.713 143.196L181.713 150.707L189.268 150.707L189.268 143.196L196.779 143.196L196.779 135.64L189.268 135.64L189.268 128.129L196.779 128.129L196.779 120.573Z" fill="#377D79" fill-opacity="0.5"/>
<path d="M204.336 113.022L204.336 120.577L211.891 120.577L211.891 113.022L204.336 113.022Z" fill="#377D79" fill-opacity="0.5"/>
<path d="M226.907 444.577L226.907 452.132L234.463 452.132L234.463 444.577L226.907 444.577Z" fill="#377D79" fill-opacity="0.5"/>
<path d="M98.8213 557.598L98.8213 565.154L106.377 565.154L106.377 557.598L98.8213 557.598Z" fill="#377D79" fill-opacity="0.5"/>
<path d="M219.399 180.888L219.399 188.4L211.843 188.4L204.332 188.4L196.776 188.4L196.776 195.955L196.776 203.467L196.776 211.022L204.332 211.022L204.332 203.467L204.332 195.955L211.843 195.955L211.843 203.467L211.843 211.022L204.332 211.022L204.332 218.533L204.332 226.089L211.843 226.089L211.843 218.533L219.399 218.533L226.91 218.533L226.91 211.022L234.466 211.022L234.466 203.467L226.91 203.467L219.399 203.467L219.399 195.955L226.91 195.955L226.91 188.4L226.91 180.888L234.466 180.888L234.466 173.333L234.466 165.822L241.977 165.822L249.533 165.822L249.533 173.333L249.533 180.888L257.044 180.888L257.044 173.333L264.599 173.333L264.599 158.266L257.044 158.266L257.044 150.711L257.044 143.199L249.533 143.199L241.977 143.199L234.466 143.199L226.91 143.199L226.91 150.711L226.91 158.266L226.91 165.822L226.91 173.333L219.399 173.333L211.843 173.333L211.843 180.888L219.399 180.888Z" fill="#377D79" fill-opacity="0.5"/>
<path d="M151.573 610.396L159.083 610.396L159.083 602.84L151.573 602.84L144.017 602.84L144.017 610.396L151.573 610.396Z" fill="#377D79" fill-opacity="0.5"/>
<path d="M226.914 308.973L234.47 308.973L241.981 308.973L241.981 301.417L241.981 293.906L234.47 293.906L234.47 286.35L226.914 286.35L226.914 293.906L219.403 293.906L219.403 301.417L226.914 301.417L226.914 308.973Z" fill="#377D79" fill-opacity="0.5"/>
<path d="M249.537 67.8216L241.981 67.8216L241.981 60.3107L234.47 60.3107L234.47 67.8216L234.47 75.377L241.981 75.377L249.537 75.377L257.047 75.377L264.603 75.377L264.603 67.8216L257.047 67.8216L257.047 60.3107L257.047 52.7548L249.537 52.7548L249.537 60.3107L249.537 67.8216Z" fill="#377D79" fill-opacity="0.5"/>
<path d="M249.537 188.398L249.537 180.887L241.981 180.887L241.981 188.398L234.47 188.398L234.47 195.954L234.47 203.465L241.981 203.465L241.981 211.021L249.537 211.021L249.537 203.465L257.047 203.465L264.603 203.465L264.603 180.887L257.047 180.887L257.047 188.398L249.537 188.398Z" fill="#377D79" fill-opacity="0.5"/>
<path d="M219.401 75.3788L211.845 75.3788L211.845 82.9348L219.401 82.9348L226.912 82.9348L226.912 90.4456L234.467 90.4456L241.978 90.4456L241.978 98.0016L234.467 98.0016L234.467 105.512L241.978 105.512L241.978 113.068L249.534 113.068L249.534 105.512L249.534 98.0016L249.534 90.4456L249.534 82.9348L241.978 82.9348L234.467 82.9348L234.467 75.3788L226.912 75.3788L219.401 75.3788Z" fill="#377D79" fill-opacity="0.5"/>
<path d="M234.463 120.571L226.907 120.571L226.907 128.127L226.907 135.638L234.463 135.638L234.463 128.127L241.974 128.127L241.974 120.571L241.974 113.061L234.463 113.061L234.463 120.571Z" fill="#377D79" fill-opacity="0.5"/>
<path d="M211.845 301.417L211.845 308.973L219.401 308.973L219.401 301.417L211.845 301.417Z" fill="#377D79" fill-opacity="0.5"/>
<path d="M128.958 535.018L128.958 542.573L136.513 542.573L136.513 535.018L128.958 535.018Z" fill="#377D79" fill-opacity="0.5"/>
<path d="M219.403 354.177L219.403 361.732L226.959 361.732L226.959 354.177L219.403 354.177Z" fill="#377D79" fill-opacity="0.5"/>
<path d="M76.1989 98.0016L68.6875 98.0016L68.6875 105.512L68.6875 113.068L76.1989 113.068L76.1989 105.512L83.7543 105.512L83.7543 98.0016L76.1989 98.0016Z" fill="#377D79" fill-opacity="0.5"/>
<path d="M234.47 210.972L234.47 218.528L242.025 218.528L242.025 210.972L234.47 210.972Z" fill="#377D79" fill-opacity="0.5"/>
<path d="M61.1391 113.065L61.1391 105.509L53.6276 105.509L46.0723 105.509L46.0723 113.065L53.6276 113.065L53.6276 120.576L61.1391 120.576L68.6944 120.576L68.6944 113.065L61.1391 113.065Z" fill="#377D79" fill-opacity="0.5"/>
<path d="M226.907 218.533L226.907 226.089L234.463 226.089L234.463 218.533L226.907 218.533Z" fill="#377D79" fill-opacity="0.5"/>
<path d="M257.037 278.839L257.037 271.284L264.593 271.284L264.593 324.04L257.037 324.04L257.037 331.595L249.526 331.595L241.97 331.595L234.459 331.595L234.459 339.107L234.459 346.662L241.97 346.662L241.97 354.173L249.526 354.173L249.526 346.662L241.97 346.662L241.97 339.107L249.526 339.107L257.037 339.107L264.593 339.107L264.593 346.662L257.037 346.662L257.037 354.173L264.593 354.173L264.593 369.24L257.037 369.24L257.037 376.796L264.593 376.796L264.593 384.306L257.037 384.306L257.037 391.862L249.526 391.862L249.526 399.373L257.037 399.373L257.037 391.862L264.593 391.862L264.593 429.551L257.037 429.551L257.037 437.062L249.526 437.062L249.526 429.551L249.526 421.995L241.97 421.995L241.97 429.551L234.459 429.551L234.459 421.995L226.904 421.995L226.904 429.551L219.393 429.551L219.393 421.995L219.393 414.485L211.837 414.485L211.837 406.929L219.393 406.929L219.393 399.373L219.393 391.862L226.904 391.862L234.459 391.862L234.459 399.373L241.97 399.373L241.97 391.862L234.459 391.862L234.459 384.306L226.904 384.306L226.904 376.796L219.393 376.796L219.393 384.306L219.393 391.862L211.837 391.862L204.326 391.862L204.326 384.306L211.837 384.306L211.837 376.796L204.326 376.796L204.326 384.306L196.77 384.306L189.259 384.306L181.704 384.306L181.704 391.862L181.704 399.373L174.148 399.373L174.148 391.862L166.637 391.862L159.081 391.862L151.57 391.862L151.57 384.306L144.014 384.306L144.014 376.796L151.57 376.796L151.57 369.24L159.081 369.24L159.081 376.796L166.637 376.796L174.148 376.796L181.704 376.796L181.704 369.24L174.148 369.24L166.637 369.24L159.081 369.24L159.081 361.729L166.637 361.729L166.637 354.173L174.148 354.173L174.148 361.729L181.704 361.729L181.704 354.173L181.704 346.662L189.259 346.662L189.259 354.173L189.259 361.729L189.259 369.24L196.77 369.24L196.77 361.729L196.77 354.173L196.77 346.662L196.77 339.107L204.326 339.107L204.326 331.595L196.77 331.595L189.259 331.595L181.704 331.595L181.704 339.107L174.148 339.107L174.148 331.595L166.637 331.595L166.637 324.04L159.081 324.04L159.081 331.595L151.57 331.595L144.014 331.595L144.014 339.107L136.503 339.107L136.503 331.595L136.503 324.04L128.948 324.04L121.437 324.04L121.437 316.484L128.948 316.484L136.503 316.484L136.503 308.973L136.503 301.418L136.503 293.906L144.014 293.906L144.014 301.418L144.014 308.973L144.014 316.484L151.57 316.484L151.57 308.973L159.081 308.973L159.081 316.484L166.637 316.484L174.148 316.484L174.148 324.04L181.704 324.04L189.259 324.04L189.259 316.484L189.259 308.973L189.259 301.418L181.704 301.418L181.704 308.973L174.148 308.973L174.148 301.418L166.637 301.418L166.637 293.906L174.148 293.906L181.704 293.906L189.259 293.906L196.77 293.906L204.326 293.906L204.326 301.418L204.326 308.973L211.837 308.973L211.837 316.484L219.393 316.484L219.393 308.973L226.904 308.973L226.904 316.484L226.904 324.04L234.459 324.04L241.97 324.04L241.97 316.484L241.97 308.973L249.526 308.973L249.526 316.484L257.037 316.484L257.037 308.973L249.526 308.973L249.526 301.418L257.037 301.418L257.037 293.906L249.526 293.906L241.97 293.906L241.97 286.351L234.459 286.351L234.459 278.839L241.97 278.839L241.97 271.284L249.526 271.284L249.526 278.839L249.526 286.351L257.037 286.351L257.037 278.839Z" fill="#377D79" fill-opacity="0.5"/>
<path d="M234.463 406.929L234.463 414.484L242.018 414.484L242.018 406.929L234.463 406.929Z" fill="#377D79" fill-opacity="0.5"/>
<path d="M211.838 331.596L211.838 339.107L219.394 339.107L219.394 346.663L219.394 354.174L211.838 354.174L204.327 354.174L204.327 361.729L211.838 361.729L219.394 361.729L219.394 369.24L226.905 369.24L226.905 361.729L234.461 361.729L234.461 369.24L241.972 369.24L241.972 361.729L234.461 361.729L234.461 354.174L226.905 354.174L226.905 346.663L226.905 339.107L219.394 339.107L219.394 331.596L211.838 331.596Z" fill="#377D79" fill-opacity="0.5"/>
<path d="M249.533 263.777L249.533 271.288L257.044 271.288L257.044 263.777L257.044 256.221L249.533 256.221L241.978 256.221L241.978 263.777L249.533 263.777Z" fill="#377D79" fill-opacity="0.5"/>
<path d="M234.47 248.664L234.47 256.22L242.025 256.22L242.025 248.664L234.47 248.664Z" fill="#377D79" fill-opacity="0.5"/>
<path d="M219.399 233.598L211.843 233.598L211.843 241.153L204.332 241.153L204.332 248.709L196.776 248.709L196.776 256.22L204.332 256.22L211.843 256.22L211.843 248.709L219.399 248.709L219.399 256.22L219.399 263.775L211.843 263.775L211.843 271.287L211.843 278.842L219.399 278.842L226.91 278.842L226.91 271.287L226.91 263.775L234.466 263.775L234.466 256.22L226.91 256.22L226.91 248.709L234.466 248.709L234.466 241.153L226.91 241.153L226.91 233.598L226.91 226.087L219.399 226.087L219.399 233.598Z" fill="#377D79" fill-opacity="0.5"/>
<path d="M174.155 15.1079L174.155 7.55199L166.644 7.55199L159.088 7.55199L151.577 7.552L151.577 15.1079L159.088 15.1079L166.644 15.1079L174.155 15.1079Z" fill="#377D79" fill-opacity="0.5"/>
<path d="M196.776 7.552L196.776 15.1079L204.332 15.1079L204.332 7.55199L196.776 7.552Z" fill="#377D79" fill-opacity="0.5"/>
<path d="M181.71 -0.000685215L181.71 7.55469L189.265 7.55469L189.265 -0.000685545L181.71 -0.000685215Z" fill="#377D79" fill-opacity="0.5"/>
<path d="M219.403 60.2605L219.403 67.8159L226.959 67.8159L226.959 60.2605L219.403 60.2605Z" fill="#377D79" fill-opacity="0.5"/>
<path d="M241.981 52.7549L249.537 52.7549L249.537 45.244L241.981 45.244L234.47 45.244L234.47 52.7549L241.981 52.7549Z" fill="#377D79" fill-opacity="0.5"/>
<path d="M241.978 806.27L241.978 813.825L249.533 813.825L249.533 806.27L241.978 806.27Z" fill="#377D79" fill-opacity="0.5"/>
<path d="M241.978 226.088L241.978 233.599L249.533 233.599L249.533 226.088L249.533 218.532L241.978 218.532L241.978 226.088Z" fill="#377D79" fill-opacity="0.5"/>
<path d="M257.045 241.155L257.045 248.71L264.6 248.71L264.6 226.088L257.045 226.088L257.045 233.599L249.534 233.599L249.534 241.155L257.045 241.155Z" fill="#377D79" fill-opacity="0.5"/>
<path d="M257.044 527.467L257.044 535.023L264.599 535.023L264.599 527.467L257.044 527.467Z" fill="#377D79" fill-opacity="0.5"/>
<path d="M234.463 663.155L226.907 663.155L226.907 670.666L234.463 670.666L241.974 670.666L241.974 663.155L249.53 663.155L249.53 655.599L241.974 655.599L241.974 648.044L241.974 640.532L241.974 632.977L234.463 632.977L234.463 640.532L226.907 640.532L226.907 648.044L226.907 655.599L234.463 655.599L234.463 663.155Z" fill="#377D79" fill-opacity="0.5"/>
<path d="M249.534 210.972L249.534 218.528L257.09 218.528L257.09 210.972L249.534 210.972Z" fill="#377D79" fill-opacity="0.5"/>
<path d="M76.2059 746.042L68.6944 746.042L68.6944 753.554L61.1391 753.554L53.6276 753.554L53.6276 761.109L53.6276 768.621L53.6276 776.176L46.0723 776.176L46.0723 783.687L53.6276 783.687L61.1391 783.687L61.1391 776.176L61.1391 768.621L68.6944 768.621L68.6944 761.109L76.2059 761.109L76.2059 753.554L76.2059 746.042Z" fill="#377D79" fill-opacity="0.5"/>
<path d="M121.444 776.131L121.444 783.687L129 783.687L129 776.131L121.444 776.131Z" fill="#377D79" fill-opacity="0.5"/>
<path d="M257.044 648.04L257.044 655.596L264.599 655.596L264.599 648.04L257.044 648.04Z" fill="#377D79" fill-opacity="0.5"/>
<path d="M257.044 90.4421L257.044 97.998L264.599 97.998L264.599 90.4421L257.044 90.4421Z" fill="#377D79" fill-opacity="0.5"/>
<path d="M257.044 504.888L257.044 512.444L264.599 512.444L264.599 504.888L257.044 504.888Z" fill="#377D79" fill-opacity="0.5"/>
<path d="M257.045 120.573L257.045 128.128L264.6 128.128L264.6 105.506L257.045 105.506L257.045 113.062L249.534 113.062L249.534 120.573L257.045 120.573Z" fill="#377D79" fill-opacity="0.5"/>
<path d="M249.534 128.083L249.534 135.638L257.09 135.638L257.09 128.083L249.534 128.083Z" fill="#377D79" fill-opacity="0.5"/>
<path d="M257.044 45.1995L257.044 52.7549L264.599 52.7549L264.599 45.1995L257.044 45.1995Z" fill="#377D79" fill-opacity="0.5"/>
<path d="M241.981 30.1763L249.537 30.1763L257.047 30.1763L257.047 22.6204L249.537 22.6204L249.537 15.1095L241.981 15.1095L241.981 22.6204L234.47 22.6204L234.47 30.1763L241.981 30.1763Z" fill="#377D79" fill-opacity="0.5"/>
<path d="M257.044 30.1307L257.044 37.686L264.599 37.686L264.599 30.1307L257.044 30.1307Z" fill="#377D79" fill-opacity="0.5"/>
<path d="M257.044 15.0618L257.044 22.6172L264.599 22.6172L264.599 15.0618L257.044 15.0618Z" fill="#377D79" fill-opacity="0.5"/>
<path d="M204.337 746.002L204.337 753.558L211.892 753.558L211.892 746.002L204.337 746.002Z" fill="#377D79" fill-opacity="0.5"/>
</svg>
