<svg width="901" height="525" viewBox="0 0 901 525" fill="none" xmlns="http://www.w3.org/2000/svg">
<path d="M476.872 518.561H470.909V524.524H476.872V518.561Z" fill="#071214"/>
<path d="M423.204 518.561H417.241V524.524H423.204V518.561Z" fill="#071214"/>
<path d="M357.665 518.561H351.702V524.524H357.665V518.561Z" fill="#071214"/>
<path d="M339.779 518.561H333.816V524.524H339.779V518.561Z" fill="#071214"/>
<path d="M411.276 512.645H405.313V518.607H411.276V512.645Z" fill="#071214"/>
<path d="M393.393 512.645H387.431V518.607H393.393V512.645Z" fill="#071214"/>
<path d="M309.961 512.645H303.998V518.607H309.961V512.645Z" fill="#071214"/>
<path d="M238.408 512.645H232.445V518.607H238.408V512.645Z" fill="#071214"/>
<path d="M464.945 506.683H458.982V512.645H464.945V506.683Z" fill="#071214"/>
<path d="M357.665 506.683H351.702V512.645H357.665V506.683Z" fill="#071214"/>
<path d="M286.106 506.683H280.144V512.645H286.106V506.683Z" fill="#071214"/>
<path d="M208.648 506.683V512.645H214.565H220.527V506.683H214.565H208.648Z" fill="#071214"/>
<path d="M333.81 500.72H327.848V506.682H333.81V500.72Z" fill="#071214"/>
<path d="M196.717 500.72H190.754V506.682H196.717V500.72Z" fill="#071214"/>
<path d="M458.978 494.757H453.016V500.719H458.978V494.757Z" fill="#071214"/>
<path d="M375.502 494.757H369.539V500.719H375.502V494.757Z" fill="#071214"/>
<path d="M351.702 494.757V500.719H357.619H363.581V494.757H357.619H351.702Z" fill="#071214"/>
<path d="M333.816 500.72H339.779V494.757V488.794H333.816V494.757V500.72Z" fill="#071214"/>
<path d="M292.074 494.757H286.111V500.719H292.074V494.757Z" fill="#071214"/>
<path d="M268.224 500.719V506.682H274.186V500.719V494.757H268.224V500.719Z" fill="#071214"/>
<path d="M250.332 494.757H244.369V500.719H250.332V494.757Z" fill="#071214"/>
<path d="M393.391 488.794V494.757V500.72H399.353V494.757H405.316V488.794H399.353H393.391Z" fill="#071214"/>
<path d="M262.256 488.794H256.293V494.757H262.256V488.794Z" fill="#071214"/>
<path d="M178.834 488.794H172.871V494.757H178.834V488.794Z" fill="#071214"/>
<path d="M447.054 482.832H441.092V488.795H447.054V482.832Z" fill="#071214"/>
<path d="M411.276 482.832H405.313V488.795H411.276V482.832Z" fill="#071214"/>
<path d="M369.537 482.831H363.575V476.868H357.612V482.831V488.793H363.575H369.537V482.831Z" fill="#071214"/>
<path d="M303.998 482.832V488.795V494.757H309.961H315.923V488.795V482.832H309.961H303.998Z" fill="#071214"/>
<path d="M268.227 488.795H274.19H280.152V482.832H274.19H268.227H262.265V488.795H268.227Z" fill="#071214"/>
<path d="M238.408 482.832H232.445V488.795H238.408V482.832Z" fill="#071214"/>
<path d="M214.559 488.795V494.757H220.521V488.795V482.832H214.559V488.795Z" fill="#071214"/>
<path d="M208.644 482.832H202.682V488.795H208.644V482.832Z" fill="#071214"/>
<path d="M184.794 482.832H178.831V488.795H184.794V482.832Z" fill="#071214"/>
<path d="M172.866 482.832H166.903V488.795H172.866V482.832Z" fill="#071214"/>
<path d="M548.379 476.868V482.831H554.342H560.304V476.868H554.342H548.379Z" fill="#071214"/>
<path d="M500.674 476.868V482.831V488.793H506.636V482.831H512.599V476.868H506.636H500.674Z" fill="#071214"/>
<path d="M417.241 476.868V482.831V488.793H423.204V482.831H429.166V476.868H423.204H417.241Z" fill="#071214"/>
<path d="M315.926 476.868V482.831H321.888V488.793H327.851H333.814V482.831H327.851V476.868H321.888H315.926Z" fill="#071214"/>
<path d="M286.106 476.868H280.144V482.831H286.106V476.868Z" fill="#071214"/>
<path d="M244.377 476.868H238.414V482.831H244.377V476.868Z" fill="#071214"/>
<path d="M178.834 476.868H172.871V482.831H178.834V476.868Z" fill="#071214"/>
<path d="M154.983 476.868H149.021V482.831H154.983V476.868Z" fill="#071214"/>
<path d="M542.414 470.905H536.451V476.868H542.414V470.905Z" fill="#071214"/>
<path d="M494.759 470.905H488.797V476.868H494.759H500.676V470.905H494.759Z" fill="#071214"/>
<path d="M482.832 470.905H476.869V476.868H482.832V470.905Z" fill="#071214"/>
<path d="M458.978 470.905H453.016V476.868H458.978V470.905Z" fill="#071214"/>
<path d="M345.742 476.868V482.83H351.705V476.868V470.905H345.742V476.868Z" fill="#071214"/>
<path d="M304.002 470.905H298.039V476.868V482.83H304.002V476.868V470.905Z" fill="#071214"/>
<path d="M256.294 470.905H250.332H244.369V476.868H250.332V482.83H256.294H262.257V476.868H256.294V470.905Z" fill="#071214"/>
<path d="M238.408 470.905H232.445V476.868H238.408V470.905Z" fill="#071214"/>
<path d="M226.488 470.905H220.525V476.868H226.488V470.905Z" fill="#071214"/>
<path d="M196.717 470.905H190.754V476.868H196.717V470.905Z" fill="#071214"/>
<path d="M149.015 470.905H143.053V476.868H149.015V470.905Z" fill="#071214"/>
<path d="M131.133 470.905H125.171V476.868H131.133V470.905Z" fill="#071214"/>
<path d="M524.523 464.943H518.561V470.905H524.523V464.943Z" fill="#071214"/>
<path d="M375.506 464.943V458.98H369.544H363.581V464.943H369.544V470.906V476.868H375.506V470.906V464.943Z" fill="#071214"/>
<path d="M315.923 470.905H321.886V464.943H315.923H309.961H303.998V470.905H309.961H315.923Z" fill="#071214"/>
<path d="M280.152 464.943V458.98H274.19V464.943H268.227V470.906H262.265V476.868H268.227H274.19V470.906H280.152H286.115H292.078V464.943H286.115H280.152Z" fill="#071214"/>
<path d="M262.256 464.943H256.293V470.905H262.256V464.943Z" fill="#071214"/>
<path d="M172.866 464.943H166.903V470.905H172.866V464.943Z" fill="#071214"/>
<path d="M637.808 458.98H631.846V464.943H637.808V458.98Z" fill="#071214"/>
<path d="M566.265 458.98H560.303V464.943H566.265V458.98Z" fill="#071214"/>
<path d="M154.983 458.98H149.021V464.943H154.983V458.98Z" fill="#071214"/>
<path d="M53.6638 458.98H47.7012V464.943H53.6638V458.98Z" fill="#071214"/>
<path d="M542.414 453.018H536.451V458.981H542.414V453.018Z" fill="#071214"/>
<path d="M524.523 458.981H530.486V453.018H524.523H518.561V458.981H524.523Z" fill="#071214"/>
<path d="M292.074 453.018H286.111V458.981H292.074V453.018Z" fill="#071214"/>
<path d="M208.642 453.02V447.057V441.095H214.558V435.132V429.169H208.642V435.132H202.679V441.095H196.717V447.057V453.02H202.679V458.982H196.717H190.754V464.945H196.717H202.679H208.642V470.908H202.679V476.87H208.642H214.558V470.908V464.945V458.982H208.642V453.02Z" fill="#071214"/>
<path d="M149.015 453.018H143.053V458.981H149.015V453.018Z" fill="#071214"/>
<path d="M137.091 453.018H131.129V458.981H137.091V453.018Z" fill="#071214"/>
<path d="M578.192 447.057H572.229V453.02H578.192V447.057Z" fill="#071214"/>
<path d="M500.669 453.02H494.753V458.982H500.669V464.945H506.632V458.982V453.02V447.057H500.669V453.02Z" fill="#071214"/>
<path d="M476.872 447.057H470.909V453.02H476.872V447.057Z" fill="#071214"/>
<path d="M107.287 447.057V453.02H113.25H119.212V447.057H113.25H107.287Z" fill="#071214"/>
<path d="M59.6237 447.057H53.6611V453.02H59.6237V447.057Z" fill="#071214"/>
<path d="M661.617 441.094H655.654V447.057H661.617V441.094Z" fill="#071214"/>
<path d="M596.074 441.094H590.111V447.057H596.074V441.094Z" fill="#071214"/>
<path d="M572.225 441.094H566.263V447.057H572.225V441.094Z" fill="#071214"/>
<path d="M220.521 441.094H214.559V447.057H220.521V441.094Z" fill="#071214"/>
<path d="M166.903 447.057V453.019V458.982H172.866V453.019H178.829V447.057H172.866V441.094H166.903V447.057Z" fill="#071214"/>
<path d="M643.729 435.131H637.767V441.093H643.729V435.131Z" fill="#071214"/>
<path d="M625.885 435.131H619.923V441.093H625.885V435.131Z" fill="#071214"/>
<path d="M602.035 435.131V441.093H607.998H613.96V435.131H607.998H602.035Z" fill="#071214"/>
<path d="M166.906 435.131H160.943V441.093H166.906V435.131Z" fill="#071214"/>
<path d="M77.4658 435.131V441.093H83.4284H89.391V435.131H83.4284H77.4658Z" fill="#071214"/>
<path d="M715.285 429.169H709.322V435.132H715.285V429.169Z" fill="#071214"/>
<path d="M655.658 429.169H649.695V435.132H655.658V429.169Z" fill="#071214"/>
<path d="M631.852 429.169H625.89V435.132H631.852V429.169Z" fill="#071214"/>
<path d="M619.925 429.169H613.963V435.132H619.925V429.169Z" fill="#071214"/>
<path d="M578.192 435.132H572.229V441.095H578.192H584.155V435.132V429.169H578.192V435.132Z" fill="#071214"/>
<path d="M119.198 435.131V441.094H125.161V435.131V429.169V423.206H119.198V429.169V435.131Z" fill="#071214"/>
<path d="M113.246 435.132V429.169H107.283H101.32V435.132H107.283H113.246Z" fill="#071214"/>
<path d="M65.5915 429.169H59.6289V435.132H65.5915V429.169Z" fill="#071214"/>
<path d="M661.617 423.206H655.654V429.169H661.617V423.206Z" fill="#071214"/>
<path d="M590.116 429.169H596.079V423.206H590.116H584.153V429.169H590.116Z" fill="#071214"/>
<path d="M667.584 417.243H661.621V423.206H667.584V417.243Z" fill="#071214"/>
<path d="M619.925 417.243H613.963V423.206H619.925V417.243Z" fill="#071214"/>
<path d="M113.248 417.243H107.286H101.323H95.3604V423.206H101.323H107.286H113.248H119.211V417.243H113.248Z" fill="#071214"/>
<path d="M59.6237 417.243H53.6611V423.206H59.6237V417.243Z" fill="#071214"/>
<path d="M23.8464 417.243H17.8838V423.206H23.8464V417.243Z" fill="#071214"/>
<path d="M691.43 411.281H685.468V417.244H691.43V411.281Z" fill="#071214"/>
<path d="M649.692 411.281H643.729H637.767V417.244H643.729H649.692V411.281Z" fill="#071214"/>
<path d="M607.998 417.244H613.96V411.281H607.998H602.035V417.244H607.998Z" fill="#071214"/>
<path d="M590.116 411.281H584.153V417.244H590.116V411.281Z" fill="#071214"/>
<path d="M661.621 405.316V411.279H667.584V417.242H673.546V411.279V405.316H667.584H661.621Z" fill="#071214"/>
<path d="M631.848 411.279V405.316H625.885H619.923V411.279H625.885H631.848Z" fill="#071214"/>
<path d="M65.5915 405.316H59.6289V411.279H65.5915V405.316Z" fill="#071214"/>
<path d="M715.285 399.355H709.322V405.318H715.285V399.355Z" fill="#071214"/>
<path d="M703.361 399.355H697.398V405.318H703.361V399.355Z" fill="#071214"/>
<path d="M679.504 399.355H673.541V405.318H679.504V399.355Z" fill="#071214"/>
<path d="M655.658 399.355H649.695V405.318H655.658V399.355Z" fill="#071214"/>
<path d="M643.729 399.355H637.767V405.318H643.729V399.355Z" fill="#071214"/>
<path d="M697.394 393.392H691.432V399.355H697.394V393.392Z" fill="#071214"/>
<path d="M667.584 393.392H661.621V399.355H667.584V393.392Z" fill="#071214"/>
<path d="M83.434 393.391V387.429H77.4714V393.391V399.354H71.5088V405.317H77.4714V411.279H83.434V405.317V399.354H89.3966V393.391H83.434Z" fill="#071214"/>
<path d="M17.8894 393.392H11.9268V399.355H17.8894V393.392Z" fill="#071214"/>
<path d="M745.095 387.429H739.133V393.391H745.095V387.429Z" fill="#071214"/>
<path d="M691.43 387.429H685.468V393.391H691.43V387.429Z" fill="#071214"/>
<path d="M673.544 387.429H667.581V393.391H673.544V387.429Z" fill="#071214"/>
<path d="M691.432 381.466V387.429H697.394H703.357V381.466H697.394H691.432Z" fill="#071214"/>
<path d="M101.323 381.466H95.3604V387.429H101.323V381.466Z" fill="#071214"/>
<path d="M721.239 375.55V381.467H727.202H733.164V375.55H727.202H721.239Z" fill="#071214"/>
<path d="M685.464 375.55H679.501V381.467V387.429H685.464V381.467V375.55Z" fill="#071214"/>
<path d="M47.697 375.55H41.7344V381.513H47.697V375.55Z" fill="#071214"/>
<path d="M745.093 375.551H751.055V369.589V363.626H745.093V369.589V375.551Z" fill="#071214"/>
<path d="M697.394 369.587H691.432V375.55H697.394V369.587Z" fill="#071214"/>
<path d="M101.323 369.587H95.3604V375.55H101.323V369.587Z" fill="#071214"/>
<path d="M727.202 363.626H721.239V369.589H727.202V363.626Z" fill="#071214"/>
<path d="M59.6237 363.626H53.6611V369.589H59.6237V363.626Z" fill="#071214"/>
<path d="M745.095 357.662H739.133V363.625H745.095V357.662Z" fill="#071214"/>
<path d="M762.979 351.7H757.017V357.662H762.979V351.7Z" fill="#071214"/>
<path d="M727.206 351.7V357.662H733.169H739.131V351.7H733.169H727.206Z" fill="#071214"/>
<path d="M757.015 345.737H751.053V351.7H757.015V345.737Z" fill="#071214"/>
<path d="M71.5466 345.737H65.584V351.7H71.5466V345.737Z" fill="#071214"/>
<path d="M762.979 339.774H757.017V345.737H762.979V339.774Z" fill="#071214"/>
<path d="M65.5915 339.774H59.6289V345.737H65.5915V339.774Z" fill="#071214"/>
<path d="M757.015 333.814H751.053V339.777H757.015V333.814Z" fill="#071214"/>
<path d="M71.5004 333.814H65.584V339.777H71.5004H77.463V333.814H71.5004Z" fill="#071214"/>
<path d="M53.6638 333.814H47.7012V339.777V345.739H53.6638V339.777H59.6264V333.814H53.6638Z" fill="#071214"/>
<path d="M780.82 333.813H786.783V327.851V321.888H780.82V327.851V333.813Z" fill="#071214"/>
<path d="M768.946 327.851H762.983V333.814H768.946V327.851Z" fill="#071214"/>
<path d="M739.129 333.814V339.776H733.166V345.739H739.129V351.701H745.091V345.739H751.054V339.776H745.091V333.814V327.851H739.129V333.814Z" fill="#071214"/>
<path d="M65.5915 327.851H59.6289V333.814H65.5915V327.851Z" fill="#071214"/>
<path d="M5.96259 327.851H0V333.814H5.96259V327.851Z" fill="#071214"/>
<path d="M71.5004 321.888H77.463V315.926H71.5004H65.584V321.888V327.851H71.5004V321.888Z" fill="#071214"/>
<path d="M47.7035 321.888H41.7409V327.851H35.7783V333.813H41.7409H47.7035V327.851V321.888Z" fill="#071214"/>
<path d="M828.525 315.926H822.562V321.888H828.525V315.926Z" fill="#071214"/>
<path d="M768.943 315.924H762.981V303.999H757.018V298.036H762.981V292.074H757.018V286.111H762.981V292.074H780.869V286.111H774.906V268.223H780.869V262.261H798.756V274.186H804.719V262.261H810.681V256.298H804.719V250.335H798.756V238.41H792.794V244.373H786.831V238.41H792.794V226.485H786.831V208.597H792.794V226.485H798.756V232.448H804.719V220.522H810.681V232.448H804.719V238.41H816.644V214.56H822.607V220.522H840.494V214.56H834.532V208.597H822.607V202.635H834.532V196.672H816.644V202.635H810.681V196.672H816.644V190.709H810.681V184.747H804.719V190.709H798.756V184.747H804.719V178.784H810.681V184.747H816.644V190.709H822.607V184.747H828.569V178.784H834.532V166.859H828.569V172.822H822.607V178.784H816.644V172.822H822.607V166.859H810.681V160.896H798.756V131.083H804.719V148.971H810.681V154.934H816.644V143.009H828.569V137.046H822.607V131.083H816.644V137.046H810.681V125.121H798.756V113.196H792.794V107.233H786.831V113.196H768.943V107.233H751.056V113.196H757.018V119.158H762.981V131.083H757.018V119.158H745.093V101.27H739.13V95.3079H727.205V89.3453H733.168V83.3827H739.13V77.4201H745.093V71.4575H739.13V65.4949H745.093V59.5323H739.13V53.5697H727.205V59.5323H733.168V71.4575H727.205V83.3827H721.242V89.3453H715.28V83.3827H721.242V77.4201H709.317V83.3827H703.355V77.4201H697.392V71.4575H685.467V65.4949H679.504V71.4575H673.542V77.4201H691.43V83.3827H673.542V89.3453H667.579V95.3079H655.654V89.3453H667.579V71.4575H661.617V77.4201H655.654V65.4949H661.617V59.5323H649.691V53.5697H643.729V59.5323H637.766V65.4949H631.804V59.5323H613.916V47.6071H607.953V53.5697H601.991V59.5323H607.953V65.4949H596.028V71.4575H601.991V77.4201H607.953V83.3827H613.916V89.3453H607.953V95.3079H601.991V89.3453H607.953V83.3827H601.991V77.4201H596.028V71.4575H572.178V59.5323H578.14V53.5697H572.178V47.6071H566.215V59.5323H560.253V47.6071H530.44V53.5697H524.477V47.6071H518.514V41.6445H512.552V53.5697H500.627V59.5323H512.552V65.4949H524.477V77.4201H518.514V71.4575H512.552V65.4949H470.814V71.4575H476.776V77.4201H464.851V89.3453H458.888V77.4201H464.851V65.4949H470.814V53.5697H458.888V47.6071H446.963V41.6445H441.001V53.5697H452.926V59.5323H458.888V65.4949H441.001V59.5323H435.038V65.4949H429.075V59.5323H435.038V53.5697H423.113V65.4949H417.15V71.4575H411.188V65.4949H405.225V71.4575H399.262V77.4201H411.188V83.3827H417.15V95.3079H423.113V101.27H435.038V113.196H429.075V107.233H423.113V113.196H417.15V107.233H423.113V101.27H417.15V95.3079H411.188V83.3827H405.225V89.3453H399.262V77.4201H393.3V83.3827H381.375V77.4201H375.412V83.3827H357.524V89.3453H351.562V95.3079H357.524V101.27H351.562V95.3079H345.599V101.27H339.637V113.196H345.599V107.233H351.562V113.196H345.599V119.158H339.637V125.121H333.674V131.083H327.711V125.121H333.674V119.158H339.637V113.196H333.674V107.233H327.711V89.3453H321.749V95.3079H315.786V101.27H309.824V107.233H303.861V119.158H321.749V113.196H327.711V119.158H321.749V131.083H315.786V125.121H303.861V119.158H297.898V107.233H285.973V113.196H291.936V125.121H285.973V119.158H268.085V113.196H262.123V125.121H274.048V131.083H268.085V137.046H262.123V125.121H244.235V119.158H238.272V131.083H244.235V137.046H238.272V143.009H232.31V148.971H226.347V154.934H220.385V160.896H214.422V154.934H220.385V148.971H226.347V143.009H232.31V137.046H238.272V131.083H232.31V125.121H226.347V137.046H220.385V143.009H214.422V148.971H208.459V143.009H196.534V148.971H202.497V154.934H208.459V172.822H202.497V160.896H184.609V172.822H178.646V166.859H172.684V172.822H166.721V178.784H172.684V184.747H178.646V178.784H184.609V184.747H190.572V190.709H196.534V196.672H190.572V190.709H184.609V184.747H178.646V190.709H172.684V196.672H178.646V202.635H172.684V208.597H178.646V214.56H172.684V208.597H166.721V220.522H160.759V214.56H154.796V220.522H148.833V214.56H154.796V208.597H166.721V202.635H172.684V196.672H160.759V202.635H154.796V190.709H160.759V184.747H154.796V178.784H160.759V172.822H154.796V166.859H148.833V196.672H136.908V202.635H142.871V214.56H136.908V220.522H130.946V214.56H124.983V220.522H113.058V226.485H130.946V232.448H119.02V238.41H113.058V232.448H107.095V244.373H95.1701V250.335H113.058V262.261H101.133V268.223H95.1701V262.261H89.2075V256.298H83.2449V268.223H89.2075V274.186H95.1701V280.148H89.2075V286.111H83.2449V298.036H89.2075V292.074H101.133V303.999H95.1701V298.036H89.2075V303.999H83.2449V309.961H95.1701V321.886H89.2075V315.924H83.2449V321.886H77.2823V327.849H83.2449V339.774H77.2823V351.699H71.3197V357.662H59.3945V363.625H71.3197V369.587H77.2823V375.55H71.3197V369.587H59.3945V381.512H83.2449V369.587H95.1701V363.625H83.2449V351.699H89.2075V357.662H95.1701V363.625H101.133V369.587H107.095V375.55H101.133V381.512H107.095V387.475H101.133V393.438H95.1701V399.4H89.2075V411.325H95.1701V405.363H101.133V399.4H107.095V405.363H113.058V411.325H124.983V417.288H142.871V423.251H136.908V429.213H148.833V435.176H142.871V447.101H148.833V453.064H154.796V417.288H160.759V423.251H166.721V429.213H172.684V423.251H178.646V417.288H172.684V411.325H184.609V405.363H202.497V411.325H184.609V423.251H178.646V429.213H172.684V441.138H184.609V459.026H190.572V441.138H196.534V435.176H202.497V423.251H214.422V429.213H220.385V435.176H226.347V447.101H220.385V453.064H214.422V459.026H226.347V453.064H238.272V459.026H226.347V464.989H238.272V470.951H244.235V447.101H238.272V441.138H244.235V447.101H262.123V453.064H250.198V464.989H256.16V459.026H262.123V464.989H268.085V459.026H274.048V453.064H268.085V447.101H274.048V453.064H285.973V447.101H291.936V453.064H297.898V459.026H291.936V464.989H303.861V447.101H309.824V459.026H321.749V447.101H315.786V429.213H321.749V423.251H327.711V429.213H321.749V441.138H327.711V459.026H321.749V464.989H327.711V476.914H333.674V470.951H339.637V459.026H345.599V464.989H351.562V470.951H363.487V464.989H357.524V459.026H363.487V453.064H375.412V459.026H387.337V453.064H381.375V441.138H387.337V447.101H399.262V441.138H405.225V447.101H399.262V453.064H411.188V459.026H399.262V453.064H393.3V459.026H387.337V464.989H381.375V476.914H375.412V482.877H387.337V470.951H393.3V476.914H399.262V464.989H405.225V470.951H417.15V464.989H435.038V459.026H423.113V447.101H429.075V453.064H435.038V447.101H441.001V453.064H435.038V459.026H446.963V464.989H435.038V470.951H452.926V464.989H464.851V470.951H470.814V453.064H458.888V459.026H452.926V441.138H464.851V447.101H470.814V441.138H476.776V447.101H482.739V453.064H494.664V447.101H500.627V441.138H494.664V435.176H506.589V447.101H512.552V453.064H518.514V447.101H536.402V441.138H530.44V429.213H536.402V441.138H542.365V453.064H548.327V447.101H554.29V435.176H560.253V429.213H578.14V423.251H584.103V417.288H578.14V411.325H572.178V405.363H590.065V411.325H601.991V405.363H607.953V399.4H601.991V393.438H596.028V399.4H590.065V393.438H596.028V387.475H601.991V393.438H607.953V387.475H613.916V381.512H607.953V375.55H613.916V381.512H619.878V387.475H613.916V393.438H619.878V399.4H625.841V393.438H637.766V387.475H649.691V381.512H643.729V375.55H649.691V381.512H655.654V387.475H649.691V393.438H661.617V369.587H655.654V363.625H667.579V375.55H673.542V369.587H691.43V357.662H697.392V351.699H703.355V363.625H697.392V369.587H709.317V375.55H715.28V357.662H709.317V351.699H715.28V357.662H721.242V351.699H727.205V339.774H733.168V333.812H727.205V327.849H739.13V321.886H733.168V309.961H727.205V315.924H721.242V309.961H715.28V303.999H721.242V309.961H727.205V298.036H733.168V303.999H739.13V321.886H745.093V327.849H751.056V321.886H757.018V327.849H762.981V321.886H780.869V315.924H768.943ZM709.317 333.812H703.355V339.774H697.392V333.812H703.355V327.849H709.317V333.812ZM560.299 417.242H554.336V411.279H560.299V417.242ZM542.411 405.317V411.279H536.448V399.354H542.411V405.317ZM524.523 423.204H518.561V417.242H512.598V411.279H518.561V417.242H524.523V423.204ZM345.692 447.055V441.092H351.654V447.055H345.692ZM143.01 405.317V399.354H148.972V405.317H143.01ZM107.234 315.924H113.197V321.886H107.234V315.924ZM125.122 262.261H131.084V268.223H125.122V262.261ZM268.178 149.017H274.14V143.055H280.103V149.017H274.14V154.98H280.103V160.943H274.14V154.98H268.178V149.017ZM357.57 119.204H363.533V125.167H369.496V131.13H363.533V125.167H357.57V119.204ZM476.776 89.3915H482.739V95.3541H476.776V89.3915ZM530.44 83.4289H536.402V77.4663H542.365V83.4289H536.402V89.3915H530.44V83.4289ZM554.29 71.5037V83.4289H548.327V71.5037H554.29ZM762.934 274.186H756.972V268.223H762.934V274.186ZM381.467 417.242V411.279H387.43V417.242H381.467ZM286.112 154.98H292.074V160.943H286.112V154.98ZM488.794 89.3915H494.756V95.3541H500.719V101.317H494.756V95.3541H488.794V89.3915ZM780.869 172.822H774.906V166.859H780.869V172.822ZM625.887 357.616H619.925V351.653H625.887V357.616ZM256.299 172.868H262.261V178.83H256.299V172.868ZM351.654 149.017H357.617V154.98H351.654V149.017ZM739.084 143.055H733.122V137.092H739.084V143.055ZM619.878 339.774H613.916V333.812H619.878V339.774ZM154.935 375.55V369.587H160.897V375.55H154.935ZM762.934 172.868H756.972V166.905H762.934V172.868ZM166.86 268.223H172.822V274.186H166.86V268.223ZM709.271 119.204H703.309V113.242H709.271V119.204ZM572.178 113.242H566.215V107.279H572.178V113.242ZM452.972 143.055H447.009V137.092H452.972V143.055ZM435.084 143.055H429.122V137.092H435.084V143.055ZM351.654 411.279H357.617V417.242H351.654V411.279ZM727.159 268.223H733.122V274.186H727.159V268.223ZM751.009 256.298V250.335H756.972V256.298H751.009ZM751.009 149.017H745.047V143.055H751.009V149.017ZM667.579 119.204H661.617V113.242H667.579V119.204ZM560.299 95.3541H554.336V89.3915H560.299V95.3541ZM482.831 107.279V113.242H476.869V107.279H482.831ZM280.149 172.868H274.187V166.905H280.149V172.868ZM125.168 345.737H131.131V351.699H125.168V345.737ZM667.579 333.812H673.542V339.774H667.579V333.812ZM679.504 333.812V327.849H673.542V321.886H679.504V327.849H685.467V333.812H679.504ZM786.785 190.756H780.822V184.793H786.785V190.756ZM768.897 149.017H762.934V143.055H768.897V149.017ZM649.691 107.279H643.729V101.317H649.691V107.279ZM214.561 190.709H220.523V196.672H214.561V190.709ZM107.28 333.765V339.728H101.318V333.765H107.28ZM131.131 399.354H137.093V405.317H131.131V399.354ZM375.505 423.204H381.467V429.167H375.505V423.204ZM411.28 411.279H417.243V417.242H411.28V411.279ZM476.869 417.242H482.831V423.204H476.869V417.242ZM488.794 411.279H500.719V417.242H488.794V411.279ZM554.382 387.429H560.345V393.391H554.382V387.429ZM643.775 345.691H655.7V351.653H643.775V345.691ZM739.13 286.065H745.093V292.027H739.13V286.065ZM810.635 208.597V214.56H804.673V208.597H798.71V202.635H804.673V208.597H810.635ZM804.673 166.859V172.822H798.71V178.784H792.747V172.822H798.71V166.859H804.673ZM792.747 137.046H786.785V131.083H792.747V137.046ZM792.747 119.158V125.121H786.785V119.158H792.747ZM768.897 125.121H780.822V131.083H768.897V125.121ZM649.691 95.3079H643.729V89.3453H649.691V95.3079ZM649.691 65.4949V71.4575H643.729V65.4949H649.691ZM637.766 71.4575V89.3453H631.804V83.3827H625.841V77.4201H631.804V71.4575H637.766ZM619.878 65.4949V71.4575H613.916V65.4949H619.878ZM625.841 89.3453V95.3079H619.878V89.3453H625.841ZM566.215 77.4201H560.253V71.4575H566.215V77.4201ZM554.29 53.5697V59.5323H548.327V53.5697H554.29ZM542.365 53.5697V65.4949H536.402V53.5697H542.365ZM518.514 89.3453H512.552V83.3827H518.514V89.3453ZM458.888 101.27H452.926V95.3079H458.888V101.27ZM446.963 71.4575V77.4201H452.926V83.3827H446.963V89.3453H441.001V83.3827H446.963V77.4201H441.001V71.4575H446.963ZM423.113 77.4201H429.075V71.4575H435.038V77.4201H429.075V83.3827H423.113V77.4201ZM429.075 95.3079V89.3453H435.038V95.3079H429.075ZM363.487 95.3079V89.3453H375.412V95.3079H387.337V89.3453H393.3V95.3079H387.337V101.27H375.412V95.3079H369.449V107.233H363.487V95.3079ZM309.824 131.083V137.046H303.861V148.971H297.898V137.046H303.861V131.083H309.824ZM262.123 148.971H250.198V143.009H262.123V148.971ZM250.198 131.083H256.16V137.046H250.198V131.083ZM232.31 160.896H238.272V166.859H226.347V160.896H232.31ZM202.497 190.709H208.459V196.672H202.497V190.709ZM136.908 226.485H148.833V232.448H136.908V226.485ZM101.133 274.186H107.095V280.148H101.133V274.186ZM113.058 363.578H130.946V369.541H113.058V363.578ZM190.525 423.204V417.242H196.488V423.204H190.525ZM285.881 441.092H273.956V435.13H279.918V429.167H291.843V435.13H297.806V441.092H285.881ZM333.581 441.092V435.13H339.544V447.055H333.581V441.092ZM369.357 441.092V447.055H363.394V441.092H369.357V435.13H375.32V441.092H369.357ZM399.17 435.13V429.167H405.133V435.13H399.17ZM411.095 435.13H417.058V429.167H411.095V423.204H417.058V429.167H423.02V435.13H417.058V441.092H411.095V435.13ZM446.871 435.13H440.908V441.092H434.946V435.13H440.908V429.167H452.833V435.13H446.871ZM464.759 435.13V423.204H470.721V435.13H464.759ZM476.684 429.167H482.646V435.13H476.684V429.167ZM494.572 429.167V423.204H500.534V429.167H494.572ZM512.459 441.092V435.13H518.422V441.092H512.459ZM542.272 435.13V423.204H530.347V417.242H542.272V423.204H548.235V435.13H542.272ZM572.085 423.204H566.123V417.242H572.085V423.204ZM560.16 405.317H548.235V399.354H566.123V405.317H560.16ZM578.048 393.391H572.085V387.429H584.01V393.391H578.048ZM649.553 369.541H643.59V357.616H649.553V369.541ZM679.366 357.616V363.578H673.403V357.616H679.366V351.653H685.328V357.616H679.366ZM721.104 333.765V339.728H715.141V327.803H721.104V333.765ZM709.179 315.878V321.84H703.216V309.915H709.179V315.878ZM715.141 297.99V292.027H721.104V297.99H715.141ZM750.917 315.878V309.915H756.879V315.878H750.917Z" fill="#071214"/>
<path d="M804.672 315.926H810.635V309.963V304H804.672V309.963V315.926Z" fill="#071214"/>
<path d="M780.82 309.963V315.926H786.783H792.746V309.963H786.783H780.82Z" fill="#071214"/>
<path d="M83.4284 309.963H77.4658V315.926H83.4284V309.963Z" fill="#071214"/>
<path d="M798.711 304H792.748V309.963H798.711V304Z" fill="#071214"/>
<path d="M77.4714 304H71.5088V309.963H77.4714V304Z" fill="#071214"/>
<path d="M65.5863 304H59.6237V309.963H53.6611V315.926H59.6237H65.5863V309.963V304Z" fill="#071214"/>
<path d="M53.6638 304H47.7012V309.963H53.6638V304Z" fill="#071214"/>
<path d="M804.678 298.037H798.716V304H804.678V298.037Z" fill="#071214"/>
<path d="M83.4284 298.037H77.4658V304H83.4284V298.037Z" fill="#071214"/>
<path d="M59.6289 292.074V298.037H65.5915H71.5079V292.074V286.112H65.5915V292.074H59.6289Z" fill="#071214"/>
<path d="M47.7035 298.037V292.074H41.7409V286.112H35.7783V292.074V298.037H41.7409H47.7035Z" fill="#071214"/>
<path d="M828.525 286.112H822.562V292.074H828.525V286.112Z" fill="#071214"/>
<path d="M59.6237 286.112H53.6611V292.074H59.6237V286.112Z" fill="#071214"/>
<path d="M852.367 280.149H846.404V286.112H852.367V280.149Z" fill="#071214"/>
<path d="M65.5915 280.149H59.6289V286.112H65.5915V280.149Z" fill="#071214"/>
<path d="M816.598 274.187H822.561V268.225V262.262H828.523V256.3V250.337H822.561V256.3H816.598V262.262H810.635V268.225V274.187H804.673V280.15H798.71V286.112H792.747V280.15H798.71V274.187H792.747V268.225H786.785H780.822V274.187V280.15H786.785V286.112V292.075V298.038H780.822H774.906H768.943V304H774.906V309.963H780.822V304H786.785H792.747V298.038V292.075H798.71H804.673V286.112H810.635V292.075H816.598V286.112H822.561V280.15H816.598V274.187Z" fill="#071214"/>
<path d="M83.4284 274.185V268.223H77.4658V274.185V280.148V286.11H83.4284V280.148V274.185Z" fill="#071214"/>
<path d="M828.525 274.185H822.562V280.148H828.525H834.488V274.185V268.223H828.525V274.185Z" fill="#071214"/>
<path d="M71.5466 268.223H65.584V274.185H71.5466V268.223Z" fill="#071214"/>
<path d="M59.6237 262.263H53.6611V268.226H59.6237V262.263Z" fill="#071214"/>
<path d="M846.407 256.299H840.444H834.481V262.262H840.444H846.407V256.299Z" fill="#071214"/>
<path d="M101.323 256.299H95.3604V262.262H101.323V256.299Z" fill="#071214"/>
<path d="M864.295 250.337H858.332V256.3H864.295V250.337Z" fill="#071214"/>
<path d="M816.602 250.337H810.64V256.3H816.602V250.337Z" fill="#071214"/>
<path d="M95.3552 250.337H89.3926V256.3H95.3552V250.337Z" fill="#071214"/>
<path d="M77.4714 250.337H71.5088V256.3V262.262H77.4714V256.3H83.434V250.337H77.4714Z" fill="#071214"/>
<path d="M858.335 244.375H852.372V250.338H858.335V244.375Z" fill="#071214"/>
<path d="M834.484 244.375H828.521V250.338H834.484V244.375Z" fill="#071214"/>
<path d="M816.6 250.335H822.562V244.373H828.525V238.41H834.487V232.494H828.525V226.531H822.562V232.494V238.41H816.6V244.373V250.335Z" fill="#071214"/>
<path d="M77.4658 238.412V244.374H83.4284H89.391V238.412H83.4284H77.4658Z" fill="#071214"/>
<path d="M71.5466 238.412H65.584V244.374H71.5466V238.412Z" fill="#071214"/>
<path d="M59.6237 238.411V232.495H53.6611V238.411V244.374H59.6237V238.411Z" fill="#071214"/>
<path d="M95.3552 232.495H89.3926V238.457H95.3552V232.495Z" fill="#071214"/>
<path d="M47.697 232.495H41.7344V238.457H47.697V232.495Z" fill="#071214"/>
<path d="M846.417 226.531H840.454V232.494H846.417V226.531Z" fill="#071214"/>
<path d="M77.4714 226.531H71.5088V232.494H77.4714V226.531Z" fill="#071214"/>
<path d="M870.261 220.57H864.299V226.533H870.261V220.57Z" fill="#071214"/>
<path d="M107.286 220.57H101.323V226.533H95.3604V232.496H101.323H107.286V226.533V220.57Z" fill="#071214"/>
<path d="M89.3952 220.57H83.4326V226.533H89.3952V220.57Z" fill="#071214"/>
<path d="M864.295 214.608H858.332V220.571H864.295V214.608Z" fill="#071214"/>
<path d="M113.25 214.608H107.287V220.571H113.25V214.608Z" fill="#071214"/>
<path d="M95.3552 214.608H89.3926V220.571H95.3552H101.318V214.608H95.3552Z" fill="#071214"/>
<path d="M900.069 208.646H894.106V214.608H900.069V208.646Z" fill="#071214"/>
<path d="M870.261 208.646H864.299V214.608H870.261V208.646Z" fill="#071214"/>
<path d="M119.201 208.644V202.682H125.163V208.644H131.126V214.607H137.089V208.644V202.682H131.126V196.719H137.089V190.756V184.794V178.831V172.869H131.126V178.831V184.794V190.756H125.163V196.719H119.201V190.756H113.238V196.719V202.682V208.644V214.607H119.201V208.644Z" fill="#071214"/>
<path d="M107.283 208.646H101.32V214.608H107.283V208.646Z" fill="#071214"/>
<path d="M77.4714 208.646H71.5088V214.608H77.4714V208.646Z" fill="#071214"/>
<path d="M846.417 202.683H840.454V208.645H846.417V202.683Z" fill="#071214"/>
<path d="M101.323 196.719H95.3604V202.681H101.323V196.719Z" fill="#071214"/>
<path d="M89.3952 196.719H83.4326V202.681H89.3952V196.719Z" fill="#071214"/>
<path d="M65.5915 190.756H59.6289V196.719H65.5915V190.756Z" fill="#071214"/>
<path d="M870.261 184.794H864.299V190.757H870.261V184.794Z" fill="#071214"/>
<path d="M89.3952 184.794H83.4326V190.757H89.3952V184.794Z" fill="#071214"/>
<path d="M846.407 178.831V172.869H840.444V178.831V184.794H834.481V190.756H840.444H846.407V184.794H852.369H858.332V178.831H852.369H846.407Z" fill="#071214"/>
<path d="M864.295 172.869H858.332V178.831H864.295V172.869Z" fill="#071214"/>
<path d="M870.261 166.906H864.299V172.868H870.261V166.906Z" fill="#071214"/>
<path d="M852.367 166.906H846.404V172.868H852.367V166.906Z" fill="#071214"/>
<path d="M143.055 166.906V160.944V154.981H137.093V160.944V166.906V172.869H143.055V166.906Z" fill="#071214"/>
<path d="M828.525 160.943H822.562V166.906H828.525V160.943Z" fill="#071214"/>
<path d="M125.161 160.943H119.198V166.906H125.161V160.943Z" fill="#071214"/>
<path d="M178.834 154.981H172.871V160.944H178.834H184.796V154.981H178.834Z" fill="#071214"/>
<path d="M113.25 154.981H107.287V160.944H113.25V154.981Z" fill="#071214"/>
<path d="M846.417 149.02V154.983H840.454V160.945H846.417H852.379H858.342V154.983H852.379V149.02H846.417Z" fill="#071214"/>
<path d="M196.717 149.02H190.754V154.983H196.717V149.02Z" fill="#071214"/>
<path d="M172.866 149.02H166.903V154.983H172.866V149.02Z" fill="#071214"/>
<path d="M160.939 149.02H154.977V154.983H160.939V149.02Z" fill="#071214"/>
<path d="M149.015 149.02H143.053V154.983H149.015V149.02Z" fill="#071214"/>
<path d="M137.091 149.02H131.129V154.983H137.091V149.02Z" fill="#071214"/>
<path d="M184.794 143.057H178.831V149.02H184.794H190.756V143.057H184.794Z" fill="#071214"/>
<path d="M95.3552 143.057H89.3926V149.02H95.3552V143.057Z" fill="#071214"/>
<path d="M214.611 137.095H208.648V143.057H214.611V137.095Z" fill="#071214"/>
<path d="M172.866 137.095H166.903V143.057H172.866V137.095Z" fill="#071214"/>
<path d="M149.015 137.095H143.053V143.057H149.015V137.095Z" fill="#071214"/>
<path d="M846.407 137.094V131.132H840.444H834.481V137.094H840.444H846.407Z" fill="#071214"/>
<path d="M220.521 131.132H214.559V137.094H220.521V131.132Z" fill="#071214"/>
<path d="M202.684 131.132H196.722V137.094H202.684H208.647V131.132H202.684Z" fill="#071214"/>
<path d="M178.834 137.093H184.796V131.131V125.168H178.834V119.206H172.871V125.168V131.131H178.834V137.093Z" fill="#071214"/>
<path d="M828.525 125.168H822.562V131.131H828.525V125.168Z" fill="#071214"/>
<path d="M822.562 119.206H816.6V125.168H822.562V119.206Z" fill="#071214"/>
<path d="M214.611 119.206H208.648V125.168H214.611V119.206Z" fill="#071214"/>
<path d="M154.983 119.206H149.021V125.168H154.983V119.206Z" fill="#071214"/>
<path d="M828.525 113.243H822.562V119.206H828.525V113.243Z" fill="#071214"/>
<path d="M250.332 113.243H244.369V119.206H250.332V113.243Z" fill="#071214"/>
<path d="M190.76 113.243H184.798V119.206H190.76V113.243Z" fill="#071214"/>
<path d="M804.678 107.279H798.716V113.242H804.678V107.279Z" fill="#071214"/>
<path d="M268.224 107.28V113.243H274.186H280.149V107.28V101.318H274.186V107.28H268.224Z" fill="#071214"/>
<path d="M256.299 107.279H250.336V113.242H256.299V107.279Z" fill="#071214"/>
<path d="M238.408 107.279H232.445V113.242H238.408V107.279Z" fill="#071214"/>
<path d="M226.488 107.279H220.525V113.242H226.488V107.279Z" fill="#071214"/>
<path d="M840.444 101.318H834.481V107.28H840.444V101.318Z" fill="#071214"/>
<path d="M816.602 101.319V95.356V89.4397V83.4771H810.64V89.4397V95.356V101.319V107.281H816.602V101.319Z" fill="#071214"/>
<path d="M768.943 101.318V107.28H774.906H780.822V101.318H774.906H768.943Z" fill="#071214"/>
<path d="M262.256 101.318H256.293V107.28H262.256V101.318Z" fill="#071214"/>
<path d="M244.377 101.318H238.414V107.28H244.377H250.339V101.318H244.377Z" fill="#071214"/>
<path d="M786.783 95.3545H780.82V101.317H786.783V95.3545Z" fill="#071214"/>
<path d="M745.095 101.319H751.058H757.021H762.983V95.356H757.021H751.058V89.4397V83.4771H745.095V89.4397H739.133V95.356H745.095V101.319Z" fill="#071214"/>
<path d="M274.19 101.318V95.3558V89.4395H268.227V95.3558H262.265V101.318H268.227H274.19Z" fill="#071214"/>
<path d="M196.717 95.3545H190.754V101.317H196.717V95.3545Z" fill="#071214"/>
<path d="M792.752 89.4395H786.789V95.4021H792.752V89.4395Z" fill="#071214"/>
<path d="M768.946 95.3558H774.909H780.825V89.4395H774.909H768.946H762.983V95.3558H768.946Z" fill="#071214"/>
<path d="M345.738 89.4395H339.775V95.4021H345.738V89.4395Z" fill="#071214"/>
<path d="M309.964 89.4397H315.927H321.889V83.4771H315.927H309.964H304.002V89.4397H298.039V95.356H304.002V101.319H309.964V95.356V89.4397Z" fill="#071214"/>
<path d="M798.711 83.4763V77.5137H792.748V83.4763V89.4389H798.711V83.4763Z" fill="#071214"/>
<path d="M757.015 89.4391H762.978V83.4765H768.94V77.5139H762.978V71.5513H757.015H751.053V77.5139V83.4765H757.015V89.4391Z" fill="#071214"/>
<path d="M292.069 83.4763H286.106V77.5137H280.144V83.4763V89.4389H286.106V95.3552H292.069V89.4389H298.031V83.4763H292.069Z" fill="#071214"/>
<path d="M262.256 83.4771H256.293V89.4397H262.256H268.218V83.4771H262.256Z" fill="#071214"/>
<path d="M351.705 77.5137H345.742V83.4763H351.705V77.5137Z" fill="#071214"/>
<path d="M339.773 77.5137H333.81H327.848V83.4763H333.81V89.4389H339.773V83.4763V77.5137Z" fill="#071214"/>
<path d="M792.752 71.5513H786.789V77.5139H792.752V71.5513Z" fill="#071214"/>
<path d="M774.906 71.5513H768.943V77.5139H774.906V71.5513Z" fill="#071214"/>
<path d="M709.318 71.5513H703.355V77.5139H709.318V71.5513Z" fill="#071214"/>
<path d="M375.502 71.5513H369.539V77.5139H375.502V71.5513Z" fill="#071214"/>
<path d="M244.377 71.5513H238.414V77.5139H244.377V71.5513Z" fill="#071214"/>
<path d="M721.247 71.5505H727.21V65.5879H721.247H715.285H709.322V71.5505H715.285H721.247Z" fill="#071214"/>
<path d="M673.544 65.5879H667.581V71.5505H673.544V65.5879Z" fill="#071214"/>
<path d="M393.393 65.5879H387.431V71.5505V77.5131H393.393V71.5505V65.5879Z" fill="#071214"/>
<path d="M357.619 71.5505H351.702V77.5131H357.619H363.581V71.5505V65.5879H357.619V71.5505Z" fill="#071214"/>
<path d="M333.81 65.5879H327.848V71.5505H333.81V65.5879Z" fill="#071214"/>
<path d="M321.888 65.5879H315.926V71.5505H321.888V65.5879Z" fill="#071214"/>
<path d="M816.602 59.625H810.64V65.5876H816.602V59.625Z" fill="#071214"/>
<path d="M774.906 59.625H768.943V65.5876H774.906V59.625Z" fill="#071214"/>
<path d="M762.979 59.625H757.017V65.5876H762.979V59.625Z" fill="#071214"/>
<path d="M691.43 59.6262H697.393V53.6636H691.43H685.468V59.6262V65.5888H691.43V59.6262Z" fill="#071214"/>
<path d="M584.147 59.625H578.185V65.5876H584.147V59.625Z" fill="#071214"/>
<path d="M417.247 59.625H411.284V65.5876H417.247V59.625Z" fill="#071214"/>
<path d="M405.316 65.5876V59.625H399.353H393.391V65.5876H399.353H405.316Z" fill="#071214"/>
<path d="M226.488 59.625H220.525V65.5876H226.488V59.625Z" fill="#071214"/>
<path d="M214.611 59.625H208.648V65.5876H214.611V59.625Z" fill="#071214"/>
<path d="M715.285 53.6636H709.322V59.6262H715.285V53.6636Z" fill="#071214"/>
<path d="M679.504 53.6636H673.541V59.6262H679.504V53.6636Z" fill="#071214"/>
<path d="M667.584 53.6628V47.7002H661.621V53.6628V59.6254H667.584V53.6628Z" fill="#071214"/>
<path d="M590.116 53.6636H584.153V59.6262H590.116V53.6636Z" fill="#071214"/>
<path d="M488.8 59.6256H494.762V53.663V47.7004V41.7378H488.8H482.837V47.7004V53.663H488.8V59.6256Z" fill="#071214"/>
<path d="M411.276 53.6636H405.313V59.6262H411.276V53.6636Z" fill="#071214"/>
<path d="M315.928 53.6636H309.966V59.6262H315.928V53.6636Z" fill="#071214"/>
<path d="M232.448 53.6636H226.485V59.6262H232.448V53.6636Z" fill="#071214"/>
<path d="M762.979 47.7002H757.017V53.6628H762.979V47.7002Z" fill="#071214"/>
<path d="M703.361 47.7002H697.398V53.6628H703.361V47.7002Z" fill="#071214"/>
<path d="M625.885 47.7002H619.923V53.6628H625.885V47.7002Z" fill="#071214"/>
<path d="M602.037 53.6628V47.7002H596.074H590.111V53.6628H596.074H602.037Z" fill="#071214"/>
<path d="M584.147 47.7002H578.185V53.6628H584.147V47.7002Z" fill="#071214"/>
<path d="M476.868 47.7004V41.7378H470.905H464.942V47.7004H470.905V53.663H476.868V47.7004Z" fill="#071214"/>
<path d="M399.353 47.7004V41.7378H393.391V47.7004V53.663H399.353V47.7004Z" fill="#071214"/>
<path d="M375.502 47.7021V41.7395V35.7769H369.539V41.7395V47.7021V53.6646H375.502V47.7021Z" fill="#071214"/>
<path d="M351.705 47.7002H345.742V53.6628H351.705V47.7002Z" fill="#071214"/>
<path d="M721.242 41.7378H715.279V47.7004H721.242V41.7378Z" fill="#071214"/>
<path d="M709.318 41.7378H703.355V47.7004H709.318V41.7378Z" fill="#071214"/>
<path d="M685.464 41.7378H679.501V47.7004V53.663H685.464V47.7004V41.7378Z" fill="#071214"/>
<path d="M673.544 41.7378H667.581V47.7004H673.544V41.7378Z" fill="#071214"/>
<path d="M643.729 41.7378H637.767V47.7004H643.729V41.7378Z" fill="#071214"/>
<path d="M566.265 41.7378H560.303V47.7004H566.265V41.7378Z" fill="#071214"/>
<path d="M530.491 41.7378H524.528V47.7004H530.491V41.7378Z" fill="#071214"/>
<path d="M435.127 41.7378H429.164V47.7004H435.127V41.7378Z" fill="#071214"/>
<path d="M703.361 35.7769H697.398V41.7395H703.361V35.7769Z" fill="#071214"/>
<path d="M631.852 35.7769H625.89V41.7395H631.852V35.7769Z" fill="#071214"/>
<path d="M607.998 35.7769H602.035V41.7395H607.998V35.7769Z" fill="#071214"/>
<path d="M542.41 41.7395H548.372V35.7769H542.41H536.447H530.484V41.7395H536.447H542.41Z" fill="#071214"/>
<path d="M458.984 41.7395V35.7769H453.021H447.059V41.7395H453.021H458.984Z" fill="#071214"/>
<path d="M429.171 35.7769H423.208V41.7395H429.171V35.7769Z" fill="#071214"/>
<path d="M345.738 35.7756V29.813H339.775V35.7756V41.7382H345.738V35.7756Z" fill="#071214"/>
<path d="M739.129 29.813H733.166V35.7756H739.129V29.813Z" fill="#071214"/>
<path d="M667.579 35.7756V29.813H661.617H655.654V35.7756H661.617H667.579Z" fill="#071214"/>
<path d="M613.958 29.813H607.995V35.7756H613.958V29.813Z" fill="#071214"/>
<path d="M578.192 29.813H572.229V35.7756H578.192V29.813Z" fill="#071214"/>
<path d="M518.563 35.7756H524.526V29.813H518.563H512.601V35.7756H518.563Z" fill="#071214"/>
<path d="M494.759 29.813H488.797V35.7756H494.759V29.813Z" fill="#071214"/>
<path d="M447.054 29.813H441.092V35.7756H447.054V29.813Z" fill="#071214"/>
<path d="M411.276 29.813H405.313V35.7756H411.276V29.813Z" fill="#071214"/>
<path d="M399.353 29.813H393.391V35.7756H399.353V29.813Z" fill="#071214"/>
<path d="M697.394 23.8516H691.432V29.8142H697.394V23.8516Z" fill="#071214"/>
<path d="M625.885 23.8516H619.923V29.8142H625.885V23.8516Z" fill="#071214"/>
<path d="M607.998 23.8516H602.035V29.8142H607.998V23.8516Z" fill="#071214"/>
<path d="M596.074 23.8516H590.111V29.8142H596.074V23.8516Z" fill="#071214"/>
<path d="M512.596 23.8516H506.634V29.8142H512.596V23.8516Z" fill="#071214"/>
<path d="M453.021 23.8516H447.059V29.8142H453.021V23.8516Z" fill="#071214"/>
<path d="M357.665 23.8516H351.702V29.8142H357.665V23.8516Z" fill="#071214"/>
<path d="M685.464 17.8877H679.501V23.8503H685.464V17.8877Z" fill="#071214"/>
<path d="M643.729 17.8877H637.767V23.8503H643.729V17.8877Z" fill="#071214"/>
<path d="M619.925 17.8877H613.963V23.8503H619.925V17.8877Z" fill="#071214"/>
<path d="M590.116 17.8877H584.153V23.8503H590.116V17.8877Z" fill="#071214"/>
<path d="M536.447 17.8877H530.484V23.8503H536.447V17.8877Z" fill="#071214"/>
<path d="M500.716 17.8877H494.753V23.8503H500.716V17.8877Z" fill="#071214"/>
<path d="M476.868 23.8503V17.8877H470.905H464.942V23.8503H470.905H476.868Z" fill="#071214"/>
<path d="M631.852 11.9253H625.89V17.8879H631.852V11.9253Z" fill="#071214"/>
<path d="M560.298 11.9253H554.335V17.8879H560.298V11.9253Z" fill="#071214"/>
<path d="M441.094 11.9253H435.132V17.8879H441.094V11.9253Z" fill="#071214"/>
<path d="M417.247 11.9253H411.284V17.8879H417.247V11.9253Z" fill="#071214"/>
<path d="M685.464 5.9624H679.501V11.925H685.464V5.9624Z" fill="#071214"/>
<path d="M506.636 5.9624H500.674V11.925H506.636V5.9624Z" fill="#071214"/>
<path d="M542.414 0H536.451V5.9626H542.414V0Z" fill="#071214"/>
</svg>
