<svg width="86" height="120" viewBox="0 0 86 120" fill="none" xmlns="http://www.w3.org/2000/svg">
<path d="M43.0225 68.6128L43.0225 72.8923L47.318 72.8923L47.318 68.6128L43.0225 68.6128Z" fill="#377D79" fill-opacity="0.5"/>
<path d="M47.3159 68.6128L47.3159 72.8923L51.6114 72.8923L51.6114 68.6128L47.3159 68.6128Z" fill="#377D79" fill-opacity="0.5"/>
<path d="M51.6133 72.8932L51.6133 77.1727L55.9087 77.1727L55.9087 72.8932L51.6133 72.8932Z" fill="#377D79" fill-opacity="0.5"/>
<path d="M51.6133 77.1796L51.6133 81.4592L55.9087 81.4592L55.9087 77.1796L51.6133 77.1796Z" fill="#377D79" fill-opacity="0.5"/>
<path d="M47.6877 81.4586L47.6877 85.7382L51.9832 85.7382L51.9832 81.4586L47.6877 81.4586Z" fill="#377D79" fill-opacity="0.5"/>
<path d="M47.6877 85.7388L47.6877 90.0184L51.9832 90.0184L51.9832 85.7388L47.6877 85.7388Z" fill="#377D79" fill-opacity="0.5"/>
<path d="M43.3943 90.0252L43.3943 94.3048L47.6898 94.3048L47.6898 90.0252L43.3943 90.0252Z" fill="#377D79" fill-opacity="0.5"/>
<path d="M38.7173 51.4844L38.7173 55.764L43.0128 55.764L43.0128 51.4844L38.7173 51.4844Z" fill="#377D79" fill-opacity="0.5"/>
<path d="M34.4199 64.3339L34.4199 68.6135L38.7154 68.6135L38.7154 64.3339L34.4199 64.3339Z" fill="#377D79" fill-opacity="0.5"/>
<path d="M47.3159 38.6388L47.3159 42.9183L51.6114 42.9183L51.6114 38.6388L47.3159 38.6388Z" fill="#377D79" fill-opacity="0.5"/>
<path d="M47.3159 34.3523L47.3159 38.6318L51.6114 38.6318L51.6114 34.3523L47.3159 34.3523Z" fill="#377D79" fill-opacity="0.5"/>
<path d="M43.0225 30.0711L43.0225 34.3507L47.318 34.3507L47.318 30.0711L43.0225 30.0711Z" fill="#377D79" fill-opacity="0.5"/>
<path d="M51.6133 30.0711L51.6133 34.3507L55.9087 34.3507L55.9087 30.0711L51.6133 30.0711Z" fill="#377D79" fill-opacity="0.5"/>
<path d="M51.6133 25.7924L51.6133 30.0719L55.9087 30.0719L55.9087 25.7924L51.6133 25.7924Z" fill="#377D79" fill-opacity="0.5"/>
<path d="M51.6133 21.5044L51.6133 25.7839L55.9087 25.7839L55.9087 21.5044L51.6133 21.5044Z" fill="#377D79" fill-opacity="0.5"/>
<path d="M51.6133 17.2254L51.6133 21.505L55.9087 21.505L55.9087 17.2254L51.6133 17.2254Z" fill="#377D79" fill-opacity="0.5"/>
<path d="M51.6133 12.9451L51.6133 17.2246L55.9087 17.2246L55.9087 12.9451L51.6133 12.9451Z" fill="#377D79" fill-opacity="0.5"/>
<path d="M51.6133 4.27907L51.6133 8.55859L55.9087 8.55859L55.9087 4.27907L51.6133 4.27907Z" fill="#377D79" fill-opacity="0.5"/>
<path d="M47.3159 4.27907L47.3159 8.55859L51.6114 8.55859L51.6114 4.27907L47.3159 4.27907Z" fill="#377D79" fill-opacity="0.5"/>
<path d="M43.3943 1.66893e-05L43.3943 4.27954L47.6898 4.27954L47.6898 1.67405e-05L43.3943 1.66893e-05Z" fill="#377D79" fill-opacity="0.5"/>
<path d="M55.9146 8.5579L55.9146 12.8375L60.2101 12.8375L60.2101 8.5579L55.9146 8.5579Z" fill="#377D79" fill-opacity="0.5"/>
<path d="M60.2119 4.27895L60.2119 8.55847L64.5074 8.55847L64.5074 4.27895L60.2119 4.27895Z" fill="#377D79" fill-opacity="0.5"/>
<path d="M34.4199 47.198L34.4199 51.4775L38.7154 51.4775L38.7154 47.198L34.4199 47.198Z" fill="#377D79" fill-opacity="0.5"/>
<path d="M34.4199 42.9176L34.4199 47.1973L38.7154 47.1973L38.7154 42.9176L34.4199 42.9176Z" fill="#377D79" fill-opacity="0.5"/>
<path d="M34.4199 38.6388L34.4199 42.9183L38.7154 42.9183L38.7154 38.6388L34.4199 38.6388Z" fill="#377D79" fill-opacity="0.5"/>
<path d="M30.1284 38.6388L30.1284 42.9183L34.4239 42.9183L34.4239 38.6388L30.1284 38.6388Z" fill="#377D79" fill-opacity="0.5"/>
<path d="M30.1284 34.3523L30.1284 38.6318L34.4239 38.6318L34.4239 34.3523L30.1284 34.3523Z" fill="#377D79" fill-opacity="0.5"/>
<path d="M30.1284 30.0711L30.1284 34.3507L34.4239 34.3507L34.4239 30.0711L30.1284 30.0711Z" fill="#377D79" fill-opacity="0.5"/>
<path d="M30.1284 25.7924L30.1284 30.0719L34.4239 30.0719L34.4239 25.7924L30.1284 25.7924Z" fill="#377D79" fill-opacity="0.5"/>
<path d="M34.4199 21.5044L34.4199 25.7839L38.7154 25.7839L38.7154 21.5044L34.4199 21.5044Z" fill="#377D79" fill-opacity="0.5"/>
<path d="M38.7173 17.2253L38.7173 21.5049L43.0128 21.5049L43.0128 17.2253L38.7173 17.2253Z" fill="#377D79" fill-opacity="0.5"/>
<path d="M51.6133 60.0453L51.6133 64.3248L55.9087 64.3248L55.9087 60.0453L51.6133 60.0453Z" fill="#377D79" fill-opacity="0.5"/>
<path d="M55.9146 60.0453L55.9146 64.3248L60.2101 64.3248L60.2101 60.0453L55.9146 60.0453Z" fill="#377D79" fill-opacity="0.5"/>
<path d="M60.2119 64.3338L60.2119 68.6134L64.5074 68.6134L64.5074 64.3338L60.2119 64.3338Z" fill="#377D79" fill-opacity="0.5"/>
<path d="M64.5151 68.6128L64.5151 72.8923L68.8106 72.8923L68.8106 68.6128L64.5151 68.6128Z" fill="#377D79" fill-opacity="0.5"/>
<path d="M47.3159 64.3339L47.3159 68.6135L51.6114 68.6135L51.6114 64.3339L47.3159 64.3339Z" fill="#377D79" fill-opacity="0.5"/>
<path d="M38.7173 64.3338L38.7173 68.6134L43.0128 68.6134L43.0128 64.3338L38.7173 64.3338Z" fill="#377D79" fill-opacity="0.5"/>
<path d="M34.4199 55.7664L34.4199 60.0459L38.7154 60.0459L38.7154 55.7664L34.4199 55.7664Z" fill="#377D79" fill-opacity="0.5"/>
<path d="M38.7173 55.7663L38.7173 60.0458L43.0128 60.0458L43.0128 55.7663L38.7173 55.7663Z" fill="#377D79" fill-opacity="0.5"/>
<path d="M47.3159 60.0453L47.3159 64.3248L51.6114 64.3248L51.6114 60.0453L47.3159 60.0453Z" fill="#377D79" fill-opacity="0.5"/>
<path d="M38.7173 72.8931L38.7173 77.1726L43.0128 77.1726L43.0128 72.8931L38.7173 72.8931Z" fill="#377D79" fill-opacity="0.5"/>
<path d="M47.3159 72.8932L47.3159 77.1727L51.6114 77.1727L51.6114 72.8932L47.3159 72.8932Z" fill="#377D79" fill-opacity="0.5"/>
<path d="M43.0225 64.3339L43.0225 68.6135L47.318 68.6135L47.318 64.3339L43.0225 64.3339Z" fill="#377D79" fill-opacity="0.5"/>
<path d="M38.7173 68.6127L38.7173 72.8922L43.0128 72.8922L43.0128 68.6127L38.7173 68.6127Z" fill="#377D79" fill-opacity="0.5"/>
<path d="M34.4199 68.6128L34.4199 72.8923L38.7154 72.8923L38.7154 68.6128L34.4199 68.6128Z" fill="#377D79" fill-opacity="0.5"/>
<path d="M30.1284 68.6128L30.1284 72.8923L34.4239 72.8923L34.4239 68.6128L30.1284 68.6128Z" fill="#377D79" fill-opacity="0.5"/>
<path d="M30.1284 72.8932L30.1284 77.1727L34.4239 77.1727L34.4239 72.8932L30.1284 72.8932Z" fill="#377D79" fill-opacity="0.5"/>
<path d="M25.8232 77.1796L25.8232 81.4592L30.1187 81.4592L30.1187 77.1796L25.8232 77.1796Z" fill="#377D79" fill-opacity="0.5"/>
<path d="M43.0225 60.0453L43.0225 64.3248L47.318 64.3248L47.318 60.0453L43.0225 60.0453Z" fill="#377D79" fill-opacity="0.5"/>
<path d="M38.7173 60.0452L38.7173 64.3247L43.0128 64.3247L43.0128 60.0452L38.7173 60.0452Z" fill="#377D79" fill-opacity="0.5"/>
<path d="M34.4199 60.0453L34.4199 64.3248L38.7154 64.3248L38.7154 60.0453L34.4199 60.0453Z" fill="#377D79" fill-opacity="0.5"/>
<path d="M30.1284 60.0453L30.1284 64.3248L34.4239 64.3248L34.4239 60.0453L30.1284 60.0453Z" fill="#377D79" fill-opacity="0.5"/>
<path d="M25.8232 60.0453L25.8232 64.3248L30.1187 64.3248L30.1187 60.0453L25.8232 60.0453Z" fill="#377D79" fill-opacity="0.5"/>
<path d="M21.5259 55.7664L21.5259 60.0459L25.8214 60.0459L25.8214 55.7664L21.5259 55.7664Z" fill="#377D79" fill-opacity="0.5"/>
<path d="M21.5259 51.4845L21.5259 55.7642L25.8214 55.7642L25.8214 51.4845L21.5259 51.4845Z" fill="#377D79" fill-opacity="0.5"/>
<path d="M17.2324 51.4845L17.2324 55.7642L21.5279 55.7642L21.5279 51.4845L17.2324 51.4845Z" fill="#377D79" fill-opacity="0.5"/>
<path d="M43.0225 55.7664L43.0225 60.0459L47.318 60.0459L47.318 55.7664L43.0225 55.7664Z" fill="#377D79" fill-opacity="0.5"/>
<path d="M47.3159 55.7664L47.3159 60.0459L51.6114 60.0459L51.6114 55.7664L47.3159 55.7664Z" fill="#377D79" fill-opacity="0.5"/>
<path d="M51.6133 64.3339L51.6133 68.6135L55.9087 68.6135L55.9087 64.3339L51.6133 64.3339Z" fill="#377D79" fill-opacity="0.5"/>
<path d="M47.3159 51.4845L47.3159 55.7642L51.6114 55.7642L51.6114 51.4845L47.3159 51.4845Z" fill="#377D79" fill-opacity="0.5"/>
<path d="M47.3159 47.198L47.3159 51.4775L51.6114 51.4775L51.6114 47.198L47.3159 47.198Z" fill="#377D79" fill-opacity="0.5"/>
<path d="M51.6133 42.9176L51.6133 47.1973L55.9087 47.1973L55.9087 42.9176L51.6133 42.9176Z" fill="#377D79" fill-opacity="0.5"/>
<path d="M64.5151 30.0711L64.5151 34.3507L68.8106 34.3507L68.8106 30.0711L64.5151 30.0711Z" fill="#377D79" fill-opacity="0.5"/>
<path d="M68.8105 25.7924L68.8105 30.0719L73.106 30.0719L73.106 25.7924L68.8105 25.7924Z" fill="#377D79" fill-opacity="0.5"/>
<path d="M68.8105 21.5044L68.8105 25.7839L73.106 25.7839L73.106 21.5044L68.8105 21.5044Z" fill="#377D79" fill-opacity="0.5"/>
<path d="M68.8105 17.2254L68.8105 21.505L73.106 21.505L73.106 17.2254L68.8105 17.2254Z" fill="#377D79" fill-opacity="0.5"/>
<path d="M73.106 12.9451L73.106 17.2246L77.4015 17.2246L77.4015 12.9451L73.106 12.9451Z" fill="#377D79" fill-opacity="0.5"/>
<path d="M12.894 98.5846L12.894 102.864L17.1895 102.864L17.1895 98.5846L12.894 98.5846Z" fill="#377D79" fill-opacity="0.5"/>
<path d="M17.2324 102.875L17.2324 107.154L21.5279 107.154L21.5279 102.875L17.2324 102.875Z" fill="#377D79" fill-opacity="0.5"/>
<path d="M21.5259 102.875L21.5259 107.154L25.8214 107.154L25.8214 102.875L21.5259 102.875Z" fill="#377D79" fill-opacity="0.5"/>
<path d="M25.8232 107.154L25.8232 111.433L30.1187 111.433L30.1187 107.154L25.8232 107.154Z" fill="#377D79" fill-opacity="0.5"/>
<path d="M8.59863 102.875L8.59863 107.154L12.8941 107.154L12.8941 102.875L8.59863 102.875Z" fill="#377D79" fill-opacity="0.5"/>
<path d="M4.29736 107.154L4.29736 111.433L8.59287 111.433L8.59287 107.154L4.29736 107.154Z" fill="#377D79" fill-opacity="0.5"/>
<path d="M5.1034e-08 111.432L0 115.712L4.2955 115.712L4.2955 111.432L5.1034e-08 111.432Z" fill="#377D79" fill-opacity="0.5"/>
<path d="M5.10328e-08 115.72L0 120L4.2955 120L4.2955 115.72L5.10328e-08 115.72Z" fill="#377D79" fill-opacity="0.5"/>
<path d="M25.8232 81.4586L25.8232 85.7382L30.1187 85.7382L30.1187 81.4586L25.8232 81.4586Z" fill="#377D79" fill-opacity="0.5"/>
<path d="M21.5259 81.4586L21.5259 85.7382L25.8214 85.7382L25.8214 81.4586L21.5259 81.4586Z" fill="#377D79" fill-opacity="0.5"/>
<path d="M21.5259 85.7388L21.5259 90.0184L25.8214 90.0184L25.8214 85.7388L21.5259 85.7388Z" fill="#377D79" fill-opacity="0.5"/>
<path d="M21.5259 90.0253L21.5259 94.3049L25.8214 94.3049L25.8214 90.0253L21.5259 90.0253Z" fill="#377D79" fill-opacity="0.5"/>
<path d="M17.2324 94.3058L17.2324 98.5853L21.5279 98.5853L21.5279 94.3058L17.2324 94.3058Z" fill="#377D79" fill-opacity="0.5"/>
<path d="M55.9146 47.198L55.9146 51.4775L60.2101 51.4775L60.2101 47.198L55.9146 47.198Z" fill="#377D79" fill-opacity="0.5"/>
<path d="M60.2119 47.1979L60.2119 51.4774L64.5074 51.4774L64.5074 47.1979L60.2119 47.1979Z" fill="#377D79" fill-opacity="0.5"/>
<path d="M60.2119 42.9175L60.2119 47.1971L64.5074 47.1971L64.5074 42.9175L60.2119 42.9175Z" fill="#377D79" fill-opacity="0.5"/>
<path d="M64.5151 38.6388L64.5151 42.9183L68.8106 42.9183L68.8106 38.6388L64.5151 38.6388Z" fill="#377D79" fill-opacity="0.5"/>
<path d="M64.5151 34.3523L64.5151 38.6318L68.8106 38.6318L68.8106 34.3523L64.5151 34.3523Z" fill="#377D79" fill-opacity="0.5"/>
<path d="M64.5151 47.198L64.5151 51.4775L68.8106 51.4775L68.8106 47.198L64.5151 47.198Z" fill="#377D79" fill-opacity="0.5"/>
<path d="M68.8105 47.198L68.8105 51.4775L73.106 51.4775L73.106 47.198L68.8105 47.198Z" fill="#377D79" fill-opacity="0.5"/>
<path d="M73.106 42.9176L73.106 47.1973L77.4015 47.1973L77.4015 42.9176L73.106 42.9176Z" fill="#377D79" fill-opacity="0.5"/>
<path d="M77.4092 38.6388L77.4092 42.9183L81.7047 42.9183L81.7047 38.6388L77.4092 38.6388Z" fill="#377D79" fill-opacity="0.5"/>
<path d="M81.7046 38.6388L81.7046 42.9183L86.0001 42.9183L86.0001 38.6388L81.7046 38.6388Z" fill="#377D79" fill-opacity="0.5"/>
</svg>
