<svg width="1728" height="64" viewBox="0 0 1728 64" fill="none" xmlns="http://www.w3.org/2000/svg">
<rect x="-1" y="1" width="1730" height="62" fill="#071214" stroke="#071214" stroke-width="2"/>
<mask id="mask0_929_6957" style="mask-type:alpha" maskUnits="userSpaceOnUse" x="0" y="2" width="1728" height="60">
<rect y="2" width="1728" height="60" fill="#060C0D"/>
</mask>
<g mask="url(#mask0_929_6957)">
<path d="M191.045 -3.83665L195.195 -3.83665L195.195 0.314933L199.347 0.314933L203.497 0.314934L203.497 4.46534L199.347 4.46533L195.195 4.46533L191.045 4.46533L191.045 0.314932L186.893 0.314931L186.893 -3.83665L182.743 -3.83665L182.743 -7.98705L186.893 -7.98705L186.893 -12.1386L191.045 -12.1386L191.045 -16.289L195.195 -16.289L195.195 -12.1386L195.195 -7.98705L191.045 -7.98705L191.045 -3.83665Z" fill="#1F4847" fill-opacity="0.2"/>
<path d="M257.564 4.46533L253.316 4.46533L249.166 4.46533L245.014 4.46533L240.863 4.46533L240.863 0.31493L240.863 -3.83665L245.014 -3.83665L245.014 0.314931L249.166 0.314932L253.316 0.314933L257.564 0.314933L261.715 0.314934L261.715 -3.83665L261.715 -7.98705L265.866 -7.98705L265.866 -3.83664L265.866 0.314935L265.866 4.46534L261.715 4.46534L257.564 4.46533Z" fill="#1F4847" fill-opacity="0.2"/>
<path d="M1673.94 0.314984L1673.94 -3.8366L1678.09 -3.8366L1678.09 0.314985L1678.09 4.46538L1682.24 4.46539L1682.24 8.61697L1682.24 12.7674L1678.09 12.7674L1678.09 16.9189L1673.94 16.9189L1669.78 16.9189L1669.78 12.7674L1673.94 12.7674L1673.94 8.61697L1673.94 4.46538L1669.78 4.46538L1669.78 0.314983L1673.94 0.314984Z" fill="#1F4847" fill-opacity="0.2"/>
<path d="M743.523 16.9187L743.523 12.7672L739.371 12.7672L739.371 8.61675L739.371 4.46517L743.523 4.46517L747.673 4.46517L747.673 8.61675L751.825 8.61675L751.825 4.46517L755.976 4.46517L755.976 0.314773L760.127 0.314773L760.127 -3.83681L764.278 -3.83681L764.278 0.314774L764.278 4.46518L760.127 4.46518L760.127 8.61675L755.976 8.61675L755.976 12.7672L751.825 12.7672L751.825 16.9187L755.976 16.9187L755.976 12.7672L760.127 12.7672L764.278 12.7672L764.278 8.61676L768.429 8.61676L768.429 12.7672L768.429 16.9187L764.278 16.9187L760.127 16.9187L760.127 21.0703L755.976 21.0703L751.825 21.0703L747.673 21.0703L747.673 16.9187L743.523 16.9187Z" fill="#1F4847" fill-opacity="0.2"/>
<path d="M220.103 0.31493L220.103 -3.83665L224.253 -3.83665L224.253 0.314931L224.253 4.46533L220.103 4.46533L220.103 0.31493Z" fill="#1F4847" fill-opacity="0.2"/>
<path d="M805.793 0.315023L809.945 0.315024L809.945 4.46542L814.095 4.46542L814.095 8.61701L809.945 8.617L805.793 8.617L805.793 4.46542L801.643 4.46542L801.643 8.617L805.793 8.617L805.793 12.7674L801.643 12.7674L801.643 16.919L801.643 21.0706L805.793 21.0706L805.793 25.221L805.793 29.3725L805.793 33.523L801.643 33.5229L797.491 33.5229L797.491 29.3725L797.491 25.221L797.491 21.0706L797.491 16.919L797.491 12.7674L797.491 8.617L797.491 4.46542L797.491 0.315022L801.643 0.315022L805.793 0.315023Z" fill="#1F4847" fill-opacity="0.2"/>
<path d="M627.198 0.314718L623.047 0.314717L623.047 -3.83686L627.198 -3.83686L627.198 -7.98726L631.349 -7.98726L631.349 -3.83686L631.349 0.314719L631.349 4.46512L631.349 8.6167L627.198 8.6167L627.198 4.46512L627.198 0.314718Z" fill="#1F4847" fill-opacity="0.2"/>
<path d="M510.875 0.314931L515.025 0.314932L515.025 4.46533L510.875 4.46533L506.723 4.46533L506.723 0.31493L510.875 0.314931Z" fill="#1F4847" fill-opacity="0.2"/>
<path d="M411.245 4.46533L407.095 4.46533L407.095 0.31493L411.245 0.314931L411.245 4.46533Z" fill="#1F4847" fill-opacity="0.2"/>
<path d="M132.933 4.46512L132.933 8.6167L128.781 8.6167L128.781 4.46512L128.781 0.314717L132.933 0.314718L132.933 4.46512Z" fill="#1F4847" fill-opacity="0.2"/>
<path d="M1719.7 8.61719L1715.55 8.61719L1715.55 4.46561L1719.7 4.46561L1719.7 8.61719Z" fill="#1F4847" fill-opacity="0.2"/>
<path d="M1694.79 8.61718L1690.55 8.61718L1690.55 12.7676L1686.4 12.7676L1686.4 8.61718L1686.4 4.4656L1690.55 4.4656L1690.55 0.315196L1694.79 0.315197L1694.79 4.4656L1694.79 8.61718Z" fill="#1F4847" fill-opacity="0.2"/>
<path d="M1669.79 8.61719L1665.64 8.61719L1665.64 4.46561L1669.79 4.46561L1669.79 8.61719Z" fill="#1F4847" fill-opacity="0.2"/>
<path d="M1557.7 8.61719L1553.55 8.61719L1553.55 4.46561L1557.7 4.46561L1557.7 8.61719Z" fill="#1F4847" fill-opacity="0.2"/>
<path d="M1225.34 16.9187L1221.18 16.9187L1217.03 16.9187L1212.88 16.9187L1212.88 12.7671L1208.73 12.7671L1208.73 8.61674L1212.88 8.61674L1217.03 8.61674L1221.18 8.61674L1221.18 4.46516L1217.03 4.46516L1217.03 0.31476L1221.18 0.31476L1225.34 0.314761L1225.34 4.46516L1225.34 8.61674L1225.34 12.7671L1229.49 12.7671L1229.49 16.9187L1229.49 21.0703L1229.49 25.2207L1225.34 25.2207L1225.34 21.0703L1225.34 16.9187Z" fill="#1F4847" fill-opacity="0.2"/>
<path d="M623.05 8.6167L618.899 8.6167L618.899 4.46512L623.05 4.46512L623.05 8.6167Z" fill="#1F4847" fill-opacity="0.2"/>
<path d="M440.301 8.6167L436.15 8.6167L436.15 4.46512L440.301 4.46512L440.301 8.6167Z" fill="#1F4847" fill-opacity="0.2"/>
<path d="M224.261 4.46511L228.413 4.46511L228.413 8.61669L228.413 12.7671L224.261 12.7671L224.261 8.61669L224.261 4.46511Z" fill="#1F4847" fill-opacity="0.2"/>
<path d="M220.107 8.6167L215.956 8.6167L215.956 4.46512L220.107 4.46512L220.107 8.6167Z" fill="#1F4847" fill-opacity="0.2"/>
<path d="M161.987 8.6167L157.835 8.6167L157.835 4.46512L161.987 4.46512L161.987 8.6167Z" fill="#1F4847" fill-opacity="0.2"/>
<path d="M1204.58 12.7671L1200.43 12.7671L1200.43 8.61669L1204.58 8.61669L1204.58 12.7671Z" fill="#1F4847" fill-opacity="0.2"/>
<path d="M830.697 12.7671L826.546 12.7671L826.546 8.61669L830.697 8.61669L830.697 12.7671Z" fill="#1F4847" fill-opacity="0.2"/>
<path d="M627.198 12.7671L623.047 12.7671L623.047 8.61669L627.198 8.61669L627.198 12.7671Z" fill="#1F4847" fill-opacity="0.2"/>
<path d="M593.986 12.7671L589.834 12.7671L589.834 8.61669L593.986 8.61669L593.986 12.7671Z" fill="#1F4847" fill-opacity="0.2"/>
<path d="M569.078 12.7671L564.927 12.7671L564.927 8.61669L569.078 8.61669L569.078 12.7671Z" fill="#1F4847" fill-opacity="0.2"/>
<path d="M510.875 12.7671L506.723 12.7671L506.723 8.61669L510.875 8.61669L510.875 12.7671Z" fill="#1F4847" fill-opacity="0.2"/>
<path d="M498.421 12.7671L494.269 12.7671L494.269 8.61669L498.421 8.61669L502.572 8.61669L502.572 12.7671L498.421 12.7671Z" fill="#1F4847" fill-opacity="0.2"/>
<path d="M166.143 12.7671L161.993 12.7671L161.993 8.61669L166.143 8.61669L166.143 12.7671Z" fill="#1F4847" fill-opacity="0.2"/>
<path d="M1723.84 12.7674L1719.69 12.7674L1719.69 8.61696L1723.84 8.61696L1727.99 8.61696L1727.99 12.7674L1727.99 16.9189L1723.84 16.9189L1723.84 12.7674Z" fill="#1F4847" fill-opacity="0.2"/>
<path d="M1715.55 16.9189L1711.4 16.9189L1711.4 12.7674L1715.55 12.7674L1715.55 16.9189Z" fill="#1F4847" fill-opacity="0.2"/>
<path d="M1698.95 16.9189L1694.8 16.9189L1694.8 12.7674L1698.95 12.7674L1698.95 16.9189Z" fill="#1F4847" fill-opacity="0.2"/>
<path d="M589.842 25.2207L585.692 25.2207L581.541 25.2207L577.39 25.2207L577.39 21.0703L581.541 21.0703L585.692 21.0703L585.692 16.9187L585.692 12.7671L589.842 12.7671L589.842 16.9187L593.994 16.9187L593.994 21.0703L589.842 21.0703L589.842 25.2207Z" fill="#1F4847" fill-opacity="0.2"/>
<path d="M407.099 16.9185L402.947 16.9185L402.947 12.7669L407.099 12.7669L407.099 16.9185Z" fill="#1F4847" fill-opacity="0.2"/>
<path d="M282.468 16.9185L278.317 16.9185L278.317 12.7669L282.468 12.7669L282.468 16.9185Z" fill="#1F4847" fill-opacity="0.2"/>
<path d="M211.801 16.9185L207.65 16.9185L207.65 12.7669L211.801 12.7669L211.801 16.9185Z" fill="#1F4847" fill-opacity="0.2"/>
<path d="M1711.39 21.0703L1707.24 21.0703L1707.24 16.9187L1711.39 16.9187L1711.39 21.0703Z" fill="#1F4847" fill-opacity="0.2"/>
<path d="M1254.39 21.0703L1250.24 21.0703L1250.24 16.9187L1254.39 16.9187L1254.39 21.0703Z" fill="#1F4847" fill-opacity="0.2"/>
<path d="M739.373 21.0703L735.223 21.0703L735.223 16.9187L739.373 16.9187L739.373 21.0703Z" fill="#1F4847" fill-opacity="0.2"/>
<path d="M473.51 29.3721L473.51 33.5225L465.208 33.5225L465.208 29.3721L461.057 29.3721L461.057 25.2205L452.755 25.2205L452.755 16.9185L448.603 16.9185L448.603 8.61652L452.755 8.61652L452.755 0.314538L456.905 0.314538L456.905 -7.98744L461.057 -7.98744L461.057 4.46494L456.905 4.46494L456.905 16.9185L469.359 16.9185L469.359 8.61652L473.51 8.61652L473.51 12.7669L477.661 12.7669L477.661 25.2205L473.51 25.2205L473.51 29.3721ZM469.359 21.0701L465.208 21.0701L465.208 25.2205L469.359 25.2205L469.359 21.0701Z" fill="#1F4847" fill-opacity="0.2"/>
<path d="M220.103 16.9187L220.103 12.7672L224.253 12.7672L224.253 16.9187L224.253 21.0703L220.103 21.0703L220.103 16.9187Z" fill="#1F4847" fill-opacity="0.2"/>
<path d="M1715.55 25.221L1715.55 29.3726L1711.4 29.3726L1711.4 25.221L1711.4 21.0706L1715.55 21.0706L1715.55 25.221Z" fill="#1F4847" fill-opacity="0.2"/>
<path d="M1686.4 21.0703L1686.4 16.9187L1690.55 16.9187L1690.55 21.0703L1690.55 25.2207L1686.4 25.2207L1686.4 21.0703Z" fill="#1F4847" fill-opacity="0.2"/>
<path d="M893.059 25.221L888.908 25.221L888.908 21.0706L893.059 21.0706L893.059 16.919L897.211 16.919L897.211 21.0706L901.361 21.0706L901.361 25.221L897.211 25.221L897.211 29.3726L893.059 29.3726L893.059 25.221Z" fill="#1F4847" fill-opacity="0.2"/>
<path d="M485.967 25.2207L481.816 25.2207L481.816 21.0703L485.967 21.0703L485.967 25.2207Z" fill="#1F4847" fill-opacity="0.2"/>
<path d="M245.014 25.2207L240.863 25.2207L240.863 21.0703L245.014 21.0703L245.014 25.2207Z" fill="#1F4847" fill-opacity="0.2"/>
<path d="M137.081 29.3723L141.233 29.3723L145.384 29.3723L145.384 33.5227L145.384 37.6743L145.384 41.8247L141.233 41.8247L141.233 37.6743L137.081 37.6743L137.081 33.5227L132.931 33.5227L132.931 37.6743L128.779 37.6743L124.629 37.6743L120.477 37.6743L116.327 37.6743L116.327 33.5227L120.477 33.5227L120.477 29.3723L124.629 29.3723L124.629 33.5227L128.779 33.5227L128.779 29.3723L128.779 25.2207L132.931 25.2207L132.931 21.0703L137.081 21.0703L137.081 25.2207L137.081 29.3723Z" fill="#1F4847" fill-opacity="0.2"/>
<path d="M1707.24 29.3726L1703.09 29.3726L1698.94 29.3726L1694.79 29.3726L1690.54 29.3726L1690.54 25.221L1694.79 25.221L1698.94 25.221L1698.94 21.0706L1703.09 21.0706L1703.09 25.221L1707.24 25.221L1707.24 29.3726Z" fill="#1F4847" fill-opacity="0.2"/>
<path d="M1665.64 25.221L1665.64 21.0706L1669.79 21.0706L1673.94 21.0706L1678.09 21.0706L1678.09 25.221L1673.94 25.221L1673.94 29.3726L1669.79 29.3726L1665.64 29.3726L1665.64 25.221Z" fill="#1F4847" fill-opacity="0.2"/>
<path d="M1241.94 21.0706L1241.94 16.919L1246.09 16.919L1246.09 21.0706L1246.09 25.221L1246.09 29.3726L1241.94 29.3726L1241.94 25.221L1241.94 21.0706Z" fill="#1F4847" fill-opacity="0.2"/>
<path d="M627.197 41.8245L627.197 45.9761L623.047 45.9761L623.047 50.1265L618.895 50.1265L614.745 50.1265L614.745 45.9761L610.593 45.9761L610.593 41.8245L610.593 37.6741L614.745 37.6741L614.745 33.5225L610.593 33.5225L610.593 29.3721L614.745 29.3721L614.745 25.2205L618.895 25.2205L618.895 29.3721L623.047 29.3721L623.047 33.5225L618.895 33.5225L618.895 37.6741L623.047 37.6741L627.197 37.6741L631.349 37.6741L631.349 33.5225L635.499 33.5225L635.499 37.6741L635.499 41.8245L639.65 41.8245L639.65 45.9761L635.499 45.9761L631.349 45.9761L631.349 41.8245L627.197 41.8245Z" fill="#1F4847" fill-opacity="0.2"/>
<path d="M490.115 29.3721L485.964 29.3721L485.964 25.2205L490.115 25.2205L490.115 29.3721Z" fill="#1F4847" fill-opacity="0.2"/>
<path d="M1690.55 33.5229L1686.4 33.5229L1686.4 29.3725L1690.55 29.3725L1690.55 33.5229Z" fill="#1F4847" fill-opacity="0.2"/>
<path d="M1682.24 33.5229L1678.09 33.5229L1678.09 29.3725L1682.24 29.3725L1682.24 33.5229Z" fill="#1F4847" fill-opacity="0.2"/>
<path d="M1632.43 33.5229L1628.28 33.5229L1628.28 29.3725L1632.43 29.3725L1632.43 33.5229Z" fill="#1F4847" fill-opacity="0.2"/>
<path d="M1250.24 25.2208L1254.39 25.2208L1254.39 29.3723L1254.39 33.5227L1254.39 37.6743L1250.24 37.6743L1250.24 33.5227L1246.09 33.5227L1246.09 29.3723L1250.24 29.3723L1250.24 25.2208Z" fill="#1F4847" fill-opacity="0.2"/>
<path d="M569.078 33.5225L564.927 33.5225L564.927 29.3721L569.078 29.3721L569.078 33.5225Z" fill="#1F4847" fill-opacity="0.2"/>
<path d="M415.395 25.2205L419.545 25.2205L419.545 21.0701L423.697 21.0701L427.848 21.0701L427.848 25.2205L427.848 29.3721L423.697 29.3721L423.697 33.5225L419.545 33.5225L415.395 33.5225L411.243 33.5225L411.243 29.3721L415.395 29.3721L415.395 25.2205Z" fill="#1F4847" fill-opacity="0.2"/>
<path d="M407.101 37.6743L402.949 37.6743L402.949 33.5227L398.799 33.5227L398.799 29.3723L402.949 29.3723L407.101 29.3723L407.101 33.5227L407.101 37.6743Z" fill="#1F4847" fill-opacity="0.2"/>
<path d="M377.94 33.5225L373.788 33.5225L373.788 29.3721L377.94 29.3721L377.94 33.5225Z" fill="#1F4847" fill-opacity="0.2"/>
<path d="M278.314 25.2208L278.314 29.3723L278.314 33.5227L278.314 37.6743L274.164 37.6743L274.164 33.5227L274.164 29.3723L270.012 29.3723L270.012 25.2208L274.164 25.2208L278.314 25.2208Z" fill="#1F4847" fill-opacity="0.2"/>
<path d="M207.653 33.5225L203.501 33.5225L203.501 29.3721L207.653 29.3721L207.653 33.5225Z" fill="#1F4847" fill-opacity="0.2"/>
<path d="M70.5703 29.3721L70.5703 25.2205L66.4187 25.2205L66.4187 21.0701L66.4187 16.9185L70.5703 16.9185L74.7207 16.9185L78.8722 16.9185L78.8722 21.0701L83.0226 21.0701L83.0226 25.2205L83.0226 29.3721L78.8722 29.3721L74.7207 29.3721L74.7207 33.5225L70.5703 33.5225L66.4187 33.5225L66.4187 29.3721L70.5703 29.3721Z" fill="#1F4847" fill-opacity="0.2"/>
<path d="M1719.69 33.5227L1719.69 29.3723L1719.69 25.2208L1723.84 25.2208L1723.84 21.0704L1727.99 21.0704L1727.99 25.2208L1727.99 29.3723L1723.84 29.3723L1723.84 33.5227L1723.84 37.6743L1719.69 37.6743L1719.69 33.5227Z" fill="#1F4847" fill-opacity="0.2"/>
<path d="M1707.24 37.6743L1703.09 37.6743L1703.09 33.5227L1707.24 33.5227L1707.24 37.6743Z" fill="#1F4847" fill-opacity="0.2"/>
<path d="M1686.39 37.6743L1682.24 37.6743L1682.24 33.5227L1686.39 33.5227L1686.39 37.6743Z" fill="#1F4847" fill-opacity="0.2"/>
<path d="M1673.94 37.6743L1669.78 37.6743L1669.78 33.5227L1673.94 33.5227L1673.94 37.6743Z" fill="#1F4847" fill-opacity="0.2"/>
<path d="M1395.62 37.6743L1391.47 37.6743L1391.47 33.5227L1395.62 33.5227L1395.62 37.6743Z" fill="#1F4847" fill-opacity="0.2"/>
<path d="M1084.1 54.2783L1084.1 50.1267L1088.25 50.1267L1088.25 45.9763L1092.41 45.9763L1092.41 41.8248L1088.25 41.8248L1088.25 37.6744L1084.1 37.6744L1079.95 37.6744L1075.8 37.6744L1071.65 37.6744L1071.65 33.5228L1075.8 33.5228L1079.95 33.5228L1084.1 33.5228L1088.25 33.5228L1088.25 29.3724L1084.1 29.3724L1079.95 29.3724L1079.95 25.2208L1075.8 25.2208L1075.8 29.3724L1071.65 29.3724L1071.65 25.2208L1071.65 21.0704L1067.5 21.0704L1067.5 16.9188L1071.65 16.9188L1075.8 16.9188L1075.8 21.0704L1079.95 21.0704L1079.95 16.9188L1075.8 16.9188L1075.8 12.7672L1079.95 12.7672L1084.1 12.7672L1084.1 16.9188L1088.25 16.9188L1088.25 21.0704L1088.25 25.2208L1092.41 25.2208L1092.41 29.3724L1096.56 29.3724L1096.56 33.5228L1100.71 33.5228L1100.71 37.6744L1096.56 37.6744L1096.56 41.8248L1096.56 45.9763L1096.56 50.1267L1092.41 50.1267L1092.41 54.2783L1088.25 54.2783L1084.1 54.2783Z" fill="#1F4847" fill-opacity="0.2"/>
<path d="M1038.44 33.5227L1042.59 33.5227L1042.59 29.3723L1046.75 29.3723L1046.75 33.5227L1046.75 37.6743L1042.59 37.6743L1038.44 37.6743L1038.44 33.5227Z" fill="#1F4847" fill-opacity="0.2"/>
<path d="M909.66 37.6743L905.509 37.6743L905.509 33.5227L909.66 33.5227L909.66 37.6743Z" fill="#1F4847" fill-opacity="0.2"/>
<path d="M726.921 37.6743L722.77 37.6743L722.77 33.5227L726.921 33.5227L726.921 37.6743Z" fill="#1F4847" fill-opacity="0.2"/>
<path d="M456.911 37.6743L452.76 37.6743L452.76 33.5227L456.911 33.5227L456.911 37.6743Z" fill="#1F4847" fill-opacity="0.2"/>
<path d="M357.187 33.5227L361.338 33.5227L361.338 37.6743L361.338 41.8247L357.187 41.8247L357.187 37.6743L357.187 33.5227Z" fill="#1F4847" fill-opacity="0.2"/>
<path d="M161.987 37.6743L157.835 37.6743L157.835 33.5227L161.987 33.5227L161.987 37.6743Z" fill="#1F4847" fill-opacity="0.2"/>
<path d="M1690.55 41.8247L1686.4 41.8247L1686.4 37.6743L1690.55 37.6743L1690.55 41.8247Z" fill="#1F4847" fill-opacity="0.2"/>
<path d="M1682.24 41.8247L1678.09 41.8247L1678.09 37.6743L1682.24 37.6743L1682.24 41.8247Z" fill="#1F4847" fill-opacity="0.2"/>
<path d="M1208.73 41.8247L1204.58 41.8247L1204.58 37.6743L1208.73 37.6743L1208.73 41.8247Z" fill="#1F4847" fill-opacity="0.2"/>
<path d="M1050.89 41.8247L1046.74 41.8247L1046.74 37.6743L1050.89 37.6743L1050.89 41.8247Z" fill="#1F4847" fill-opacity="0.2"/>
<path d="M718.619 41.8248L718.619 45.9763L722.769 45.9763L726.921 45.9763L731.071 45.9763L731.071 50.1267L726.921 50.1267L722.769 50.1267L718.619 50.1267L718.619 54.2783L714.467 54.2783L714.467 50.1267L710.315 50.1267L710.315 45.9763L714.467 45.9763L714.467 41.8248L714.467 37.6744L718.619 37.6744L722.769 37.6744L722.769 41.8248L718.619 41.8248Z" fill="#1F4847" fill-opacity="0.2"/>
<path d="M477.661 41.8247L473.51 41.8247L473.51 37.6743L477.661 37.6743L477.661 41.8247Z" fill="#1F4847" fill-opacity="0.2"/>
<path d="M1719.7 41.8248L1719.7 45.9763L1719.7 50.1267L1715.54 50.1267L1711.39 50.1267L1711.39 54.2783L1707.24 54.2783L1707.24 50.1267L1703.09 50.1267L1703.09 45.9763L1707.24 45.9763L1711.39 45.9763L1715.54 45.9763L1715.54 41.8248L1719.7 41.8248Z" fill="#1F4847" fill-opacity="0.2"/>
<path d="M1694.8 45.9766L1694.8 41.825L1698.95 41.825L1703.1 41.825L1703.1 45.9766L1698.95 45.9766L1694.8 45.9766Z" fill="#1F4847" fill-opacity="0.2"/>
<path d="M1665.64 45.9766L1661.49 45.9766L1661.49 41.825L1665.64 41.825L1665.64 45.9766Z" fill="#1F4847" fill-opacity="0.2"/>
<path d="M1217.03 41.825L1217.03 45.9766L1217.03 50.127L1212.88 50.127L1212.88 45.9766L1208.73 45.9766L1208.73 41.825L1212.88 41.825L1217.03 41.825Z" fill="#1F4847" fill-opacity="0.2"/>
<path d="M1104.85 45.9766L1100.7 45.9766L1100.7 41.825L1104.85 41.825L1104.85 45.9766Z" fill="#1F4847" fill-opacity="0.2"/>
<path d="M490.118 41.8245L490.118 45.9761L485.967 45.9761L485.967 50.1265L481.816 50.1265L481.816 45.9761L481.816 41.8245L481.816 37.6741L485.967 37.6741L485.967 41.8245L490.118 41.8245Z" fill="#1F4847" fill-opacity="0.2"/>
<path d="M357.188 45.9761L353.038 45.9761L353.038 41.8245L357.188 41.8245L357.188 45.9761Z" fill="#1F4847" fill-opacity="0.2"/>
<path d="M307.374 45.9761L303.224 45.9761L303.224 41.8245L307.374 41.8245L311.526 41.8245L311.526 45.9761L307.374 45.9761Z" fill="#1F4847" fill-opacity="0.2"/>
<path d="M253.318 41.8245L249.167 41.8245L249.167 37.6741L253.318 37.6741L253.318 33.5225L257.566 33.5225L257.566 37.6741L257.566 41.8245L257.566 45.9761L253.318 45.9761L253.318 41.8245Z" fill="#1F4847" fill-opacity="0.2"/>
<path d="M245.014 45.9761L240.863 45.9761L240.863 41.8245L245.014 41.8245L245.014 45.9761Z" fill="#1F4847" fill-opacity="0.2"/>
<path d="M161.987 45.9761L157.835 45.9761L157.835 41.8245L161.987 41.8245L161.987 45.9761Z" fill="#1F4847" fill-opacity="0.2"/>
<path d="M1723.85 45.9766L1723.85 41.825L1723.85 37.6746L1728 37.6746L1728 41.825L1728 45.9766L1728 50.127L1723.85 50.127L1723.85 45.9766Z" fill="#1F4847" fill-opacity="0.2"/>
<path d="M1694.7 50.127L1690.54 50.127L1690.54 45.9766L1694.7 45.9766L1694.7 50.127Z" fill="#1F4847" fill-opacity="0.2"/>
<path d="M1673.94 50.127L1678.09 50.127L1678.09 45.9766L1682.24 45.9766L1682.24 50.127L1686.39 50.127L1686.39 54.2786L1682.24 54.2786L1682.24 58.4302L1678.09 58.4302L1673.94 58.4302L1673.94 62.5806L1669.78 62.5806L1669.78 58.4302L1669.78 54.2786L1669.78 50.127L1669.78 45.9766L1673.94 45.9766L1673.94 50.127Z" fill="#1F4847" fill-opacity="0.2"/>
<path d="M1615.83 50.127L1611.67 50.127L1611.67 45.9766L1615.83 45.9766L1615.83 50.127Z" fill="#1F4847" fill-opacity="0.2"/>
<path d="M585.69 50.1265L581.539 50.1265L581.539 45.9761L585.69 45.9761L585.69 50.1265Z" fill="#1F4847" fill-opacity="0.2"/>
<path d="M236.711 45.9761L232.559 45.9761L228.409 45.9761L228.409 50.1265L224.258 50.1265L220.107 50.1265L215.956 50.1265L215.956 45.9761L215.956 41.8245L220.107 41.8245L220.107 45.9761L224.258 45.9761L224.258 41.8245L220.107 41.8245L220.107 37.6741L220.107 33.5225L224.258 33.5225L224.258 37.6741L228.409 37.6741L228.409 41.8245L232.559 41.8245L232.559 37.6741L236.711 37.6741L236.711 41.8245L236.711 45.9761Z" fill="#1F4847" fill-opacity="0.2"/>
<path d="M203.504 50.1265L199.354 50.1265L199.354 45.9761L203.504 45.9761L203.504 50.1265Z" fill="#1F4847" fill-opacity="0.2"/>
<path d="M149.542 50.1265L145.391 50.1265L145.391 45.9761L149.542 45.9761L149.542 50.1265Z" fill="#1F4847" fill-opacity="0.2"/>
<path d="M87.1718 50.1267L87.1718 54.2783L83.0203 54.2783L83.0203 50.1267L83.0203 45.9763L87.1718 45.9763L87.1718 50.1267Z" fill="#1F4847" fill-opacity="0.2"/>
<path d="M1698.95 54.2783L1694.8 54.2783L1694.8 50.1267L1698.95 50.1267L1698.95 54.2783Z" fill="#1F4847" fill-opacity="0.2"/>
<path d="M1366.57 54.2783L1366.57 50.1267L1370.72 50.1267L1374.87 50.1267L1374.87 54.2783L1370.72 54.2783L1366.57 54.2783Z" fill="#1F4847" fill-opacity="0.2"/>
<path d="M1337.51 54.2783L1333.36 54.2783L1333.36 50.1267L1337.51 50.1267L1337.51 54.2783Z" fill="#1F4847" fill-opacity="0.2"/>
<path d="M647.956 54.2783L643.806 54.2783L643.806 50.1267L647.956 50.1267L647.956 54.2783Z" fill="#1F4847" fill-opacity="0.2"/>
<path d="M577.384 54.2783L573.233 54.2783L573.233 50.1267L577.384 50.1267L577.384 54.2783Z" fill="#1F4847" fill-opacity="0.2"/>
<path d="M398.795 41.8246L398.795 45.9762L394.547 45.9762L394.547 50.1266L394.547 54.2781L398.795 54.2781L398.795 50.1266L398.795 45.9762L402.946 45.9762L407.097 45.9762L407.097 50.1266L407.097 54.2781L407.097 58.4297L402.946 58.4297L402.946 62.5801L407.097 62.5801L411.248 62.5801L411.248 66.7317L415.399 66.7317L415.399 70.8821L415.399 75.0337L415.399 79.1841L411.248 79.1841L407.097 79.1841L402.946 79.1841L398.795 79.1841L394.547 79.1841L390.397 79.1841L390.397 75.0337L394.547 75.0337L398.795 75.0337L402.946 75.0337L407.097 75.0337L411.248 75.0337L411.248 70.8821L407.097 70.8821L402.946 70.8821L402.946 66.7317L398.795 66.7317L394.547 66.7317L394.547 62.5801L394.547 58.4297L390.397 58.4297L390.397 54.2781L390.397 50.1266L386.245 50.1266L386.245 45.9762L386.245 41.8246L382.094 41.8246L382.094 37.6742L386.245 37.6742L386.245 33.5226L390.397 33.5226L394.547 33.5226L394.547 37.6742L390.397 37.6742L390.397 41.8246L394.547 41.8246L394.547 37.6742L398.795 37.6742L402.946 37.6742L402.946 41.8246L398.795 41.8246Z" fill="#1F4847" fill-opacity="0.2"/>
<path d="M278.314 45.9761L278.314 50.1265L282.465 50.1265L282.465 45.9761L286.617 45.9761L286.617 50.1265L286.617 54.2781L290.767 54.2781L294.919 54.2781L299.069 54.2781L303.221 54.2781L303.221 58.4297L303.221 62.5801L299.069 62.5801L299.069 58.4297L294.919 58.4297L290.767 58.4297L286.617 58.4297L286.617 62.5801L282.465 62.5801L282.465 58.4297L282.465 54.2781L278.314 54.2781L278.314 58.4297L274.164 58.4297L270.012 58.4297L270.012 54.2781L270.012 50.1265L270.012 45.9761L274.164 45.9761L278.314 45.9761Z" fill="#1F4847" fill-opacity="0.2"/>
<path d="M253.316 54.2781L253.316 50.1265L257.564 50.1265L257.564 45.9761L261.714 45.9761L261.714 50.1265L265.866 50.1265L265.866 54.2781L261.714 54.2781L261.714 58.4297L257.564 58.4297L257.564 54.2781L253.316 54.2781Z" fill="#1F4847" fill-opacity="0.2"/>
<path d="M178.594 50.1265L182.746 50.1265L186.896 50.1265L186.896 45.9761L186.896 41.8245L186.896 37.6741L186.896 33.5226L186.896 29.3722L191.048 29.3722L195.198 29.3722L195.198 33.5226L195.198 37.6741L191.048 37.6741L191.048 41.8245L195.198 41.8245L199.35 41.8246L199.35 45.9761L195.198 45.9761L195.198 50.1265L191.048 50.1265L191.048 54.2781L186.896 54.2781L182.746 54.2781L182.746 58.4297L178.594 58.4297L178.594 54.2781L178.594 50.1265Z" fill="#1F4847" fill-opacity="0.2"/>
<path d="M1690.55 58.43L1690.55 62.5804L1690.55 66.7319L1686.4 66.7319L1686.4 62.5804L1686.4 58.43L1686.4 54.2784L1690.55 54.2784L1690.55 58.43Z" fill="#1F4847" fill-opacity="0.2"/>
<path d="M1291.85 58.4297L1287.69 58.4297L1287.69 54.2781L1291.85 54.2781L1291.85 58.4297Z" fill="#1F4847" fill-opacity="0.2"/>
<path d="M618.899 58.4297L618.899 54.2781L623.05 54.2781L623.05 50.1265L627.201 50.1265L627.201 54.2781L627.201 58.4297L623.05 58.4297L618.899 58.4297Z" fill="#1F4847" fill-opacity="0.2"/>
<path d="M456.909 58.4297L456.909 54.2781L461.061 54.2781L461.061 50.1265L465.212 50.1265L465.212 54.2781L465.212 58.4297L465.212 62.5801L461.061 62.5801L461.061 58.4297L456.909 58.4297Z" fill="#1F4847" fill-opacity="0.2"/>
<path d="M419.551 54.2784L423.702 54.2784L427.854 54.2784L427.854 58.4299L427.854 62.5803L427.854 66.7319L427.854 70.8823L423.702 70.8823L423.702 66.7319L423.702 62.5803L423.702 58.4299L419.551 58.4299L415.4 58.4299L415.4 54.2784L419.551 54.2784Z" fill="#1F4847" fill-opacity="0.2"/>
<path d="M328.134 58.4297L323.984 58.4297L323.984 54.2781L328.134 54.2781L328.134 58.4297Z" fill="#1F4847" fill-opacity="0.2"/>
<path d="M311.524 58.4299L315.674 58.4299L315.674 54.2784L319.826 54.2784L319.826 58.4299L319.826 62.5803L323.977 62.5803L328.128 62.5803L328.128 66.7319L323.977 66.7319L323.977 70.8823L319.826 70.8823L319.826 66.7319L315.674 66.7319L315.674 62.5803L311.524 62.5803L311.524 66.7319L307.372 66.7319L307.372 62.5803L307.372 58.4299L307.372 54.2784L307.372 50.1268L311.524 50.1268L311.524 54.2784L311.524 58.4299Z" fill="#1F4847" fill-opacity="0.2"/>
<path d="M1707.24 62.5806L1703.09 62.5806L1703.09 58.4302L1707.24 58.4302L1707.24 62.5806Z" fill="#1F4847" fill-opacity="0.2"/>
<path d="M1665.64 62.5806L1661.49 62.5806L1661.49 58.4302L1665.64 58.4302L1665.64 62.5806Z" fill="#1F4847" fill-opacity="0.2"/>
<path d="M1657.33 62.5806L1653.18 62.5806L1653.18 58.4302L1657.33 58.4302L1657.33 62.5806Z" fill="#1F4847" fill-opacity="0.2"/>
<path d="M215.956 58.43L220.107 58.43L220.107 62.5804L220.107 66.7319L215.956 66.7319L215.956 62.5804L215.956 58.43Z" fill="#1F4847" fill-opacity="0.2"/>
<path d="M157.835 62.5804L157.835 58.43L161.987 58.43L161.987 54.2784L161.987 50.1268L166.137 50.1268L166.137 54.2784L170.289 54.2784L170.289 58.43L174.441 58.43L178.591 58.43L178.591 62.5804L174.441 62.5804L170.289 62.5804L170.289 66.7319L166.137 66.7319L161.987 66.7319L161.987 62.5804L157.835 62.5804Z" fill="#1F4847" fill-opacity="0.2"/>
<path d="M1694.79 62.5806L1694.79 58.4302L1698.94 58.4302L1698.94 62.5806L1698.94 66.7322L1698.94 70.8826L1703.09 70.8826L1707.24 70.8826L1711.4 70.8826L1711.4 66.7322L1711.4 62.5806L1711.4 58.4302L1715.55 58.4302L1715.55 62.5806L1715.55 66.7322L1715.55 70.8826L1715.55 75.0342L1715.55 79.1846L1711.4 79.1846L1711.4 75.0342L1707.24 75.0342L1707.24 79.1846L1703.09 79.1846L1703.09 75.0342L1698.94 75.0342L1698.94 79.1846L1694.79 79.1846L1694.79 75.0342L1694.79 70.8826L1690.54 70.8826L1690.54 66.7322L1694.79 66.7322L1694.79 62.5806Z" fill="#1F4847" fill-opacity="0.2"/>
<path d="M270.014 66.7319L265.864 66.7319L265.864 62.5804L265.864 58.43L270.014 58.43L270.014 62.5804L270.014 66.7319Z" fill="#1F4847" fill-opacity="0.2"/>
<path d="M1358.27 66.7317L1358.27 62.5801L1362.42 62.5801L1362.42 58.4297L1366.57 58.4297L1370.72 58.4297L1374.87 58.4297L1374.87 54.2781L1379.02 54.2781L1379.02 58.4297L1383.17 58.4297L1383.17 62.5801L1387.32 62.5801L1387.32 66.7317L1391.48 66.7317L1395.63 66.7317L1395.63 70.8821L1399.78 70.8821L1403.93 70.8821L1403.93 66.7317L1408.18 66.7317L1408.18 70.8821L1412.33 70.8821L1412.33 75.0337L1408.18 75.0337L1403.93 75.0337L1399.78 75.0337L1395.63 75.0337L1391.48 75.0337L1391.48 79.1841L1387.32 79.1841L1383.17 79.1841L1379.02 79.1841L1379.02 75.0337L1379.02 70.8821L1383.17 70.8821L1383.17 66.7317L1379.02 66.7317L1379.02 62.5801L1374.87 62.5801L1374.87 66.7317L1370.72 66.7317L1370.72 70.8821L1366.57 70.8821L1366.57 75.0337L1362.42 75.0337L1358.27 75.0337L1358.27 70.8821L1358.27 66.7317Z" fill="#1F4847" fill-opacity="0.2"/>
<path d="M1088.25 58.4297L1092.4 58.4297L1092.4 54.2782L1096.55 54.2782L1100.7 54.2782L1100.7 50.1266L1104.85 50.1266L1104.85 45.9762L1109.01 45.9762L1109.01 50.1266L1113.16 50.1266L1113.16 54.2782L1109.01 54.2782L1109.01 58.4297L1109.01 62.5801L1104.85 62.5801L1104.85 66.7317L1100.7 66.7317L1100.7 62.5801L1096.55 62.5801L1096.55 66.7317L1100.7 66.7317L1100.7 70.8821L1104.85 70.8821L1104.85 66.7317L1109.01 66.7317L1109.01 70.8821L1113.16 70.8821L1113.16 75.0337L1109.01 75.0337L1104.85 75.0337L1100.7 75.0337L1096.55 75.0337L1092.4 75.0337L1092.4 70.8821L1092.4 66.7317L1088.25 66.7317L1088.25 70.8821L1088.25 75.0337L1084.1 75.0337L1084.1 70.8821L1084.1 66.7317L1084.1 62.5801L1088.25 62.5801L1088.25 58.4297Z" fill="#1F4847" fill-opacity="0.2"/>
<path d="M569.087 70.8821L573.238 70.8821L573.238 66.7317L577.39 66.7317L577.39 62.5801L593.994 62.5801L593.994 66.7317L598.144 66.7317L598.144 58.4297L602.296 58.4297L602.296 70.8821L598.144 70.8821L598.144 75.0337L589.842 75.0337L589.842 79.1841L581.54 79.1841L581.54 70.8821L577.39 70.8821L577.39 79.1841L569.087 79.1841L569.087 75.0337L552.483 75.0337L552.483 70.8821L564.936 70.8821L564.936 66.7317L569.087 66.7317L569.087 70.8821ZM585.692 70.8821L589.842 70.8821L589.842 66.7317L585.692 66.7317L585.692 70.8821Z" fill="#1F4847" fill-opacity="0.2"/>
<path d="M485.967 70.8821L485.967 62.5801L490.118 62.5801L490.118 50.1266L494.269 50.1266L494.269 54.2781L498.42 54.2781L498.42 58.4297L494.269 58.4297L494.269 62.5801L498.42 62.5801L498.42 66.7317L506.722 66.7317L506.722 70.8821L510.874 70.8821L510.874 75.0337L502.572 75.0337L502.572 79.1841L485.967 79.1841L485.967 75.0337L481.816 75.0337L481.816 70.8821L485.967 70.8821ZM490.118 70.8821L494.269 70.8821L494.269 66.7317L490.118 66.7317L490.118 70.8821Z" fill="#1F4847" fill-opacity="0.2"/>
<path d="M1570.16 62.5803L1570.16 58.4299L1570.16 54.2784L1574.31 54.2784L1574.31 58.4299L1578.46 58.4299L1578.46 62.5803L1574.31 62.5803L1574.31 66.7319L1578.46 66.7319L1578.46 70.8823L1574.31 70.8823L1570.16 70.8823L1566.01 70.8823L1566.01 66.7319L1570.16 66.7319L1570.16 62.5803Z" fill="#1F4847" fill-opacity="0.2"/>
<path d="M747.672 21.0704L747.672 25.2209L751.824 25.2209L751.824 37.6744L755.975 37.6744L755.975 29.3724L760.126 29.3724L760.126 37.6744L764.277 37.6744L764.277 41.8248L768.428 41.8248L768.428 45.9764L764.277 45.9764L764.277 50.1268L776.73 50.1268L776.73 66.7319L772.579 66.7319L772.579 54.2784L764.277 54.2784L764.277 58.43L751.824 58.43L751.824 66.7319L747.672 66.7319L747.672 54.2784L743.522 54.2784L743.522 50.1268L739.37 50.1268L739.37 41.8248L735.22 41.8248L735.22 45.9764L731.068 45.9764L731.068 41.8248L726.918 41.8248L726.918 37.6744L739.37 37.6744L739.37 29.3724L743.522 29.3724L743.522 25.2209L739.37 25.2209L739.37 21.0704L747.672 21.0704ZM747.672 50.1268L751.824 50.1268L751.824 54.2784L755.975 54.2784L755.975 50.1268L760.126 50.1268L760.126 41.8248L755.975 41.8248L755.975 50.1268L751.824 50.1268L751.824 45.9764L747.672 45.9764L747.672 50.1268Z" fill="#1F4847" fill-opacity="0.2"/>
<path d="M535.778 58.4297L535.778 54.2781L531.628 54.2781L531.628 50.1266L539.93 50.1266L539.93 45.9762L531.628 45.9762L531.628 50.1266L527.476 50.1266L527.476 45.9762L523.325 45.9762L523.325 41.8246L531.628 41.8246L531.628 37.6742L539.93 37.6742L539.93 41.8246L548.232 41.8246L548.232 45.9762L552.382 45.9762L552.382 41.8246L560.684 41.8246L560.684 33.5226L564.836 33.5226L564.836 41.8246L573.138 41.8246L573.138 50.1266L568.987 50.1266L568.987 54.2781L560.684 54.2781L560.684 45.9762L556.534 45.9762L556.534 50.1266L552.382 50.1266L552.382 62.5801L560.684 62.5801L560.684 58.4297L564.836 58.4297L564.836 66.7317L548.232 66.7317L548.232 79.1841L544.08 79.1841L544.08 62.5801L539.93 62.5801L539.93 58.4297L535.778 58.4297ZM544.08 54.2781L548.232 54.2781L548.232 50.1266L544.08 50.1266L544.08 54.2781Z" fill="#1F4847" fill-opacity="0.2"/>
<path d="M432.002 70.8821L432.002 66.7317L432.002 62.5801L436.153 62.5801L440.304 62.5801L444.455 62.5801L444.455 58.4297L444.455 54.2781L448.606 54.2781L452.757 54.2781L452.757 58.4297L456.908 58.4297L456.908 62.5801L461.059 62.5801L461.059 66.7317L461.059 70.8821L456.908 70.8821L456.908 75.0337L456.908 79.1841L452.757 79.1841L448.606 79.1841L444.455 79.1841L444.455 75.0337L448.606 75.0337L448.606 70.8821L452.757 70.8821L452.757 66.7317L448.606 66.7317L448.606 70.8821L444.455 70.8821L444.455 66.7317L440.304 66.7317L440.304 70.8821L440.304 75.0337L436.153 75.0337L436.153 70.8821L432.002 70.8821Z" fill="#1F4847" fill-opacity="0.2"/>
<path d="M1478.74 62.5806L1474.59 62.5806L1474.59 58.4302L1478.74 58.4302L1478.74 62.5806Z" fill="#1F4847" fill-opacity="0.2"/>
<path d="M1167.23 62.5801L1163.07 62.5801L1163.07 58.4297L1167.23 58.4297L1167.23 62.5801Z" fill="#1F4847" fill-opacity="0.2"/>
<path d="M1121.47 62.5801L1117.31 62.5801L1117.31 58.4297L1121.47 58.4297L1121.47 62.5801Z" fill="#1F4847" fill-opacity="0.2"/>
<path d="M1063.35 62.5801L1059.19 62.5801L1059.19 58.4297L1063.35 58.4297L1063.35 62.5801Z" fill="#1F4847" fill-opacity="0.2"/>
<path d="M1055.05 62.5801L1050.9 62.5801L1050.9 58.4297L1055.05 58.4297L1055.05 62.5801Z" fill="#1F4847" fill-opacity="0.2"/>
<path d="M992.781 62.5801L988.63 62.5801L988.63 58.4297L992.781 58.4297L992.781 62.5801Z" fill="#1F4847" fill-opacity="0.2"/>
<path d="M834.941 66.7317L834.941 62.5801L830.79 62.5801L830.79 66.7317L826.542 66.7317L826.542 62.5801L822.392 62.5801L818.24 62.5801L818.24 58.4297L822.392 58.4297L822.392 54.2781L826.542 54.2781L830.79 54.2781L830.79 50.1266L834.941 50.1266L834.941 54.2781L839.092 54.2781L839.092 58.4297L843.243 58.4297L843.243 62.5801L843.243 66.7317L847.394 66.7317L851.544 66.7317L851.544 70.8821L855.696 70.8821L859.848 70.8821L859.848 66.7317L863.998 66.7317L868.15 66.7317L868.15 70.8821L872.3 70.8821L876.452 70.8821L876.452 75.0337L872.3 75.0337L868.15 75.0337L863.998 75.0337L859.848 75.0337L859.848 79.1841L855.696 79.1841L855.696 75.0337L851.544 75.0337L847.394 75.0337L847.394 70.8821L843.242 70.8821L843.242 75.0337L839.092 75.0337L839.092 70.8821L834.941 70.8821L830.79 70.8821L830.79 66.7317L834.941 66.7317Z" fill="#1F4847" fill-opacity="0.2"/>
<path d="M768.429 62.5801L764.278 62.5801L764.278 58.4297L768.429 58.4297L768.429 62.5801Z" fill="#1F4847" fill-opacity="0.2"/>
<path d="M672.86 54.2782L677.012 54.2782L677.012 58.4297L677.012 62.5801L681.163 62.5801L685.314 62.5801L685.314 66.7317L681.163 66.7317L677.012 66.7317L677.012 70.8821L681.163 70.8821L681.163 75.0337L677.012 75.0337L672.86 75.0337L672.86 70.8821L672.86 66.7317L668.71 66.7317L668.71 62.5801L664.558 62.5801L664.558 58.4297L668.71 58.4297L668.71 54.2782L664.558 54.2782L664.558 58.4297L660.408 58.4297L660.408 54.2782L656.256 54.2782L652.106 54.2781L652.106 50.1266L647.954 50.1266L647.954 45.9762L652.106 45.9762L656.256 45.9762L660.408 45.9762L664.558 45.9762L668.71 45.9762L672.86 45.9762L672.86 50.1266L672.86 54.2782Z" fill="#1F4847" fill-opacity="0.2"/>
<path d="M652.102 62.5801L652.102 58.4297L656.252 58.4297L660.404 58.4297L660.404 62.5801L660.404 66.7317L656.252 66.7317L656.252 70.8821L652.102 70.8821L647.95 70.8821L647.95 75.0337L652.102 75.0337L652.102 79.1841L647.95 79.1841L643.8 79.1841L643.8 75.0337L639.648 75.0337L639.648 70.8821L643.8 70.8821L643.8 66.7317L639.648 66.7317L635.497 66.7317L631.346 66.7317L631.346 62.5801L627.195 62.5801L627.195 58.4297L631.346 58.4297L635.497 58.4297L635.497 62.5801L639.648 62.5801L639.648 58.4297L643.8 58.4297L647.95 58.4297L647.95 62.5801L652.102 62.5801Z" fill="#1F4847" fill-opacity="0.2"/>
<path d="M618.892 62.5801L614.741 62.5801L614.741 58.4297L618.892 58.4297L618.892 62.5801Z" fill="#1F4847" fill-opacity="0.2"/>
<path d="M573.236 62.5801L569.084 62.5801L569.084 58.4297L573.236 58.4297L573.236 62.5801Z" fill="#1F4847" fill-opacity="0.2"/>
<path d="M531.624 58.4297L535.774 58.4297L535.774 62.5801L531.624 62.5801L527.472 62.5801L527.472 58.4297L527.472 54.2781L531.624 54.2781L531.624 58.4297Z" fill="#1F4847" fill-opacity="0.2"/>
<path d="M506.725 62.5801L502.575 62.5801L502.575 58.4297L506.725 58.4297L506.725 62.5801Z" fill="#1F4847" fill-opacity="0.2"/>
<path d="M477.664 50.1268L477.664 54.2784L477.664 58.43L481.816 58.43L481.816 62.5804L481.816 66.7319L477.664 66.7319L477.664 62.5804L473.514 62.5804L473.514 66.7319L469.362 66.7319L469.362 62.5804L469.362 58.43L469.362 54.2784L469.362 50.1268L473.514 50.1268L477.664 50.1268Z" fill="#1F4847" fill-opacity="0.2"/>
<path d="M415.395 62.5801L411.243 62.5801L411.243 58.4297L415.395 58.4297L415.395 62.5801Z" fill="#1F4847" fill-opacity="0.2"/>
<path d="M377.945 62.5804L377.945 58.43L382.096 58.43L386.247 58.43L390.399 58.43L390.399 62.5804L386.247 62.5804L386.247 66.7319L382.096 66.7319L382.096 62.5804L377.945 62.5804Z" fill="#1F4847" fill-opacity="0.2"/>
<path d="M361.34 54.2781L361.34 50.1266L357.188 50.1266L357.188 45.9762L361.34 45.9762L365.49 45.9762L365.49 50.1266L365.49 54.2781L365.49 58.4297L369.642 58.4297L373.792 58.4297L373.792 62.5801L369.642 62.5801L369.642 66.7317L369.642 70.8821L373.792 70.8821L373.792 75.0337L373.792 79.1841L369.642 79.1841L369.642 75.0337L365.49 75.0337L365.49 79.1841L361.34 79.1841L361.34 75.0337L361.34 70.8821L361.34 66.7317L361.34 62.5801L357.188 62.5801L353.038 62.5801L353.038 58.4297L353.038 54.2781L357.188 54.2781L361.34 54.2781Z" fill="#1F4847" fill-opacity="0.2"/>
<path d="M348.884 62.5801L344.732 62.5801L344.732 58.4297L348.884 58.4297L348.884 62.5801Z" fill="#1F4847" fill-opacity="0.2"/>
<path d="M332.282 58.4297L332.282 54.2781L336.433 54.2781L336.433 58.4297L336.433 62.5801L332.282 62.5801L328.131 62.5801L328.131 58.4297L332.282 58.4297Z" fill="#1F4847" fill-opacity="0.2"/>
<path d="M253.312 58.43L257.56 58.43L257.56 62.5804L257.56 66.7319L253.312 66.7319L253.312 62.5804L249.162 62.5804L249.162 66.7319L245.01 66.7319L245.01 62.5804L245.01 58.43L249.162 58.43L253.312 58.43Z" fill="#1F4847" fill-opacity="0.2"/>
<path d="M203.504 62.5801L199.354 62.5801L199.354 58.4297L203.504 58.4297L203.504 62.5801Z" fill="#1F4847" fill-opacity="0.2"/>
<path d="M145.391 54.2784L149.542 54.2784L153.693 54.2784L153.693 58.43L153.693 62.5804L153.693 66.7319L149.542 66.7319L149.542 62.5804L149.542 58.43L145.391 58.43L145.391 54.2784Z" fill="#1F4847" fill-opacity="0.2"/>
<path d="M137.079 58.4297L132.928 58.4297L132.928 54.2781L137.079 54.2781L141.23 54.2781L141.23 58.4297L141.23 62.5801L137.079 62.5801L137.079 58.4297Z" fill="#1F4847" fill-opacity="0.2"/>
<path d="M116.331 58.43L120.481 58.43L124.633 58.43L128.783 58.43L128.783 62.5804L128.783 66.7319L124.633 66.7319L124.633 62.5804L120.481 62.5804L116.331 62.5804L112.179 62.5804L112.179 58.43L116.331 58.43Z" fill="#1F4847" fill-opacity="0.2"/>
<path d="M103.782 58.4299L103.782 54.2784L103.782 50.1268L107.934 50.1268L107.934 54.2784L107.934 58.4299L107.934 62.5803L112.181 62.5803L112.181 66.7319L107.934 66.7319L107.934 70.8823L103.782 70.8823L103.782 66.7319L103.782 62.5803L99.6316 62.5803L99.6316 58.4299L103.782 58.4299Z" fill="#1F4847" fill-opacity="0.2"/>
<path d="M95.4775 62.5801L91.3259 62.5801L91.3259 58.4297L95.4775 58.4297L95.4775 62.5801Z" fill="#1F4847" fill-opacity="0.2"/>
<path d="M66.4181 62.5801L62.2666 62.5801L62.2666 58.4297L62.2666 54.2781L58.1162 54.2781L53.9646 54.2781L53.9646 50.1265L58.1162 50.1265L62.2666 50.1265L62.2666 45.9761L66.4181 45.9761L70.5697 45.9761L70.5697 50.1265L70.5697 54.2781L66.4181 54.2781L66.4181 58.4297L66.4181 62.5801Z" fill="#1F4847" fill-opacity="0.2"/>
<path d="M29.0617 62.5801L24.9102 62.5801L24.9102 58.4297L29.0617 58.4297L29.0617 62.5801Z" fill="#1F4847" fill-opacity="0.2"/>
<path d="M20.758 58.4297L20.758 62.5801L16.6064 62.5801L12.4561 62.5801L12.4561 58.4297L16.6064 58.4297L20.758 58.4297Z" fill="#1F4847" fill-opacity="0.2"/>
<path d="M4.1545 62.5801L0.00292969 62.5801L0.00293041 58.4297L4.1545 58.4297L4.1545 62.5801Z" fill="#1F4847" fill-opacity="0.2"/>
<path d="M1653.19 58.4302L1649.03 58.4302L1649.03 54.2786L1653.19 54.2786L1653.19 58.4302Z" fill="#1F4847" fill-opacity="0.2"/>
<path d="M1478.74 45.9766L1478.74 41.825L1478.74 37.6746L1482.89 37.6746L1482.89 41.825L1487.04 41.825L1487.04 45.9766L1487.04 50.127L1487.04 54.2786L1491.19 54.2786L1491.19 58.4302L1487.04 58.4302L1482.89 58.4302L1478.74 58.4302L1478.74 54.2786L1474.59 54.2786L1474.59 50.127L1478.74 50.127L1478.74 45.9766Z" fill="#1F4847" fill-opacity="0.2"/>
<path d="M1225.34 50.1265L1221.19 50.1265L1221.19 45.9761L1225.34 45.9761L1225.34 41.8245L1221.19 41.8245L1221.19 37.6741L1217.04 37.6741L1212.88 37.6741L1208.73 37.6741L1208.73 33.5226L1204.58 33.5226L1204.58 29.3722L1208.73 29.3722L1212.88 29.3722L1212.88 33.5226L1217.04 33.5226L1217.04 29.3722L1221.19 29.3722L1221.19 25.2206L1225.34 25.2206L1225.34 29.3722L1225.34 33.5226L1229.49 33.5226L1229.49 29.3722L1233.64 29.3722L1233.64 33.5226L1237.79 33.5226L1237.79 29.3722L1241.94 29.3722L1241.94 33.5226L1241.94 37.6741L1241.94 41.8245L1237.79 41.8245L1237.79 45.9761L1233.64 45.9761L1233.64 50.1265L1233.64 54.2781L1229.49 54.2781L1229.49 58.4297L1229.49 62.5801L1225.34 62.5801L1225.34 58.4297L1221.19 58.4297L1221.19 54.2781L1225.34 54.2781L1225.34 50.1265Z" fill="#1F4847" fill-opacity="0.2"/>
<path d="M1217.03 58.4297L1212.88 58.4297L1212.88 54.2781L1217.03 54.2781L1217.03 58.4297Z" fill="#1F4847" fill-opacity="0.2"/>
<path d="M1079.96 54.2784L1084.11 54.2784L1084.11 58.43L1084.11 62.5804L1079.96 62.5804L1079.96 66.7319L1075.8 66.7319L1075.8 62.5804L1075.8 58.43L1079.96 58.43L1079.96 54.2784Z" fill="#1F4847" fill-opacity="0.2"/>
<path d="M917.965 58.4297L913.815 58.4297L913.815 54.2781L917.965 54.2781L917.965 58.4297Z" fill="#1F4847" fill-opacity="0.2"/>
<path d="M901.364 58.4297L905.515 58.4297L905.515 54.2782L909.666 54.2782L909.666 62.5801L905.515 62.5801L905.515 66.7317L909.666 66.7317L909.666 62.5801L917.968 62.5801L917.968 58.4297L922.119 58.4297L922.119 62.5801L930.421 62.5801L930.421 58.4297L926.27 58.4297L926.27 54.2782L917.968 54.2782L917.968 50.1266L926.27 50.1266L926.27 41.8246L930.421 41.8246L930.421 45.9762L934.573 45.9762L934.573 50.1266L938.723 50.1266L938.723 54.2782L947.025 54.2782L947.025 58.4297L938.723 58.4297L938.723 62.5801L947.025 62.5801L947.025 58.4297L951.177 58.4297L951.177 62.5801L955.327 62.5801L955.327 58.4297L951.177 58.4297L951.177 54.2782L959.479 54.2782L959.479 58.4297L963.63 58.4297L963.63 50.1266L951.177 50.1266L951.177 41.8246L955.327 41.8246L955.327 45.9762L959.479 45.9762L959.479 41.8246L967.781 41.8246L967.781 37.6742L971.932 37.6742L971.932 45.9762L976.083 45.9762L976.083 41.8246L980.234 41.8246L980.234 45.9762L984.385 45.9762L984.385 50.1266L980.234 50.1266L980.234 54.2782L984.385 54.2782L984.385 50.1266L988.536 50.1266L988.536 58.4297L976.083 58.4297L976.083 62.5801L980.234 62.5801L980.234 66.7317L971.932 66.7317L971.932 70.8821L967.781 70.8821L967.781 66.7317L963.63 66.7317L963.63 62.5801L959.479 62.5801L959.479 66.7317L947.025 66.7317L947.025 70.8821L942.875 70.8821L942.875 75.0337L938.723 75.0337L938.723 70.8821L934.573 70.8821L934.573 66.7317L930.421 66.7317L930.421 70.8821L926.27 70.8821L926.27 75.0337L922.119 75.0337L922.119 70.8821L917.968 70.8821L917.968 75.0337L909.666 75.0337L909.666 70.8821L897.213 70.8821L897.213 62.5801L901.364 62.5801L901.364 58.4297ZM967.781 54.2782L971.932 54.2782L971.932 50.1266L967.781 50.1266L967.781 54.2782Z" fill="#1F4847" fill-opacity="0.2"/>
<path d="M743.527 62.5801L743.527 66.7317L743.527 70.8821L743.527 75.0337L739.375 75.0337L739.375 70.8821L735.225 70.8821L735.225 66.7317L731.073 66.7317L731.073 70.8821L735.225 70.8821L735.225 75.0337L731.073 75.0337L726.923 75.0337L726.923 79.1841L722.771 79.1841L718.621 79.1841L718.621 75.0337L722.771 75.0337L722.771 70.8821L722.771 66.7317L726.923 66.7317L726.923 62.5801L731.073 62.5801L735.225 62.5801L735.225 58.4297L735.225 54.2781L739.375 54.2781L743.527 54.2781L743.527 58.4297L743.527 62.5801Z" fill="#1F4847" fill-opacity="0.2"/>
<path d="M718.62 62.5801L718.62 66.7317L714.469 66.7317L714.469 62.5801L710.317 62.5801L710.317 66.7317L706.167 66.7317L706.167 62.5801L702.015 62.5801L702.015 75.0337L689.563 75.0337L689.563 70.8821L685.411 70.8821L685.411 66.7317L689.563 66.7317L689.563 58.4297L685.411 58.4297L685.411 54.2781L681.261 54.2781L681.261 50.1266L685.411 50.1266L685.411 45.9762L689.563 45.9762L689.563 41.8246L693.713 41.8246L693.713 37.6742L697.865 37.6742L697.865 29.3722L702.015 29.3722L702.015 41.8246L706.167 41.8246L706.167 54.2782L702.015 54.2782L702.015 58.4297L706.167 58.4297L706.167 54.2782L710.317 54.2782L710.317 58.4297L726.922 58.4297L726.922 62.5801L718.62 62.5801ZM697.865 54.2782L697.865 45.9762L693.713 45.9762L693.713 50.1266L689.563 50.1266L689.563 54.2782L693.713 54.2782L693.713 58.4297L697.865 58.4297L697.865 54.2782Z" fill="#1F4847" fill-opacity="0.2"/>
<path d="M652.106 58.4297L647.954 58.4297L647.954 54.2781L652.106 54.2781L652.106 58.4297Z" fill="#1F4847" fill-opacity="0.2"/>
<path d="M606.442 58.4297L606.442 54.2781L602.291 54.2781L602.291 50.1265L598.139 50.1265L598.139 54.2781L593.989 54.2781L589.837 54.2781L589.837 58.4297L585.687 58.4297L585.687 54.2781L585.687 50.1265L589.837 50.1265L589.837 45.9761L589.837 41.8245L585.687 41.8245L585.687 37.6741L585.687 33.5226L589.837 33.5226L589.837 29.3722L593.989 29.3722L598.139 29.3722L598.139 33.5226L593.989 33.5226L593.989 37.6741L598.139 37.6741L602.291 37.6741L602.291 41.8245L598.139 41.8245L593.989 41.8245L593.989 45.9761L598.139 45.9761L602.291 45.9761L602.291 41.8245L606.443 41.8246L606.443 45.9761L606.443 50.1265L610.593 50.1265L610.593 54.2781L614.744 54.2781L614.744 58.4297L610.593 58.4297L606.442 58.4297Z" fill="#1F4847" fill-opacity="0.2"/>
<path d="M560.782 58.4297L556.631 58.4297L556.631 54.2781L560.782 54.2781L560.782 58.4297Z" fill="#1F4847" fill-opacity="0.2"/>
<path d="M436.153 58.4297L432.002 58.4297L432.002 54.2781L436.153 54.2781L436.153 58.4297Z" fill="#1F4847" fill-opacity="0.2"/>
<path d="M377.94 58.4297L373.788 58.4297L373.788 54.2781L377.94 54.2781L377.94 58.4297Z" fill="#1F4847" fill-opacity="0.2"/>
<path d="M224.253 54.2781L228.405 54.2781L228.405 58.4297L224.253 58.4297L220.103 58.4297L220.103 54.2781L224.253 54.2781Z" fill="#1F4847" fill-opacity="0.2"/>
<path d="M195.199 58.4297L191.048 58.4297L191.048 54.2781L195.199 54.2781L195.199 58.4297Z" fill="#1F4847" fill-opacity="0.2"/>
<path d="M83.0222 58.4297L78.8718 58.4297L78.8718 54.2781L83.0222 54.2781L83.0222 58.4297Z" fill="#1F4847" fill-opacity="0.2"/>
<path d="M24.9121 58.4297L20.7617 58.4297L20.7617 54.2781L24.9121 54.2781L24.9121 58.4297Z" fill="#1F4847" fill-opacity="0.2"/>
<path d="M1491.19 45.9763L1495.34 45.9763L1495.34 41.8248L1499.49 41.8248L1503.65 41.8248L1503.65 45.9763L1499.49 45.9763L1499.49 50.1267L1499.49 54.2783L1495.34 54.2783L1491.19 54.2783L1491.19 50.1267L1491.19 45.9763Z" fill="#1F4847" fill-opacity="0.2"/>
<path d="M1345.81 54.2781L1345.81 50.1265L1349.96 50.1265L1349.96 54.2781L1349.96 58.4297L1345.81 58.4297L1345.81 54.2781Z" fill="#1F4847" fill-opacity="0.2"/>
<path d="M1296 54.2783L1291.85 54.2783L1291.85 50.1267L1296 50.1267L1296 54.2783Z" fill="#1F4847" fill-opacity="0.2"/>
<path d="M1221.19 54.2783L1217.04 54.2783L1217.04 50.1267L1221.19 50.1267L1221.19 54.2783Z" fill="#1F4847" fill-opacity="0.2"/>
<path d="M913.811 54.2783L909.66 54.2783L909.66 50.1267L905.509 50.1267L905.509 45.9763L909.66 45.9763L913.811 45.9763L917.962 45.9763L917.962 50.1267L913.811 50.1267L913.811 54.2783Z" fill="#1F4847" fill-opacity="0.2"/>
<path d="M785.031 33.5226L785.031 37.6741L785.031 41.8245L789.182 41.8245L789.182 37.6741L789.182 33.5226L789.182 29.3722L793.333 29.3722L793.333 33.5226L793.333 37.6741L797.484 37.6741L801.635 37.6741L801.635 41.8246L797.484 41.8245L797.484 45.9761L797.484 50.1265L793.333 50.1265L793.333 45.9761L789.182 45.9761L789.182 50.1265L789.182 54.2781L789.182 58.4297L785.031 58.4297L785.031 54.2781L785.031 50.1265L785.031 45.9761L780.88 45.9761L780.88 41.8245L780.88 37.6741L780.88 33.5226L780.88 29.3722L785.031 29.3722L785.031 33.5226Z" fill="#1F4847" fill-opacity="0.2"/>
<path d="M639.655 50.1267L639.655 54.2783L635.503 54.2783L631.353 54.2783L631.353 50.1267L635.503 50.1267L639.655 50.1267Z" fill="#1F4847" fill-opacity="0.2"/>
<path d="M527.476 54.2783L523.325 54.2783L523.325 50.1267L527.476 50.1267L527.476 54.2783Z" fill="#1F4847" fill-opacity="0.2"/>
<path d="M382.092 50.1267L382.092 54.2783L377.942 54.2783L377.942 50.1267L373.79 50.1267L373.79 54.2783L369.64 54.2783L369.64 50.1267L369.64 45.9763L373.79 45.9763L377.942 45.9763L377.942 41.8248L382.092 41.8248L382.092 45.9763L382.092 50.1267Z" fill="#1F4847" fill-opacity="0.2"/>
<path d="M332.282 50.1267L332.282 45.9763L328.131 45.9763L328.131 41.8248L332.282 41.8248L336.433 41.8248L336.433 45.9763L340.584 45.9763L344.735 45.9763L348.886 45.9763L348.886 50.1267L353.038 50.1267L353.038 54.2783L348.886 54.2783L344.735 54.2783L340.584 54.2783L336.433 54.2783L336.433 50.1267L332.282 50.1267Z" fill="#1F4847" fill-opacity="0.2"/>
<path d="M232.559 50.1265L236.711 50.1265L240.861 50.1265L240.861 54.2781L245.013 54.2781L245.013 58.4297L240.861 58.4297L240.861 62.5801L236.711 62.5801L236.711 58.4297L232.559 58.4297L232.559 54.2781L228.409 54.2781L228.409 50.1265L232.559 50.1265Z" fill="#1F4847" fill-opacity="0.2"/>
<path d="M120.484 54.2783L120.484 50.1267L120.484 45.9763L120.484 41.8248L124.636 41.8248L124.636 45.9763L128.786 45.9763L128.786 50.1267L124.636 50.1267L124.636 54.2783L120.484 54.2783Z" fill="#1F4847" fill-opacity="0.2"/>
<path d="M99.631 37.6744L99.631 41.8248L103.781 41.8248L107.933 41.8248L107.933 45.9763L103.781 45.9763L99.631 45.9763L95.4795 45.9763L95.4794 50.1267L95.4794 54.2783L91.3279 54.2783L91.3279 50.1267L91.3279 45.9763L87.1775 45.9763L87.1775 41.8248L91.3279 41.8248L95.4795 41.8248L95.4795 37.6744L99.631 37.6744Z" fill="#1F4847" fill-opacity="0.2"/>
<path d="M29.0576 41.8248L29.0576 37.6744L33.2092 37.6744L37.3596 37.6744L41.5111 37.6744L41.5111 41.8248L41.5111 45.9763L45.6615 45.9763L49.8131 45.9763L49.8131 50.1267L49.8131 54.2783L45.6615 54.2783L45.6615 50.1267L41.5111 50.1267L37.3596 50.1267L37.3596 45.9763L33.2092 45.9763L33.2092 41.8248L29.0576 41.8248Z" fill="#1F4847" fill-opacity="0.2"/>
<path d="M29.0617 54.2783L24.9102 54.2783L24.9102 50.1267L29.0617 50.1267L29.0617 54.2783Z" fill="#1F4847" fill-opacity="0.2"/>
<path d="M4.15137 50.1265L8.30176 50.1265L12.4533 50.1265L12.4533 54.2781L8.30176 54.2781L8.30176 58.4297L4.15137 58.4297L4.15137 54.2781L4.15137 50.1265Z" fill="#1F4847" fill-opacity="0.2"/>
<path d="M1341.66 50.127L1337.51 50.127L1337.51 45.9766L1341.66 45.9766L1341.66 50.127Z" fill="#1F4847" fill-opacity="0.2"/>
<path d="M1079.95 45.9766L1079.95 41.825L1084.1 41.825L1084.1 45.9766L1084.1 50.127L1079.95 50.127L1079.95 45.9766Z" fill="#1F4847" fill-opacity="0.2"/>
<path d="M996.93 50.127L992.779 50.127L992.779 45.9766L996.93 45.9766L996.93 50.127Z" fill="#1F4847" fill-opacity="0.2"/>
<path d="M631.346 50.1265L627.195 50.1265L627.195 45.9761L631.346 45.9761L631.346 50.1265Z" fill="#1F4847" fill-opacity="0.2"/>
<path d="M469.365 50.1265L465.215 50.1265L465.215 45.9761L469.365 45.9761L469.365 50.1265Z" fill="#1F4847" fill-opacity="0.2"/>
<path d="M448.609 45.9761L452.761 45.9761L452.761 50.1265L448.609 50.1265L444.459 50.1265L440.307 50.1265L440.307 45.9761L444.459 45.9761L448.609 45.9761Z" fill="#1F4847" fill-opacity="0.2"/>
<path d="M328.132 45.9763L328.132 50.1267L323.981 50.1267L323.981 54.2783L319.83 54.2783L319.83 50.1267L319.83 45.9763L315.678 45.9763L315.678 41.8248L319.83 41.8248L323.981 41.8248L323.981 45.9763L328.132 45.9763Z" fill="#1F4847" fill-opacity="0.2"/>
<path d="M315.671 50.1265L311.521 50.1265L311.521 45.9761L315.671 45.9761L315.671 50.1265Z" fill="#1F4847" fill-opacity="0.2"/>
<path d="M303.228 50.1265L299.076 50.1265L299.076 45.9761L303.228 45.9761L303.228 50.1265Z" fill="#1F4847" fill-opacity="0.2"/>
<path d="M245.01 45.9763L249.162 45.9763L249.162 50.1267L249.162 54.2783L245.01 54.2783L245.01 50.1267L245.01 45.9763Z" fill="#1F4847" fill-opacity="0.2"/>
<path d="M78.8759 50.1265L74.7244 50.1265L74.7244 45.9761L78.8759 45.9761L78.8759 50.1265Z" fill="#1F4847" fill-opacity="0.2"/>
<path d="M33.2092 50.1265L29.0576 50.1265L29.0576 45.9761L33.2092 45.9761L33.2092 50.1265Z" fill="#1F4847" fill-opacity="0.2"/>
<path d="M1387.32 45.9766L1383.17 45.9766L1383.17 41.825L1387.32 41.825L1391.48 41.825L1395.63 41.825L1395.63 45.9766L1391.48 45.9766L1387.32 45.9766Z" fill="#1F4847" fill-opacity="0.2"/>
<path d="M1345.82 45.9766L1341.67 45.9766L1341.67 41.825L1345.82 41.825L1345.82 45.9766Z" fill="#1F4847" fill-opacity="0.2"/>
<path d="M1258.54 41.825L1262.79 41.825L1266.94 41.825L1266.94 45.9766L1262.79 45.9766L1262.79 50.127L1258.54 50.127L1258.54 45.9766L1254.39 45.9766L1250.24 45.9766L1250.24 41.825L1254.39 41.825L1254.39 37.6746L1258.54 37.6746L1258.54 41.825Z" fill="#1F4847" fill-opacity="0.2"/>
<path d="M1071.65 45.9766L1067.5 45.9766L1067.5 41.825L1071.65 41.825L1071.65 45.9766Z" fill="#1F4847" fill-opacity="0.2"/>
<path d="M1059.2 41.8245L1063.35 41.8245L1063.35 45.9761L1063.35 50.1265L1067.5 50.1265L1071.65 50.1265L1075.8 50.1265L1079.95 50.1265L1079.95 54.2781L1075.8 54.2781L1075.8 58.4297L1071.65 58.4297L1071.65 54.2781L1067.5 54.2781L1067.5 58.4297L1063.35 58.4297L1063.35 54.2781L1059.2 54.2781L1059.2 50.1265L1055.05 50.1265L1055.05 45.9761L1059.2 45.9761L1059.2 41.8245Z" fill="#1F4847" fill-opacity="0.2"/>
<path d="M1055.05 45.9766L1050.9 45.9766L1050.9 41.825L1055.05 41.825L1055.05 45.9766Z" fill="#1F4847" fill-opacity="0.2"/>
<path d="M980.324 41.825L980.324 37.6746L984.475 37.6746L988.626 37.6746L988.626 41.825L992.777 41.825L992.777 45.9766L988.626 45.9766L984.475 45.9766L984.475 41.825L980.324 41.825Z" fill="#1F4847" fill-opacity="0.2"/>
<path d="M893.061 45.9766L888.91 45.9766L884.759 45.9766L884.759 41.825L888.91 41.825L888.91 37.6746L893.061 37.6746L897.213 37.6746L897.213 41.825L893.061 41.825L893.061 45.9766Z" fill="#1F4847" fill-opacity="0.2"/>
<path d="M880.604 45.9766L876.454 45.9766L876.454 41.825L880.604 41.825L880.604 45.9766Z" fill="#1F4847" fill-opacity="0.2"/>
<path d="M681.163 50.1265L677.011 50.1265L677.011 45.9761L672.86 45.9761L672.86 41.8245L668.709 41.8245L664.558 41.8245L660.407 41.8245L660.407 37.6741L664.558 37.6741L664.558 33.5225L668.709 33.5225L668.709 37.6741L672.86 37.6741L677.011 37.6741L681.163 37.6741L685.313 37.6741L685.313 41.8245L685.313 45.9761L681.163 45.9761L681.163 50.1265Z" fill="#1F4847" fill-opacity="0.2"/>
<path d="M647.956 45.9761L643.806 45.9761L643.806 41.8245L647.956 41.8245L647.956 45.9761Z" fill="#1F4847" fill-opacity="0.2"/>
<path d="M473.514 45.9761L469.362 45.9761L469.362 41.8245L473.514 41.8245L473.514 45.9761Z" fill="#1F4847" fill-opacity="0.2"/>
<path d="M423.702 45.9761L423.702 50.1265L419.551 50.1265L415.4 50.1265L415.4 45.9761L419.551 45.9761L419.551 41.8245L415.4 41.8245L415.4 37.6741L419.551 37.6741L423.702 37.6741L423.702 41.8245L423.702 45.9761Z" fill="#1F4847" fill-opacity="0.2"/>
<path d="M270.014 45.9761L265.864 45.9761L265.864 41.8245L270.014 41.8245L270.014 45.9761Z" fill="#1F4847" fill-opacity="0.2"/>
<path d="M211.801 50.1267L211.801 54.2783L207.65 54.2783L207.65 50.1267L207.65 45.9763L207.65 41.8248L211.801 41.8248L211.801 45.9763L211.801 50.1267Z" fill="#1F4847" fill-opacity="0.2"/>
<path d="M174.441 54.2783L170.29 54.2783L170.29 50.1267L170.29 45.9763L170.29 41.8248L174.441 41.8248L174.441 45.9763L178.592 45.9763L178.592 50.1267L174.441 50.1267L174.441 54.2783Z" fill="#1F4847" fill-opacity="0.2"/>
<path d="M141.237 50.1265L137.086 50.1265L137.086 45.9761L137.086 41.8245L141.237 41.8245L141.237 45.9761L141.237 50.1265Z" fill="#1F4847" fill-opacity="0.2"/>
<path d="M83.0222 45.9761L78.8718 45.9761L78.8718 41.8245L83.0222 41.8245L83.0222 45.9761Z" fill="#1F4847" fill-opacity="0.2"/>
<path d="M24.9121 45.9761L20.7617 45.9761L20.7617 41.8245L24.9121 41.8245L29.0637 41.8245L29.0637 45.9761L24.9121 45.9761Z" fill="#1F4847" fill-opacity="0.2"/>
<path d="M1462.14 37.6746L1466.29 37.6746L1470.44 37.6746L1470.44 41.825L1466.29 41.825L1466.29 45.9766L1470.44 45.9766L1474.59 45.9766L1474.59 50.127L1470.44 50.127L1466.29 50.127L1462.14 50.127L1457.99 50.127L1457.99 45.9766L1457.99 41.825L1462.14 41.825L1462.14 37.6746Z" fill="#1F4847" fill-opacity="0.2"/>
<path d="M1275.24 41.8247L1271.09 41.8247L1271.09 37.6743L1275.24 37.6743L1275.24 41.8247Z" fill="#1F4847" fill-opacity="0.2"/>
<path d="M901.361 41.825L901.361 37.6746L905.512 37.6746L905.512 41.825L905.512 45.9766L901.361 45.9766L901.361 41.825Z" fill="#1F4847" fill-opacity="0.2"/>
<path d="M768.429 33.523L764.278 33.523L764.278 29.3726L764.278 25.221L768.429 25.221L768.429 21.0706L772.58 21.0706L776.731 21.0706L776.731 25.221L772.58 25.221L772.58 29.3726L772.58 33.523L776.731 33.523L776.731 37.6746L776.731 41.825L776.731 45.9766L772.58 45.9766L772.58 41.825L768.429 41.825L768.429 37.6746L768.429 33.523Z" fill="#1F4847" fill-opacity="0.2"/>
<path d="M710.318 41.8247L706.168 41.8247L706.168 37.6743L710.318 37.6743L710.318 41.8247Z" fill="#1F4847" fill-opacity="0.2"/>
<path d="M552.476 41.8247L548.326 41.8247L548.326 37.6743L552.476 37.6743L552.476 41.8247Z" fill="#1F4847" fill-opacity="0.2"/>
<path d="M456.909 45.9761L456.909 41.8245L456.909 37.6741L461.061 37.6741L465.212 37.6741L465.212 41.8245L461.061 41.8245L461.061 45.9761L456.909 45.9761Z" fill="#1F4847" fill-opacity="0.2"/>
<path d="M373.794 37.6743L373.794 41.8247L369.644 41.8247L365.492 41.8247L365.492 37.6743L369.644 37.6743L369.644 33.5227L373.794 33.5227L373.794 37.6743Z" fill="#1F4847" fill-opacity="0.2"/>
<path d="M353.032 41.8247L348.881 41.8247L348.881 37.6743L353.032 37.6743L353.032 41.8247Z" fill="#1F4847" fill-opacity="0.2"/>
<path d="M344.735 41.8247L340.585 41.8247L340.585 37.6743L344.735 37.6743L344.735 41.8247Z" fill="#1F4847" fill-opacity="0.2"/>
<path d="M290.773 41.8247L286.622 41.8247L286.622 37.6743L290.773 37.6743L290.773 41.8247Z" fill="#1F4847" fill-opacity="0.2"/>
<path d="M274.164 41.8247L270.012 41.8247L270.012 37.6743L274.164 37.6743L274.164 41.8247Z" fill="#1F4847" fill-opacity="0.2"/>
<path d="M215.958 41.8247L211.807 41.8247L211.807 37.6743L215.958 37.6743L215.958 41.8247Z" fill="#1F4847" fill-opacity="0.2"/>
<path d="M166.143 41.8247L161.993 41.8247L161.993 37.6743L166.143 37.6743L166.143 41.8247Z" fill="#1F4847" fill-opacity="0.2"/>
<path d="M149.54 37.6741L153.691 37.6741L153.691 41.8245L153.691 45.9761L149.54 45.9761L149.54 41.8245L149.54 37.6741Z" fill="#1F4847" fill-opacity="0.2"/>
<path d="M87.1718 41.8247L83.0203 41.8247L83.0203 37.6743L87.1718 37.6743L87.1718 41.8247Z" fill="#1F4847" fill-opacity="0.2"/>
<path d="M58.1225 41.8245L53.9709 41.8245L53.9709 37.6741L49.8205 37.6741L45.6689 37.6741L45.6689 33.5225L49.8205 33.5225L53.9709 33.5225L58.1225 33.5225L58.1225 37.6741L62.2729 37.6741L62.2729 33.5225L66.4244 33.5225L66.4244 37.6741L66.4244 41.8245L62.2729 41.8245L62.2729 45.9761L58.1225 45.9761L58.1225 41.8245Z" fill="#1F4847" fill-opacity="0.2"/>
<path d="M8.30176 41.8247L4.15137 41.8247L4.15137 37.6743L8.30176 37.6743L8.30176 41.8247Z" fill="#1F4847" fill-opacity="0.2"/>
<path d="M1204.58 37.6743L1200.43 37.6743L1200.43 33.5227L1204.58 33.5227L1204.58 37.6743Z" fill="#1F4847" fill-opacity="0.2"/>
<path d="M976.075 37.6743L971.925 37.6743L971.925 33.5227L976.075 33.5227L976.075 37.6743Z" fill="#1F4847" fill-opacity="0.2"/>
<path d="M947.024 45.9766L947.024 50.127L942.874 50.127L942.874 45.9766L938.722 45.9766L938.722 41.825L942.874 41.825L942.874 37.6746L947.024 37.6746L947.024 33.523L951.176 33.523L951.176 37.6746L951.176 41.825L947.024 41.825L947.024 45.9766Z" fill="#1F4847" fill-opacity="0.2"/>
<path d="M643.8 33.5227L647.951 33.5227L647.951 37.6743L643.8 37.6743L639.649 37.6743L639.649 33.5227L639.649 29.3723L643.8 29.3723L643.8 33.5227Z" fill="#1F4847" fill-opacity="0.2"/>
<path d="M548.33 37.6743L544.178 37.6743L544.178 33.5227L548.33 33.5227L548.33 37.6743Z" fill="#1F4847" fill-opacity="0.2"/>
<path d="M515.021 37.6743L510.871 37.6743L510.871 33.5227L515.021 33.5227L515.021 37.6743Z" fill="#1F4847" fill-opacity="0.2"/>
<path d="M490.115 37.6743L485.964 37.6743L485.964 33.5227L490.115 33.5227L490.115 37.6743Z" fill="#1F4847" fill-opacity="0.2"/>
<path d="M427.848 37.6743L423.696 37.6743L423.696 33.5227L427.848 33.5227L427.848 37.6743Z" fill="#1F4847" fill-opacity="0.2"/>
<path d="M348.884 37.6743L344.732 37.6743L344.732 33.5227L348.884 33.5227L348.884 37.6743Z" fill="#1F4847" fill-opacity="0.2"/>
<path d="M307.374 37.6743L303.224 37.6743L303.224 33.5227L307.374 33.5227L307.374 37.6743Z" fill="#1F4847" fill-opacity="0.2"/>
<path d="M286.617 37.6743L282.465 37.6743L282.465 33.5227L286.617 33.5227L286.617 37.6743Z" fill="#1F4847" fill-opacity="0.2"/>
<path d="M240.855 37.6743L236.704 37.6743L236.704 33.5227L240.855 33.5227L245.006 33.5227L249.158 33.5227L249.158 37.6743L245.006 37.6743L240.855 37.6743Z" fill="#1F4847" fill-opacity="0.2"/>
<path d="M211.801 37.6743L207.65 37.6743L207.65 33.5227L211.801 33.5227L211.801 37.6743Z" fill="#1F4847" fill-opacity="0.2"/>
<path d="M112.178 33.5227L112.178 37.6743L107.931 37.6743L103.779 37.6743L103.779 33.5227L107.931 33.5227L112.178 33.5227Z" fill="#1F4847" fill-opacity="0.2"/>
<path d="M78.8759 37.6743L74.7244 37.6743L74.7244 33.5227L78.8759 33.5227L78.8759 37.6743Z" fill="#1F4847" fill-opacity="0.2"/>
<path d="M4.1545 37.6743L0.00292969 37.6743L0.00293041 33.5227L4.1545 33.5227L4.1545 37.6743Z" fill="#1F4847" fill-opacity="0.2"/>
<path d="M1379.02 33.5229L1374.87 33.5229L1374.87 29.3725L1374.87 25.221L1379.02 25.221L1379.02 29.3725L1383.17 29.3725L1383.17 25.221L1387.32 25.221L1387.32 29.3725L1387.32 33.523L1383.17 33.523L1379.02 33.5229Z" fill="#1F4847" fill-opacity="0.2"/>
<path d="M1200.43 33.5229L1196.28 33.5229L1196.28 29.3725L1196.28 25.221L1200.43 25.221L1200.43 29.3725L1200.43 33.5229Z" fill="#1F4847" fill-opacity="0.2"/>
<path d="M897.213 33.5229L897.213 29.3725L901.364 29.3725L905.515 29.3725L905.515 33.523L901.364 33.5229L897.213 33.5229Z" fill="#1F4847" fill-opacity="0.2"/>
<path d="M843.244 33.5229L839.094 33.5229L839.094 29.3725L843.244 29.3725L843.244 33.5229Z" fill="#1F4847" fill-opacity="0.2"/>
<path d="M585.69 33.5225L581.539 33.5225L581.539 29.3721L585.69 29.3721L585.69 33.5225Z" fill="#1F4847" fill-opacity="0.2"/>
<path d="M581.535 41.8247L577.384 41.8247L577.384 37.6743L573.233 37.6743L573.233 33.5227L573.233 29.3723L577.384 29.3723L577.384 33.5227L581.535 33.5227L581.535 37.6743L581.535 41.8247Z" fill="#1F4847" fill-opacity="0.2"/>
<path d="M544.077 33.5225L539.926 33.5225L539.926 29.3721L544.077 29.3721L544.077 33.5225Z" fill="#1F4847" fill-opacity="0.2"/>
<path d="M515.018 41.8246L519.17 41.8246L519.17 45.9761L523.32 45.9761L523.32 50.1265L519.17 50.1265L515.018 50.1265L515.018 54.2781L519.17 54.2781L519.17 58.4297L515.018 58.4297L510.868 58.4297L506.716 58.4297L506.716 54.2781L510.868 54.2781L510.868 50.1265L510.868 45.9761L506.716 45.9761L506.716 50.1265L502.566 50.1265L502.566 45.9761L498.414 45.9761L494.262 45.9761L494.262 41.8245L498.414 41.8245L498.414 37.6741L494.262 37.6741L494.262 33.5226L490.112 33.5226L490.112 29.3722L494.262 29.3722L498.414 29.3722L498.414 33.5226L502.566 33.5226L506.716 33.5226L506.716 37.6741L502.566 37.6741L502.566 41.8245L506.716 41.8245L506.716 37.6741L510.868 37.6741L510.868 41.8246L515.018 41.8246Z" fill="#1F4847" fill-opacity="0.2"/>
<path d="M369.644 33.5225L365.492 33.5225L365.492 29.3721L369.644 29.3721L369.644 33.5225Z" fill="#1F4847" fill-opacity="0.2"/>
<path d="M344.735 33.5225L340.585 33.5225L340.585 29.3721L344.735 29.3721L344.735 33.5225Z" fill="#1F4847" fill-opacity="0.2"/>
<path d="M290.773 33.5225L286.622 33.5225L286.622 29.3721L290.773 29.3721L294.924 29.3721L294.924 33.5225L290.773 33.5225Z" fill="#1F4847" fill-opacity="0.2"/>
<path d="M220.107 33.5225L215.956 33.5225L215.956 29.3721L220.107 29.3721L220.107 33.5225Z" fill="#1F4847" fill-opacity="0.2"/>
<path d="M91.3279 33.5225L87.1775 33.5225L87.1775 29.3721L91.3279 29.3721L91.3279 33.5225Z" fill="#1F4847" fill-opacity="0.2"/>
<path d="M62.2634 33.5225L58.113 33.5225L58.113 29.3721L62.2634 29.3721L62.2634 33.5225Z" fill="#1F4847" fill-opacity="0.2"/>
<path d="M16.6064 33.5227L16.6064 37.6743L12.4561 37.6743L12.4561 33.5227L12.4561 29.3723L16.6064 29.3723L16.6064 33.5227Z" fill="#1F4847" fill-opacity="0.2"/>
<path d="M735.223 29.3726L731.071 29.3726L731.071 25.221L726.921 25.221L726.921 21.0706L722.77 21.0706L722.77 16.919L726.921 16.919L731.071 16.919L731.071 21.0706L735.223 21.0706L735.223 25.221L735.223 29.3726Z" fill="#1F4847" fill-opacity="0.2"/>
<path d="M672.854 29.3721L668.703 29.3721L668.703 25.2205L672.854 25.2205L672.854 29.3721Z" fill="#1F4847" fill-opacity="0.2"/>
<path d="M564.935 21.0701L564.935 25.2205L564.935 29.3721L560.783 29.3721L556.633 29.3721L552.481 29.3721L552.481 33.5225L548.331 33.5225L548.331 29.3721L544.179 29.3721L544.179 25.2205L539.932 25.2205L535.781 25.2205L531.63 25.2205L531.63 21.0701L535.781 21.0701L539.932 21.0701L544.179 21.0701L544.179 16.9185L548.331 16.9185L552.481 16.9185L552.481 21.0701L548.331 21.0701L548.331 25.2205L552.481 25.2205L556.633 25.2205L556.633 21.0701L560.783 21.0701L560.783 16.9185L560.783 12.7669L564.935 12.7669L564.935 16.9185L564.935 21.0701Z" fill="#1F4847" fill-opacity="0.2"/>
<path d="M481.819 29.3721L477.668 29.3721L477.668 25.2205L481.819 25.2205L481.819 29.3721Z" fill="#1F4847" fill-opacity="0.2"/>
<path d="M365.484 29.3721L361.334 29.3721L361.334 25.2205L365.484 25.2205L365.484 29.3721Z" fill="#1F4847" fill-opacity="0.2"/>
<path d="M336.427 33.5227L340.578 33.5227L340.578 37.6743L336.427 37.6743L332.276 37.6743L332.276 33.5227L332.276 29.3723L328.125 29.3723L328.125 33.5227L328.125 37.6743L328.125 41.8247L323.974 41.8247L323.974 37.6743L319.823 37.6743L315.671 37.6743L315.671 41.8247L311.521 41.8247L311.521 37.6743L311.521 33.5227L315.671 33.5227L315.671 29.3723L315.671 25.2207L319.823 25.2207L319.823 29.3723L319.823 33.5227L323.974 33.5227L323.974 29.3723L323.974 25.2207L328.125 25.2207L332.276 25.2207L332.276 21.0703L336.427 21.0703L336.427 25.2207L340.578 25.2208L340.578 29.3723L336.427 29.3723L336.427 33.5227Z" fill="#1F4847" fill-opacity="0.2"/>
<path d="M257.566 25.2205L257.566 29.3721L253.318 29.3721L253.318 25.2205L249.167 25.2205L249.167 21.0701L253.318 21.0701L257.566 21.0701L257.566 25.2205Z" fill="#1F4847" fill-opacity="0.2"/>
<path d="M224.261 25.2205L224.261 21.0701L228.413 21.0701L228.413 16.9185L232.563 16.9185L232.563 21.0701L236.715 21.0701L236.715 25.2205L236.715 29.3721L232.563 29.3721L228.413 29.3721L228.413 33.5225L224.261 33.5225L224.261 29.3721L224.261 25.2205Z" fill="#1F4847" fill-opacity="0.2"/>
<path d="M178.597 29.3723L178.597 33.5227L178.597 37.6743L174.446 37.6743L174.446 33.5227L170.295 33.5227L166.143 33.5227L161.993 33.5227L161.993 29.3723L161.993 25.2208L166.143 25.2208L166.143 29.3723L170.295 29.3723L170.295 25.2208L174.446 25.2208L178.597 25.2208L182.748 25.2208L186.899 25.2208L186.899 29.3723L182.748 29.3723L178.597 29.3723Z" fill="#1F4847" fill-opacity="0.2"/>
<path d="M99.625 29.3721L95.4734 29.3721L95.4734 25.2205L99.625 25.2205L99.625 29.3721Z" fill="#1F4847" fill-opacity="0.2"/>
<path d="M58.1162 29.3721L53.9646 29.3721L53.9646 25.2205L58.1162 25.2205L58.1162 29.3721Z" fill="#1F4847" fill-opacity="0.2"/>
<path d="M41.5111 29.3721L41.5111 33.5225L37.3596 33.5225L33.2092 33.5225L33.2092 29.3721L29.0576 29.3721L29.0576 25.2205L33.2092 25.2205L37.3596 25.2205L37.3596 29.3721L41.5111 29.3721Z" fill="#1F4847" fill-opacity="0.2"/>
<path d="M12.4561 25.2208L12.4561 21.0704L16.6064 21.0704L20.758 21.0704L24.9084 21.0704L24.9084 25.2208L24.9084 29.3723L24.9084 33.5227L24.9084 37.6743L20.758 37.6743L20.758 33.5227L20.758 29.3723L16.6064 29.3723L16.6064 25.2208L12.4561 25.2208Z" fill="#1F4847" fill-opacity="0.2"/>
<path d="M12.4602 29.3721L8.30859 29.3721L8.30859 25.2205L12.4602 25.2205L12.4602 29.3721Z" fill="#1F4847" fill-opacity="0.2"/>
<path d="M1524.41 25.2207L1520.26 25.2207L1520.26 21.0703L1524.41 21.0703L1524.41 25.2207Z" fill="#1F4847" fill-opacity="0.2"/>
<path d="M1096.56 25.2207L1092.41 25.2207L1092.41 21.0703L1096.56 21.0703L1096.56 25.2207Z" fill="#1F4847" fill-opacity="0.2"/>
<path d="M922.114 25.2207L917.962 25.2207L917.962 21.0703L922.114 21.0703L922.114 25.2207Z" fill="#1F4847" fill-opacity="0.2"/>
<path d="M872.306 21.0703L872.306 16.9187L876.458 16.9187L876.458 21.0703L876.458 25.2207L872.306 25.2207L872.306 21.0703Z" fill="#1F4847" fill-opacity="0.2"/>
<path d="M677.013 25.2207L672.862 25.2207L672.862 21.0703L677.013 21.0703L677.013 25.2207Z" fill="#1F4847" fill-opacity="0.2"/>
<path d="M627.198 29.3721L623.047 29.3721L623.047 25.2205L623.047 21.0701L623.047 16.9185L627.198 16.9185L627.198 12.7669L631.349 12.7669L635.499 12.7669L635.499 16.9185L631.349 16.9185L631.349 21.0701L631.349 25.2205L631.349 29.3721L631.349 33.5225L627.198 33.5225L627.198 29.3721Z" fill="#1F4847" fill-opacity="0.2"/>
<path d="M602.289 29.3721L602.289 25.2205L602.289 21.0701L602.289 16.9185L606.44 16.9185L606.44 21.0701L606.44 25.2205L610.591 25.2205L610.591 29.3721L606.44 29.3721L602.289 29.3721Z" fill="#1F4847" fill-opacity="0.2"/>
<path d="M411.245 25.2205L411.245 29.3721L407.095 29.3721L407.095 25.2205L407.095 21.0701L407.095 16.9185L411.245 16.9185L411.245 21.0701L411.245 25.2205Z" fill="#1F4847" fill-opacity="0.2"/>
<path d="M344.735 25.2207L340.585 25.2207L340.585 21.0703L344.735 21.0703L344.735 25.2207Z" fill="#1F4847" fill-opacity="0.2"/>
<path d="M215.951 25.2205L211.801 25.2205L207.649 25.2205L203.498 25.2205L203.498 29.3721L199.347 29.3721L199.347 25.2205L195.196 25.2205L195.196 21.0701L199.347 21.0701L203.498 21.0701L207.649 21.0701L211.801 21.0701L215.951 21.0701L220.103 21.0701L220.103 25.2205L215.951 25.2205Z" fill="#1F4847" fill-opacity="0.2"/>
<path d="M191.051 25.2207L186.9 25.2207L186.9 21.0703L191.051 21.0703L191.051 25.2207Z" fill="#1F4847" fill-opacity="0.2"/>
<path d="M166.141 21.0703L166.141 16.9187L170.293 16.9187L170.293 21.0703L170.293 25.2207L166.141 25.2207L166.141 21.0703Z" fill="#1F4847" fill-opacity="0.2"/>
<path d="M157.838 29.3721L153.688 29.3721L153.688 25.2205L153.688 21.0701L157.838 21.0701L161.99 21.0701L161.99 25.2205L157.838 25.2205L157.838 29.3721Z" fill="#1F4847" fill-opacity="0.2"/>
<path d="M128.783 25.2207L124.633 25.2207L124.633 21.0703L128.783 21.0703L128.783 25.2207Z" fill="#1F4847" fill-opacity="0.2"/>
<path d="M49.8205 25.2207L45.6689 25.2207L45.6689 21.0703L49.8205 21.0703L49.8205 25.2207Z" fill="#1F4847" fill-opacity="0.2"/>
<path d="M8.30176 25.2207L4.15137 25.2207L4.15137 21.0703L8.30176 21.0703L8.30176 25.2207Z" fill="#1F4847" fill-opacity="0.2"/>
<path d="M1196.28 16.9187L1200.43 16.9187L1204.59 16.9187L1208.74 16.9187L1212.89 16.9187L1212.89 21.0703L1217.04 21.0703L1221.19 21.0703L1221.19 25.2207L1217.04 25.2207L1212.89 25.2207L1208.74 25.2207L1204.59 25.2207L1200.43 25.2207L1200.43 21.0703L1196.28 21.0703L1192.13 21.0703L1192.13 25.2207L1187.98 25.2207L1187.98 21.0703L1187.98 16.9187L1192.13 16.9187L1196.28 16.9187Z" fill="#1F4847" fill-opacity="0.2"/>
<path d="M1100.71 21.0703L1096.55 21.0703L1096.55 16.9187L1100.71 16.9187L1100.71 21.0703Z" fill="#1F4847" fill-opacity="0.2"/>
<path d="M888.906 21.0706L884.756 21.0706L884.756 25.221L888.906 25.221L888.906 29.3725L893.058 29.3726L893.058 33.523L888.906 33.523L884.756 33.523L880.604 33.5229L880.604 29.3725L876.454 29.3725L876.454 25.221L880.604 25.221L880.604 21.0706L880.604 16.919L884.756 16.919L884.756 12.7674L888.906 12.7674L893.058 12.7674L893.058 16.919L888.906 16.919L888.906 21.0706Z" fill="#1F4847" fill-opacity="0.2"/>
<path d="M789.187 16.9187L793.339 16.9187L793.339 21.0703L793.339 25.2207L789.187 25.2207L785.037 25.2207L785.037 21.0703L789.187 21.0703L789.187 16.9187Z" fill="#1F4847" fill-opacity="0.2"/>
<path d="M527.473 25.2205L531.624 25.2205L531.624 29.3721L523.321 29.3721L523.321 33.5225L515.019 33.5225L515.019 25.2205L519.171 25.2205L519.171 21.0701L523.321 21.0701L523.321 16.9185L527.473 16.9185L527.473 4.46494L539.926 4.46494L539.926 16.9185L531.624 16.9185L531.624 21.0701L527.473 21.0701L527.473 25.2205ZM531.624 12.7669L535.775 12.7669L535.775 8.61652L531.624 8.61652L531.624 12.7669Z" fill="#1F4847" fill-opacity="0.2"/>
<path d="M515.021 16.9187L515.021 21.0703L515.021 25.2207L510.871 25.2207L510.871 21.0703L510.871 16.9187L510.871 12.7671L515.021 12.7671L519.173 12.7671L523.323 12.7671L523.323 16.9187L519.173 16.9187L515.021 16.9187Z" fill="#1F4847" fill-opacity="0.2"/>
<path d="M498.418 21.0701L498.418 16.9185L502.569 16.9185L506.72 16.9185L506.72 21.0701L502.569 21.0701L502.569 25.2205L506.72 25.2205L506.72 29.3721L502.569 29.3721L498.418 29.3721L498.418 25.2205L498.418 21.0701Z" fill="#1F4847" fill-opacity="0.2"/>
<path d="M494.266 21.0703L490.115 21.0703L490.115 16.9187L485.964 16.9187L485.964 12.7672L485.964 8.61675L490.115 8.61675L490.115 12.7672L494.266 12.7672L494.266 16.9187L494.266 21.0703Z" fill="#1F4847" fill-opacity="0.2"/>
<path d="M369.636 16.9185L369.636 12.7669L373.787 12.7669L373.787 16.9185L373.787 21.0701L377.938 21.0701L377.938 25.2205L373.787 25.2205L373.787 29.3721L369.636 29.3721L369.636 25.2205L369.636 21.0701L365.485 21.0701L361.334 21.0701L361.334 25.2205L357.183 25.2205L357.183 29.3721L353.032 29.3721L353.032 33.5225L348.881 33.5225L348.881 29.3721L348.881 25.2205L348.881 21.0701L348.881 16.9185L348.881 12.7669L353.032 12.7669L353.032 8.61652L357.183 8.61652L357.183 12.7669L361.334 12.7669L365.485 12.7669L365.485 16.9185L369.636 16.9185Z" fill="#1F4847" fill-opacity="0.2"/>
<path d="M332.282 21.0703L328.131 21.0703L328.131 16.9187L332.282 16.9187L332.282 21.0703Z" fill="#1F4847" fill-opacity="0.2"/>
<path d="M311.523 8.61653L315.673 8.61653L315.673 4.46495L319.824 4.46495L319.824 8.61653L319.824 12.7669L319.824 16.9185L319.824 21.0701L315.673 21.0701L315.673 16.9185L315.673 12.7669L311.523 12.7669L307.371 12.7669L307.371 16.9185L311.523 16.9185L311.523 21.0701L311.523 25.2205L307.371 25.2205L303.221 25.2205L299.069 25.2205L299.069 29.3721L294.919 29.3721L294.919 25.2205L290.767 25.2205L286.617 25.2205L282.465 25.2205L282.465 21.0701L286.617 21.0701L290.767 21.0701L290.767 16.9185L290.767 12.7669L294.919 12.7669L299.069 12.7669L299.069 16.9185L294.919 16.9185L294.919 21.0701L299.069 21.0701L299.069 16.9185L303.221 16.9185L303.221 12.7669L303.221 8.61653L303.221 4.46495L307.371 4.46495L307.371 8.61653L311.523 8.61653Z" fill="#1F4847" fill-opacity="0.2"/>
<path d="M278.32 21.0703L274.169 21.0703L274.169 16.9187L278.32 16.9187L278.32 21.0703Z" fill="#1F4847" fill-opacity="0.2"/>
<path d="M240.855 21.0703L236.704 21.0703L236.704 16.9187L240.855 16.9187L240.855 21.0703Z" fill="#1F4847" fill-opacity="0.2"/>
<path d="M186.893 21.0703L182.743 21.0703L182.743 16.9187L186.893 16.9187L186.893 21.0703Z" fill="#1F4847" fill-opacity="0.2"/>
<path d="M103.782 25.2207L99.6316 25.2207L99.6316 21.0703L99.6316 16.9187L103.782 16.9187L103.782 21.0703L107.934 21.0703L107.934 25.2207L103.782 25.2207Z" fill="#1F4847" fill-opacity="0.2"/>
<path d="M95.4795 21.0703L91.3279 21.0703L87.1775 21.0703L87.1775 16.9187L91.3279 16.9187L95.4795 16.9187L95.4795 21.0703Z" fill="#1F4847" fill-opacity="0.2"/>
<path d="M41.5149 16.9187L41.5149 21.0703L41.5149 25.2207L37.3633 25.2207L37.3633 21.0703L37.3633 16.9187L37.3633 12.7671L41.5149 12.7671L41.5149 16.9187Z" fill="#1F4847" fill-opacity="0.2"/>
<path d="M29.0617 21.0703L24.9102 21.0703L24.9102 16.9187L29.0617 16.9187L29.0617 21.0703Z" fill="#1F4847" fill-opacity="0.2"/>
<path d="M8.30489 12.7672L8.30489 16.9187L4.1545 16.9187L4.1545 21.0703L0.00292969 21.0703L0.00293041 16.9187L0.00293114 12.7672L4.1545 12.7672L8.30489 12.7672Z" fill="#1F4847" fill-opacity="0.2"/>
<path d="M1412.33 16.9189L1408.18 16.9189L1408.18 12.7674L1412.33 12.7674L1412.33 16.9189Z" fill="#1F4847" fill-opacity="0.2"/>
<path d="M1250.24 16.9189L1246.09 16.9189L1246.09 12.7674L1250.24 12.7674L1250.24 16.9189Z" fill="#1F4847" fill-opacity="0.2"/>
<path d="M1021.84 16.9189L1017.69 16.9189L1017.69 12.7674L1021.84 12.7674L1021.84 16.9189Z" fill="#1F4847" fill-opacity="0.2"/>
<path d="M789.187 16.9189L785.037 16.9189L785.037 12.7674L789.187 12.7674L789.187 16.9189Z" fill="#1F4847" fill-opacity="0.2"/>
<path d="M623.05 16.9185L618.899 16.9185L618.899 12.7669L623.05 12.7669L623.05 16.9185Z" fill="#1F4847" fill-opacity="0.2"/>
<path d="M427.848 4.46498L423.697 4.46498L423.697 8.61656L427.848 8.61656L431.999 8.61656L431.999 12.767L436.15 12.767L440.301 12.767L440.301 16.9185L444.452 16.9185L444.452 21.0701L444.452 25.2205L440.301 25.2205L440.301 29.3721L436.15 29.3721L436.15 33.5225L440.301 33.5225L440.301 29.3721L444.452 29.3721L444.452 25.2205L448.603 25.2205L452.754 25.2205L452.754 29.3721L448.603 29.3721L448.603 33.5225L448.603 37.6741L448.603 41.8245L444.452 41.8245L444.452 37.6741L440.301 37.6741L440.301 41.8245L440.301 45.9761L436.15 45.9761L436.15 50.1265L431.999 50.1265L431.999 45.9761L427.848 45.9761L427.848 41.8245L431.999 41.8245L431.999 37.6741L431.999 33.5225L431.999 29.3721L431.999 25.2205L431.999 21.0701L427.848 21.0701L427.848 16.9185L427.848 12.767L423.697 12.767L423.697 16.9185L419.545 16.9185L415.395 16.9185L411.243 16.9185L411.243 12.767L415.395 12.767L419.545 12.767L419.545 8.61656L419.545 4.46498L419.545 0.314577L423.697 0.314577L427.848 0.314578L427.848 -3.837L431.999 -3.837L431.999 0.314579L436.15 0.31458L436.15 4.46498L431.999 4.46498L427.848 4.46498Z" fill="#1F4847" fill-opacity="0.2"/>
<path d="M382.088 29.3721L382.088 25.2205L386.24 25.2205L390.391 25.2205L390.391 21.0701L394.542 21.0701L394.542 16.9185L394.542 12.7669L390.391 12.7669L390.391 8.61652L386.24 8.61652L386.24 12.7669L390.391 12.7669L390.391 16.9185L386.24 16.9185L382.088 16.9185L382.088 21.0701L377.938 21.0701L377.938 16.9185L377.938 12.7669L382.088 12.7669L382.088 8.61652L377.938 8.61652L373.786 8.61652L369.636 8.61652L369.636 12.7669L365.484 12.7669L365.484 8.61651L361.334 8.61651L361.334 4.46493L365.484 4.46493L369.636 4.46493L373.786 4.46494L377.938 4.46494L382.088 4.46494L386.24 4.46494L390.391 4.46494L390.391 0.314538L394.542 0.314539L394.542 4.46494L394.542 8.61652L398.79 8.61652L398.79 12.7669L398.79 16.9185L398.79 21.0701L402.94 21.0701L402.94 25.2205L398.79 25.2205L394.542 25.2205L394.542 29.3721L390.391 29.3721L386.24 29.3721L386.24 33.5225L382.088 33.5225L382.088 29.3721Z" fill="#1F4847" fill-opacity="0.2"/>
<path d="M323.984 12.7669L323.984 8.61648L328.134 8.61648L332.286 8.61648L336.436 8.61648L340.588 8.61648L340.588 12.7669L340.588 16.9185L336.436 16.9185L336.436 12.7669L332.286 12.7669L328.134 12.7669L328.134 16.9185L323.984 16.9185L323.984 12.7669Z" fill="#1F4847" fill-opacity="0.2"/>
<path d="M274.164 16.9185L270.012 16.9185L270.012 12.7669L274.164 12.7669L274.164 16.9185Z" fill="#1F4847" fill-opacity="0.2"/>
<path d="M270.017 16.9187L270.017 21.0703L270.017 25.2207L265.867 25.2207L261.715 25.2207L261.715 21.0703L261.715 16.9187L261.715 12.7671L265.867 12.7671L265.867 16.9187L270.017 16.9187Z" fill="#1F4847" fill-opacity="0.2"/>
<path d="M199.347 16.9185L195.196 16.9185L195.196 12.7669L199.347 12.7669L199.347 16.9185Z" fill="#1F4847" fill-opacity="0.2"/>
<path d="M128.783 16.9185L124.633 16.9185L124.633 12.7669L128.783 12.7669L128.783 16.9185Z" fill="#1F4847" fill-opacity="0.2"/>
<path d="M33.2092 16.9185L29.0576 16.9185L29.0576 12.7669L33.2092 12.7669L33.2092 16.9185Z" fill="#1F4847" fill-opacity="0.2"/>
<path d="M20.7561 16.9185L16.6045 16.9185L16.6045 12.7669L20.7561 12.7669L20.7561 16.9185Z" fill="#1F4847" fill-opacity="0.2"/>
<path d="M772.584 16.9187L772.584 12.7672L772.584 8.61675L772.584 4.46517L776.734 4.46517L776.734 8.61675L776.734 12.7672L780.886 12.7672L780.886 16.9187L785.038 16.9187L785.038 21.0703L780.886 21.0703L776.734 21.0703L776.734 16.9187L772.584 16.9187Z" fill="#1F4847" fill-opacity="0.2"/>
<path d="M444.459 12.7671L440.307 12.7671L440.307 8.61669L444.459 8.61669L444.459 12.7671Z" fill="#1F4847" fill-opacity="0.2"/>
<path d="M270.014 12.7671L265.864 12.7671L265.864 8.61669L270.014 8.61669L270.014 12.7671Z" fill="#1F4847" fill-opacity="0.2"/>
<path d="M261.708 12.7671L257.558 12.7671L257.558 8.61669L261.708 8.61669L261.708 12.7671Z" fill="#1F4847" fill-opacity="0.2"/>
<path d="M245.01 16.9185L245.01 12.7669L240.859 12.7669L236.708 12.7669L232.557 12.7669L232.557 8.61648L236.708 8.61648L240.859 8.61648L245.01 8.61648L249.162 8.61648L253.312 8.61648L253.312 12.7669L249.162 12.7669L249.162 16.9185L245.01 16.9185Z" fill="#1F4847" fill-opacity="0.2"/>
<path d="M203.504 8.61669L207.656 8.61669L207.656 12.7671L203.504 12.7671L199.354 12.7671L199.354 8.61669L203.504 8.61669Z" fill="#1F4847" fill-opacity="0.2"/>
<path d="M195.195 8.61669L195.195 12.7671L191.045 12.7671L186.893 12.7671L186.893 8.61669L182.743 8.61669L182.743 4.46511L186.893 4.46511L191.045 4.46511L191.045 8.61669L195.195 8.61669Z" fill="#1F4847" fill-opacity="0.2"/>
<path d="M174.441 12.7671L170.29 12.7671L170.29 8.61669L174.441 8.61669L174.441 12.7671Z" fill="#1F4847" fill-opacity="0.2"/>
<path d="M157.834 8.61676L157.834 12.7672L153.684 12.7672L153.684 16.9187L149.532 16.9187L145.382 16.9187L141.23 16.9187L141.23 21.0703L137.079 21.0703L137.079 16.9187L132.928 16.9187L132.928 12.7672L137.079 12.7672L137.079 8.61675L141.23 8.61675L141.23 12.7672L145.382 12.7672L145.382 8.61675L149.532 8.61675L149.532 4.46517L153.684 4.46518L153.684 8.61675L157.834 8.61676Z" fill="#1F4847" fill-opacity="0.2"/>
<path d="M103.782 12.7671L99.6316 12.7671L99.6316 8.61669L103.782 8.61669L103.782 12.7671Z" fill="#1F4847" fill-opacity="0.2"/>
<path d="M83.0222 12.7671L78.8718 12.7671L78.8718 8.61669L83.0222 8.61669L83.0222 12.7671Z" fill="#1F4847" fill-opacity="0.2"/>
<path d="M53.9678 4.46511L58.1193 4.46511L62.2697 4.46511L62.2697 8.61669L62.2697 12.7671L58.1193 12.7671L53.9678 12.7671L53.9678 8.61669L49.8174 8.61669L49.8174 4.46511L53.9678 4.46511Z" fill="#1F4847" fill-opacity="0.2"/>
<path d="M49.8205 12.7671L45.6689 12.7671L45.6689 8.61669L49.8205 8.61669L49.8205 12.7671Z" fill="#1F4847" fill-opacity="0.2"/>
<path d="M37.3662 12.7671L33.2158 12.7671L33.2158 8.61669L37.3662 8.61669L37.3662 12.7671Z" fill="#1F4847" fill-opacity="0.2"/>
<path d="M16.6064 8.61669L16.6064 12.7671L12.4561 12.7671L12.4561 8.61669L12.4561 4.46511L16.6064 4.46511L16.6064 8.61669Z" fill="#1F4847" fill-opacity="0.2"/>
<path d="M1657.33 8.61718L1657.33 4.4656L1661.48 4.4656L1661.48 8.61718L1661.48 12.7676L1657.33 12.7676L1657.33 8.61718Z" fill="#1F4847" fill-opacity="0.2"/>
<path d="M1316.75 8.6167L1312.6 8.6167L1312.6 4.46512L1316.75 4.46512L1316.75 8.6167Z" fill="#1F4847" fill-opacity="0.2"/>
<path d="M1246.09 8.6167L1241.94 8.6167L1241.94 4.46512L1246.09 4.46512L1246.09 8.6167Z" fill="#1F4847" fill-opacity="0.2"/>
<path d="M826.548 8.6167L822.397 8.6167L822.397 4.46512L826.548 4.46512L826.548 8.6167Z" fill="#1F4847" fill-opacity="0.2"/>
<path d="M577.388 4.46516L577.388 8.61674L577.388 12.7671L581.538 12.7671L581.538 16.9187L577.388 16.9187L573.236 16.9187L573.236 21.0703L573.236 25.2207L569.084 25.2207L569.084 21.0703L569.084 16.9187L569.084 12.7671L573.236 12.7671L573.236 8.61674L569.084 8.61674L569.084 4.46516L569.084 0.314758L573.236 0.314759L573.236 4.46516L577.388 4.46516Z" fill="#1F4847" fill-opacity="0.2"/>
<path d="M560.782 8.6167L556.631 8.6167L556.631 4.46512L560.782 4.46512L560.782 8.6167Z" fill="#1F4847" fill-opacity="0.2"/>
<path d="M523.327 8.6167L519.176 8.6167L519.176 4.46512L519.176 0.314717L523.327 0.314718L527.478 0.314719L527.478 4.46512L523.327 4.46512L523.327 8.6167Z" fill="#1F4847" fill-opacity="0.2"/>
<path d="M506.725 8.6167L502.575 8.6167L502.575 4.46512L506.725 4.46512L506.725 8.6167Z" fill="#1F4847" fill-opacity="0.2"/>
<path d="M448.605 8.6167L444.455 8.6167L444.455 4.46512L448.605 4.46512L448.605 8.6167Z" fill="#1F4847" fill-opacity="0.2"/>
<path d="M270.012 0.314718L274.164 0.314719L274.164 -3.83686L278.314 -3.83686L282.465 -3.83686L282.465 0.31472L282.465 4.46512L278.314 4.46512L278.314 8.6167L274.164 8.6167L270.012 8.6167L270.012 4.46512L270.012 0.314718Z" fill="#1F4847" fill-opacity="0.2"/>
<path d="M170.293 8.6167L166.141 8.6167L166.141 4.46512L170.293 4.46512L170.293 8.6167Z" fill="#1F4847" fill-opacity="0.2"/>
<path d="M124.628 8.61675L124.628 12.7672L120.476 12.7672L120.476 16.9187L120.476 21.0703L116.326 21.0703L112.175 21.0703L107.927 21.0703L107.927 16.9187L107.927 12.7672L107.927 8.61675L112.175 8.61675L112.175 12.7672L112.175 16.9187L116.326 16.9187L116.326 12.7672L116.326 8.61675L120.476 8.61675L120.476 4.46517L124.628 4.46517L124.628 8.61675Z" fill="#1F4847" fill-opacity="0.2"/>
<path d="M87.1775 8.6167L87.1775 4.46512L87.1775 0.314717L91.3279 0.314718L91.3279 4.46512L95.4795 4.46512L95.4795 8.6167L91.3279 8.6167L87.1775 8.6167Z" fill="#1F4847" fill-opacity="0.2"/>
<path d="M74.7207 8.61669L70.5703 8.61669L70.5703 12.7671L66.4187 12.7671L66.4187 8.61669L66.4187 4.46511L70.5703 4.46511L70.5703 0.314707L70.5703 -3.83687L74.7207 -3.83687L74.7207 0.314707L74.7207 4.46511L78.8722 4.46511L78.8722 8.61669L74.7207 8.61669Z" fill="#1F4847" fill-opacity="0.2"/>
<path d="M33.2092 8.6167L29.0576 8.6167L29.0576 4.46512L33.2092 4.46512L33.2092 8.6167Z" fill="#1F4847" fill-opacity="0.2"/>
<path d="M24.9121 8.6167L20.7617 8.6167L20.7617 4.46512L24.9121 4.46512L24.9121 8.6167Z" fill="#1F4847" fill-opacity="0.2"/>
<path d="M4.1545 8.6167L0.00292969 8.6167L0.00293041 4.46512L4.1545 4.46512L4.1545 8.6167Z" fill="#1F4847" fill-opacity="0.2"/>
<path d="M785.035 8.61669L785.035 4.46511L780.883 4.46511L776.731 4.46511L776.731 0.314707L780.883 0.314708L785.035 0.314708L789.185 0.314709L793.337 0.31471L793.337 4.46511L793.337 8.61669L793.337 12.7671L789.185 12.7671L789.185 8.61669L785.035 8.61669Z" fill="#1F4847" fill-opacity="0.2"/>
<path d="M772.578 4.46533L768.427 4.46533L768.427 0.31493L772.578 0.314931L772.578 4.46533Z" fill="#1F4847" fill-opacity="0.2"/>
<path d="M544.077 4.46533L539.926 4.46533L539.926 0.31493L544.077 0.314931L544.077 4.46533Z" fill="#1F4847" fill-opacity="0.2"/>
<path d="M361.338 4.46533L357.187 4.46533L357.187 0.31493L361.338 0.314931L361.338 4.46533Z" fill="#1F4847" fill-opacity="0.2"/>
<path d="M348.884 4.46512L348.884 8.6167L344.732 8.6167L344.732 4.46512L344.732 0.314717L348.884 0.314718L348.884 4.46512Z" fill="#1F4847" fill-opacity="0.2"/>
<path d="M332.286 4.46533L328.134 4.46533L323.984 4.46533L323.984 0.31493L328.134 0.314931L332.286 0.314932L336.436 0.314933L336.436 4.46533L332.286 4.46533Z" fill="#1F4847" fill-opacity="0.2"/>
<path d="M311.524 4.46533L307.372 4.46533L307.372 0.31493L311.524 0.314931L311.524 4.46533Z" fill="#1F4847" fill-opacity="0.2"/>
<path d="M232.559 0.314931L236.711 0.314932L236.711 4.46533L232.559 4.46533L228.409 4.46533L228.409 0.31493L232.559 0.314931Z" fill="#1F4847" fill-opacity="0.2"/>
<path d="M182.746 4.46533L178.594 4.46533L178.594 0.31493L182.746 0.314931L182.746 4.46533Z" fill="#1F4847" fill-opacity="0.2"/>
<path d="M174.441 4.46533L170.29 4.46533L170.29 0.31493L174.441 0.314931L174.441 4.46533Z" fill="#1F4847" fill-opacity="0.2"/>
<path d="M166.143 4.46533L161.993 4.46533L161.993 0.31493L166.143 0.314931L166.143 4.46533Z" fill="#1F4847" fill-opacity="0.2"/>
<path d="M157.838 4.46533L153.688 4.46533L153.688 0.31493L153.688 -3.83665L157.838 -3.83665L161.99 -3.83665L161.99 0.314931L157.838 0.314931L157.838 4.46533Z" fill="#1F4847" fill-opacity="0.2"/>
<path d="M145.385 8.6167L141.234 8.6167L141.234 4.46512L141.234 0.314718L145.385 0.314719L145.385 -3.83686L149.536 -3.83686L149.536 0.31472L149.536 4.46512L145.385 4.46512L145.385 8.6167Z" fill="#1F4847" fill-opacity="0.2"/>
<path d="M112.078 4.46533L107.927 4.46533L107.927 0.31493L112.078 0.314931L112.078 4.46533Z" fill="#1F4847" fill-opacity="0.2"/>
<path d="M78.8718 -3.83665L83.0222 -3.83665L83.0222 0.314931L83.0222 4.46533L78.8718 4.46533L78.8718 0.31493L78.8718 -3.83665Z" fill="#1F4847" fill-opacity="0.2"/>
<path d="M41.5117 4.46512L41.5117 0.314717L45.6621 0.314718L45.6621 4.46512L45.6621 8.6167L41.5117 8.6167L41.5117 4.46512Z" fill="#1F4847" fill-opacity="0.2"/>
<path d="M12.4602 4.46533L8.30859 4.46533L8.30859 0.31493L12.4602 0.314931L12.4602 4.46533Z" fill="#1F4847" fill-opacity="0.2"/>
<path d="M1204.58 4.46512L1204.58 0.314718L1204.58 -3.83686L1208.73 -3.83686L1208.73 0.314719L1208.73 4.46512L1208.73 8.6167L1204.58 8.6167L1204.58 4.46512Z" fill="#1F4847" fill-opacity="0.2"/>
<path d="M585.686 12.7671L581.535 12.7671L581.535 8.61669L581.535 4.46511L577.384 4.46511L577.384 0.314707L573.233 0.314706L573.233 -3.83687L577.384 -3.83687L581.535 -3.83687L581.535 0.314707L585.686 0.314708L585.686 4.46511L589.837 4.46511L589.837 8.61669L585.686 8.61669L585.686 12.7671Z" fill="#1F4847" fill-opacity="0.2"/>
<path d="M398.799 0.314717L398.799 -3.83686L398.799 -7.98726L402.949 -7.98726L402.949 -3.83686L407.101 -3.83686L407.101 0.314719L402.949 0.314718L402.949 4.46512L407.101 4.46512L407.101 8.6167L402.949 8.6167L398.799 8.6167L398.799 4.46512L398.799 0.314717Z" fill="#1F4847" fill-opacity="0.2"/>
<path d="M124.629 -3.83665L124.629 0.314931L120.477 0.314931L120.477 4.46533L116.327 4.46533L116.327 0.31493L116.327 -3.83665L120.477 -3.83665L124.629 -3.83665Z" fill="#1F4847" fill-opacity="0.2"/>
<path d="M1611.67 -3.83665L1611.67 -7.98705L1615.82 -7.98705L1619.97 -7.98705L1619.97 -3.83665L1619.97 0.314933L1615.82 0.314933L1615.82 4.46533L1611.67 4.46533L1611.67 0.314932L1607.52 0.314931L1603.37 0.31493L1603.37 -3.83665L1607.52 -3.83665L1611.67 -3.83665Z" fill="#1F4847" fill-opacity="0.2"/>
<path d="M731.068 -3.83686L731.068 -7.98726L731.068 -12.1388L735.22 -12.1388L735.22 -7.98726L739.37 -7.98726L739.37 -3.83686L735.22 -3.83686L735.22 0.31472L735.22 4.46512L735.22 8.6167L731.068 8.6167L731.068 4.46512L726.918 4.46512L726.918 0.314718L731.068 0.314719L731.068 -3.83686Z" fill="#1F4847" fill-opacity="0.2"/>
</g>
</svg>
