<svg width="68" height="160" viewBox="0 0 68 160" fill="none" xmlns="http://www.w3.org/2000/svg">
<path d="M61.41 9.21997L58.34 9.21997L58.34 12.29L49.12 12.29L49.12 -8.05603e-07L42.98 -1.07399e-06L42.98 3.07007L46.05 3.07007L46.05 9.20996L42.98 9.20996L42.98 3.07007L39.91 3.07007L39.91 6.14014L36.84 6.14014L36.84 12.28L46.0599 12.28L46.0599 15.3501L42.99 15.3501L42.99 18.4202L46.0599 18.4202L46.0599 21.49L49.13 21.49L49.13 18.4202L55.27 18.4202L55.27 24.5601L52.2 24.5601L52.1999 27.6301L55.27 27.6301L55.27 30.7L58.34 30.7L58.34 36.8401L52.1999 36.8401L52.1999 39.9102L61.42 39.9102L61.42 46.05L58.35 46.05L58.35 42.98L52.21 42.98L52.21 39.9102L42.99 39.9102L42.99 49.1301L46.0599 49.1301L46.0599 52.2L52.1999 52.2L52.1999 49.1301L55.27 49.1301L55.27 52.2L52.1999 52.2L52.1999 55.27L49.13 55.27L49.13 58.3401L46.0599 58.3401L46.0599 61.4102L42.99 61.4102L42.99 64.48L49.13 64.48L49.13 61.4102L52.1999 61.4102L52.1999 58.3401L58.34 58.3401L58.34 61.4102L52.1999 61.4102L52.1999 64.48L49.13 64.48L49.13 67.55L46.0599 67.55L46.0599 70.6201L39.92 70.6201L39.92 73.6899L42.99 73.6899L42.99 76.76L49.13 76.76L49.13 73.6899L55.27 73.6899L55.27 82.9102L49.13 82.9102L49.13 85.98L46.0599 85.98L46.0599 89.05L42.99 89.05L42.99 85.98L46.0599 85.98L46.0599 82.9102L42.99 82.9102L42.99 76.77L39.92 76.77L39.92 79.8401L36.85 79.8401L36.85 76.77L27.63 76.77L27.63 73.6999L24.5599 73.6999L24.5599 70.6301L21.49 70.6301L21.49 73.6999L18.42 73.6999L18.42 70.6301L15.35 70.6301L15.35 64.49L12.28 64.49L12.28 76.78L18.42 76.78L18.42 82.9202L24.5599 82.9202L24.5599 79.8501L30.6999 79.8501L30.6999 82.9202L24.5599 82.9202L24.5599 85.99L21.49 85.99L21.49 89.0601L18.42 89.0601L18.42 92.1301L15.35 92.1301L15.35 95.1999L21.49 95.1999L21.49 92.1301L24.5599 92.1301L24.5599 89.0601L27.63 89.0601L27.63 92.1301L24.5599 92.1301L24.5599 98.27L27.63 98.27L27.63 95.1999L33.77 95.1999L33.77 92.1301L30.6999 92.1301L30.6999 85.99L39.92 85.99L39.92 89.0601L36.85 89.0601L36.85 101.35L33.78 101.35L33.78 98.28L27.64 98.28L27.64 101.35L30.71 101.35L30.71 110.57L33.78 110.57L33.78 113.64L30.71 113.64L30.71 110.57L27.64 110.57L27.64 101.35L24.5699 101.35L24.5699 107.49L15.35 107.49L15.35 104.42L21.49 104.42L21.49 101.35L24.5599 101.35L24.5599 98.28L18.42 98.28L18.42 101.35L12.28 101.35L12.28 98.28L9.20996 98.28L9.20996 101.35L3.06994 101.35L3.06994 98.28L-4.29596e-06 98.28L-4.56435e-06 104.42L3.06994 104.42L3.06994 107.49L-4.69854e-06 107.49L-4.83273e-06 110.56L6.14001 110.56L6.14001 107.49L9.20996 107.49L9.20996 104.42L12.28 104.42L12.28 107.49L9.20996 107.49L9.20996 110.56L6.14001 110.56L6.14001 125.92L9.20996 125.92L9.20996 128.99L3.06994 128.99L3.06994 132.06L6.14001 132.06L6.14001 135.13L-5.90673e-06 135.13L-6.04091e-06 138.2L3.06994 138.2L3.06994 141.27L6.14001 141.27L6.14001 144.34L3.06994 144.34L3.06994 153.56L12.29 153.56L12.29 159.7L15.36 159.7L15.36 156.63L21.5 156.63L21.5 159.7L27.64 159.7L27.64 150.48L24.5699 150.48L24.5699 141.26L27.64 141.26L27.64 138.19L24.5699 138.19L24.5699 132.05L27.64 132.05L27.64 135.12L30.71 135.12L30.71 138.19L33.78 138.19L33.78 135.12L36.85 135.12L36.85 138.19L33.78 138.19L33.78 141.26L36.85 141.26L36.85 144.33L42.99 144.33L42.99 147.4L49.13 147.4L49.13 144.33L46.0599 144.33L46.0599 141.26L42.99 141.26L42.99 135.12L46.0599 135.12L46.0599 132.05L52.1999 132.05L52.1999 128.98L55.27 128.98L55.27 125.91L49.13 125.91L49.13 128.98L46.0599 128.98L46.0599 122.84L36.84 122.84L36.84 128.98L33.77 128.98L33.77 116.69L39.91 116.69L39.91 113.62L42.98 113.62L42.98 110.55L46.05 110.55L46.05 107.48L49.12 107.48L49.12 104.41L52.1899 104.41L52.1899 107.48L49.12 107.48L49.12 110.55L52.1899 110.55L52.1899 113.62L58.33 113.62L58.33 110.55L64.47 110.55L64.47 113.62L67.54 113.62L67.54 107.48L64.47 107.48L64.47 104.41L61.4 104.41L61.4 107.48L58.33 107.48L58.33 104.41L55.26 104.41L55.26 98.27L61.4 98.27L61.4 101.34L64.47 101.34L64.47 98.27L67.54 98.27L67.54 95.2L64.47 95.2L64.47 85.98L58.33 85.98L58.33 82.9102L64.47 82.9102L64.47 85.98L67.54 85.98L67.54 79.8401L64.47 79.8401L64.47 73.7L61.4 73.7L61.4 70.6301L55.26 70.6301L55.26 67.5601L64.48 67.5601L64.48 64.49L61.41 64.49L61.41 61.4202L64.48 61.4202L64.48 58.3501L61.41 58.3501L61.41 55.28L67.55 55.28L67.55 49.1401L64.48 49.1401L64.48 33.78L61.41 33.78L61.41 30.71L64.48 30.71L64.48 27.6401L61.41 27.6401L61.41 24.5701L58.34 24.5701L58.34 21.5L61.41 21.5L61.41 18.4302L58.34 18.4302L58.34 15.3601L61.41 15.3601L61.41 18.4302L64.48 18.4302L64.48 3.07007L61.41 3.07007L61.41 9.20996L61.41 9.21997ZM42.98 129.03L42.98 132.1L39.91 132.1L39.91 129.03L42.98 129.03ZM21.48 116.74L27.62 116.74L27.62 119.81L21.48 119.81L21.48 116.74L15.34 116.74L15.34 119.81L12.27 119.81L12.27 122.88L15.34 122.88L15.34 125.95L27.63 125.95L27.63 129.02L18.41 129.02L18.41 132.09L15.34 132.09L15.34 138.23L18.41 138.23L18.41 135.16L21.48 135.16L21.48 138.23L18.41 138.23L18.41 141.3L15.34 141.3L15.34 144.37L18.41 144.37L18.41 150.51L9.18993 150.51L9.18994 144.37L12.26 144.37L12.26 141.3L15.3299 141.3L15.33 138.23L12.26 138.23L12.26 135.16L9.18994 135.16L9.18994 132.09L12.26 132.09L12.26 129.02L15.33 129.02L15.33 125.95L12.26 125.95L12.26 122.88L9.18994 122.88L9.18994 113.66L15.33 113.66L15.33 110.59L18.4 110.59L18.4 113.66L21.47 113.66L21.47 116.73L21.48 116.74ZM39.91 107.52L39.91 110.59L36.84 110.59L36.84 104.45L39.91 104.45L39.91 107.52ZM55.27 95.23L52.1999 95.23L52.1999 98.3L49.13 98.3L49.13 101.37L46.0599 101.37L46.0599 104.44L42.99 104.44L42.99 101.37L39.92 101.37L39.92 98.3L46.0599 98.3L46.0599 95.23L52.1999 95.23L52.1999 92.1602L55.27 92.1602L55.27 95.23ZM61.41 89.0901L61.41 92.1602L58.34 92.1602L58.34 89.0901L61.41 89.0901ZM55.27 86.02L55.27 89.0901L52.1999 89.0901L52.1999 86.02L55.27 86.02Z" fill="#377D79"/>
</svg>
