<svg width="80" height="273" viewBox="0 0 80 273" fill="none" xmlns="http://www.w3.org/2000/svg">
<path d="M77.0015 20.7552H74.0392V23.7226H71.0769V20.7552H68.1148V26.6902H74.0392V35.593H77.0015V38.5607H74.0392V35.593H71.0769V32.6254H68.1148V35.593H65.1525V32.6254H62.1902V35.593H59.2278V41.5283H56.2655V29.6759H50.3409V26.7083H59.2278V32.6435H62.1902V29.6759H65.1525V32.6435H68.1148V26.7083H62.1902V17.8057H53.3032V20.7731H59.2278V23.7407H53.3032V20.7731H47.3786V23.7407H44.4165V20.7731H41.4542V23.7407H35.5295V17.8057H38.4918V14.8381H35.5295V11.8705H38.4918V8.90284H41.4542V2.96761H29.623V0H26.6606V5.93523H29.623V11.8705H23.6983V17.8057H26.6606V20.7731H17.7739V23.7407H26.6606V26.7083H29.623V35.6112H26.6606V38.5788H20.736V41.5464H17.7739V38.5788H14.8116V41.5464H5.92464V44.514H11.8493V47.4814H8.88695V50.449H2.96232V56.3842H5.92464V59.3519H8.88695V62.3195H11.8493V68.2547H8.88695V74.1897H11.8493V77.1573H8.88695V74.1897H5.92464V68.2547H2.96232V74.1897H0V83.0926H2.96232V80.1249H5.92464V83.0926H8.88695V86.0602H5.92464V94.9628H0V97.9304H8.88695V89.0278H11.8493V94.9628H14.8116V97.9304H17.7739V94.9628H20.736V97.9304H23.6983V91.9954H26.6606V97.9304H23.6983V103.866H26.6606V106.833H20.736V100.898H17.7739V109.801H26.6606V118.704H29.623V124.639H32.5853V121.671H35.5476V118.704H38.5099V115.736H41.4722V124.639H38.5099V127.606H35.5476V133.542H32.5853V142.444H35.5476V148.379H32.5853V151.347H35.5476V157.282H29.623V163.217H32.5853V166.185H38.5099V163.217H44.4343V157.282H41.4722V154.315H38.5099V145.412H41.4722V148.379H44.4343V151.347H41.4722V154.315H44.4343V157.282H47.3966V163.217H50.359V166.185H47.3966V169.152H53.3213V172.12H50.359V175.088H53.3213V181.023H50.359V183.991H53.3213V186.958H56.2836V183.991H59.2459V186.958H56.2836V189.926H50.359V183.991H47.3966V181.023H50.359V178.055H38.528V181.023H41.4903V186.958H38.528V189.926H32.6034V192.893H23.7164V198.828H26.6787V204.764H23.7164V207.731H20.7541V210.699H23.7164V216.634H17.7918V219.602H23.7164V225.537H20.7541V222.569H11.8674V225.537H8.90503V228.504H5.94272V225.537H0.0180804V228.504H2.9804V231.472H8.90503V234.44H11.8674V231.472H14.8297V225.537H17.7918V228.504H20.7541V231.472H26.6787V228.504H29.641V231.472H26.6787V240.375H20.7541V243.342H26.6787V246.31H29.641V243.342H32.6034V246.31H29.641V249.277H38.528V246.31H35.5657V243.342H41.4903V246.31H44.4524V237.407H47.4147V243.342H50.377V237.407H53.3394V246.31H50.377V249.277H62.2082V246.31H56.2836V243.342H62.2082V246.31H65.1706V249.277H68.1329V243.342H65.1706V240.375H68.1329V237.407H65.1706V231.472H68.1329V228.504H65.1706V225.537H59.2459V228.504H56.2836V222.569H65.1706V219.602H68.1329V222.569H71.095V225.537H74.0573V228.504H71.095V231.472H68.1329V237.407H71.095V240.375H74.0573V243.342H77.0196V246.31H74.0573V243.342H71.095V249.277H68.1329V252.245H62.2082V255.213H65.1706V273H68.1329V261.148H71.095V252.245H74.0573V258.18H77.0196V255.213H79.9819V237.425H74.0573V234.458H77.0196V231.49H79.9819V222.587H77.0196V219.62H79.9819V207.767H77.0196V201.832H79.9819V178.11H77.0196V181.077H74.0573V184.045H71.095V181.077H68.1329V172.174H65.1706V166.239H68.1329V172.174H74.0573V169.207H77.0196V172.174H74.0573V175.142H79.9819V166.239H77.0196V163.272H79.9819V115.826H74.0573V118.794H77.0196V124.729H74.0573V127.697H68.1329V124.729H74.0573V118.794H71.095V115.826H74.0573V112.859H68.1329V115.826H59.2459V118.794H62.2082V121.762H56.2836V115.826H59.2459V112.859H56.2836V109.891H59.2459V112.859H62.2082V109.891H65.1706V112.859H68.1329V106.924H65.1706V103.956H71.095V106.924H74.0573V109.891H79.9819V100.989H77.0196V103.956H74.0573V100.989H77.0196V98.021H79.9819V83.201H74.0573V80.2336H79.9819V65.4137H77.0196V71.3489H74.0573V74.3165H77.0196V77.2841H71.095V86.1867H74.0573V89.1543H71.095V86.1867H65.1706V83.2191H56.2836V86.1867H59.2459V89.1543H56.2836V86.1867H41.4903V89.1543H38.528V86.1867H41.4903V83.2191H38.528V80.2517H41.4903V83.2191H47.4147V80.2517H44.4524V77.2841H47.4147V80.2517H50.377V83.2191H53.3394V80.2517H56.3017V77.2841H53.3394V74.3165H50.377V71.3489H47.4147V74.3165H44.4524V71.3489H41.4903V74.3165H38.528V71.3489H35.5657V68.3813H32.6034V65.4137H41.4903V59.4784H38.528V62.446H32.6034V56.5108H35.5657V53.5434H38.528V50.5758H41.4903V44.6406H44.4524V41.673H38.528V38.7053H32.6034V35.7377H41.4903V32.7701H38.528V26.8351H41.4903V32.7701H44.4524V35.7377H41.4903V38.7053H44.4524V41.673H47.4147V35.7377H50.377V38.7053H53.3394V41.673H47.4147V44.6406H53.3394V47.6082H50.377V59.4603H53.3394V62.4279H56.3017V56.4929H59.264V53.5253H56.3017V50.5577H59.264V53.5253H62.2263V44.6225H68.1507V41.6548H71.113V47.5901H68.1507V50.5577H65.1886V53.5253H68.1507V56.4929H62.2263V59.4603H59.264V65.3955H56.3017V68.3632H53.3394V74.2984H56.3017V77.266H59.264V68.3632H62.2263V65.3955H68.1507V68.3632H62.2263V77.266H59.264V80.2336H65.1886V74.2984H68.1507V71.3308H71.113V68.3632H74.0754V65.3955H77.0377V62.4279H68.1507V59.4603H71.113V50.5577H74.0754V53.5253H77.0377V47.5901H74.0754V44.6225H77.0377V41.6548H80V29.8027H77.0377V26.8351H80V17.9323H77.0377V20.8999L77.0015 20.7552ZM11.8854 56.3299H8.92311V53.3623H11.8854V56.3299ZM29.641 71.1499H32.6034V74.1175H26.6787V71.1499H29.641ZM32.6034 94.8724H35.5657V97.8401H32.6034V103.775H29.641V97.8401H32.6034V94.8724ZM23.7164 41.5102H26.6787V44.4778H23.7164V41.5102ZM23.7164 56.3299H26.6787V59.2975H23.7164V56.3299ZM14.8297 56.3299H17.7918V53.3623H20.7541V56.3299H17.7918V59.2975H14.8297V56.3299ZM17.7918 88.9372H14.8297V85.9696H17.7918V88.9372ZM23.7164 83.002H20.7541V80.0344H23.7164V83.002ZM23.7164 77.067H17.7918V74.0994H14.8297V71.1317H17.7918V74.0994H23.7164V77.067ZM23.7164 68.1641V65.1965H26.6787V68.1641H23.7164ZM26.6787 85.9515V82.9839H29.641V85.9515H26.6787ZM35.5657 109.674V112.642H29.641V109.674H32.6034V106.707H35.5657V109.674ZM41.4903 130.429V139.332H38.528V130.429H41.4903V127.462H50.377V121.526H53.3394V127.462H56.3017V133.397H50.377V136.364H53.3394V139.332H50.377V136.364H44.4524V133.397H50.377V130.429H41.4903ZM44.4524 124.494V121.526H47.4147V124.494H44.4524ZM50.377 154.152V151.184H47.4147V145.249H44.4524V142.281H47.4147V145.249H50.377V142.281H53.3394V145.249H56.3017V151.184H53.3394V154.152H50.377ZM53.3394 166.004V163.037H56.3017V166.004H53.3394ZM59.264 198.611H62.2263V201.579H56.3017V198.611H59.264ZM41.5082 195.644V192.676H50.3951V195.644H53.3574V192.676H56.3198V195.644H53.3574V198.611H50.3951V195.644H44.4705V198.611H47.4328V201.579H44.4705V198.611H41.5082V195.644ZM38.5461 201.579H41.5082V204.547H38.5461V201.579ZM32.6214 195.644H35.5838V198.611H32.6214V195.644ZM32.6214 204.547V201.579H35.5838V207.514H32.6214V204.547ZM29.6591 213.449V210.482H35.5838V213.449H29.6591ZM35.5838 240.14H32.6214V237.172H35.5838V240.14ZM35.5838 234.204H32.6214V231.237H35.5838V234.204ZM35.5838 219.384V222.352H32.6214V216.417H38.5461V219.384H35.5838ZM41.5082 240.14H38.5461V237.172H41.5082V240.14ZM50.3951 231.237H47.4328V228.269H41.5082V222.334H44.4705V216.399H41.5082V210.464H44.4705V216.399H47.4328V228.251H50.3951V231.219V231.237ZM53.3574 225.301H50.3951V222.334H53.3574V225.301ZM59.2821 240.121H56.3198V237.154H59.2821V240.121ZM59.2821 231.219V234.186H56.3198V231.219H59.2821ZM59.2821 216.399H53.3574V219.366H50.3951V213.431H53.3574V210.464H50.3951V207.496H47.4328V204.528H50.3951V201.561H53.3574V204.528H50.3951V207.496H53.3574V210.464H56.3198V213.431H59.2821V216.399ZM65.2065 210.464H59.2821V207.496H65.2065V210.464ZM74.0934 216.399H71.1311V213.431H74.0934V216.399ZM74.0934 210.464H68.1688V207.496H74.0934V210.464ZM71.1311 189.709H74.0934V192.676H71.1311V189.709ZM71.1311 195.644H77.0558V198.611H74.0934V204.547H71.1311V201.579H68.1688V195.644H71.1311ZM68.1688 186.741V192.676H65.2065V195.644H62.2444V192.676H59.2821V189.709H62.2444V192.676H65.2065V186.741H68.1688ZM74.0934 160.051V163.018H71.1311V157.083H74.0934V160.051ZM77.0558 154.116H74.0934V151.148H71.1311V148.18H74.0934V151.148H77.0558V154.116ZM59.3002 133.361H65.2246V130.393H62.2625V127.425H59.3002V124.458H62.2625V127.425H65.2246V130.393H68.1869V133.361H74.1115V130.393H77.0738V133.361H74.1115V139.296H71.1492V136.328H68.1869V133.361H65.2246V136.328H59.3002V133.361ZM65.2246 139.296V142.263H62.2625V139.296H65.2246ZM59.3002 148.199H62.2625V145.231H68.1869V142.263H71.1492V145.231H68.1869V148.199H62.2625V151.166H59.3002V148.199ZM59.3002 163.018V160.051H62.2625V157.083H59.3002V154.116H62.2625V157.083H68.1869V163.018H62.2625V165.986H59.3002V163.018ZM59.3002 168.953H62.2625V171.921H59.3002V168.953ZM59.3002 177.856H62.2625V180.824H56.3378V177.856H59.3002ZM53.3755 91.8686H56.3378V94.8362H53.3755V91.8686ZM53.3755 97.8038H62.2625V94.8362H65.2246V97.8038H68.1869V94.8362H71.1492V91.8686H74.1115V97.8038H68.1869V100.771H65.2246V97.8038H62.2625V100.771H53.3755V97.8038ZM38.582 100.771V97.8038H44.5066V91.8686H47.469V94.8362H50.4313V103.739H56.3559V106.707H47.469V109.674H53.3936V115.609H50.4313V118.577H47.469V115.609H50.4313V112.642H47.469V109.674H44.5066V112.642H38.582V103.739H35.6199V100.771H38.582ZM35.6199 88.9191V91.8867H32.6576V88.9191H35.6199ZM35.6199 41.4739V44.4415H38.582V47.4092H32.6576V41.4739H35.6199ZM35.6199 32.5711H32.6576V29.6035H35.6199V32.5711ZM59.3002 47.3911H56.3378V44.4234H59.3002V47.3911ZM65.2246 41.4558H62.2625V38.4882H65.2246V41.4558Z" fill="#377D79"/>
</svg>
