<svg width="310" height="232" viewBox="0 0 310 232" fill="none" xmlns="http://www.w3.org/2000/svg">
<path d="M131.465 146.933L131.465 150.799L135.332 150.799L135.332 146.933L131.465 146.933Z" fill="#377D79" fill-opacity="0.5"/>
<path d="M135.333 150.8L135.333 154.667L139.2 154.667L139.2 150.8L135.333 150.8Z" fill="#377D79" fill-opacity="0.5"/>
<path d="M96.6666 27.0659L96.6666 23.1994L92.7999 23.1994L88.9331 23.1994L85.0664 23.1994L85.0664 19.333L81.1997 19.333L77.3333 19.333L77.3333 23.1994L81.1997 23.1994L81.1997 27.0659L81.1997 30.9329L85.0664 30.9329L85.0664 34.7993L88.9331 34.7993L88.9331 30.9329L92.7999 30.9329L92.7999 27.0659L96.6666 27.0659Z" fill="#377D79" fill-opacity="0.5"/>
<path d="M135.333 58.0007L135.333 61.8672L139.2 61.8672L139.2 58.0007L135.333 58.0007Z" fill="#377D79" fill-opacity="0.5"/>
<path d="M96.6651 30.9329L92.7983 30.9329L92.7983 34.7993L96.6651 34.7993L100.532 34.7993L100.532 30.9329L96.6651 30.9329Z" fill="#377D79" fill-opacity="0.5"/>
<path d="M92.7989 73.4662L96.6656 73.4662L100.532 73.4662L100.532 69.5998L104.399 69.5998L104.399 73.4662L108.265 73.4662L108.265 69.5998L108.265 65.7328L104.399 65.7328L104.399 61.8664L108.265 61.8664L108.265 65.7328L112.132 65.7328L115.999 65.7328L115.999 61.8664L119.865 61.8664L119.865 57.9999L119.865 54.1329L115.999 54.1329L115.999 57.9999L112.132 57.9999L112.132 54.1329L115.999 54.1329L115.999 50.2665L119.865 50.2665L119.865 46.3995L123.732 46.3995L127.599 46.3995L127.599 42.533L123.732 42.533L119.865 42.533L119.865 38.6666L123.732 38.6666L127.599 38.6666L131.466 38.6666L131.466 34.7996L135.332 34.7996L135.332 30.9331L139.199 30.9331L139.199 27.0661L135.332 27.0661L131.466 27.0661L131.466 30.9331L127.599 30.9331L127.599 34.7996L123.732 34.7996L119.865 34.7996L115.999 34.7996L115.999 30.9331L115.999 27.0661L115.999 23.1997L112.132 23.1997L108.265 23.1997L108.265 27.0661L108.265 30.9331L108.265 34.7996L104.399 34.7996L100.532 34.7996L100.532 38.6666L100.532 42.533L104.399 42.533L108.265 42.533L108.265 46.3995L108.265 50.2665L104.399 50.2665L104.399 46.3995L100.532 46.3995L96.6656 46.3995L92.7989 46.3995L92.7989 50.2665L96.6656 50.2665L100.532 50.2665L100.532 54.1329L104.399 54.1329L108.265 54.1329L108.265 57.9999L104.399 57.9999L100.532 57.9999L96.6656 57.9999L96.6656 61.8664L96.6656 65.7328L96.6656 69.5998L92.7989 69.5998L88.9321 69.5998L88.9321 73.4662L88.9321 77.3333L92.7989 77.3333L92.7989 73.4662Z" fill="#377D79" fill-opacity="0.5"/>
<path d="M88.9331 15.466L92.7999 15.466L92.7999 19.333L96.6666 19.333L96.6666 15.466L100.533 15.466L100.533 19.333L96.6666 19.333L96.6666 23.1995L100.533 23.1995L100.533 27.0659L104.4 27.0659L104.4 23.1995L108.266 23.1995L108.266 19.333L104.4 19.333L104.4 15.466L112.133 15.466L112.133 11.5996L108.266 11.5996L108.266 7.73258L104.4 7.73258L104.4 3.86615L108.266 3.86615L108.266 7.73258L112.133 7.73258L112.133 11.5996L116 11.5996L116 3.86615L112.133 3.86615L112.133 -0.000291409L85.0664 -0.000291732L85.0664 3.86615L81.1997 3.86615L81.1997 7.73258L77.3333 7.73258L77.3333 15.466L81.1997 15.466L81.1997 11.5996L85.0664 11.5996L85.0664 19.333L88.9331 19.333L88.9331 15.466ZM88.9331 11.5996L88.9331 7.73258L92.7999 7.73258L92.7999 11.5996L88.9331 11.5996ZM96.6666 11.5996L96.6666 3.86615L100.533 3.86615L100.533 11.5996L96.6666 11.5996Z" fill="#377D79" fill-opacity="0.5"/>
<path d="M127.599 112.133L127.599 116L131.466 116L131.466 112.133L127.599 112.133Z" fill="#377D79" fill-opacity="0.5"/>
<path d="M139.2 104.4L143.066 104.4L143.066 108.267L146.933 108.267L150.8 108.267L150.8 104.4L146.933 104.4L146.933 100.534L143.066 100.534L139.2 100.534L135.333 100.534L135.333 104.4L139.2 104.4Z" fill="#377D79" fill-opacity="0.5"/>
<path d="M85.0684 42.5329L81.2017 42.5329L81.2017 46.3994L81.2017 50.2664L81.2017 54.1328L85.0684 54.1328L88.9351 54.1328L88.9351 50.2664L88.9351 46.3994L85.0684 46.3994L85.0684 42.5329Z" fill="#377D79" fill-opacity="0.5"/>
<path d="M104.401 85.0671L104.401 88.9341L108.268 88.9341L108.268 85.0671L104.401 85.0671Z" fill="#377D79" fill-opacity="0.5"/>
<path d="M85.0679 100.533L85.0679 104.399L88.9346 104.399L88.9346 100.533L85.0679 100.533Z" fill="#377D79" fill-opacity="0.5"/>
<path d="M85.0684 119.867L88.9351 119.867L88.9351 116.001L85.0684 116.001L81.2017 116.001L81.2017 119.867L85.0684 119.867Z" fill="#377D79" fill-opacity="0.5"/>
<path d="M96.6656 123.733L100.532 123.733L100.532 119.866L96.6656 119.866L92.7989 119.866L92.7989 123.733L88.9321 123.733L88.9321 127.6L92.7989 127.6L92.7989 131.466L96.6656 131.466L96.6656 127.6L96.6656 123.733Z" fill="#377D79" fill-opacity="0.5"/>
<path d="M92.7983 77.3342L92.7983 81.2007L96.6651 81.2007L96.6651 77.3342L92.7983 77.3342Z" fill="#377D79" fill-opacity="0.5"/>
<path d="M96.6667 131.466L96.6667 135.333L100.533 135.333L100.533 131.466L96.6667 131.466Z" fill="#377D79" fill-opacity="0.5"/>
<path d="M85.0679 85.0671L85.0679 88.9341L88.9346 88.9341L88.9346 85.0671L85.0679 85.0671Z" fill="#377D79" fill-opacity="0.5"/>
<path d="M81.1997 81.1995L77.3333 81.1995L77.3333 85.0659L81.1997 85.0659L85.0664 85.0659L85.0664 81.1995L81.1997 81.1995Z" fill="#377D79" fill-opacity="0.5"/>
<path d="M85.0684 92.7997L85.0684 88.9333L81.2017 88.9333L81.2017 92.7997L81.2017 96.6667L85.0684 96.6667L85.0684 92.7997Z" fill="#377D79" fill-opacity="0.5"/>
<path d="M77.3333 96.6675L77.3333 100.534L81.1997 100.534L81.1997 96.6675L77.3333 96.6675Z" fill="#377D79" fill-opacity="0.5"/>
<path d="M104.401 127.6L104.401 131.466L108.268 131.466L108.268 127.6L104.401 127.6Z" fill="#377D79" fill-opacity="0.5"/>
<path d="M92.7983 143.067L92.7983 146.934L96.6651 146.934L96.6651 143.067L92.7983 143.067Z" fill="#377D79" fill-opacity="0.5"/>
<path d="M77.3333 139.199L77.3333 143.066L81.1997 143.066L81.1997 139.199L77.3333 139.199Z" fill="#377D79" fill-opacity="0.5"/>
<path d="M81.2017 135.334L81.2017 139.201L85.0684 139.201L85.0684 135.334L81.2017 135.334Z" fill="#377D79" fill-opacity="0.5"/>
<path d="M100.535 146.933L100.535 150.799L104.402 150.799L104.402 146.933L100.535 146.933Z" fill="#377D79" fill-opacity="0.5"/>
<path d="M85.0679 131.466L85.0679 135.333L88.9346 135.333L88.9346 139.199L88.9346 143.066L92.8013 143.066L92.8013 139.199L92.8013 135.333L92.8013 131.466L88.9346 131.466L85.0679 131.466Z" fill="#377D79" fill-opacity="0.5"/>
<path d="M108.265 123.734L108.265 127.601L112.132 127.601L112.132 123.734L108.265 123.734Z" fill="#377D79" fill-opacity="0.5"/>
<path d="M100.535 123.734L100.535 127.601L104.402 127.601L104.402 123.734L100.535 123.734Z" fill="#377D79" fill-opacity="0.5"/>
<path d="M85.0664 69.5998L81.1997 69.5998L77.3333 69.5998L77.3333 73.4662L77.3333 77.3333L81.1997 77.3333L85.0664 77.3333L85.0664 73.4662L85.0664 69.5998Z" fill="#377D79" fill-opacity="0.5"/>
<path d="M104.401 119.866L104.401 123.733L108.268 123.733L108.268 119.866L104.401 119.866Z" fill="#377D79" fill-opacity="0.5"/>
<path d="M123.735 7.73382L123.735 11.6008L127.601 11.6008L127.601 7.73382L123.735 7.73382Z" fill="#377D79" fill-opacity="0.5"/>
<path d="M119.868 61.8662L119.868 65.7327L123.735 65.7327L123.735 61.8662L119.868 61.8662Z" fill="#377D79" fill-opacity="0.5"/>
<path d="M123.735 -0.000209762L119.868 -0.000209808L119.868 3.86623L119.868 7.73267L123.735 7.73267L123.735 3.86623L123.735 -0.000209762Z" fill="#377D79" fill-opacity="0.5"/>
<path d="M127.601 27.0659L131.468 27.0659L131.468 23.1995L131.468 19.333L131.468 15.466L135.335 15.466L135.335 11.5996L131.468 11.5996L127.601 11.5996L127.601 15.466L127.601 19.333L123.735 19.333L123.735 23.1995L127.601 23.1995L127.601 27.0659Z" fill="#377D79" fill-opacity="0.5"/>
<path d="M123.735 27.0671L123.735 30.9341L127.601 30.9341L127.601 27.0671L123.735 27.0671Z" fill="#377D79" fill-opacity="0.5"/>
<path d="M127.601 50.2666L123.735 50.2666L123.735 54.133L127.601 54.133L127.601 58L131.468 58L131.468 54.133L131.468 50.2666L131.468 46.3995L127.601 46.3995L127.601 50.2666Z" fill="#377D79" fill-opacity="0.5"/>
<path d="M85.0679 77.3342L85.0679 81.2007L88.9346 81.2007L88.9346 77.3342L85.0679 77.3342Z" fill="#377D79" fill-opacity="0.5"/>
<path d="M135.333 7.73382L135.333 11.6008L139.2 11.6008L139.2 7.73382L135.333 7.73382Z" fill="#377D79" fill-opacity="0.5"/>
<path d="M135.332 7.73267L135.332 3.86623L139.199 3.86623L139.199 -0.00020967L135.332 -0.000209716L131.466 -0.000209762L127.599 -0.000209808L127.599 3.86623L127.599 7.73267L131.466 7.73267L135.332 7.73267Z" fill="#377D79" fill-opacity="0.5"/>
<path d="M116 19.3342L116 23.2007L119.866 23.2007L119.866 19.3342L116 19.3342Z" fill="#377D79" fill-opacity="0.5"/>
<path d="M85.0679 38.6675L85.0679 42.5339L88.9346 42.5339L88.9346 38.6675L85.0679 38.6675Z" fill="#377D79" fill-opacity="0.5"/>
<path d="M77.3333 54.133L77.3333 58L81.1997 58L81.1997 54.133L77.3333 54.133Z" fill="#377D79" fill-opacity="0.5"/>
<path d="M88.9321 81.1995L88.9321 85.0659L92.7989 85.0659L92.7989 81.1995L88.9321 81.1995Z" fill="#377D79" fill-opacity="0.5"/>
<path d="M92.7983 54.133L92.7983 58L96.6651 58L96.6651 54.133L92.7983 54.133Z" fill="#377D79" fill-opacity="0.5"/>
<path d="M77.3333 0.000749588L77.3333 3.86719L81.1997 3.86719L81.1997 0.000749634L77.3333 0.000749588Z" fill="#377D79" fill-opacity="0.5"/>
<path d="M116 11.5996L116 15.4661L119.866 15.4661L119.866 11.5996L116 11.5996Z" fill="#377D79" fill-opacity="0.5"/>
<path d="M88.9321 42.5327L88.9321 46.3992L92.7989 46.3992L92.7989 42.5327L88.9321 42.5327Z" fill="#377D79" fill-opacity="0.5"/>
<path d="M135.333 143.067L135.333 146.934L139.2 146.934L139.2 143.067L135.333 143.067Z" fill="#377D79" fill-opacity="0.5"/>
<path d="M119.868 23.1995L119.868 27.0659L123.735 27.0659L123.735 23.1995L119.868 23.1995Z" fill="#377D79" fill-opacity="0.5"/>
<path d="M100.535 77.3342L100.535 81.2007L104.402 81.2007L104.402 77.3342L100.535 77.3342Z" fill="#377D79" fill-opacity="0.5"/>
<path d="M81.1997 123.733L77.3333 123.733L77.3333 127.6L77.3333 131.466L81.1997 131.466L81.1997 127.6L81.1997 123.733Z" fill="#377D79" fill-opacity="0.5"/>
<path d="M81.1982 193.334L77.3318 193.334L73.4651 193.334L73.4651 197.201L77.3318 197.201L81.1982 197.201L85.065 197.201L85.065 193.334L81.1982 193.334Z" fill="#377D79" fill-opacity="0.5"/>
<path d="M88.9321 150.8L88.9321 154.667L92.7989 154.667L92.7989 150.8L88.9321 150.8Z" fill="#377D79" fill-opacity="0.5"/>
<path d="M88.9351 146.933L85.0684 146.933L81.2017 146.933L81.2017 150.8L81.2017 154.667L85.0684 154.667L85.0684 150.8L88.9351 150.8L88.9351 146.933Z" fill="#377D79" fill-opacity="0.5"/>
<path d="M127.599 61.8662L127.599 65.7327L131.466 65.7327L131.466 61.8662L127.599 61.8662Z" fill="#377D79" fill-opacity="0.5"/>
<path d="M135.335 208.8L131.468 208.8L127.601 208.8L123.735 208.8L123.735 212.667L127.601 212.667L131.468 212.667L135.335 212.667L139.201 212.667L139.201 208.8L135.335 208.8Z" fill="#377D79" fill-opacity="0.5"/>
<path d="M131.468 158.533L127.601 158.533L123.735 158.533L123.735 162.399L127.601 162.399L131.468 162.399L135.335 162.399L135.335 158.533L131.468 158.533Z" fill="#377D79" fill-opacity="0.5"/>
<path d="M131.465 65.7338L131.465 69.6008L135.332 69.6008L135.332 65.7338L131.465 65.7338Z" fill="#377D79" fill-opacity="0.5"/>
<path d="M77.3333 158.533L77.3333 162.399L81.1997 162.399L81.1997 158.533L77.3333 158.533Z" fill="#377D79" fill-opacity="0.5"/>
<path d="M77.3333 185.6L77.3333 189.466L81.1997 189.466L81.1997 185.6L77.3333 185.6Z" fill="#377D79" fill-opacity="0.5"/>
<path d="M96.6667 158.533L96.6667 162.399L100.533 162.399L100.533 158.533L96.6667 158.533Z" fill="#377D79" fill-opacity="0.5"/>
<path d="M127.599 216.533L127.599 220.399L131.466 220.399L131.466 216.533L127.599 216.533Z" fill="#377D79" fill-opacity="0.5"/>
<path d="M100.535 154.667L100.535 158.534L104.402 158.534L104.402 154.667L100.535 154.667Z" fill="#377D79" fill-opacity="0.5"/>
<path d="M92.7983 166.267L92.7983 170.133L92.7983 174L96.6651 174L96.6651 170.133L100.532 170.133L100.532 166.267L96.6651 166.267L96.6651 162.4L92.7983 162.4L92.7983 166.267Z" fill="#377D79" fill-opacity="0.5"/>
<path d="M85.0684 170.133L85.0684 166.266L85.0684 162.399L81.2017 162.399L81.2017 166.266L81.2017 170.133L85.0684 170.133Z" fill="#377D79" fill-opacity="0.5"/>
<path d="M85.0679 174.001L85.0679 177.867L88.9346 177.867L88.9346 174.001L85.0679 174.001Z" fill="#377D79" fill-opacity="0.5"/>
<path d="M81.2017 181.734L81.2017 185.601L85.0684 185.601L85.0684 181.734L85.0684 177.867L81.2017 177.867L81.2017 181.734Z" fill="#377D79" fill-opacity="0.5"/>
<path d="M92.7983 177.866L92.7983 181.733L96.6651 181.733L96.6651 177.866L92.7983 177.866Z" fill="#377D79" fill-opacity="0.5"/>
<path d="M77.3333 174.001L77.3333 177.867L81.1997 177.867L81.1997 174.001L77.3333 174.001Z" fill="#377D79" fill-opacity="0.5"/>
<path d="M123.735 220.4L123.735 224.267L127.601 224.267L127.601 220.4L123.735 220.4Z" fill="#377D79" fill-opacity="0.5"/>
<path d="M85.0684 208.8L81.2017 208.8L81.2017 212.667L81.2017 216.534L85.0684 216.534L85.0684 212.667L85.0684 208.8Z" fill="#377D79" fill-opacity="0.5"/>
<path d="M88.9321 208.8L88.9321 212.667L92.7989 212.667L92.7989 208.8L88.9321 208.8Z" fill="#377D79" fill-opacity="0.5"/>
<path d="M139.202 197.199L139.202 201.066L143.068 201.066L143.068 197.199L139.202 197.199Z" fill="#377D79" fill-opacity="0.5"/>
<path d="M96.6667 208.8L96.6667 212.667L100.533 212.667L100.533 208.8L96.6667 208.8Z" fill="#377D79" fill-opacity="0.5"/>
<path d="M96.6651 228.133L92.7983 228.133L92.7983 232L96.6651 232L100.532 232L100.532 228.133L96.6651 228.133Z" fill="#377D79" fill-opacity="0.5"/>
<path d="M88.9331 224.267L85.0664 224.267L81.1997 224.267L77.3333 224.267L77.3333 228.133L81.1997 228.133L81.1997 232L85.0664 232L88.9331 232L88.9331 228.133L88.9331 224.267Z" fill="#377D79" fill-opacity="0.5"/>
<path d="M92.7983 212.667L92.7983 216.534L96.6651 216.534L96.6651 212.667L92.7983 212.667Z" fill="#377D79" fill-opacity="0.5"/>
<path d="M92.8013 220.4L92.8013 216.534L88.9346 216.534L85.0679 216.534L85.0679 220.4L88.9346 220.4L88.9346 224.267L92.8013 224.267L92.8013 220.4Z" fill="#377D79" fill-opacity="0.5"/>
<path d="M96.6667 216.533L96.6667 220.399L100.533 220.399L100.533 216.533L96.6667 216.533Z" fill="#377D79" fill-opacity="0.5"/>
<path d="M119.866 228.133L116 228.133L116 232L119.866 232L123.733 232L123.733 228.133L119.866 228.133Z" fill="#377D79" fill-opacity="0.5"/>
<path d="M135.333 220.4L135.333 224.267L139.2 224.267L139.2 220.4L135.333 220.4Z" fill="#377D79" fill-opacity="0.5"/>
<path d="M146.935 220.399L146.935 216.533L146.935 212.666L143.068 212.666L143.068 216.533L139.202 216.533L139.202 220.399L143.068 220.399L146.935 220.399Z" fill="#377D79" fill-opacity="0.5"/>
<path d="M127.599 224.266L127.599 228.133L131.466 228.133L135.332 228.133L135.332 224.266L131.466 224.266L127.599 224.266Z" fill="#377D79" fill-opacity="0.5"/>
<path d="M143.068 228.133L143.068 232L146.935 232L146.935 228.133L143.068 228.133Z" fill="#377D79" fill-opacity="0.5"/>
<path d="M150.799 170.133L146.932 170.133L146.932 174L150.799 174L154.666 174L154.666 170.133L150.799 170.133Z" fill="#377D79" fill-opacity="0.5"/>
<path d="M119.868 216.533L119.868 220.399L123.735 220.399L123.735 216.533L119.868 216.533Z" fill="#377D79" fill-opacity="0.5"/>
<path d="M139.202 224.266L139.202 228.133L143.068 228.133L143.068 224.266L139.202 224.266Z" fill="#377D79" fill-opacity="0.5"/>
<path d="M100.533 108.267L96.6666 108.267L96.6666 104.4L92.7999 104.4L88.9331 104.4L88.9331 108.267L85.0664 108.267L85.0664 104.4L81.1997 104.4L77.3333 104.4L77.3333 108.267L77.3333 116L81.1997 116L81.1997 112.133L85.0664 112.133L88.9331 112.133L92.7999 112.133L96.6666 112.133L96.6666 116L100.533 116L100.533 112.133L104.4 112.133L104.4 108.267L100.533 108.267Z" fill="#377D79" fill-opacity="0.5"/>
<path d="M127.598 143.067L127.598 139.201L131.465 139.201L135.332 139.201L135.332 135.334L135.332 131.467L131.465 131.467L131.465 135.334L127.598 135.334L123.732 135.334L123.732 139.201L119.865 139.201L119.865 135.334L123.732 135.334L123.732 131.467L127.598 131.467L131.465 131.467L131.465 127.601L131.465 123.734L135.332 123.734L135.332 119.867L131.465 119.867L127.598 119.867L123.732 119.867L123.732 123.734L119.865 123.734L119.865 119.867L115.999 119.867L115.999 123.734L115.999 127.601L119.865 127.601L119.865 131.467L115.999 131.467L112.132 131.467L112.132 135.334L115.999 135.334L115.999 139.201L115.999 143.067L119.865 143.067L123.732 143.067L123.732 146.934L127.598 146.934L131.465 146.934L131.465 143.067L127.598 143.067Z" fill="#377D79" fill-opacity="0.5"/>
<path d="M112.132 92.7997L115.999 92.7997L115.999 88.9333L112.132 88.9333L108.265 88.9333L108.265 92.7997L108.265 96.6667L112.132 96.6667L112.132 92.7997Z" fill="#377D79" fill-opacity="0.5"/>
<path d="M96.6667 100.533L96.6667 104.399L100.533 104.399L100.533 100.533L96.6667 100.533Z" fill="#377D79" fill-opacity="0.5"/>
<path d="M119.865 116.001L119.865 119.867L123.732 119.867L123.732 116.001L123.732 112.134L127.599 112.134L127.599 108.267L127.599 104.4L123.732 104.4L119.865 104.4L119.865 100.534L115.999 100.534L112.132 100.534L112.132 104.4L115.999 104.4L115.999 108.267L119.865 108.267L119.865 112.134L115.999 112.134L115.999 108.267L112.132 108.267L112.132 104.4L108.265 104.4L108.265 100.534L108.265 96.6674L104.399 96.6674L104.399 92.8004L100.532 92.8004L100.532 88.934L100.532 85.067L96.6656 85.067L96.6656 88.934L92.7989 88.934L92.7989 92.8004L88.9321 92.8004L88.9321 96.6674L92.7989 96.6674L96.6656 96.6674L100.532 96.6674L100.532 100.534L104.399 100.534L104.399 104.4L104.399 108.267L108.265 108.267L108.265 112.134L104.399 112.134L104.399 116.001L108.265 116.001L112.132 116.001L112.132 119.867L115.999 119.867L115.999 116.001L119.865 116.001Z" fill="#377D79" fill-opacity="0.5"/>
<path d="M108.265 158.533L108.265 162.399L112.132 162.399L112.132 158.533L108.265 158.533Z" fill="#377D79" fill-opacity="0.5"/>
<path d="M104.401 166.267L104.401 170.134L104.401 174.001L104.401 177.867L108.268 177.867L108.268 174.001L112.135 174.001L112.135 170.134L108.268 170.134L108.268 166.267L108.268 162.4L104.401 162.4L104.401 166.267Z" fill="#377D79" fill-opacity="0.5"/>
<path d="M112.132 154.667L112.132 158.534L115.999 158.534L115.999 154.667L112.132 154.667Z" fill="#377D79" fill-opacity="0.5"/>
<path d="M108.268 139.2L104.402 139.2L104.402 135.333L100.535 135.333L100.535 139.2L100.535 143.066L104.402 143.066L104.402 146.933L108.268 146.933L108.268 150.8L108.268 154.667L112.135 154.667L112.135 150.8L116.002 150.8L116.002 146.933L112.135 146.933L112.135 143.066L112.135 139.2L112.135 135.333L108.268 135.333L108.268 139.2Z" fill="#377D79" fill-opacity="0.5"/>
<path d="M135.333 123.734L135.333 127.601L139.2 127.601L139.2 123.734L135.333 123.734Z" fill="#377D79" fill-opacity="0.5"/>
<path d="M116 174.001L116 177.867L119.866 177.867L119.866 174.001L116 174.001Z" fill="#377D79" fill-opacity="0.5"/>
<path d="M116 85.0671L116 88.9341L119.866 88.9341L119.866 85.0671L116 85.0671Z" fill="#377D79" fill-opacity="0.5"/>
<path d="M150.802 146.933L150.802 143.066L146.935 143.066L146.935 139.199L146.935 135.333L146.935 131.466L143.068 131.466L143.068 135.333L139.202 135.333L139.202 139.199L139.202 143.066L143.068 143.066L143.068 146.933L146.935 146.933L146.935 150.799L150.802 150.799L150.802 146.933Z" fill="#377D79" fill-opacity="0.5"/>
<path d="M139.202 127.6L139.202 131.466L143.068 131.466L143.068 127.6L139.202 127.6Z" fill="#377D79" fill-opacity="0.5"/>
<path d="M123.735 85.0671L123.735 88.9341L127.601 88.9341L127.601 85.0671L123.735 85.0671Z" fill="#377D79" fill-opacity="0.5"/>
<path d="M131.466 100.533L135.332 100.533L135.332 96.6663L139.199 96.6663L139.199 92.7993L135.332 92.7993L131.466 92.7993L131.466 96.6663L127.599 96.6663L127.599 100.533L127.599 104.399L131.466 104.399L131.466 100.533Z" fill="#377D79" fill-opacity="0.5"/>
<path d="M150.802 54.1327L150.802 50.2663L146.935 50.2663L143.068 50.2663L143.068 54.1327L146.935 54.1327L146.935 57.9997L143.068 57.9997L143.068 61.8662L146.935 61.8662L146.935 65.7326L143.068 65.7326L143.068 61.8662L139.202 61.8662L139.202 65.7326L139.202 69.5996L139.202 73.4661L143.068 73.4661L143.068 69.5996L146.935 69.5996L150.802 69.5996L150.802 65.7326L150.802 61.8662L150.802 57.9997L154.669 57.9997L154.669 54.1327L150.802 54.1327Z" fill="#377D79" fill-opacity="0.5"/>
<path d="M123.733 96.6675L127.6 96.6675L127.6 92.8005L123.733 92.8005L123.733 88.934L119.866 88.934L119.866 92.8005L116 92.8005L116 96.6675L119.866 96.6675L119.866 100.534L123.733 100.534L123.733 96.6675Z" fill="#377D79" fill-opacity="0.5"/>
<path d="M139.202 181.734L139.202 185.601L143.068 185.601L146.935 185.601L146.935 181.734L143.068 181.734L139.202 181.734Z" fill="#377D79" fill-opacity="0.5"/>
<path d="M146.932 177.866L146.932 181.733L150.799 181.733L150.799 177.866L146.932 177.866Z" fill="#377D79" fill-opacity="0.5"/>
<path d="M146.932 185.6L146.932 189.466L150.799 189.466L150.799 185.6L146.932 185.6Z" fill="#377D79" fill-opacity="0.5"/>
<path d="M85.0679 61.8662L85.0679 65.7327L88.9346 65.7327L88.9346 61.8662L85.0679 61.8662Z" fill="#377D79" fill-opacity="0.5"/>
<path d="M116 166.266L116 170.133L119.866 170.133L119.866 166.266L116 166.266Z" fill="#377D79" fill-opacity="0.5"/>
<path d="M123.735 166.266L123.735 170.133L127.601 170.133L127.601 166.266L123.735 166.266Z" fill="#377D79" fill-opacity="0.5"/>
<path d="M139.2 170.133L139.2 166.267L135.333 166.267L135.333 170.133L135.333 174L139.2 174L143.066 174L143.066 170.133L139.2 170.133Z" fill="#377D79" fill-opacity="0.5"/>
<path d="M77.3333 61.8662L77.3333 65.7327L81.1997 65.7327L81.1997 61.8662L77.3333 61.8662Z" fill="#377D79" fill-opacity="0.5"/>
<path d="M77.3333 34.7997L77.3333 38.6667L81.1997 38.6667L81.1997 34.7997L77.3333 34.7997Z" fill="#377D79" fill-opacity="0.5"/>
<path d="M119.868 185.6L123.735 185.6L127.602 185.6L127.602 189.466L123.735 189.466L119.868 189.466L119.868 193.333L123.735 193.333L123.735 197.199L127.602 197.199L127.602 201.066L131.468 201.066L131.468 197.199L131.468 193.333L135.335 193.333L139.201 193.333L139.201 189.466L135.335 189.466L131.468 189.466L131.468 185.6L131.468 181.733L135.335 181.733L135.335 177.866L131.468 177.866L131.468 174L131.468 170.133L127.602 170.133L127.602 174L127.602 177.866L123.735 177.866L119.868 177.866L119.868 181.733L119.868 185.6Z" fill="#377D79" fill-opacity="0.5"/>
<path d="M112.132 181.733L115.999 181.733L115.999 177.866L112.132 177.866L108.265 177.866L108.265 181.733L112.132 181.733Z" fill="#377D79" fill-opacity="0.5"/>
<path d="M96.6667 201.067L96.6667 204.934L100.533 204.934L100.533 201.067L96.6667 201.067Z" fill="#377D79" fill-opacity="0.5"/>
<path d="M123.735 201.067L123.735 204.934L127.601 204.934L127.601 201.067L123.735 201.067Z" fill="#377D79" fill-opacity="0.5"/>
<path d="M100.535 181.734L100.535 185.601L104.402 185.601L104.402 181.734L104.402 177.867L100.535 177.867L100.535 181.734Z" fill="#377D79" fill-opacity="0.5"/>
<path d="M100.532 189.466L100.532 185.6L96.6651 185.6L96.6651 189.466L92.7983 189.466L92.7983 193.333L96.6651 193.333L100.532 193.333L104.398 193.333L104.398 197.199L104.398 201.066L108.265 201.066L108.265 197.199L112.132 197.199L112.132 193.333L108.265 193.333L108.265 189.466L112.132 189.466L112.132 193.333L115.998 193.333L115.998 189.466L115.998 185.6L112.132 185.6L108.265 185.6L104.398 185.6L104.398 189.466L100.532 189.466Z" fill="#377D79" fill-opacity="0.5"/>
<path d="M112.135 208.799L108.268 208.799L108.268 212.666L104.401 212.666L104.401 216.533L104.401 220.399L108.268 220.399L108.268 216.533L112.135 216.533L112.135 220.399L116.001 220.399L116.001 216.533L116.001 212.666L112.135 212.666L112.135 208.799Z" fill="#377D79" fill-opacity="0.5"/>
<path d="M116 212.667L119.866 212.667L119.866 208.8L119.866 204.933L116 204.933L116 208.8L116 212.667Z" fill="#377D79" fill-opacity="0.5"/>
<path d="M108.265 201.067L108.265 204.934L112.132 204.934L115.999 204.934L115.999 201.067L115.999 197.201L112.132 197.201L112.132 201.067L108.265 201.067Z" fill="#377D79" fill-opacity="0.5"/>
<path d="M181.735 228.133L181.735 232L185.601 232L185.601 228.133L181.735 228.133Z" fill="#377D79" fill-opacity="0.5"/>
<path d="M154.665 0.000749634L150.798 0.000749588L150.798 3.86719L154.665 3.86719L158.532 3.86719L158.532 0.00074968L154.665 0.000749634Z" fill="#377D79" fill-opacity="0.5"/>
<path d="M177.868 81.1995L177.868 85.0659L181.735 85.0659L181.735 81.1995L177.868 81.1995Z" fill="#377D79" fill-opacity="0.5"/>
<path d="M170.132 50.2664L170.132 54.1328L173.999 54.1328L173.999 50.2664L170.132 50.2664Z" fill="#377D79" fill-opacity="0.5"/>
<path d="M170.135 3.86719L170.135 0.00074968L162.401 0.000749588L162.401 3.86719L166.268 3.86719L170.135 3.86719Z" fill="#377D79" fill-opacity="0.5"/>
<path d="M220.401 85.0671L220.401 88.9341L224.268 88.9341L224.268 85.0671L220.401 85.0671Z" fill="#377D79" fill-opacity="0.5"/>
<path d="M166.265 81.1995L166.265 85.0659L170.132 85.0659L170.132 81.1995L166.265 81.1995Z" fill="#377D79" fill-opacity="0.5"/>
<path d="M212.667 185.6L212.667 189.466L216.533 189.466L216.533 185.6L212.667 185.6Z" fill="#377D79" fill-opacity="0.5"/>
<path d="M69.5989 177.866L69.5989 181.733L73.4656 181.733L73.4656 177.866L69.5989 177.866Z" fill="#377D79" fill-opacity="0.5"/>
<path d="M34.7983 135.333L38.6651 135.333L42.5315 135.333L42.5315 131.466L42.5315 127.6L38.6651 127.6L38.6651 131.466L34.7983 131.466L34.7983 135.333Z" fill="#377D79" fill-opacity="0.5"/>
<path d="M73.4651 181.734L73.4651 185.601L77.3318 185.601L77.3318 181.734L73.4651 181.734Z" fill="#377D79" fill-opacity="0.5"/>
<path d="M34.7983 204.933L34.7983 208.799L38.6651 208.799L38.6651 204.933L34.7983 204.933Z" fill="#377D79" fill-opacity="0.5"/>
<path d="M38.6667 100.533L38.6667 104.399L42.5332 104.399L42.5332 100.533L38.6667 100.533Z" fill="#377D79" fill-opacity="0.5"/>
<path d="M34.7983 108.266L34.7983 112.133L38.6651 112.133L38.6651 108.266L34.7983 108.266Z" fill="#377D79" fill-opacity="0.5"/>
<path d="M30.9321 146.934L34.7989 146.934L34.7989 143.067L34.7989 139.201L30.9321 139.201L30.9321 143.067L30.9321 146.934Z" fill="#377D79" fill-opacity="0.5"/>
<path d="M27.0679 224.267L30.9346 224.267L34.8013 224.267L34.8013 220.4L34.8013 216.534L30.9346 216.534L30.9346 220.4L27.0679 220.4L27.0679 224.267Z" fill="#377D79" fill-opacity="0.5"/>
<path d="M42.5349 181.733L46.4016 181.733L50.2684 181.733L50.2684 177.866L46.4016 177.866L46.4016 174L42.5349 174L42.5349 177.866L42.5349 181.733Z" fill="#377D79" fill-opacity="0.5"/>
<path d="M30.9321 170.133L30.9321 174L34.7989 174L34.7989 170.133L30.9321 170.133Z" fill="#377D79" fill-opacity="0.5"/>
<path d="M23.2017 154.667L23.2017 158.534L27.0684 158.534L27.0684 154.667L23.2017 154.667Z" fill="#377D79" fill-opacity="0.5"/>
<path d="M46.4016 224.266L42.5349 224.266L42.5349 228.133L46.4016 228.133L50.2684 228.133L50.2684 224.266L46.4016 224.266Z" fill="#377D79" fill-opacity="0.5"/>
<path d="M50.2654 220.4L50.2654 224.267L54.1321 224.267L54.1321 220.4L50.2654 220.4Z" fill="#377D79" fill-opacity="0.5"/>
<path d="M57.9986 212.667L61.865 212.667L61.865 208.8L57.9986 208.8L54.1318 208.8L54.1318 212.667L57.9986 212.667Z" fill="#377D79" fill-opacity="0.5"/>
<path d="M73.4651 135.334L73.4651 139.201L77.3318 139.201L77.3318 135.334L73.4651 135.334Z" fill="#377D79" fill-opacity="0.5"/>
<path d="M57.9986 224.267L61.865 224.267L65.7317 224.267L69.5984 224.267L69.5984 220.4L69.5984 216.534L65.7317 216.534L65.7317 220.4L61.865 220.4L61.865 216.534L57.9986 216.534L54.1318 216.534L54.1318 220.4L57.9986 220.4L57.9986 224.267Z" fill="#377D79" fill-opacity="0.5"/>
<path d="M58 189.466L58 193.333L61.8664 193.333L61.8664 189.466L58 189.466Z" fill="#377D79" fill-opacity="0.5"/>
<path d="M65.7346 228.133L65.7346 232L69.6013 232L69.6013 228.133L65.7346 228.133Z" fill="#377D79" fill-opacity="0.5"/>
<path d="M65.7349 197.199L61.8682 197.199L61.8682 201.066L65.7349 201.066L69.6016 201.066L69.6016 197.199L65.7349 197.199Z" fill="#377D79" fill-opacity="0.5"/>
<path d="M23.2017 189.466L23.2017 193.333L27.0684 193.333L27.0684 189.466L23.2017 189.466Z" fill="#377D79" fill-opacity="0.5"/>
<path d="M19.3333 201.067L19.3333 204.934L23.1997 204.934L23.1997 201.067L19.3333 201.067Z" fill="#377D79" fill-opacity="0.5"/>
<path d="M15.4651 197.199L15.4651 201.066L19.3318 201.066L19.3318 197.199L15.4651 197.199Z" fill="#377D79" fill-opacity="0.5"/>
<path d="M15.4651 127.6L15.4651 131.466L19.3318 131.466L19.3318 127.6L15.4651 127.6Z" fill="#377D79" fill-opacity="0.5"/>
<path d="M11.5989 154.667L11.5989 158.534L15.4656 158.534L15.4656 154.667L11.5989 154.667Z" fill="#377D79" fill-opacity="0.5"/>
<path d="M11.5989 216.533L11.5989 220.399L15.4656 220.399L15.4656 216.533L11.5989 216.533Z" fill="#377D79" fill-opacity="0.5"/>
<path d="M50.2654 88.9329L50.2654 92.7993L54.1321 92.7993L54.1321 88.9329L50.2654 88.9329Z" fill="#377D79" fill-opacity="0.5"/>
<path d="M7.73462 208.8L7.73462 212.667L11.6013 212.667L11.6013 208.8L7.73462 208.8Z" fill="#377D79" fill-opacity="0.5"/>
<path d="M15.4651 119.866L15.4651 123.733L19.3318 123.733L19.3318 119.866L15.4651 119.866Z" fill="#377D79" fill-opacity="0.5"/>
<path d="M3.86816 204.933L3.86816 208.799L7.73489 208.799L7.73489 204.933L3.86816 204.933Z" fill="#377D79" fill-opacity="0.5"/>
<path d="M54.1318 100.534L57.9986 100.534L57.9986 96.6675L57.9986 92.8005L54.1318 92.8005L54.1318 96.6675L54.1318 100.534Z" fill="#377D79" fill-opacity="0.5"/>
<path d="M61.8682 27.0671L61.8682 30.9341L65.7349 30.9341L65.7349 27.0671L61.8682 27.0671Z" fill="#377D79" fill-opacity="0.5"/>
<path d="M65.7346 123.734L65.7346 127.601L69.6013 127.601L69.6013 123.734L65.7346 123.734Z" fill="#377D79" fill-opacity="0.5"/>
<path d="M50.2684 119.866L50.2684 116L46.4016 116L42.5349 116L42.5349 119.866L42.5349 123.733L46.4016 123.733L46.4016 119.866L50.2684 119.866Z" fill="#377D79" fill-opacity="0.5"/>
<path d="M65.7346 158.533L65.7346 162.399L69.6013 162.399L69.6013 158.533L65.7346 158.533Z" fill="#377D79" fill-opacity="0.5"/>
<path d="M73.4651 146.933L73.4651 150.799L77.3318 150.799L77.3318 146.933L73.4651 146.933Z" fill="#377D79" fill-opacity="0.5"/>
<path d="M69.5989 154.667L69.5989 158.534L73.4656 158.534L73.4656 154.667L73.4656 150.8L69.5989 150.8L69.5989 154.667Z" fill="#377D79" fill-opacity="0.5"/>
<path d="M50.2654 112.133L50.2654 116L54.1321 116L54.1321 112.133L50.2654 112.133Z" fill="#377D79" fill-opacity="0.5"/>
<path d="M42.5349 19.3342L42.5349 23.2007L46.4016 23.2007L46.4016 19.3342L42.5349 19.3342Z" fill="#377D79" fill-opacity="0.5"/>
<path d="M15.4651 146.933L15.4651 150.799L19.3318 150.799L19.3318 146.933L15.4651 146.933Z" fill="#377D79" fill-opacity="0.5"/>
<path d="M46.4011 27.0671L46.4011 30.9341L50.2678 30.9341L50.2678 27.0671L46.4011 27.0671Z" fill="#377D79" fill-opacity="0.5"/>
<path d="M15.4651 135.334L15.4651 139.201L19.3318 139.201L19.3318 135.334L15.4651 135.334Z" fill="#377D79" fill-opacity="0.5"/>
<path d="M46.4011 204.933L46.4011 208.799L50.2678 208.799L50.2678 204.933L46.4011 204.933Z" fill="#377D79" fill-opacity="0.5"/>
<path d="M58 11.5996L58 15.4661L61.8664 15.4661L61.8664 11.5996L58 11.5996Z" fill="#377D79" fill-opacity="0.5"/>
<path d="M58 50.2664L58 54.1328L61.8664 54.1328L61.8664 50.2664L58 50.2664Z" fill="#377D79" fill-opacity="0.5"/>
<path d="M73.4651 27.0671L73.4651 30.9341L77.3318 30.9341L77.3318 27.0671L73.4651 27.0671Z" fill="#377D79" fill-opacity="0.5"/>
<path d="M3.86816 135.334L3.86816 139.201L7.73489 139.201L7.73489 135.334L3.86816 135.334Z" fill="#377D79" fill-opacity="0.5"/>
<path d="M3.86816 119.866L3.86816 123.733L7.73489 123.733L7.73489 119.866L3.86816 119.866Z" fill="#377D79" fill-opacity="0.5"/>
<path d="M27.0679 181.734L27.0679 185.601L30.9346 185.601L30.9346 181.734L27.0679 181.734Z" fill="#377D79" fill-opacity="0.5"/>
<path d="M38.6667 170.133L38.6667 174L42.5332 174L42.5332 170.133L38.6667 170.133Z" fill="#377D79" fill-opacity="0.5"/>
<path d="M23.2017 143.067L23.2017 146.934L27.0684 146.934L27.0684 143.067L23.2017 143.067Z" fill="#377D79" fill-opacity="0.5"/>
<path d="M19.3333 54.133L19.3333 58L23.1997 58L23.1997 54.133L19.3333 54.133Z" fill="#377D79" fill-opacity="0.5"/>
<path d="M23.1997 220.399L19.3333 220.399L19.3333 224.266L19.3333 228.133L23.1997 228.133L23.1997 224.266L23.1997 220.399Z" fill="#377D79" fill-opacity="0.5"/>
<path d="M61.8664 112.133L65.7332 112.133L65.7332 108.266L61.8664 108.266L58 108.266L58 112.133L61.8664 112.133Z" fill="#377D79" fill-opacity="0.5"/>
<path d="M4.61068e-08 96.6675L0 100.534L3.86644 100.534L3.86644 96.6675L4.61068e-08 96.6675Z" fill="#377D79" fill-opacity="0.5"/>
<path d="M4.61068e-08 30.9329L0 34.7993L3.86644 34.7993L3.86644 30.9329L4.61068e-08 30.9329Z" fill="#377D79" fill-opacity="0.5"/>
<path d="M4.61136e-08 112.133L0 116L3.86644 116L3.86644 112.133L4.61136e-08 112.133Z" fill="#377D79" fill-opacity="0.5"/>
<path d="M7.73316 189.467L3.86644 189.467L9.22204e-08 189.467L4.61068e-08 193.334L3.86644 193.334L3.86644 197.201L7.73316 197.201L7.73316 193.334L7.73316 189.467Z" fill="#377D79" fill-opacity="0.5"/>
<path d="M7.73489 146.933L3.86816 146.933L3.86816 150.799L7.73489 150.799L11.6016 150.799L11.6016 146.933L7.73489 146.933Z" fill="#377D79" fill-opacity="0.5"/>
<path d="M4.61068e-08 158.533L0 162.399L3.86644 162.399L3.86644 158.533L4.61068e-08 158.533Z" fill="#377D79" fill-opacity="0.5"/>
<path d="M54.1318 0.000749588L54.1318 3.86719L57.9986 3.86719L57.9986 0.000749634L54.1318 0.000749588Z" fill="#377D79" fill-opacity="0.5"/>
<path d="M11.5989 177.866L11.5989 181.733L15.4656 181.733L15.4656 177.866L11.5989 177.866Z" fill="#377D79" fill-opacity="0.5"/>
<path d="M7.73489 174.001L3.86816 174.001L3.86816 177.867L7.73489 177.867L11.6016 177.867L11.6016 174.001L7.73489 174.001Z" fill="#377D79" fill-opacity="0.5"/>
<path d="M3.86644 224.266L4.61068e-08 224.266L0 228.133L3.86644 228.133L7.73316 228.133L7.73316 224.266L3.86644 224.266Z" fill="#377D79" fill-opacity="0.5"/>
<path d="M19.3333 27.0671L19.3333 30.9341L23.1997 30.9341L23.1997 27.0671L19.3333 27.0671Z" fill="#377D79" fill-opacity="0.5"/>
<path d="M46.4016 162.4L42.5349 162.4L42.5349 166.267L46.4016 166.267L50.2684 166.267L50.2684 162.4L46.4016 162.4Z" fill="#377D79" fill-opacity="0.5"/>
<path d="M46.4011 143.067L46.4011 146.934L50.2678 146.934L50.2678 143.067L46.4011 143.067Z" fill="#377D79" fill-opacity="0.5"/>
<path d="M38.6667 212.667L38.6667 216.534L42.5332 216.534L42.5332 212.667L38.6667 212.667Z" fill="#377D79" fill-opacity="0.5"/>
<path d="M73.4651 100.533L73.4651 104.399L77.3318 104.399L77.3318 100.533L73.4651 100.533Z" fill="#377D79" fill-opacity="0.5"/>
<path d="M69.5989 42.5327L69.5989 46.3992L73.4656 46.3992L73.4656 42.5327L69.5989 42.5327Z" fill="#377D79" fill-opacity="0.5"/>
<path d="M38.6667 185.6L38.6667 189.466L42.5332 189.466L42.5332 185.6L38.6667 185.6Z" fill="#377D79" fill-opacity="0.5"/>
<path d="M42.5349 193.334L42.5349 197.201L46.4016 197.201L46.4016 193.334L42.5349 193.334Z" fill="#377D79" fill-opacity="0.5"/>
<path d="M42.5349 201.067L42.5349 204.934L46.4016 204.934L46.4016 201.067L42.5349 201.067Z" fill="#377D79" fill-opacity="0.5"/>
<path d="M38.6667 139.199L38.6667 143.066L42.5332 143.066L42.5332 139.199L38.6667 139.199Z" fill="#377D79" fill-opacity="0.5"/>
<path d="M65.7346 185.6L65.7346 189.466L69.6013 189.466L69.6013 185.6L65.7346 185.6Z" fill="#377D79" fill-opacity="0.5"/>
<path d="M38.6667 85.0671L38.6667 88.9341L42.5332 88.9341L42.5332 85.0671L38.6667 85.0671Z" fill="#377D79" fill-opacity="0.5"/>
<path d="M30.9321 58.0007L30.9321 61.8672L34.7989 61.8672L34.7989 58.0007L30.9321 58.0007Z" fill="#377D79" fill-opacity="0.5"/>
<path d="M30.9321 3.86623L30.9321 7.73267L34.7989 7.73267L34.7989 3.86623L30.9321 3.86623Z" fill="#377D79" fill-opacity="0.5"/>
<path d="M27.0679 30.9329L27.0679 34.7993L30.9346 34.7993L30.9346 30.9329L27.0679 30.9329Z" fill="#377D79" fill-opacity="0.5"/>
<path d="M34.7983 69.5996L34.7983 73.4661L38.6651 73.4661L38.6651 69.5996L34.7983 69.5996Z" fill="#377D79" fill-opacity="0.5"/>
<path d="M54.1318 158.533L54.1318 162.399L57.9986 162.399L57.9986 158.533L54.1318 158.533Z" fill="#377D79" fill-opacity="0.5"/>
<path d="M61.865 177.867L65.7317 177.867L65.7317 174.001L65.7317 170.134L61.865 170.134L57.9986 170.134L54.1318 170.134L54.1318 174.001L54.1318 177.867L57.9986 177.867L57.9986 174.001L61.865 174.001L61.865 177.867Z" fill="#377D79" fill-opacity="0.5"/>
<path d="M54.1321 131.467L50.2654 131.467L50.2654 135.334L50.2654 139.201L54.1321 139.201L54.1321 135.334L54.1321 131.467Z" fill="#377D79" fill-opacity="0.5"/>
<path d="M54.1318 143.067L54.1318 146.934L57.9986 146.934L57.9986 143.067L61.865 143.067L61.865 139.201L61.865 135.334L57.9986 135.334L57.9986 139.201L54.1318 139.201L54.1318 143.067Z" fill="#377D79" fill-opacity="0.5"/>
<path d="M27.0679 104.4L27.0679 108.267L30.9346 108.267L30.9346 104.4L27.0679 104.4Z" fill="#377D79" fill-opacity="0.5"/>
<path d="M278.399 2.02882e-06L231.999 1.47551e-06L228.132 1.4294e-06L228.132 3.86644L220.399 3.86644L220.399 1.33718e-06L212.665 1.24496e-06L212.665 3.86644L216.532 3.86644L216.532 7.73288L220.399 7.73288L220.399 11.5999L216.532 11.5999L216.532 7.73288L208.799 7.73288L208.799 11.5999L212.665 11.5999L212.665 15.4663L216.532 15.4663L216.532 19.3333L212.665 19.3333L212.665 15.4663L208.799 15.4663L208.799 11.5999L204.932 11.5999L204.932 19.3333L197.199 19.3333L197.199 15.4663L185.599 15.4663L185.599 11.5999L193.332 11.5999L193.332 7.73288L201.065 7.73288L201.065 11.5999L204.932 11.5999L204.932 3.86644L208.799 3.86644L208.799 1.19885e-06L201.065 1.10663e-06L201.065 3.86644L197.199 3.86644L197.199 1.06052e-06L185.599 9.22191e-07L185.599 3.86644L189.465 3.86644L189.465 7.73288L185.599 7.73288L185.599 3.86644L177.865 3.86644L177.865 8.2997e-07L173.999 7.83863e-07L173.999 3.86644L170.132 3.86644L170.132 7.73288L162.399 7.73288L162.399 3.86644L158.532 3.86644L158.532 15.4663L154.665 15.4663L154.665 23.1998L150.799 23.1998L150.799 11.5999L154.665 11.5999L154.665 7.73288L146.932 7.73288L146.932 4.61095e-07L143.065 4.14985e-07L143.065 3.86644L139.199 3.86644L139.199 7.73288L143.065 7.73288L143.065 11.5999L139.199 11.5999L139.199 15.4663L135.332 15.4663L135.332 23.1998L146.932 23.1998L146.932 27.0662L154.665 27.0662L154.665 38.6667L158.532 38.6667L158.532 42.5331L162.399 42.5331L162.399 46.3995L158.532 46.3995L158.532 42.5331L146.932 42.5331L146.932 38.6667L150.799 38.6667L150.799 34.7997L146.932 34.7997L146.932 27.0662L143.065 27.0662L143.065 34.7997L139.199 34.7997L139.199 38.6667L131.465 38.6667L131.465 46.3995L135.332 46.3995L135.332 42.5331L139.199 42.5331L139.199 46.3995L154.665 46.3995L154.665 50.2666L158.532 50.2666L158.532 54.133L162.399 54.133L162.399 58L154.665 58L154.665 61.8664L170.132 61.8664L170.132 54.133L166.265 54.133L166.265 50.2666L170.132 50.2666L170.132 46.3995L173.999 46.3995L173.999 42.5331L177.865 42.5331L177.865 46.3995L173.999 46.3995L173.999 50.2666L177.865 50.2666L177.865 54.133L173.999 54.133L173.999 58L177.865 58L177.865 61.8664L170.132 61.8664L170.132 65.7329L154.665 65.7329L154.665 69.5999L150.799 69.5999L150.799 73.4663L143.065 73.4663L143.065 77.3333L139.199 77.3333L139.199 81.1998L131.465 81.1998L131.465 73.4663L127.599 73.4663L127.599 69.5999L123.732 69.5999L123.732 77.3333L119.865 77.3333L119.865 69.5999L115.999 69.5999L115.999 73.4663L108.265 73.4663L108.265 85.0662L112.132 85.0662L112.132 81.1998L127.599 81.1998L127.599 85.0662L135.332 85.0662L135.332 88.9332L143.065 88.9332L143.065 96.6667L146.932 96.6667L146.932 92.7997L150.799 92.7997L150.799 88.9332L146.932 88.9332L146.932 81.1998L150.799 81.1998L150.799 77.3333L154.665 77.3333L154.665 73.4663L158.532 73.4663L158.532 77.3333L154.665 77.3333L154.665 81.1998L150.799 81.1998L150.799 85.0662L158.532 85.0662L158.532 88.9332L154.665 88.9332L154.665 96.6667L150.799 96.6667L150.799 100.533L154.665 100.533L154.665 104.4L162.399 104.4L162.399 108.267L154.665 108.267L154.665 112.133L139.199 112.133L139.199 108.267L135.332 108.267L135.332 119.866L139.199 119.866L139.199 116L158.532 116L158.532 119.866L154.665 119.866L154.665 123.733L158.532 123.733L158.532 127.6L150.799 127.6L150.799 123.733L146.932 123.733L146.932 119.866L143.065 119.866L143.065 127.6L146.932 127.6L146.932 131.466L150.799 131.466L150.799 143.066L154.665 143.066L154.665 150.8L150.799 150.8L150.799 154.667L154.665 154.667L154.665 158.533L146.932 158.533L146.932 150.8L143.065 150.8L143.065 162.4L154.665 162.4L154.665 170.133L158.532 170.133L158.532 174L154.665 174L154.665 208.8L150.799 208.8L150.799 193.333L143.065 193.333L143.065 197.2L146.932 197.2L146.932 212.667L154.665 212.667L154.665 224.267L146.932 224.267L146.932 228.133L150.799 228.133L150.799 232L154.665 232L154.665 228.133L158.532 228.133L158.532 232L177.865 232L177.865 228.133L181.732 228.133L181.732 224.267L185.599 224.267L185.599 228.133L189.465 228.133L189.465 232L231.999 232L309.332 232L309.332 2.3977e-06L282.265 2.07493e-06L282.265 3.86644L278.399 3.86644L278.399 2.02882e-06ZM143.065 19.3333L143.065 15.4663L146.932 15.4663L146.932 19.3333L143.065 19.3333ZM224.265 15.4663L224.265 11.5999L228.132 11.5999L228.132 15.4663L224.265 15.4663ZM166.265 19.3333L166.265 11.5999L173.999 11.5999L173.999 15.4663L170.132 15.4663L170.132 19.3333L166.265 19.3333ZM158.532 27.0662L158.532 23.1998L162.399 23.1998L162.399 27.0662L158.532 27.0662ZM166.265 38.6667L162.399 38.6667L162.399 34.7997L158.532 34.7997L158.532 30.9332L162.399 30.9332L162.399 34.7997L170.132 34.7997L170.132 23.1998L173.999 23.1998L173.999 27.0662L177.865 27.0662L177.865 19.3333L181.732 19.3333L181.732 23.1998L193.332 23.1998L193.332 27.0662L197.199 27.0662L197.199 23.1998L201.065 23.1998L201.065 27.0662L204.932 27.0662L204.932 30.9332L208.799 30.9332L208.799 38.6667L212.665 38.6667L212.665 42.5331L208.799 42.5331L208.799 46.3995L212.665 46.3995L212.665 50.2666L208.799 50.2666L208.799 46.3995L204.932 46.3995L204.932 42.5331L208.799 42.5331L208.799 38.6667L204.932 38.6667L204.932 30.9332L201.065 30.9332L201.065 27.0662L197.199 27.0662L197.199 34.7997L201.065 34.7997L201.065 38.6667L197.199 38.6667L197.199 34.7997L193.332 34.7997L193.332 27.0662L177.865 27.0662L177.865 34.7997L170.132 34.7997L170.132 38.6667L166.265 38.6667ZM216.532 42.5331L220.399 42.5331L220.399 46.3995L216.532 46.3995L216.532 42.5331ZM181.732 42.5331L181.732 38.6667L185.599 38.6667L185.599 34.7997L189.465 34.7997L189.465 38.6667L185.599 38.6667L185.599 42.5331L181.732 42.5331ZM193.332 50.2666L189.465 50.2666L189.465 42.5331L193.332 42.5331L193.332 46.3995L197.199 46.3995L197.199 50.2666L201.065 50.2666L201.065 54.133L193.332 54.133L193.332 50.2666ZM185.599 58L181.732 58L181.732 54.133L189.465 54.133L189.465 58L185.599 58ZM201.065 61.8664L201.065 58L204.932 58L204.932 61.8664L201.065 61.8664ZM212.665 61.8664L216.532 61.8664L216.532 65.7329L220.399 65.7329L220.399 69.5999L216.532 69.5999L216.532 65.7329L212.665 65.7329L212.665 61.8664ZM201.065 81.1998L193.332 81.1998L193.332 77.3333L189.465 77.3333L189.465 73.4663L193.332 73.4663L193.332 77.3333L201.065 77.3333L201.065 81.1998ZM204.932 77.3333L204.932 65.7329L208.799 65.7329L208.799 77.3333L204.932 77.3333ZM193.332 65.7329L197.199 65.7329L197.199 69.5999L193.332 69.5999L193.332 65.7329ZM173.999 88.9332L173.999 85.0662L170.132 85.0662L170.132 88.9332L162.399 88.9332L162.399 81.1998L166.265 81.1998L166.265 73.4663L170.132 73.4663L170.132 69.5999L173.999 69.5999L173.999 73.4663L170.132 73.4663L170.132 81.1998L177.865 81.1998L177.865 77.3333L181.732 77.3333L181.732 81.1998L189.465 81.1998L189.465 85.0662L181.732 85.0662L181.732 88.9332L177.865 88.9332L177.865 92.7997L173.999 92.7997L173.999 88.9332ZM166.265 104.4L166.265 96.6667L162.399 96.6667L162.399 92.7997L170.132 92.7997L170.132 104.4L166.265 104.4ZM204.932 100.533L201.065 100.533L201.065 96.6667L204.932 96.6667L204.932 92.7997L208.799 92.7997L208.799 96.6667L216.532 96.6667L216.532 100.533L208.799 100.533L208.799 96.6667L204.932 96.6667L204.932 100.533ZM181.732 100.533L173.999 100.533L173.999 96.6667L181.732 96.6667L181.732 100.533ZM181.732 112.133L166.265 112.133L166.265 108.267L173.999 108.267L173.999 104.4L177.865 104.4L177.865 108.267L181.732 108.267L181.732 112.133L185.599 112.133L185.599 116L189.465 116L189.465 119.866L193.332 119.866L193.332 116L197.199 116L197.199 112.133L193.332 112.133L193.332 104.4L197.199 104.4L197.199 112.133L201.065 112.133L201.065 123.733L197.199 123.733L197.199 119.866L193.332 119.866L193.332 123.733L189.465 123.733L189.465 119.866L185.599 119.866L185.599 116L181.732 116L181.732 112.133ZM185.599 139.2L181.732 139.2L181.732 135.333L185.599 135.333L185.599 131.466L189.465 131.466L189.465 135.333L193.332 135.333L193.332 139.2L189.465 139.2L189.465 135.333L185.599 135.333L185.599 139.2ZM197.199 127.6L201.065 127.6L201.065 131.466L197.199 131.466L197.199 127.6ZM197.199 135.333L201.065 135.333L201.065 139.2L204.932 139.2L204.932 135.333L208.799 135.333L208.799 139.2L204.932 139.2L204.932 143.066L201.065 143.066L201.065 139.2L197.199 139.2L197.199 135.333ZM220.399 139.2L220.399 135.333L224.265 135.333L224.265 139.2L220.399 139.2ZM228.132 123.733L228.132 127.6L224.265 127.6L224.265 123.733L220.399 123.733L220.399 127.6L216.532 127.6L216.532 131.466L212.665 131.466L212.665 123.733L220.399 123.733L220.399 119.866L224.265 119.866L224.265 123.733L228.132 123.733ZM162.399 123.733L166.265 123.733L166.265 127.6L170.132 127.6L170.132 119.866L173.999 119.866L173.999 116L177.865 116L177.865 119.866L181.732 119.866L181.732 123.733L177.865 123.733L177.865 119.866L173.999 119.866L173.999 127.6L181.732 127.6L181.732 131.466L177.865 131.466L177.865 139.2L173.999 139.2L173.999 127.6L170.132 127.6L170.132 131.466L166.265 131.466L166.265 135.333L162.399 135.333L162.399 123.733ZM166.265 139.2L170.132 139.2L170.132 143.066L166.265 143.066L166.265 139.2ZM158.532 146.933L158.532 143.066L162.399 143.066L162.399 146.933L158.532 146.933ZM181.732 146.933L173.999 146.933L173.999 143.066L185.599 143.066L185.599 146.933L181.732 146.933ZM189.465 146.933L189.465 143.066L193.332 143.066L193.332 146.933L189.465 146.933ZM224.265 146.933L220.399 146.933L220.399 143.066L228.132 143.066L228.132 146.933L224.265 146.933ZM173.999 170.133L173.999 166.267L177.865 166.267L177.865 162.4L173.999 162.4L173.999 158.533L170.132 158.533L170.132 162.4L162.399 162.4L162.399 166.267L158.532 166.267L158.532 162.4L162.399 162.4L162.399 158.533L170.132 158.533L170.132 154.667L173.999 154.667L173.999 158.533L177.865 158.533L177.865 150.8L181.732 150.8L181.732 158.533L177.865 158.533L177.865 162.4L181.732 162.4L181.732 166.267L177.865 166.267L177.865 170.133L173.999 170.133ZM212.665 181.733L216.532 181.733L216.532 185.6L220.399 185.6L220.399 189.466L216.532 189.466L216.532 193.333L220.399 193.333L220.399 197.2L216.532 197.2L216.532 193.333L212.665 193.333L212.665 189.466L208.799 189.466L208.799 185.6L212.665 185.6L212.665 181.733ZM201.065 177.866L204.932 177.866L204.932 181.733L201.065 181.733L201.065 185.6L197.199 185.6L197.199 181.733L201.065 181.733L201.065 177.866ZM224.265 174L228.132 174L228.132 177.866L224.265 177.866L224.265 174ZM201.065 170.133L204.932 170.133L204.932 174L197.199 174L197.199 170.133L201.065 170.133ZM224.265 166.267L228.132 166.267L228.132 170.133L224.265 170.133L224.265 166.267ZM189.465 158.533L189.465 162.4L185.599 162.4L185.599 158.533L189.465 158.533ZM216.532 154.667L220.399 154.667L220.399 158.533L216.532 158.533L216.532 154.667ZM193.332 158.533L197.199 158.533L197.199 162.4L193.332 162.4L193.332 158.533ZM224.265 158.533L228.132 158.533L228.132 162.4L224.265 162.4L224.265 158.533ZM208.799 162.4L208.799 166.267L204.932 166.267L204.932 162.4L208.799 162.4ZM189.465 174L189.465 170.133L185.599 170.133L185.599 166.267L189.465 166.267L189.465 170.133L193.332 170.133L193.332 181.733L185.599 181.733L185.599 177.866L189.465 177.866L189.465 174ZM166.265 189.466L166.265 181.733L170.132 181.733L170.132 189.466L166.265 189.466ZM173.999 189.466L173.999 185.6L177.865 185.6L177.865 189.466L173.999 189.466ZM197.199 189.466L201.065 189.466L201.065 193.333L197.199 193.333L197.199 189.466ZM166.265 201.066L166.265 197.2L170.132 197.2L170.132 201.066L166.265 201.066ZM185.599 201.066L181.732 201.066L181.732 193.333L185.599 193.333L185.599 197.2L189.465 197.2L189.465 193.333L193.332 193.333L193.332 197.2L189.465 197.2L189.465 201.066L185.599 201.066ZM204.932 201.066L212.665 201.066L212.665 204.933L216.532 204.933L216.532 208.8L212.665 208.8L212.665 204.933L204.932 204.933L204.932 201.066ZM170.132 212.667L170.132 208.8L173.999 208.8L173.999 216.533L170.132 216.533L170.132 212.667ZM185.599 216.533L181.732 216.533L181.732 212.667L177.865 212.667L177.865 208.8L181.732 208.8L181.732 212.667L185.599 212.667L185.599 216.533ZM189.465 212.667L193.332 212.667L193.332 216.533L189.465 216.533L189.465 212.667ZM158.532 220.4L158.532 216.533L162.399 216.533L162.399 220.4L158.532 220.4ZM201.065 220.4L201.065 216.533L197.199 216.533L197.199 212.667L201.065 212.667L201.065 208.8L197.199 208.8L197.199 204.933L201.065 204.933L201.065 208.8L204.932 208.8L204.932 212.667L201.065 212.667L201.065 216.533L204.932 216.533L204.932 220.4L201.065 220.4ZM170.132 228.133L166.265 228.133L166.265 224.267L170.132 224.267L170.132 228.133ZM208.799 228.133L208.799 224.267L212.665 224.267L212.665 228.133L208.799 228.133ZM231.999 212.667L224.265 212.667L224.265 208.8L231.999 208.8L231.999 212.667ZM293.865 177.866L293.865 181.733L289.999 181.733L289.999 177.866L293.865 177.866ZM282.265 174L282.265 177.866L274.532 177.866L274.532 174L282.265 174ZM297.732 146.933L297.732 150.8L293.865 150.8L293.865 146.933L297.732 146.933ZM286.132 146.933L286.132 150.8L282.265 150.8L282.265 146.933L286.132 146.933ZM243.599 143.066L243.599 146.933L239.732 146.933L239.732 143.066L243.599 143.066ZM231.999 139.2L228.132 139.2L228.132 135.333L231.999 135.333L231.999 139.2ZM231.999 119.866L228.132 119.866L228.132 116L224.265 116L224.265 112.133L220.399 112.133L220.399 116L216.532 116L216.532 119.866L212.665 119.866L212.665 116L216.532 116L216.532 112.133L220.399 112.133L220.399 104.4L224.265 104.4L224.265 112.133L231.999 112.133L231.999 119.866ZM251.332 100.533L251.332 108.267L243.599 108.267L243.599 104.4L247.465 104.4L247.465 100.533L251.332 100.533ZM231.999 96.6667L220.399 96.6667L220.399 88.9332L216.532 88.9332L216.532 92.7997L212.665 92.7997L212.665 85.0662L208.799 85.0662L208.799 88.9332L204.932 88.9332L204.932 85.0662L208.799 85.0662L208.799 81.1998L212.665 81.1998L212.665 85.0662L216.532 85.0662L216.532 81.1998L224.265 81.1998L224.265 85.0662L228.132 85.0662L228.132 92.7997L231.999 92.7997L231.999 96.6667ZM231.999 73.4663L224.265 73.4663L224.265 69.5999L228.132 69.5999L228.132 65.7329L231.999 65.7329L231.999 73.4663ZM224.265 61.8664L220.399 61.8664L220.399 58L216.532 58L216.532 54.133L220.399 54.133L220.399 58L224.265 58L224.265 50.2666L228.132 50.2666L228.132 54.133L231.999 54.133L231.999 58L224.265 58L224.265 61.8664ZM262.932 50.2666L262.932 54.133L259.065 54.133L259.065 50.2666L262.932 50.2666ZM251.332 42.5331L251.332 46.3995L247.465 46.3995L247.465 42.5331L251.332 42.5331ZM231.999 38.6667L228.132 38.6667L228.132 42.5331L224.265 42.5331L224.265 38.6667L228.132 38.6667L228.132 34.7997L220.399 34.7997L220.399 38.6667L216.532 38.6667L216.532 34.7997L220.399 34.7997L220.399 27.0662L224.265 27.0662L224.265 30.9332L228.132 30.9332L228.132 34.7997L231.999 34.7997L231.999 38.6667ZM231.999 23.1998L228.132 23.1998L228.132 19.3333L231.999 19.3333L231.999 23.1998ZM305.465 11.5999L305.465 15.4663L301.599 15.4663L301.599 11.5999L305.465 11.5999Z" fill="#377D79" fill-opacity="0.5"/>
</svg>
