<svg width="59" height="53" viewBox="0 0 59 53" fill="none" xmlns="http://www.w3.org/2000/svg">
<path d="M45.6147 3.25977H42.355V6.51951H45.6147V3.25977Z" fill="#377D79"/>
<path d="M48.8701 6.51514H45.6104V9.77488H48.8701V6.51514Z" fill="#377D79"/>
<path d="M32.5801 29.3203H29.3203V32.5801H32.5801V29.3203Z" fill="#377D79"/>
<path d="M6.51514 3.25975H3.25975V6.51514H6.51514V9.77489V13.0303H3.25975H0V16.29H3.25975V19.5498H0V22.8052V26.0649H3.25975V29.3203H6.51514V26.0649H9.77489H13.0303V22.8052H9.77489V19.5498H6.51514V16.29H9.77489V13.0303H13.0303V16.29H9.77489V19.5498H13.0303V22.8052H16.29V19.5498H19.5498V22.8052H22.8052H26.0649V19.5498H29.3203V16.29H26.0649V13.0303V9.77489H22.8052V13.0303V16.29H19.5498V13.0303V9.77489H22.8052V6.51514H19.5498H16.29H13.0303V3.25975H9.77489V0H6.51514V3.25975Z" fill="#377D79"/>
<path d="M35.8355 6.51516V9.77491V13.0303H32.5801V9.77491V6.51516H29.3203V9.77491V13.0303V16.29H32.5801V19.5498V22.8052H35.8355V19.5498V16.29H39.0952V19.5498V22.8052H42.3549H45.6103V26.0649H48.8701H52.1255V22.8052H48.8701V19.5498H52.1255H55.3852V16.29V13.0303H58.6406V9.77491H55.3852H52.1255V13.0303H48.8701V16.29H45.6103V19.5498H42.3549V16.29H45.6103V13.0303H42.3549H39.0952V9.77491V6.51516V3.25977H35.8355H32.5801V6.51516H35.8355Z" fill="#377D79"/>
<path d="M39.0952 26.0649V29.3203H35.8355V32.5801H32.5801V35.8355H35.8355H39.0952H42.355V39.0952H45.6104V42.3506H48.8701V45.6104V48.8701V52.1255H52.1255V48.8701V45.6104V42.3506V39.0952H48.8701V35.8355V32.5801H52.1255V29.3203H48.8701H45.6104V26.0649H42.355H39.0952Z" fill="#377D79"/>
</svg>
