<svg width="432" height="852" viewBox="0 0 432 852" fill="none" xmlns="http://www.w3.org/2000/svg">
<path d="M-21.8887 656.411V663.387V670.364V677.341H-14.9119H-7.9352V670.364H-14.9119V663.387H-7.9352V670.364H-0.958469H6.01791V663.387H-0.958469V656.411V649.434H-7.9352H-14.9119V656.411H-21.8887Z" fill="#377D79" fill-opacity="0.5"/>
<path d="M-0.966797 803.038V810.044H6.00958H13.0153V803.038H6.00958H-0.966797Z" fill="#377D79" fill-opacity="0.5"/>
<path d="M6.00958 48.8652H-0.966797V55.8416H6.00958V48.8652Z" fill="#377D79" fill-opacity="0.5"/>
<path d="M6.00958 817.02H-0.966797V823.997H6.00958H13.0153H19.992V817.02H13.0153H6.00958Z" fill="#377D79" fill-opacity="0.5"/>
<path d="M6.00958 705.276V698.299H-0.966797V705.276V712.281H6.00958H13.0153V705.276H6.00958Z" fill="#377D79" fill-opacity="0.5"/>
<path d="M13.013 328.191H6.00732V335.168V342.173H13.013H19.9898V335.168H13.013V328.191Z" fill="#377D79" fill-opacity="0.5"/>
<path d="M12.9841 258.367H6.00732V265.343H12.9841V258.367Z" fill="#377D79" fill-opacity="0.5"/>
<path d="M6.00958 174.562V181.538V188.544H13.0153V181.538V174.562H19.992V167.585V160.609H13.0153H6.00958H-0.966797V167.585H6.00958V174.562Z" fill="#377D79" fill-opacity="0.5"/>
<path d="M6.02001 139.65H-0.956372V132.673H-7.93311V139.65V146.626H-0.956372H6.02001H13.0257V139.65H6.02001Z" fill="#377D79" fill-opacity="0.5"/>
<path d="M12.9841 125.695H6.00732V132.672H12.9841V125.695Z" fill="#377D79" fill-opacity="0.5"/>
<path d="M13.0153 104.735V97.7583H6.00958H-0.966797V104.735H6.00958H13.0153Z" fill="#377D79" fill-opacity="0.5"/>
<path d="M6.02001 27.9052V34.9105H-0.956372H-7.93311V41.8872H-0.956372H6.02001H13.0257V34.9105H20.0025V27.9052H13.0257H6.02001Z" fill="#377D79" fill-opacity="0.5"/>
<path d="M12.9841 0H6.00732V6.97638H12.9841V0Z" fill="#377D79" fill-opacity="0.5"/>
<path d="M19.9992 796.06H13.0225V803.037H19.9992V796.06Z" fill="#377D79" fill-opacity="0.5"/>
<path d="M19.9898 775.129H13.013H6.00732V782.106V789.082H13.013H19.9898V782.106V775.129Z" fill="#377D79" fill-opacity="0.5"/>
<path d="M13.013 740.189H6.00732V747.194H13.013H19.9898V740.189H13.013Z" fill="#377D79" fill-opacity="0.5"/>
<path d="M19.9992 698.299H13.0225V705.276H19.9992V698.299Z" fill="#377D79" fill-opacity="0.5"/>
<path d="M13.0153 684.347V677.342H6.00958H-0.966797V684.347H6.00958V691.324H13.0153H19.992V684.347H13.0153Z" fill="#377D79" fill-opacity="0.5"/>
<path d="M19.9992 670.366H26.9756V663.389H19.9992V656.413H13.0225V663.389V670.366V677.342H19.9992V670.366Z" fill="#377D79" fill-opacity="0.5"/>
<path d="M19.9992 551.647H13.0225V558.623H19.9992V551.647Z" fill="#377D79" fill-opacity="0.5"/>
<path d="M19.9992 321.216H13.0225V328.192H19.9992V321.216Z" fill="#377D79" fill-opacity="0.5"/>
<path d="M19.9992 272.323H13.0225V279.299H19.9992V272.323Z" fill="#377D79" fill-opacity="0.5"/>
<path d="M19.9992 146.625H13.0225V153.602H19.9992V146.625Z" fill="#377D79" fill-opacity="0.5"/>
<path d="M19.9992 111.712H13.0225V118.689H19.9992V111.712Z" fill="#377D79" fill-opacity="0.5"/>
<path d="M13.013 55.8416H6.00732V62.8473V69.8241V76.8004H13.013V69.8241V62.8473H19.9898V55.8416V48.8652H13.013V55.8416Z" fill="#377D79" fill-opacity="0.5"/>
<path d="M13.0225 20.9303H19.9992V13.9535V6.97681H13.0225V13.9535V20.9303Z" fill="#377D79" fill-opacity="0.5"/>
<path d="M26.9764 830.971H20V837.948H26.9764V830.971Z" fill="#377D79" fill-opacity="0.5"/>
<path d="M26.9764 789.084H20V796.06H26.9764V789.084Z" fill="#377D79" fill-opacity="0.5"/>
<path d="M26.9764 747.195H20V754.172H26.9764V747.195Z" fill="#377D79" fill-opacity="0.5"/>
<path d="M26.9764 733.214H20V740.19H26.9764V733.214Z" fill="#377D79" fill-opacity="0.5"/>
<path d="M26.9764 691.322H20V698.299H26.9764V691.322Z" fill="#377D79" fill-opacity="0.5"/>
<path d="M26.9764 328.191H20V335.168H26.9764V328.191Z" fill="#377D79" fill-opacity="0.5"/>
<path d="M26.9756 244.382V251.388H19.9992V244.382H13.0225V251.388V258.365H19.9992V265.341H26.9756H33.9523H40.958H47.9344V272.318H40.958H33.9523V279.324H26.9756V286.3H33.9523H40.958V279.324H47.9344H54.9111V272.318H61.8879V265.341V258.365V251.388V244.382H68.8936H75.87V237.406H68.8936H61.8879V230.429H54.9111H47.9344V237.406H54.9111V244.382V251.388H47.9344V258.365H40.958H33.9523V251.388H40.958H47.9344V244.382V237.406H40.958H33.9523H26.9756H19.9992V244.382H26.9756Z" fill="#377D79" fill-opacity="0.5"/>
<path d="M26.9764 174.56H20V181.537H26.9764V174.56Z" fill="#377D79" fill-opacity="0.5"/>
<path d="M26.9764 118.69H20V125.666H26.9764V118.69Z" fill="#377D79" fill-opacity="0.5"/>
<path d="M26.9764 41.8876H20V48.8643H26.9764V41.8876Z" fill="#377D79" fill-opacity="0.5"/>
<path d="M26.9764 27.907V34.9124H33.9531V27.907H40.9588V20.9303H33.9531H26.9764H20V27.907H26.9764Z" fill="#377D79" fill-opacity="0.5"/>
<path d="M33.9531 817.019H40.9588V810.042H33.9531V803.037V796.06H26.9764V803.037V810.042H20V817.019H26.9764H33.9531Z" fill="#377D79" fill-opacity="0.5"/>
<path d="M33.9509 782.107H26.9741V789.084H33.9509V782.107Z" fill="#377D79" fill-opacity="0.5"/>
<path d="M26.9741 684.348H33.9509H40.9566V677.343H47.9329V670.366H40.9566H33.9509H26.9741V677.343V684.348Z" fill="#377D79" fill-opacity="0.5"/>
<path d="M33.9509 642.429H26.9741V649.406H33.9509V642.429Z" fill="#377D79" fill-opacity="0.5"/>
<path d="M26.9741 544.67V551.647H33.9509H40.9566V544.67H33.9509H26.9741Z" fill="#377D79" fill-opacity="0.5"/>
<path d="M26.9741 230.433H33.9509H40.9566V223.456H33.9509V216.479H26.9741V223.456V230.433Z" fill="#377D79" fill-opacity="0.5"/>
<path d="M33.9531 160.608H40.9588H47.9352V153.632H40.9588V146.626H33.9531V139.65H26.9764H20V146.626H26.9764V153.632H20V160.608H26.9764H33.9531Z" fill="#377D79" fill-opacity="0.5"/>
<path d="M33.9509 104.735H26.9741V111.712H33.9509V104.735Z" fill="#377D79" fill-opacity="0.5"/>
<path d="M40.9245 823.994H33.9478V830.971H40.9245V823.994Z" fill="#377D79" fill-opacity="0.5"/>
<path d="M33.9509 768.124H26.9741V775.13H33.9509H40.9566V768.124H33.9509Z" fill="#377D79" fill-opacity="0.5"/>
<path d="M40.9604 733.211V740.188H47.9368V747.165H40.9604V754.142H54.9136V747.165H82.8491V740.188H75.8724V733.211H61.9193V719.258H54.9425V712.282H47.9658V719.258H40.9894V726.235H34.0127V719.258H27.036V712.282H20.0596V726.235H27.036V733.211H40.9894H40.9604ZM54.9136 726.235V733.211H47.9368V726.235H54.9136Z" fill="#377D79" fill-opacity="0.5"/>
<path d="M40.9245 712.282H33.9478V719.258H40.9245V712.282Z" fill="#377D79" fill-opacity="0.5"/>
<path d="M40.9245 649.434H33.9478V656.411H40.9245V649.434Z" fill="#377D79" fill-opacity="0.5"/>
<path d="M40.9245 209.475H33.9478V216.451H40.9245V209.475Z" fill="#377D79" fill-opacity="0.5"/>
<path d="M40.9245 111.712H33.9478V118.689H40.9245V111.712Z" fill="#377D79" fill-opacity="0.5"/>
<path d="M33.9509 48.8643H26.9741V55.8407V62.8464V69.8231V76.7995H33.9509H40.9566H47.9329V69.8231H54.9097V62.8464H61.8864V55.8407H54.9097H47.9329V48.8643V41.8876H40.9566V48.8643H33.9509Z" fill="#377D79" fill-opacity="0.5"/>
<path d="M40.9245 34.9108H33.9478V41.8875H40.9245V34.9108Z" fill="#377D79" fill-opacity="0.5"/>
<path d="M47.9319 628.475H40.9556V635.452H47.9319V628.475Z" fill="#377D79" fill-opacity="0.5"/>
<path d="M47.9319 293.282H54.9087V286.305H47.9319H40.9556V293.282H47.9319Z" fill="#377D79" fill-opacity="0.5"/>
<path d="M40.9588 167.584H33.9531V174.56V181.537H26.9764V188.542H20V195.519H26.9764H33.9531V202.496H40.9588V195.519V188.542H47.9352V181.537H40.9588V174.56H47.9352H54.9119V167.584H47.9352H40.9588Z" fill="#377D79" fill-opacity="0.5"/>
<path d="M47.9319 90.7834H40.9556V97.7598V104.737H47.9319V97.7598V90.7834Z" fill="#377D79" fill-opacity="0.5"/>
<path d="M54.9087 782.107H47.9319H40.9556V789.084H47.9319V796.06H54.9087H61.8854V789.084H54.9087V782.107Z" fill="#377D79" fill-opacity="0.5"/>
<path d="M47.9292 691.325H54.9059V684.348H61.8827H68.8884H75.8648V677.343H82.8415V670.366H75.8648H68.8884H61.8827V677.343H54.9059H47.9292V684.348V691.325Z" fill="#377D79" fill-opacity="0.5"/>
<path d="M54.9059 663.388H47.9292V670.365H54.9059V663.388Z" fill="#377D79" fill-opacity="0.5"/>
<path d="M54.9087 649.435V642.429H47.9319H40.9556V649.435H47.9319H54.9087Z" fill="#377D79" fill-opacity="0.5"/>
<path d="M54.9059 628.476H61.8827V621.499H54.9059H47.9292V628.476H54.9059Z" fill="#377D79" fill-opacity="0.5"/>
<path d="M54.9059 607.519H47.9292V614.495H54.9059V607.519Z" fill="#377D79" fill-opacity="0.5"/>
<path d="M47.9292 202.495H54.9059V209.472V216.477V223.454H61.8827H68.8884H75.8648H82.8415V216.477H75.8648H68.8884H61.8827V209.472H68.8884V202.495H61.8827V195.518H54.9059V188.542H47.9292V195.518V202.495Z" fill="#377D79" fill-opacity="0.5"/>
<path d="M47.9319 153.632H54.9087V146.626H61.8854V139.65H54.9087H47.9319H40.9556V146.626H47.9319V153.632Z" fill="#377D79" fill-opacity="0.5"/>
<path d="M54.9059 118.69H47.9292V125.666H54.9059V118.69Z" fill="#377D79" fill-opacity="0.5"/>
<path d="M54.9059 13.9535H47.9292V20.9302H54.9059V13.9535Z" fill="#377D79" fill-opacity="0.5"/>
<path d="M54.9072 803.037V810.042H61.884V817.019H68.8897V810.042H75.8661V803.037H68.8897V796.06H61.884V803.037H54.9072Z" fill="#377D79" fill-opacity="0.5"/>
<path d="M61.884 761.146H54.9072V768.123H61.884V761.146Z" fill="#377D79" fill-opacity="0.5"/>
<path d="M61.884 600.542H54.9072V607.518H61.884V600.542Z" fill="#377D79" fill-opacity="0.5"/>
<path d="M54.9072 167.584H61.884V160.608V153.631H54.9072V160.608V167.584Z" fill="#377D79" fill-opacity="0.5"/>
<path d="M54.9059 104.735H47.9292V111.712H54.9059H61.8827V104.735H54.9059Z" fill="#377D79" fill-opacity="0.5"/>
<path d="M61.884 83.7769H54.9072V90.7536H61.884V83.7769Z" fill="#377D79" fill-opacity="0.5"/>
<path d="M68.8884 823.994H61.8827H54.9059V830.971H47.9292V837.976H54.9059H61.8827H68.8884V830.971V823.994Z" fill="#377D79" fill-opacity="0.5"/>
<path d="M68.8576 705.277H61.8809V712.253H68.8576V705.277Z" fill="#377D79" fill-opacity="0.5"/>
<path d="M61.8809 642.43V649.436V656.412H68.8866H75.863V649.436H68.8866V642.43V635.453H61.8809V642.43Z" fill="#377D79" fill-opacity="0.5"/>
<path d="M68.8576 607.519H61.8809V614.495H68.8576V607.519Z" fill="#377D79" fill-opacity="0.5"/>
<path d="M68.8576 356.126H61.8809V363.103H68.8576V356.126Z" fill="#377D79" fill-opacity="0.5"/>
<path d="M68.8866 279.326H75.863V272.32H82.8397V265.343H75.863V258.367H68.8866V265.343V272.32H61.8809V279.326H68.8866Z" fill="#377D79" fill-opacity="0.5"/>
<path d="M61.884 195.519H68.8897V188.543V181.537H61.884H54.9072V188.543H61.884V195.519Z" fill="#377D79" fill-opacity="0.5"/>
<path d="M68.8576 132.673H61.8809V139.65H68.8576V132.673Z" fill="#377D79" fill-opacity="0.5"/>
<path d="M68.8576 41.8876H61.8809V48.8643H68.8576V41.8876Z" fill="#377D79" fill-opacity="0.5"/>
<path d="M68.8866 775.129V782.106H61.8809V789.082H68.8866H75.863H82.8397H89.8164V782.106H82.8397H75.863V775.129H68.8866Z" fill="#377D79" fill-opacity="0.5"/>
<path d="M75.8651 398.016H68.8887V404.992H75.8651V398.016Z" fill="#377D79" fill-opacity="0.5"/>
<path d="M75.8651 384.062H68.8887V391.039H75.8651V384.062Z" fill="#377D79" fill-opacity="0.5"/>
<path d="M75.8651 195.519H68.8887V202.495H75.8651V195.519Z" fill="#377D79" fill-opacity="0.5"/>
<path d="M75.8651 90.7834H68.8887V97.7598H75.8651V90.7834Z" fill="#377D79" fill-opacity="0.5"/>
<path d="M75.8651 69.8253H68.8887V76.8017H75.8651V69.8253Z" fill="#377D79" fill-opacity="0.5"/>
<path d="M75.8651 55.8419H68.8887V62.8187H75.8651V55.8419Z" fill="#377D79" fill-opacity="0.5"/>
<path d="M75.8774 823.996V830.972H82.8542H89.8309V823.996H82.8542V817.019H89.8309V810.042V803.037V796.06H82.8542V803.037V810.042H75.8774V817.019V823.996Z" fill="#377D79" fill-opacity="0.5"/>
<path d="M82.8542 768.124H75.8774V775.101H82.8542V768.124Z" fill="#377D79" fill-opacity="0.5"/>
<path d="M82.8542 656.413H75.8774V663.389H82.8542V656.413Z" fill="#377D79" fill-opacity="0.5"/>
<path d="M82.8542 607.519H75.8774V614.495H82.8542V607.519Z" fill="#377D79" fill-opacity="0.5"/>
<path d="M82.8542 188.542H75.8774V195.518H82.8542V188.542Z" fill="#377D79" fill-opacity="0.5"/>
<path d="M82.8542 167.584H75.8774V174.56H82.8542V167.584Z" fill="#377D79" fill-opacity="0.5"/>
<path d="M82.8542 139.649V132.672V125.695H75.8774V132.672V139.649V146.625V153.631H82.8542V146.625V139.649Z" fill="#377D79" fill-opacity="0.5"/>
<path d="M82.8542 111.712H75.8774V118.689H82.8542V111.712Z" fill="#377D79" fill-opacity="0.5"/>
<path d="M75.8774 90.7835H82.8542H89.8309V83.7778H82.8542V76.801H75.8774V83.7778V90.7835Z" fill="#377D79" fill-opacity="0.5"/>
<path d="M82.8542 62.8485H75.8774V69.8252H82.8542V62.8485Z" fill="#377D79" fill-opacity="0.5"/>
<path d="M82.8542 691.324H75.8774V698.301H82.8542V705.277V712.283H89.8309V705.277H96.8073H103.813V698.301H110.79V691.324H103.813H96.8073V698.301H89.8309V691.324H96.8073V684.347H103.813H110.79V677.342H103.813H96.8073H89.8309H82.8542V684.347V691.324Z" fill="#377D79" fill-opacity="0.5"/>
<path d="M89.8278 258.367H82.8511V265.343H89.8278V258.367Z" fill="#377D79" fill-opacity="0.5"/>
<path d="M89.8278 237.409H82.8511V244.385H89.8278V237.409Z" fill="#377D79" fill-opacity="0.5"/>
<path d="M89.8278 230.433H96.8042V223.456V216.479H89.8278V223.456H82.8511V230.433H89.8278Z" fill="#377D79" fill-opacity="0.5"/>
<path d="M89.8278 181.537V174.56H82.8511V181.537V188.543H89.8278V181.537Z" fill="#377D79" fill-opacity="0.5"/>
<path d="M89.8278 104.735H82.8511V111.712H89.8278V104.735Z" fill="#377D79" fill-opacity="0.5"/>
<path d="M89.8278 55.8406H96.8042V48.8642H103.81V55.8406H96.8042V62.8463H103.81H110.787V55.8406H117.763H124.74H131.745V48.8642V41.8875H124.74V48.8642H117.763V41.8875H110.787V34.9108H103.81H96.8042V41.8875H89.8278V48.8642H82.8511V55.8406V62.8463H89.8278V55.8406Z" fill="#377D79" fill-opacity="0.5"/>
<path d="M89.8278 6.97681H82.8511V13.9535H89.8278V6.97681Z" fill="#377D79" fill-opacity="0.5"/>
<path d="M96.7977 844.954H89.8213V851.931H96.7977V844.954Z" fill="#377D79" fill-opacity="0.5"/>
<path d="M96.7977 530.717H89.8213V537.693H96.7977V530.717Z" fill="#377D79" fill-opacity="0.5"/>
<path d="M96.7977 502.779H89.8213V509.756H96.7977V502.779Z" fill="#377D79" fill-opacity="0.5"/>
<path d="M96.7977 146.625H89.8213V153.631V160.608H96.7977V153.631V146.625Z" fill="#377D79" fill-opacity="0.5"/>
<path d="M96.7977 132.673H89.8213V139.65H96.7977V132.673Z" fill="#377D79" fill-opacity="0.5"/>
<path d="M89.8278 27.9052H82.8511V34.9105H89.8278H96.8042V27.9052H89.8278Z" fill="#377D79" fill-opacity="0.5"/>
<path d="M96.8066 810.044V817.02H103.812V810.044V803.038H96.8066V810.044Z" fill="#377D79" fill-opacity="0.5"/>
<path d="M96.7949 607.518V614.495H89.8185H82.8418V621.5H75.8651H68.8887V628.477V635.454H75.8651H82.8418H89.8185V628.477V621.5H96.7949H103.801V628.477H96.7949V635.454H89.8185V642.43H96.7949H103.801V635.454H110.777H117.754V642.43V649.436H124.73H131.736V642.43V635.454V628.477H138.713H145.689V621.5H138.713H131.736V614.495H124.73V621.5H117.754V628.477H110.777V621.5H117.754V614.495V607.518H124.73V600.542H117.754V593.565H110.777H103.801H96.7949V600.542V607.518Z" fill="#377D79" fill-opacity="0.5"/>
<path d="M103.812 237.406H110.789V230.429H103.812H96.8066V237.406H103.812Z" fill="#377D79" fill-opacity="0.5"/>
<path d="M103.803 188.543V181.537H96.7977V188.543V195.519V202.496H89.8213V209.473H96.7977H103.803V202.496H110.78V195.519H103.803V188.543Z" fill="#377D79" fill-opacity="0.5"/>
<path d="M103.783 83.7769H96.8066V90.7536H103.783V83.7769Z" fill="#377D79" fill-opacity="0.5"/>
<path d="M110.779 803.037H117.756V796.06H110.779H103.803V803.037H110.779Z" fill="#377D79" fill-opacity="0.5"/>
<path d="M110.779 754.169H103.803V761.146V768.123V775.128H110.779V768.123V761.146V754.169Z" fill="#377D79" fill-opacity="0.5"/>
<path d="M103.81 712.282V719.259H96.8042V712.282H89.8278V719.259H82.8511V726.236H89.8278H96.8042V733.212H103.81V740.189H110.787V733.212V726.236V719.259V712.282V705.277H103.81V712.282Z" fill="#377D79" fill-opacity="0.5"/>
<path d="M110.779 642.429H103.803V649.406H110.779V642.429Z" fill="#377D79" fill-opacity="0.5"/>
<path d="M103.812 523.712H96.8066V530.718H103.812H110.789H117.766V523.712H110.789H103.812Z" fill="#377D79" fill-opacity="0.5"/>
<path d="M110.779 356.126H103.803V363.103H110.779V356.126Z" fill="#377D79" fill-opacity="0.5"/>
<path d="M110.779 167.584H103.803V174.56H110.779V167.584Z" fill="#377D79" fill-opacity="0.5"/>
<path d="M110.779 153.631H103.803V160.608H110.779V153.631Z" fill="#377D79" fill-opacity="0.5"/>
<path d="M110.779 146.626H117.756V139.65H110.779H103.803V146.626H110.779Z" fill="#377D79" fill-opacity="0.5"/>
<path d="M103.803 69.8252H96.7977H89.8213V76.8016H96.7977H103.803H110.78H117.757V83.7784V90.7841H124.733V83.7784H131.739H138.716V76.8016H131.739H124.733V69.8252H117.757V62.8485H110.78V69.8252H103.803Z" fill="#377D79" fill-opacity="0.5"/>
<path d="M110.779 6.97681H103.803V13.9535H110.779V6.97681Z" fill="#377D79" fill-opacity="0.5"/>
<path d="M117.757 817.02H110.781V823.997H117.757V817.02Z" fill="#377D79" fill-opacity="0.5"/>
<path d="M117.757 698.299H110.781V705.276H117.757V698.299Z" fill="#377D79" fill-opacity="0.5"/>
<path d="M117.757 684.348H110.781V691.325H117.757V684.348Z" fill="#377D79" fill-opacity="0.5"/>
<path d="M117.756 502.779H110.779H103.803V509.756V516.732H110.779H117.756V509.756V502.779Z" fill="#377D79" fill-opacity="0.5"/>
<path d="M117.757 370.108H110.781V377.085H117.757V370.108Z" fill="#377D79" fill-opacity="0.5"/>
<path d="M117.757 251.391H124.734V258.368H131.74V251.391V244.386H124.734H117.757H110.781V251.391H117.757Z" fill="#377D79" fill-opacity="0.5"/>
<path d="M117.757 216.479H110.781V223.456H117.757V216.479Z" fill="#377D79" fill-opacity="0.5"/>
<path d="M110.781 188.543V195.519H117.757V188.543V181.537H110.781V188.543Z" fill="#377D79" fill-opacity="0.5"/>
<path d="M110.789 111.712V104.735H103.812V111.712H96.8066V118.689H103.812H110.789H117.766V111.712H110.789Z" fill="#377D79" fill-opacity="0.5"/>
<path d="M124.735 823.994H117.758V830.971H124.735V823.994Z" fill="#377D79" fill-opacity="0.5"/>
<path d="M117.758 817.02H124.735V810.044V803.038H117.758V810.044V817.02Z" fill="#377D79" fill-opacity="0.5"/>
<path d="M117.758 726.235H124.735V719.258V712.282H117.758V719.258V726.235Z" fill="#377D79" fill-opacity="0.5"/>
<path d="M124.733 656.411H117.757V649.434H110.78V656.411H103.803H96.7977V649.434H89.8213V656.411V663.387V670.364H96.7977H103.803H110.78V663.387H117.757V670.364H124.733V663.387V656.411Z" fill="#377D79" fill-opacity="0.5"/>
<path d="M124.735 586.587H117.758V593.564H124.735V586.587Z" fill="#377D79" fill-opacity="0.5"/>
<path d="M117.757 551.647H110.781V558.652V565.629V572.606H117.757V565.629H124.734V558.652H131.74V551.647H124.734H117.757Z" fill="#377D79" fill-opacity="0.5"/>
<path d="M124.735 530.717H117.758V537.693H124.735V530.717Z" fill="#377D79" fill-opacity="0.5"/>
<path d="M124.735 495.803H117.758V502.78H124.735V495.803Z" fill="#377D79" fill-opacity="0.5"/>
<path d="M124.735 377.084H117.758V384.061H124.735V377.084Z" fill="#377D79" fill-opacity="0.5"/>
<path d="M124.735 349.151H117.758V356.128H124.735V349.151Z" fill="#377D79" fill-opacity="0.5"/>
<path d="M124.735 230.433H131.74H138.717V223.456H145.694V216.479H138.717H131.74V223.456H124.735H117.758V230.433H124.735Z" fill="#377D79" fill-opacity="0.5"/>
<path d="M124.734 167.584V160.608H131.74V153.631H124.734H117.757V160.608H110.781V167.584H117.757H124.734Z" fill="#377D79" fill-opacity="0.5"/>
<path d="M124.735 20.9303H117.758V27.907H124.735V20.9303Z" fill="#377D79" fill-opacity="0.5"/>
<path d="M131.74 782.105V775.128H138.717V768.123H131.74V761.146H124.735V768.123H117.758V775.128V782.105V789.081H124.735V782.105H131.74Z" fill="#377D79" fill-opacity="0.5"/>
<path d="M124.736 572.605V579.581H131.742V572.605V565.628H124.736V572.605Z" fill="#377D79" fill-opacity="0.5"/>
<path d="M131.713 537.693H124.736V544.67H131.713V537.693Z" fill="#377D79" fill-opacity="0.5"/>
<path d="M131.713 488.798H124.736V495.775H131.713V488.798Z" fill="#377D79" fill-opacity="0.5"/>
<path d="M131.713 460.863H124.736V467.84H131.713V460.863Z" fill="#377D79" fill-opacity="0.5"/>
<path d="M124.734 125.695V118.69H117.757V125.695H110.781V132.672H117.757H124.734H131.74V125.695H124.734Z" fill="#377D79" fill-opacity="0.5"/>
<path d="M138.72 823.994H131.744V830.971H138.72V823.994Z" fill="#377D79" fill-opacity="0.5"/>
<path d="M138.72 803.038H131.744V810.015H138.72V803.038Z" fill="#377D79" fill-opacity="0.5"/>
<path d="M138.72 726.236H131.744V733.212H138.72V726.236Z" fill="#377D79" fill-opacity="0.5"/>
<path d="M131.744 712.282V719.258H138.72H145.697V712.282H138.72H131.744Z" fill="#377D79" fill-opacity="0.5"/>
<path d="M131.742 663.387V670.364H124.736V677.341H131.742H138.718V684.346H131.742V691.323H124.736V698.299H131.742V705.276H138.718H145.695V698.299H152.671V691.323H145.695V684.346H152.671V677.341H159.648V670.364V663.387V656.411H152.671V663.387H145.695H138.718V656.411H145.695V649.434H138.718H131.742V656.411V663.387Z" fill="#377D79" fill-opacity="0.5"/>
<path d="M138.72 558.653H131.744V565.63H138.72V558.653Z" fill="#377D79" fill-opacity="0.5"/>
<path d="M138.72 544.67H131.744V551.647H138.72V544.67Z" fill="#377D79" fill-opacity="0.5"/>
<path d="M138.72 467.869H131.744V474.845H138.72V467.869Z" fill="#377D79" fill-opacity="0.5"/>
<path d="M138.72 202.497H131.744V209.474H138.72V202.497Z" fill="#377D79" fill-opacity="0.5"/>
<path d="M138.72 160.609H131.744V167.585H138.72V160.609Z" fill="#377D79" fill-opacity="0.5"/>
<path d="M138.72 62.8485H131.744V69.8252H138.72V62.8485Z" fill="#377D79" fill-opacity="0.5"/>
<path d="M145.69 817.02H138.714V823.997H145.69V817.02Z" fill="#377D79" fill-opacity="0.5"/>
<path d="M145.695 775.129H138.718V782.106H131.742V789.082H124.736V796.059H131.742H138.718V789.082H145.695V782.106V775.129Z" fill="#377D79" fill-opacity="0.5"/>
<path d="M145.69 761.146H138.714V768.123H145.69V761.146Z" fill="#377D79" fill-opacity="0.5"/>
<path d="M145.69 635.453H138.714V642.43H145.69V635.453Z" fill="#377D79" fill-opacity="0.5"/>
<path d="M145.697 579.581H138.72V586.587H131.744V593.563H138.72H145.697V586.587V579.581Z" fill="#377D79" fill-opacity="0.5"/>
<path d="M145.69 572.605V579.582H152.667V572.605V565.629H159.644H166.649V558.652H173.626V551.646H166.649H159.644V558.652H152.667V551.646H159.644V544.67H152.667V537.693H145.69V544.67V551.646V558.652V565.629H138.714V572.605H145.69Z" fill="#377D79" fill-opacity="0.5"/>
<path d="M145.695 411.997H138.718V405.02H131.742V411.997V418.974H124.736V425.951H131.742V432.956H138.718V425.951H145.695V418.974V411.997Z" fill="#377D79" fill-opacity="0.5"/>
<path d="M138.72 398.014V405.02H145.697V411.996H152.674H159.65V405.02H166.656V398.014V391.038H159.65V398.014H152.674V391.038H145.697V384.061V377.084H138.72H131.744V384.061V391.038H138.72V398.014Z" fill="#377D79" fill-opacity="0.5"/>
<path d="M145.69 230.429H138.714V237.406H145.69V230.429Z" fill="#377D79" fill-opacity="0.5"/>
<path d="M145.694 188.543V181.537H138.717H131.74V174.56H124.735H117.758V181.537H124.735V188.543H131.74H138.717V195.519V202.496H145.694V195.519V188.543Z" fill="#377D79" fill-opacity="0.5"/>
<path d="M138.714 139.65V146.626V153.632H145.69V146.626V139.65H138.714Z" fill="#377D79" fill-opacity="0.5"/>
<path d="M145.69 83.7769H138.714V90.7536H145.69V83.7769Z" fill="#377D79" fill-opacity="0.5"/>
<path d="M145.697 41.8875V34.9108H138.72H131.744V41.8875H138.72H145.697Z" fill="#377D79" fill-opacity="0.5"/>
<path d="M145.69 20.9303H138.714V27.907H145.69V20.9303Z" fill="#377D79" fill-opacity="0.5"/>
<path d="M152.664 628.475H145.688V635.452H152.664V628.475Z" fill="#377D79" fill-opacity="0.5"/>
<path d="M152.664 209.474H159.641H166.646V202.497H159.641H152.664H145.688V209.474H152.664Z" fill="#377D79" fill-opacity="0.5"/>
<path d="M152.664 167.584H145.688V174.56H152.664V167.584Z" fill="#377D79" fill-opacity="0.5"/>
<path d="M152.664 97.7598H159.641H166.646H173.623V90.7835H180.6H187.577V83.7778H180.6V76.801H173.623V83.7778H166.646V90.7835H159.641H152.664H145.688V97.7598H152.664Z" fill="#377D79" fill-opacity="0.5"/>
<path d="M152.664 69.8253H145.688V76.8017H152.664V69.8253Z" fill="#377D79" fill-opacity="0.5"/>
<path d="M152.664 55.8419H145.688V62.8187H152.664V55.8419Z" fill="#377D79" fill-opacity="0.5"/>
<path d="M152.664 41.8876H145.688V48.8643H152.664V41.8876Z" fill="#377D79" fill-opacity="0.5"/>
<path d="M152.664 6.97681H145.688V13.9535H152.664V6.97681Z" fill="#377D79" fill-opacity="0.5"/>
<path d="M159.641 621.501V614.495H152.664V607.519H145.688V614.495V621.501H152.664H159.641Z" fill="#377D79" fill-opacity="0.5"/>
<path d="M159.642 579.581H152.666V586.558H159.642V579.581Z" fill="#377D79" fill-opacity="0.5"/>
<path d="M159.642 418.976H152.666V425.953H159.642V418.976Z" fill="#377D79" fill-opacity="0.5"/>
<path d="M159.642 153.631H152.666V160.608H159.642V153.631Z" fill="#377D79" fill-opacity="0.5"/>
<path d="M159.642 118.69H152.666V125.695V132.672H159.642V125.695V118.69Z" fill="#377D79" fill-opacity="0.5"/>
<path d="M159.642 76.801H152.666V83.7778H159.642V76.801Z" fill="#377D79" fill-opacity="0.5"/>
<path d="M159.642 62.8485H152.666V69.8252H159.642V62.8485Z" fill="#377D79" fill-opacity="0.5"/>
<path d="M166.646 803.037V796.06H159.641H152.664V789.084H145.688V796.06V803.037H152.664H159.641V810.042H166.646V803.037Z" fill="#377D79" fill-opacity="0.5"/>
<path d="M166.619 775.129H159.643V782.106H166.619V775.129Z" fill="#377D79" fill-opacity="0.5"/>
<path d="M166.619 719.259H159.643V726.236H166.619V719.259Z" fill="#377D79" fill-opacity="0.5"/>
<path d="M159.641 705.276H152.664H145.688V712.281H152.664V719.258H159.641V712.281H166.646V719.258H173.623V712.281V705.276H166.646V698.299H159.641V705.276Z" fill="#377D79" fill-opacity="0.5"/>
<path d="M159.643 691.324H166.648V698.301H173.625V691.324V684.347H166.648V677.342H159.643V684.347V691.324Z" fill="#377D79" fill-opacity="0.5"/>
<path d="M166.619 642.429H159.643V649.406H166.619V642.429Z" fill="#377D79" fill-opacity="0.5"/>
<path d="M166.619 628.475H159.643V635.452H166.619V628.475Z" fill="#377D79" fill-opacity="0.5"/>
<path d="M166.619 279.327H159.643V286.304H166.619V279.327Z" fill="#377D79" fill-opacity="0.5"/>
<path d="M166.648 230.433V223.456H159.642V216.479H152.666V223.456V230.433H159.642V237.41V244.386H166.648V237.41V230.433Z" fill="#377D79" fill-opacity="0.5"/>
<path d="M159.642 167.584V174.56H152.666V181.537V188.542H159.642V181.537H166.648V188.542V195.519H173.624H180.601V188.542V181.537H173.624V174.56H166.648V167.584H159.642Z" fill="#377D79" fill-opacity="0.5"/>
<path d="M166.648 153.631H173.625V146.625H166.648H159.643V153.631H166.648Z" fill="#377D79" fill-opacity="0.5"/>
<path d="M166.619 132.673H159.643V139.65H166.619V132.673Z" fill="#377D79" fill-opacity="0.5"/>
<path d="M166.619 55.8419H159.643V62.8187H166.619V55.8419Z" fill="#377D79" fill-opacity="0.5"/>
<path d="M166.619 20.9303H159.643V27.907H166.619V20.9303Z" fill="#377D79" fill-opacity="0.5"/>
<path d="M173.627 789.084H166.65V796.06H173.627V789.084Z" fill="#377D79" fill-opacity="0.5"/>
<path d="M166.65 768.124V775.13H173.627V782.107H180.604V775.13V768.124H173.627H166.65Z" fill="#377D79" fill-opacity="0.5"/>
<path d="M173.627 726.236H166.65V733.212H173.627V726.236Z" fill="#377D79" fill-opacity="0.5"/>
<path d="M173.627 670.366H180.604H187.581H194.586V663.389H187.581H180.604V656.413H173.627V663.389H166.65V670.366V677.342H173.627V670.366Z" fill="#377D79" fill-opacity="0.5"/>
<path d="M166.646 586.586V593.563H159.641H152.664H145.688V600.54H152.664H159.641V607.516H166.646H173.623V600.54V593.563H180.6H187.577V586.586H180.6V579.581V572.604H173.623H166.646H159.641V579.581H166.646V586.586Z" fill="#377D79" fill-opacity="0.5"/>
<path d="M173.627 69.8253H166.65V76.8017H173.627V69.8253Z" fill="#377D79" fill-opacity="0.5"/>
<path d="M173.627 13.9535H166.65V20.9302H173.627V13.9535Z" fill="#377D79" fill-opacity="0.5"/>
<path d="M180.605 621.499H173.628V628.476H180.605V621.499Z" fill="#377D79" fill-opacity="0.5"/>
<path d="M173.625 411.997H166.648H159.643V418.974H166.648V425.951H159.643V432.956V439.933H166.648V432.956H173.625H180.602V425.951V418.974V411.997V405.02H173.625V411.997Z" fill="#377D79" fill-opacity="0.5"/>
<path d="M173.627 384.061H166.65V391.038H173.627H180.604V384.061V377.085V370.108H173.627V377.085V384.061Z" fill="#377D79" fill-opacity="0.5"/>
<path d="M180.605 335.168H173.628V342.145H180.605V335.168Z" fill="#377D79" fill-opacity="0.5"/>
<path d="M180.605 286.305H173.628V293.282H180.605V286.305Z" fill="#377D79" fill-opacity="0.5"/>
<path d="M180.605 258.367H173.628V265.343H180.605V258.367Z" fill="#377D79" fill-opacity="0.5"/>
<path d="M180.605 237.409H173.628V244.385H180.605V237.409Z" fill="#377D79" fill-opacity="0.5"/>
<path d="M180.605 223.453H173.628V230.429H180.605V223.453Z" fill="#377D79" fill-opacity="0.5"/>
<path d="M180.605 202.497H173.628V209.474H180.605V202.497Z" fill="#377D79" fill-opacity="0.5"/>
<path d="M180.605 160.609H173.628V167.585H180.605V160.609Z" fill="#377D79" fill-opacity="0.5"/>
<path d="M180.605 817.02H173.628V823.997H180.605H187.581V817.02H180.605Z" fill="#377D79" fill-opacity="0.5"/>
<path d="M180.613 796.06H187.59V789.084V782.107H180.613V789.084V796.06Z" fill="#377D79" fill-opacity="0.5"/>
<path d="M180.604 747.195H173.627V754.172H166.65V761.148H173.627H180.604V768.125H187.581V761.148V754.172H194.586V747.195H187.581H180.604Z" fill="#377D79" fill-opacity="0.5"/>
<path d="M187.59 719.259H180.613V726.236H187.59V719.259Z" fill="#377D79" fill-opacity="0.5"/>
<path d="M187.581 628.475H180.605V635.452H173.628V642.428H180.605H187.581V635.452V628.475Z" fill="#377D79" fill-opacity="0.5"/>
<path d="M187.59 614.492H180.613V621.469H187.59V614.492Z" fill="#377D79" fill-opacity="0.5"/>
<path d="M180.613 405.02H187.59H194.595V398.015H187.59V391.038H180.613V398.015V405.02Z" fill="#377D79" fill-opacity="0.5"/>
<path d="M180.613 356.128V363.105H187.59V356.128V349.151H180.613V356.128Z" fill="#377D79" fill-opacity="0.5"/>
<path d="M187.59 314.238H180.613V321.215V328.191H187.59V321.215V314.238Z" fill="#377D79" fill-opacity="0.5"/>
<path d="M180.613 307.231H187.59V300.255V293.278H180.613V300.255V307.231Z" fill="#377D79" fill-opacity="0.5"/>
<path d="M187.59 265.343H180.613V272.32H187.59V265.343Z" fill="#377D79" fill-opacity="0.5"/>
<path d="M180.613 258.368H187.59V251.391V244.386H180.613V251.391V258.368Z" fill="#377D79" fill-opacity="0.5"/>
<path d="M187.59 174.56H180.613V181.537H187.59V174.56Z" fill="#377D79" fill-opacity="0.5"/>
<path d="M187.59 69.8252V62.8485H180.613V69.8252V76.8016H187.59V69.8252Z" fill="#377D79" fill-opacity="0.5"/>
<path d="M187.581 55.8416V48.8652H180.605H173.628V55.8416V62.8473H180.605V55.8416H187.581Z" fill="#377D79" fill-opacity="0.5"/>
<path d="M194.56 803.038H187.583V810.015H194.56V803.038Z" fill="#377D79" fill-opacity="0.5"/>
<path d="M194.589 775.128H201.566V768.123V761.146H194.589V768.123H187.583V775.128H194.589Z" fill="#377D79" fill-opacity="0.5"/>
<path d="M194.595 691.324V684.347V677.342H187.59H180.613V684.347V691.324V698.301H187.59V691.324H194.595Z" fill="#377D79" fill-opacity="0.5"/>
<path d="M194.56 642.429H187.583V649.406H194.56V642.429Z" fill="#377D79" fill-opacity="0.5"/>
<path d="M194.56 621.499H187.583V628.476H194.56V621.499Z" fill="#377D79" fill-opacity="0.5"/>
<path d="M194.56 607.519H187.583V614.495H194.56V607.519Z" fill="#377D79" fill-opacity="0.5"/>
<path d="M194.56 579.581H187.583V586.558H194.56V579.581Z" fill="#377D79" fill-opacity="0.5"/>
<path d="M187.578 516.732V509.756V502.779H180.601H173.624V509.756H180.601V516.732V523.709H173.624V516.732H166.648V523.709H159.642H152.666V530.714H159.642H166.648H173.624H180.601V537.691H173.624H166.648V544.667H173.624H180.601H187.578V537.691V530.714V523.709H194.583V516.732H187.578Z" fill="#377D79" fill-opacity="0.5"/>
<path d="M194.589 411.999H187.583V418.976V425.952H194.589V418.976V411.999Z" fill="#377D79" fill-opacity="0.5"/>
<path d="M194.56 384.062H187.583V391.039H194.56V384.062Z" fill="#377D79" fill-opacity="0.5"/>
<path d="M194.56 370.108H187.583V377.085H194.56V370.108Z" fill="#377D79" fill-opacity="0.5"/>
<path d="M194.589 286.304V279.327H187.583V286.304V293.28H194.589V286.304Z" fill="#377D79" fill-opacity="0.5"/>
<path d="M194.595 237.406V244.382H201.572H208.549V251.388H215.525V244.382V237.406V230.429H208.549H201.572H194.595V223.453H187.59V230.429H180.613V237.406H187.59H194.595Z" fill="#377D79" fill-opacity="0.5"/>
<path d="M194.56 139.65H187.583V146.626H194.56V139.65Z" fill="#377D79" fill-opacity="0.5"/>
<path d="M194.56 97.7583H187.583V104.735H194.56V97.7583Z" fill="#377D79" fill-opacity="0.5"/>
<path d="M201.56 656.413H194.583V663.389H201.56V656.413Z" fill="#377D79" fill-opacity="0.5"/>
<path d="M201.56 628.475H194.583V635.452H201.56V628.475Z" fill="#377D79" fill-opacity="0.5"/>
<path d="M194.583 544.67V551.646V558.652H201.56V551.646V544.67V537.693H194.583V544.67Z" fill="#377D79" fill-opacity="0.5"/>
<path d="M201.566 349.15V342.173H194.589V335.168V328.191H187.583V335.168V342.173V349.15H194.589V356.127V363.103H201.566V356.127V349.15Z" fill="#377D79" fill-opacity="0.5"/>
<path d="M201.566 146.625H194.589V153.631H187.583V160.608H194.589H201.566V153.631V146.625Z" fill="#377D79" fill-opacity="0.5"/>
<path d="M194.589 111.712H187.583V118.689H194.589H201.566V111.712V104.735H194.589V111.712Z" fill="#377D79" fill-opacity="0.5"/>
<path d="M201.56 62.8485H194.583V69.8252H201.56V62.8485Z" fill="#377D79" fill-opacity="0.5"/>
<path d="M208.538 712.282H201.562V719.258H208.538V712.282Z" fill="#377D79" fill-opacity="0.5"/>
<path d="M208.538 642.43H215.515V635.453H208.538H201.562V642.43H208.538Z" fill="#377D79" fill-opacity="0.5"/>
<path d="M201.56 614.495V621.501H208.537V614.495H215.513V607.518H208.537V600.542H201.56H194.583V607.518H201.56V614.495Z" fill="#377D79" fill-opacity="0.5"/>
<path d="M208.538 335.168H201.562V342.145H208.538V335.168Z" fill="#377D79" fill-opacity="0.5"/>
<path d="M215.519 782.107H208.542V789.084H215.519V782.107Z" fill="#377D79" fill-opacity="0.5"/>
<path d="M208.537 740.189H201.56V733.212H194.583V740.189V747.195H201.56H208.537H215.513V740.189H222.49V733.212V726.236H215.513H208.537V733.212V740.189Z" fill="#377D79" fill-opacity="0.5"/>
<path d="M208.542 684.348H215.519V677.343V670.366H208.542V677.343V684.348Z" fill="#377D79" fill-opacity="0.5"/>
<path d="M208.538 565.628H201.562V572.605H208.538H215.515V565.628H208.538Z" fill="#377D79" fill-opacity="0.5"/>
<path d="M215.519 537.693H208.542V544.67H215.519V537.693Z" fill="#377D79" fill-opacity="0.5"/>
<path d="M215.519 411.999H208.542V418.976H215.519V411.999Z" fill="#377D79" fill-opacity="0.5"/>
<path d="M215.515 405.021V398.016H208.538V391.039H215.515V384.062H208.538H201.562V391.039V398.016V405.021V411.998H208.538V405.021H215.515Z" fill="#377D79" fill-opacity="0.5"/>
<path d="M208.538 363.103H201.562V370.109V377.085H208.538V370.109H215.515V363.103H208.538Z" fill="#377D79" fill-opacity="0.5"/>
<path d="M215.513 167.585V160.609H208.537H201.56V167.585H194.583V174.562V181.538V188.544H201.56V181.538V174.562H208.537V167.585H215.513Z" fill="#377D79" fill-opacity="0.5"/>
<path d="M215.519 125.695H222.496V118.69H215.519H208.542V125.695H215.519Z" fill="#377D79" fill-opacity="0.5"/>
<path d="M215.513 83.7784V76.8017H208.537V69.8253H201.56V76.8017H194.583V83.7784H201.56H208.537V90.7841H215.513V83.7784Z" fill="#377D79" fill-opacity="0.5"/>
<path d="M208.542 62.8473H215.519V55.8416V48.8652H208.542V55.8416V62.8473Z" fill="#377D79" fill-opacity="0.5"/>
<path d="M222.493 754.169H215.517V761.146H222.493V754.169Z" fill="#377D79" fill-opacity="0.5"/>
<path d="M222.496 663.388V656.412H229.501V663.388V670.365H236.478V663.388V656.412V649.435V642.429H229.501H222.496V649.435H215.519H208.542V656.412H215.519V663.388V670.365H222.496V663.388Z" fill="#377D79" fill-opacity="0.5"/>
<path d="M222.493 628.476V621.499H215.517V628.476V635.452H222.493V628.476Z" fill="#377D79" fill-opacity="0.5"/>
<path d="M222.491 600.54V593.563V586.587V579.581H215.515H208.538H201.562V586.587V593.563H208.538V586.587H215.515V593.563V600.54V607.516H222.491V600.54Z" fill="#377D79" fill-opacity="0.5"/>
<path d="M215.519 495.804V488.798H208.542V481.821V474.845H201.566V481.821H194.589V488.798V495.804H187.583V502.78H194.589V509.757H201.566V502.78H208.542H215.519V509.757H208.542V516.734V523.71H201.566H194.589V530.716H201.566V537.693H208.542V530.716H215.519V537.693H222.495V544.669V551.646H215.519H208.542V558.651H215.519H222.495V565.628H229.501V558.651H236.478V551.646H229.501V544.669V537.693V530.716H236.478H243.454V523.71H236.478H229.501V516.734H222.495V523.71H215.519V516.734H222.495V509.757V502.78H229.501V495.804V488.798H222.495V495.804H215.519Z" fill="#377D79" fill-opacity="0.5"/>
<path d="M222.493 481.822H215.517V488.798H222.493V481.822Z" fill="#377D79" fill-opacity="0.5"/>
<path d="M222.493 405.02H215.517V411.997H222.493V405.02Z" fill="#377D79" fill-opacity="0.5"/>
<path d="M222.493 377.085V370.108H215.517V377.085V384.061H222.493V377.085Z" fill="#377D79" fill-opacity="0.5"/>
<path d="M222.493 342.175H215.517V349.151H222.493V342.175Z" fill="#377D79" fill-opacity="0.5"/>
<path d="M222.49 335.167V328.19H215.513V321.213H222.49V314.237V307.231H215.513H208.537V300.255V293.278H201.56V300.255H194.583V307.231V314.237H201.56H208.537V321.213H201.56V328.19H208.537V335.167H215.513H222.49Z" fill="#377D79" fill-opacity="0.5"/>
<path d="M215.517 272.32V279.325H222.493V272.32V265.343H215.517V272.32Z" fill="#377D79" fill-opacity="0.5"/>
<path d="M222.493 258.368V265.344H229.499H236.475V258.368V251.391H229.499V244.386H222.493V251.391H215.517V258.368H222.493Z" fill="#377D79" fill-opacity="0.5"/>
<path d="M222.495 174.56H215.519H208.542V181.537H215.519V188.543H208.542V195.519H201.566V202.496V209.473H194.589V202.496V195.519H187.583V202.496V209.473V216.478H194.589H201.566V223.455H208.542H215.519V216.478H208.542V209.473H215.519V216.478H222.495V209.473H229.501V202.496V195.519H222.495V188.543H229.501V181.537H222.495V174.56Z" fill="#377D79" fill-opacity="0.5"/>
<path d="M229.471 712.282H222.494V719.258H229.471V712.282Z" fill="#377D79" fill-opacity="0.5"/>
<path d="M229.471 614.492H222.494V621.469H229.471V614.492Z" fill="#377D79" fill-opacity="0.5"/>
<path d="M229.5 411.999H222.494V418.976V425.952H229.5V418.976V411.999Z" fill="#377D79" fill-opacity="0.5"/>
<path d="M222.494 398.016H229.5V391.039H236.476V384.062H229.5H222.494V391.039V398.016Z" fill="#377D79" fill-opacity="0.5"/>
<path d="M229.471 335.168H222.494V342.145H229.471V335.168Z" fill="#377D79" fill-opacity="0.5"/>
<path d="M229.471 321.216H222.494V328.192H229.471V321.216Z" fill="#377D79" fill-opacity="0.5"/>
<path d="M222.494 293.282V300.258H229.5V293.282V286.305H222.494V293.282Z" fill="#377D79" fill-opacity="0.5"/>
<path d="M222.491 104.737H215.515V97.7598H208.538V90.7834H201.562V97.7598V104.737H208.538V111.713H215.515H222.491H229.497V104.737H222.491Z" fill="#377D79" fill-opacity="0.5"/>
<path d="M222.494 97.7598H229.5H236.476V90.7834H229.5H222.494V97.7598Z" fill="#377D79" fill-opacity="0.5"/>
<path d="M229.505 635.452H236.482H243.458V628.476H236.482V621.499H229.505V628.476V635.452Z" fill="#377D79" fill-opacity="0.5"/>
<path d="M229.505 586.586H236.482V579.581V572.604H229.505V579.581V586.586Z" fill="#377D79" fill-opacity="0.5"/>
<path d="M229.5 446.912H236.476V439.935H243.453V446.912H236.476V467.87H243.453V474.847H250.43V467.87H257.406V474.847H271.36V467.87H278.336V474.847H271.36V488.8H278.336V481.824H285.313V460.865H278.336V453.888H292.289V474.847H306.243V467.87H299.266V460.894H306.243V439.935H299.266V432.958H292.289V446.912H285.313V439.935H278.336V432.958H264.383V425.981H257.406V432.958H250.43V425.981H243.453V432.958H222.494V439.935H229.471V446.912H229.5ZM243.453 460.865V453.888H250.43V446.912H257.406V453.888H250.43V460.865H243.453ZM271.389 439.906V446.883H264.412V439.906H271.389Z" fill="#377D79" fill-opacity="0.5"/>
<path d="M236.482 363.103H229.505V370.08H236.482V363.103Z" fill="#377D79" fill-opacity="0.5"/>
<path d="M236.482 328.191H229.505V335.168H236.482V328.191Z" fill="#377D79" fill-opacity="0.5"/>
<path d="M236.482 314.238H229.505V321.215H236.482V314.238Z" fill="#377D79" fill-opacity="0.5"/>
<path d="M236.482 174.56H229.505V181.537H236.482V174.56Z" fill="#377D79" fill-opacity="0.5"/>
<path d="M236.482 146.625H229.505V153.602H236.482V146.625Z" fill="#377D79" fill-opacity="0.5"/>
<path d="M243.456 789.084H236.479V796.06H243.456V789.084Z" fill="#377D79" fill-opacity="0.5"/>
<path d="M236.482 719.258H229.505V726.235V733.211V740.188H236.482H243.458H250.435V733.211V726.235H243.458V733.211H236.482V726.235H243.458V719.258V712.282H236.482V719.258Z" fill="#377D79" fill-opacity="0.5"/>
<path d="M243.458 614.495V621.501H250.435V628.477V635.454H257.441V628.477V621.501V614.495H264.417V607.518H257.441V600.542H250.435V607.518H243.458H236.482H229.505V614.495H236.482H243.458Z" fill="#377D79" fill-opacity="0.5"/>
<path d="M243.456 398.016H236.479V404.992H243.456V398.016Z" fill="#377D79" fill-opacity="0.5"/>
<path d="M243.456 321.216H236.479V328.192H243.456V321.216Z" fill="#377D79" fill-opacity="0.5"/>
<path d="M243.456 307.233H236.479V314.21H243.456V307.233Z" fill="#377D79" fill-opacity="0.5"/>
<path d="M243.453 244.382V237.406H250.43V230.429V223.453H243.453V230.429H236.476H229.5V223.453H222.494V230.429V237.406H229.5H236.476V244.382V251.388H243.453V244.382Z" fill="#377D79" fill-opacity="0.5"/>
<path d="M243.458 223.456V216.479H236.482H229.505V223.456H236.482H243.458Z" fill="#377D79" fill-opacity="0.5"/>
<path d="M243.458 188.541H264.417V174.587H278.37V188.541H292.323V181.564H299.3V174.587H292.323V167.611H313.282V174.587H320.259V167.611H327.236V160.634H313.282V153.658H306.305V160.634H299.329V146.681H313.282V132.728H306.305V139.705H299.329V132.728H285.375V153.687H278.399V146.71H271.422V153.687H264.446V160.663H257.469V167.64H250.493V174.616H257.469V181.593H250.493V174.616H243.516V181.593H236.539V202.552H243.516V188.599L243.458 188.541ZM285.347 160.605V167.582H278.37V160.605H285.347Z" fill="#377D79" fill-opacity="0.5"/>
<path d="M243.456 104.735H236.479V111.712H243.456V104.735Z" fill="#377D79" fill-opacity="0.5"/>
<path d="M236.479 55.8419V62.8476H243.456" fill="#377D79" fill-opacity="0.5"/>
<path d="M250.438 705.277H243.461V712.253H250.438V705.277Z" fill="#377D79" fill-opacity="0.5"/>
<path d="M243.458 593.565H236.482H229.505V600.542H236.482H243.458H250.435V593.565H243.458Z" fill="#377D79" fill-opacity="0.5"/>
<path d="M250.433 572.605V565.628H243.456H236.479V572.605H243.456H250.433Z" fill="#377D79" fill-opacity="0.5"/>
<path d="M250.433 551.646V544.67V537.693H243.456H236.479V544.67V551.646H243.456H250.433Z" fill="#377D79" fill-opacity="0.5"/>
<path d="M250.433 516.733V509.756H243.456V502.78V495.803H236.479V502.78V509.756V516.733H243.456V523.71H250.433V516.733Z" fill="#377D79" fill-opacity="0.5"/>
<path d="M250.438 377.084H243.461V384.061V391.038H250.438V384.061V377.084Z" fill="#377D79" fill-opacity="0.5"/>
<path d="M250.438 328.191H243.461V335.168H250.438V328.191Z" fill="#377D79" fill-opacity="0.5"/>
<path d="M250.438 314.238H243.461V321.215H250.438V314.238Z" fill="#377D79" fill-opacity="0.5"/>
<path d="M250.438 258.367H243.461V265.343H250.438V258.367Z" fill="#377D79" fill-opacity="0.5"/>
<path d="M250.438 209.474V202.497H243.461V209.474V216.479H250.438V209.474Z" fill="#377D79" fill-opacity="0.5"/>
<path d="M250.438 90.7834H243.461V97.7598H250.438V90.7834Z" fill="#377D79" fill-opacity="0.5"/>
<path d="M257.412 712.282H250.435V719.258H257.412V712.282Z" fill="#377D79" fill-opacity="0.5"/>
<path d="M257.412 691.322H250.435V698.299H257.412V691.322Z" fill="#377D79" fill-opacity="0.5"/>
<path d="M257.412 530.717H250.435V537.693H257.412V530.717Z" fill="#377D79" fill-opacity="0.5"/>
<path d="M250.438 502.78V509.757H257.443V502.78V495.804V488.798V481.822H250.438H243.461V488.798V495.804H250.438V502.78Z" fill="#377D79" fill-opacity="0.5"/>
<path d="M257.412 391.038H250.435V398.015H257.412V391.038Z" fill="#377D79" fill-opacity="0.5"/>
<path d="M257.412 321.216H250.435V328.192H257.412V321.216Z" fill="#377D79" fill-opacity="0.5"/>
<path d="M250.435 279.328V272.323H243.458H236.482H229.505V279.328V286.305H236.482H243.458H250.435H257.441V279.328H250.435Z" fill="#377D79" fill-opacity="0.5"/>
<path d="M257.441 244.385H264.417V237.409H257.441H250.435V244.385H257.441Z" fill="#377D79" fill-opacity="0.5"/>
<path d="M250.435 69.8253V76.8017V83.7784H257.441V76.8017H264.417V69.8253H257.441H250.435Z" fill="#377D79" fill-opacity="0.5"/>
<path d="M264.411 775.129H257.435V782.106H264.411V775.129Z" fill="#377D79" fill-opacity="0.5"/>
<path d="M264.411 747.195H257.435V754.172H264.411V747.195Z" fill="#377D79" fill-opacity="0.5"/>
<path d="M264.411 733.214H257.435V740.19H264.411V733.214Z" fill="#377D79" fill-opacity="0.5"/>
<path d="M264.411 719.259H257.435V726.236H264.411V719.259Z" fill="#377D79" fill-opacity="0.5"/>
<path d="M264.411 705.276V712.281H271.388V705.276H278.365V698.299H271.388H264.411H257.435V705.276H264.411Z" fill="#377D79" fill-opacity="0.5"/>
<path d="M264.411 684.348H257.435V691.325H264.411V684.348Z" fill="#377D79" fill-opacity="0.5"/>
<path d="M264.411 670.366H257.435V677.343H264.411V670.366Z" fill="#377D79" fill-opacity="0.5"/>
<path d="M264.411 635.453H257.435V642.43H264.411V635.453Z" fill="#377D79" fill-opacity="0.5"/>
<path d="M264.417 593.563V586.587V579.581H257.441V586.587H250.435V593.563H257.441H264.417Z" fill="#377D79" fill-opacity="0.5"/>
<path d="M264.411 398.016H257.435V404.992H264.411V398.016Z" fill="#377D79" fill-opacity="0.5"/>
<path d="M264.417 377.085H271.394V370.108H264.417H257.441H250.435V377.085H257.441H264.417Z" fill="#377D79" fill-opacity="0.5"/>
<path d="M264.417 356.128V349.151H257.441H250.435H243.458H236.482H229.505V356.128H236.482H243.458V363.105H250.435V356.128H257.441H264.417Z" fill="#377D79" fill-opacity="0.5"/>
<path d="M257.441 321.217H264.417V314.24V307.235H271.394V300.258H278.371V293.282H271.394H264.417V286.305H257.441V293.282H250.435V300.258H257.441V307.235H250.435V314.24H257.441V321.217Z" fill="#377D79" fill-opacity="0.5"/>
<path d="M264.411 272.323H257.435V279.299H264.411V272.323Z" fill="#377D79" fill-opacity="0.5"/>
<path d="M257.441 146.625H250.435V153.631H257.441H264.417V146.625H257.441Z" fill="#377D79" fill-opacity="0.5"/>
<path d="M257.441 97.7583H250.435V104.735H257.441H264.417V97.7583H257.441Z" fill="#377D79" fill-opacity="0.5"/>
<path d="M271.385 761.146H264.409V768.123H271.385V761.146Z" fill="#377D79" fill-opacity="0.5"/>
<path d="M271.385 593.565H264.409V600.542H271.385V593.565Z" fill="#377D79" fill-opacity="0.5"/>
<path d="M271.385 572.604H264.409V579.581H271.385V572.604Z" fill="#377D79" fill-opacity="0.5"/>
<path d="M271.385 558.653H264.409V565.63H271.385V558.653Z" fill="#377D79" fill-opacity="0.5"/>
<path d="M271.385 509.755H264.409V516.732H271.385V509.755Z" fill="#377D79" fill-opacity="0.5"/>
<path d="M271.385 328.191H264.409V335.168H271.385V328.191Z" fill="#377D79" fill-opacity="0.5"/>
<path d="M271.385 83.7769H264.409V90.7536H271.385V83.7769Z" fill="#377D79" fill-opacity="0.5"/>
<path d="M271.39 726.235H278.367H285.372V719.258H278.367V712.282H271.39V719.258V726.235Z" fill="#377D79" fill-opacity="0.5"/>
<path d="M278.367 670.366V663.389V656.413H271.39V663.389V670.366H278.367Z" fill="#377D79" fill-opacity="0.5"/>
<path d="M278.367 607.517V614.494H285.372V607.517V600.541V593.564V586.587H278.367V593.564V600.541H271.39V607.517H278.367Z" fill="#377D79" fill-opacity="0.5"/>
<path d="M278.367 565.628H271.39V572.605H278.367V565.628Z" fill="#377D79" fill-opacity="0.5"/>
<path d="M278.367 551.647V544.67H271.39V551.647V558.652H278.367V551.647Z" fill="#377D79" fill-opacity="0.5"/>
<path d="M278.362 537.693V530.717H271.385H264.409V537.693V544.67H271.385V537.693H278.362Z" fill="#377D79" fill-opacity="0.5"/>
<path d="M278.367 495.803H271.39V502.78H278.367V495.803Z" fill="#377D79" fill-opacity="0.5"/>
<path d="M278.367 314.238H271.39V321.215H278.367V314.238Z" fill="#377D79" fill-opacity="0.5"/>
<path d="M271.394 118.689V111.712H264.417V118.689V125.694H257.441H250.435V118.689V111.712H243.458V118.689V125.694H236.482H229.505V132.671H236.482V139.647H243.458H250.435H257.441V132.671H264.417H271.394V125.694H278.371V118.689H271.394Z" fill="#377D79" fill-opacity="0.5"/>
<path d="M285.37 635.453H278.364V642.43V649.436H285.37V642.43V635.453Z" fill="#377D79" fill-opacity="0.5"/>
<path d="M285.341 621.499H278.364V628.476H285.341V621.499Z" fill="#377D79" fill-opacity="0.5"/>
<path d="M278.364 516.732H285.37V509.756V502.779H278.364V509.756V516.732Z" fill="#377D79" fill-opacity="0.5"/>
<path d="M285.37 495.804H292.346H299.323V488.798H292.346H285.37H278.364V495.804H285.37Z" fill="#377D79" fill-opacity="0.5"/>
<path d="M285.341 384.062H278.364V391.039H285.341V384.062Z" fill="#377D79" fill-opacity="0.5"/>
<path d="M278.367 335.168H271.39V342.174H278.367H285.372V335.168H278.367Z" fill="#377D79" fill-opacity="0.5"/>
<path d="M278.364 279.328V286.305H285.37V279.328V272.323H278.364V279.328Z" fill="#377D79" fill-opacity="0.5"/>
<path d="M285.372 251.39H278.367V258.367H271.39V265.343H278.367H285.372V258.367V251.39Z" fill="#377D79" fill-opacity="0.5"/>
<path d="M285.341 237.409H278.364V244.385H285.341V237.409Z" fill="#377D79" fill-opacity="0.5"/>
<path d="M285.341 202.497H278.364V209.474H285.341V202.497Z" fill="#377D79" fill-opacity="0.5"/>
<path d="M285.341 125.695H278.364V132.672H285.341V125.695Z" fill="#377D79" fill-opacity="0.5"/>
<path d="M285.341 111.712H278.364V118.689H285.341V111.712Z" fill="#377D79" fill-opacity="0.5"/>
<path d="M292.346 712.283V705.277H299.323V698.301V691.324H292.346V684.347V677.342H285.37H278.364V684.347H285.37V691.324V698.301V705.277V712.283V719.26H292.346V712.283Z" fill="#377D79" fill-opacity="0.5"/>
<path d="M292.341 663.388H285.364V670.365H292.341V663.388Z" fill="#377D79" fill-opacity="0.5"/>
<path d="M285.364 558.652V565.629V572.606H292.341V565.629H299.318V572.606H306.294V565.629V558.652H313.271H320.277V551.647H313.271H306.294H299.318V558.652H292.341H285.364Z" fill="#377D79" fill-opacity="0.5"/>
<path d="M292.341 418.976H285.364V425.953H292.341V418.976Z" fill="#377D79" fill-opacity="0.5"/>
<path d="M292.349 377.087V370.11V363.105H285.372V356.128V349.151H278.367V356.128H271.39V363.105H278.367V370.11V377.087H285.372V384.063H292.349V377.087Z" fill="#377D79" fill-opacity="0.5"/>
<path d="M292.341 265.343H285.364V272.32H292.341V265.343Z" fill="#377D79" fill-opacity="0.5"/>
<path d="M292.341 118.69H285.364V125.666H292.341V118.69Z" fill="#377D79" fill-opacity="0.5"/>
<path d="M299.315 614.492H292.338V621.469H299.315V614.492Z" fill="#377D79" fill-opacity="0.5"/>
<path d="M292.338 579.581V586.586V593.563H299.315V586.586V579.581V572.604H292.338V579.581Z" fill="#377D79" fill-opacity="0.5"/>
<path d="M299.324 405.02V398.015H292.347V391.038H285.37V398.015H278.365V405.02H271.388H264.411V411.997H257.435V418.974H264.411H271.388V411.997H278.365H285.37H292.347V405.02H299.324Z" fill="#377D79" fill-opacity="0.5"/>
<path d="M299.315 335.168H292.338V342.145H299.315V335.168Z" fill="#377D79" fill-opacity="0.5"/>
<path d="M299.315 272.323H292.338V279.299H299.315V272.323Z" fill="#377D79" fill-opacity="0.5"/>
<path d="M292.341 188.543V195.519H285.364V202.496H292.341H299.318V195.519H306.294V188.543V181.537H299.318V188.543H292.341Z" fill="#377D79" fill-opacity="0.5"/>
<path d="M306.294 628.476V621.499H299.318V628.476H292.341H285.364V635.452H292.341H299.318V642.429H292.341V649.435H285.364V656.411H292.341V663.388H299.318V656.411V649.435H306.294H313.271V642.429V635.452H306.294V628.476Z" fill="#377D79" fill-opacity="0.5"/>
<path d="M306.3 537.693H299.323V544.67H306.3V537.693Z" fill="#377D79" fill-opacity="0.5"/>
<path d="M306.3 509.755H299.323V516.732V523.709H306.3V516.732V509.755Z" fill="#377D79" fill-opacity="0.5"/>
<path d="M306.291 418.976V411.999H299.315H292.338V418.976H299.315H306.291Z" fill="#377D79" fill-opacity="0.5"/>
<path d="M306.3 370.108H299.323V377.085H306.3V370.108Z" fill="#377D79" fill-opacity="0.5"/>
<path d="M306.291 363.105V356.128V349.151H299.315V356.128H292.338V363.105H299.315H306.291Z" fill="#377D79" fill-opacity="0.5"/>
<path d="M306.3 321.216H299.323V328.192H306.3V321.216Z" fill="#377D79" fill-opacity="0.5"/>
<path d="M306.291 293.282V286.305H299.315V293.282H292.338V300.258V307.235H299.315H306.291H313.268V300.258H306.291V293.282Z" fill="#377D79" fill-opacity="0.5"/>
<path d="M306.3 265.343H299.323V272.32H306.3V265.343Z" fill="#377D79" fill-opacity="0.5"/>
<path d="M306.3 244.386H299.323V251.362H306.3V244.386Z" fill="#377D79" fill-opacity="0.5"/>
<path d="M306.3 237.41H313.276V230.433H320.282V223.456H313.276V216.479H306.3H299.323V223.456H306.3V230.433H299.323V237.41H306.3Z" fill="#377D79" fill-opacity="0.5"/>
<path d="M299.323 202.495V209.472H306.3H313.276V202.495V195.519H306.3V202.495H299.323Z" fill="#377D79" fill-opacity="0.5"/>
<path d="M306.3 125.695H299.323V132.672H306.3V125.695Z" fill="#377D79" fill-opacity="0.5"/>
<path d="M306.293 691.322V698.299H313.27H320.276V691.322H313.27H306.293Z" fill="#377D79" fill-opacity="0.5"/>
<path d="M306.3 677.342H299.323V684.347H306.3H313.276V677.342H306.3Z" fill="#377D79" fill-opacity="0.5"/>
<path d="M313.27 530.717H306.293V537.693H313.27V530.717Z" fill="#377D79" fill-opacity="0.5"/>
<path d="M313.27 495.803H306.293V502.78H313.27V495.803Z" fill="#377D79" fill-opacity="0.5"/>
<path d="M313.27 460.863H306.293V467.84H313.27V460.863Z" fill="#377D79" fill-opacity="0.5"/>
<path d="M313.27 432.955H306.293V439.932H313.27V432.955Z" fill="#377D79" fill-opacity="0.5"/>
<path d="M313.27 342.173H320.276H327.253V335.168V328.191H320.276V321.215H327.253V314.238H320.276H313.27H306.293V321.215H313.27V328.191H306.293V335.168V342.173V349.15H313.27V342.173Z" fill="#377D79" fill-opacity="0.5"/>
<path d="M313.27 279.327H306.293V286.304H313.27V279.327Z" fill="#377D79" fill-opacity="0.5"/>
<path d="M313.271 670.366H320.277V663.389V656.413H313.271V663.389V670.366Z" fill="#377D79" fill-opacity="0.5"/>
<path d="M320.277 530.715V537.692H327.254V530.715V523.71H320.277V516.733H327.254H334.23V509.756H327.254V502.78V495.803H320.277V502.78V509.756H313.271V516.733V523.71V530.715H320.277Z" fill="#377D79" fill-opacity="0.5"/>
<path d="M320.277 474.845H327.254V481.822H334.23H341.207H348.213V474.845H341.207H334.23V467.869H341.207V460.863V453.886V446.91H334.23V453.886V460.863H327.254V453.886H320.277V460.863V467.869H313.271V474.845H320.277Z" fill="#377D79" fill-opacity="0.5"/>
<path d="M320.248 377.084H313.271V384.061H320.248V377.084Z" fill="#377D79" fill-opacity="0.5"/>
<path d="M320.248 293.278H313.271V300.255H320.248V293.278Z" fill="#377D79" fill-opacity="0.5"/>
<path d="M320.282 684.348V691.325H327.259V684.348V677.343H334.235H341.212V670.366H334.235H327.259H320.282V677.343V684.348Z" fill="#377D79" fill-opacity="0.5"/>
<path d="M327.259 607.519H320.282V614.495H327.259V607.519Z" fill="#377D79" fill-opacity="0.5"/>
<path d="M327.259 384.062H320.282V391.039H327.259V384.062Z" fill="#377D79" fill-opacity="0.5"/>
<path d="M327.259 300.255H320.282V307.231H327.259V300.255Z" fill="#377D79" fill-opacity="0.5"/>
<path d="M327.259 230.429H320.282V237.406H327.259V230.429Z" fill="#377D79" fill-opacity="0.5"/>
<path d="M327.259 216.48V209.475H320.282V216.48V223.457H327.259V216.48Z" fill="#377D79" fill-opacity="0.5"/>
<path d="M327.259 181.537H320.282V188.514H327.259V181.537Z" fill="#377D79" fill-opacity="0.5"/>
<path d="M334.237 691.322H327.26V698.299H334.237V691.322Z" fill="#377D79" fill-opacity="0.5"/>
<path d="M334.237 656.413H327.26V663.389H334.237V656.413Z" fill="#377D79" fill-opacity="0.5"/>
<path d="M334.237 425.949H327.26V432.925H334.237V425.949Z" fill="#377D79" fill-opacity="0.5"/>
<path d="M327.259 384.062H334.235V377.086V370.109H341.212V363.103V356.126H334.235H327.259H320.282V363.103V370.109V377.086H327.259V384.062Z" fill="#377D79" fill-opacity="0.5"/>
<path d="M334.237 342.175H327.26V349.151H334.237V342.175Z" fill="#377D79" fill-opacity="0.5"/>
<path d="M334.237 258.367H327.26V265.343H334.237V258.367Z" fill="#377D79" fill-opacity="0.5"/>
<path d="M334.237 202.497H327.26V209.474H334.237V202.497Z" fill="#377D79" fill-opacity="0.5"/>
<path d="M334.237 139.65H327.26V146.626H334.237V139.65Z" fill="#377D79" fill-opacity="0.5"/>
<path d="M341.211 600.542H334.234V607.518H341.211V600.542Z" fill="#377D79" fill-opacity="0.5"/>
<path d="M341.211 411.999H334.234V418.976H341.211V411.999Z" fill="#377D79" fill-opacity="0.5"/>
<path d="M341.211 174.56H334.234V181.537H341.211V174.56Z" fill="#377D79" fill-opacity="0.5"/>
<path d="M341.211 132.673H334.234V139.65H341.211V132.673Z" fill="#377D79" fill-opacity="0.5"/>
<path d="M341.213 586.587H334.237V579.581H327.26V586.587V593.563H334.237H341.213V600.54H348.219V593.563H355.195V586.587H348.219H341.213Z" fill="#377D79" fill-opacity="0.5"/>
<path d="M348.196 558.653H341.219V565.63H348.196V558.653Z" fill="#377D79" fill-opacity="0.5"/>
<path d="M348.196 488.798H341.219V495.775H348.196V488.798Z" fill="#377D79" fill-opacity="0.5"/>
<path d="M348.225 439.932V432.955H341.219V439.932V446.909H348.225V439.932Z" fill="#377D79" fill-opacity="0.5"/>
<path d="M341.219 418.976V425.953H348.225H355.201V418.976H348.225H341.219Z" fill="#377D79" fill-opacity="0.5"/>
<path d="M348.196 391.038H341.219V398.015H348.196V391.038Z" fill="#377D79" fill-opacity="0.5"/>
<path d="M341.211 216.48H334.234V223.457H341.211V230.434H348.217H355.193V223.457V216.48H362.17V209.475H355.193H348.217V216.48H341.211Z" fill="#377D79" fill-opacity="0.5"/>
<path d="M348.196 202.497H341.219V209.474H348.196V202.497Z" fill="#377D79" fill-opacity="0.5"/>
<path d="M348.219 181.537H341.213V188.543H334.237H327.26V195.519H334.237H341.213H348.219V188.543V181.537Z" fill="#377D79" fill-opacity="0.5"/>
<path d="M355.188 572.604H348.212V579.581H355.188V572.604Z" fill="#377D79" fill-opacity="0.5"/>
<path d="M355.188 460.863H348.212V467.84H355.188V460.863Z" fill="#377D79" fill-opacity="0.5"/>
<path d="M355.188 377.084H348.212V384.061H355.188V377.084Z" fill="#377D79" fill-opacity="0.5"/>
<path d="M348.212 279.327V286.304V293.28H355.188V286.304V279.327H348.212Z" fill="#377D79" fill-opacity="0.5"/>
<path d="M348.212 265.343V272.32H355.188V265.343V258.367H348.212V265.343Z" fill="#377D79" fill-opacity="0.5"/>
<path d="M348.225 237.406H341.219V244.382V251.388H348.225H355.201V258.365H362.178H369.155V251.388V244.382H362.178V237.406V230.429H355.201V237.406H348.225Z" fill="#377D79" fill-opacity="0.5"/>
<path d="M362.17 670.366H355.193V677.343H362.17V670.366Z" fill="#377D79" fill-opacity="0.5"/>
<path d="M362.17 579.581H355.193V586.558H362.17V579.581Z" fill="#377D79" fill-opacity="0.5"/>
<path d="M362.17 565.628H355.193V572.605H362.17V565.628Z" fill="#377D79" fill-opacity="0.5"/>
<path d="M355.188 551.647H348.212V558.652H355.188H362.165H369.142V551.647H362.165H355.188Z" fill="#377D79" fill-opacity="0.5"/>
<path d="M362.17 502.779H355.193V509.756H362.17V502.779Z" fill="#377D79" fill-opacity="0.5"/>
<path d="M362.17 474.845H355.193V481.821H362.17V474.845Z" fill="#377D79" fill-opacity="0.5"/>
<path d="M362.17 453.887H355.193V460.863H362.17V453.887Z" fill="#377D79" fill-opacity="0.5"/>
<path d="M362.17 293.278H355.193V300.255H362.17V293.278Z" fill="#377D79" fill-opacity="0.5"/>
<path d="M369.144 467.869H362.167V474.845H369.144V467.869Z" fill="#377D79" fill-opacity="0.5"/>
<path d="M369.144 446.909V439.932H362.167V446.909V453.885H369.144V446.909Z" fill="#377D79" fill-opacity="0.5"/>
<path d="M369.147 418.976V411.999H362.17H355.193V418.976H362.17H369.147Z" fill="#377D79" fill-opacity="0.5"/>
<path d="M362.165 307.233H355.188V314.239H348.212V321.215H355.188V328.192V335.168H362.165V328.192V321.215V314.239H369.142V307.233H362.165Z" fill="#377D79" fill-opacity="0.5"/>
<path d="M369.144 279.327H362.167V286.304H369.144V279.327Z" fill="#377D79" fill-opacity="0.5"/>
<path d="M369.144 265.343H362.167V272.32H369.144V265.343Z" fill="#377D79" fill-opacity="0.5"/>
<path d="M369.144 216.479H362.167V223.456H369.144V216.479Z" fill="#377D79" fill-opacity="0.5"/>
<path d="M369.141 593.564V600.541V607.517H362.165H355.188H348.211V614.494H355.188V621.499H348.211V628.476H341.206V621.499H334.229V628.476H327.253V621.499H320.276V614.494H313.27H306.293V621.499H313.27V628.476V635.453H320.276V642.429H327.253V649.435H334.229V642.429V635.453H341.206H348.211V642.429H355.188V635.453H362.165V628.476H369.141V621.499H362.165V614.494H369.141H376.118V607.517V600.541H383.123V593.564H390.1V586.587H383.123H376.118V593.564H369.141Z" fill="#377D79" fill-opacity="0.5"/>
<path d="M376.125 488.798H369.148V495.775H376.125V488.798Z" fill="#377D79" fill-opacity="0.5"/>
<path d="M376.125 474.845H369.148V481.821H376.125V474.845Z" fill="#377D79" fill-opacity="0.5"/>
<path d="M376.125 453.887H369.148V460.863H376.125V453.887Z" fill="#377D79" fill-opacity="0.5"/>
<path d="M376.125 425.949H369.148V432.925H376.125V425.949Z" fill="#377D79" fill-opacity="0.5"/>
<path d="M376.12 391.038H369.144V398.015H362.167V405.02H369.144H376.12V398.015V391.038Z" fill="#377D79" fill-opacity="0.5"/>
<path d="M369.148 342.174V349.151V356.127V363.104H376.125V356.127V349.151V342.174V335.168H369.148V342.174Z" fill="#377D79" fill-opacity="0.5"/>
<path d="M376.125 314.238H369.148V321.215H376.125V314.238Z" fill="#377D79" fill-opacity="0.5"/>
<path d="M376.125 258.367H369.148V265.343H376.125V258.367Z" fill="#377D79" fill-opacity="0.5"/>
<path d="M376.125 237.409H369.148V244.385H376.125V237.409Z" fill="#377D79" fill-opacity="0.5"/>
<path d="M383.126 516.733V509.756V502.78V495.803H376.12V502.78V509.756H369.144V516.733H362.167V523.71H369.144V530.715V537.692V544.668V551.645H376.12V544.668V537.692H383.126H390.103V530.715H383.126H376.12V523.71V516.733H383.126Z" fill="#377D79" fill-opacity="0.5"/>
<path d="M383.099 467.869H376.123V474.845H383.099V467.869Z" fill="#377D79" fill-opacity="0.5"/>
<path d="M383.128 405.02H376.123V411.997V418.974H383.128V411.997V405.02Z" fill="#377D79" fill-opacity="0.5"/>
<path d="M383.099 286.305H376.123V293.282H383.099V286.305Z" fill="#377D79" fill-opacity="0.5"/>
<path d="M390.111 607.519H383.134V614.495H390.111V607.519Z" fill="#377D79" fill-opacity="0.5"/>
<path d="M383.128 551.647V558.652H376.123V565.629H383.128V572.606H376.123V579.582H383.128H390.105H397.081V572.606H390.105V565.629H397.081V558.652H390.105V551.647H383.128Z" fill="#377D79" fill-opacity="0.5"/>
<path d="M390.105 453.885V446.909V439.932H383.128V446.909H376.123V453.885H383.128H390.105Z" fill="#377D79" fill-opacity="0.5"/>
<path d="M390.111 356.126H383.134V363.103H390.111V356.126Z" fill="#377D79" fill-opacity="0.5"/>
<path d="M383.128 321.215H376.123V328.191V335.168H383.128V328.191H390.105H397.081V335.168H404.058H411.063V328.191H404.058V321.215H397.081H390.105V314.238H383.128V321.215Z" fill="#377D79" fill-opacity="0.5"/>
<path d="M390.105 293.278H383.128V300.255H376.123V307.231H383.128H390.105V314.237H397.081V307.231V300.255H390.105V293.278Z" fill="#377D79" fill-opacity="0.5"/>
<path d="M383.128 265.343V272.32H376.123V279.325H383.128V286.302H390.105V293.278H397.081V300.255H404.058V293.278V286.302V279.325H397.081V272.32H390.105V265.343H383.128Z" fill="#377D79" fill-opacity="0.5"/>
<path d="M397.085 523.712H390.108V530.689H397.085V523.712Z" fill="#377D79" fill-opacity="0.5"/>
<path d="M397.085 509.755H390.108V516.732H397.085V509.755Z" fill="#377D79" fill-opacity="0.5"/>
<path d="M397.085 495.804H404.061V488.798H397.085H390.108V495.804H397.085Z" fill="#377D79" fill-opacity="0.5"/>
<path d="M397.085 453.887H390.108V460.863H397.085V453.887Z" fill="#377D79" fill-opacity="0.5"/>
<path d="M397.085 405.02H390.108V411.997H397.085V405.02Z" fill="#377D79" fill-opacity="0.5"/>
<path d="M397.085 370.108H390.108V377.085H397.085V370.108Z" fill="#377D79" fill-opacity="0.5"/>
<path d="M397.082 544.67V551.646H404.058V544.67V537.693H397.082V544.67Z" fill="#377D79" fill-opacity="0.5"/>
<path d="M404.058 439.932H411.064V432.956H418.04V425.95H411.064V418.974V411.997H418.04V405.02H411.064V398.015H404.058V391.038H397.082V398.015V405.02H404.058V411.997V418.974V425.95V432.956H397.082V439.932H404.058Z" fill="#377D79" fill-opacity="0.5"/>
<path d="M397.082 363.105V370.11H404.058V363.105V356.128H411.064V349.151H404.058H397.082V356.128V363.105Z" fill="#377D79" fill-opacity="0.5"/>
<path d="M404.056 537.694H411.061V530.718V523.712H404.056V530.718V537.694Z" fill="#377D79" fill-opacity="0.5"/>
<path d="M411.032 509.755H404.056V516.732H411.032V509.755Z" fill="#377D79" fill-opacity="0.5"/>
<path d="M404.056 446.909V453.885V460.862V467.868H411.061V460.862H418.038V467.868H425.014V460.862H431.991V453.885H425.014H418.038V446.909H425.014V439.932H418.038H411.061V446.909H404.056Z" fill="#377D79" fill-opacity="0.5"/>
<path d="M411.032 384.062H404.056V391.039H411.032V384.062Z" fill="#377D79" fill-opacity="0.5"/>
<path d="M411.061 314.239H418.038V307.233H411.061H404.056V314.239H411.061Z" fill="#377D79" fill-opacity="0.5"/>
<path d="M411.032 258.367H404.056V265.343H411.032V258.367Z" fill="#377D79" fill-opacity="0.5"/>
<path d="M418.04 502.779H411.063V509.756H418.04V502.779Z" fill="#377D79" fill-opacity="0.5"/>
<path d="M418.04 488.798H411.063V495.775H418.04V488.798Z" fill="#377D79" fill-opacity="0.5"/>
<path d="M411.061 474.845H404.056V481.821H411.061H418.038V474.845H411.061Z" fill="#377D79" fill-opacity="0.5"/>
<path d="M418.04 391.038H411.063V398.015H418.04V391.038Z" fill="#377D79" fill-opacity="0.5"/>
<path d="M418.04 377.084H411.063V384.061H418.04V377.084Z" fill="#377D79" fill-opacity="0.5"/>
<path d="M418.04 286.305H411.063V293.282H418.04V286.305Z" fill="#377D79" fill-opacity="0.5"/>
<path d="M418.038 279.328V272.323H411.061H404.056V279.328H411.061H418.038Z" fill="#377D79" fill-opacity="0.5"/>
<path d="M418.04 237.409H411.063V244.385H418.04V237.409Z" fill="#377D79" fill-opacity="0.5"/>
<path d="M425.021 593.565H418.044V600.542H425.021V593.565Z" fill="#377D79" fill-opacity="0.5"/>
<path d="M425.021 418.976H431.998V411.999H425.021H418.044V418.976H425.021Z" fill="#377D79" fill-opacity="0.5"/>
<path d="M425.021 398.016H418.044V404.992H425.021V398.016Z" fill="#377D79" fill-opacity="0.5"/>
<path d="M425.021 335.168H418.044V342.145H425.021V335.168Z" fill="#377D79" fill-opacity="0.5"/>
<path d="M431.999 495.803H425.022V502.78H431.999V495.803Z" fill="#377D79" fill-opacity="0.5"/>
<path d="M431.999 481.822H425.022V488.798H431.999V481.822Z" fill="#377D79" fill-opacity="0.5"/>
<path d="M431.999 425.949H425.022V432.925H431.999V425.949Z" fill="#377D79" fill-opacity="0.5"/>
</svg>
