<svg width="15" height="30" viewBox="0 0 15 30" fill="none" xmlns="http://www.w3.org/2000/svg">
<rect x="6.22363" y="3.15723" width="1.55556" height="23.6843" fill="#E7001C"/>
<rect x="7.77832" y="1.5791" width="1.55556" height="1.57896" fill="#E7001C"/>
<rect x="7.77832" y="14.2109" width="1.55556" height="1.57896" fill="#E7001C"/>
<rect x="3.1123" y="14.2109" width="1.55556" height="1.57896" fill="#E7001C"/>
<rect x="1.55762" y="26.8418" width="1.55556" height="1.57896" fill="#E7001C"/>
<rect x="1.55762" y="1.5791" width="1.55556" height="1.57896" fill="#E7001C"/>
<rect x="0.000976562" y="1.5791" width="1.55556" height="1.57896" fill="black"/>
<rect x="6.22363" y="1.5791" width="1.55556" height="1.57896" fill="black"/>
<rect x="7.77832" y="26.8418" width="1.55556" height="1.57896" fill="black"/>
<rect x="6.22363" y="26.8418" width="1.55556" height="1.57896" fill="black"/>
<rect x="6.22363" y="25.2637" width="1.55556" height="1.57896" fill="black"/>
<rect x="4.66699" y="26.8418" width="1.55556" height="1.57896" fill="black"/>
<rect x="3.1123" y="23.6846" width="1.55556" height="1.57896" fill="black"/>
<rect x="10.8896" width="1.55556" height="1.57896" fill="black"/>
<rect x="9.33496" width="1.55556" height="1.57896" fill="black"/>
<rect x="7.77832" width="1.55556" height="1.57896" fill="black"/>
<rect x="1.55762" y="3.15723" width="1.55556" height="1.57896" fill="black"/>
<rect x="3.1123" y="3.15723" width="1.55556" height="1.57896" fill="black"/>
<rect x="12.4443" y="1.5791" width="1.55556" height="1.57896" fill="black"/>
<rect x="12.4443" y="3.15723" width="1.55556" height="1.57896" fill="black"/>
<rect x="9.33496" y="3.15723" width="1.55556" height="1.57896" fill="black"/>
<rect x="10.8896" y="3.15723" width="1.55556" height="1.57896" fill="black"/>
<rect x="3.1123" width="1.55556" height="1.57896" fill="black"/>
<rect x="4.66699" width="1.55556" height="1.57896" fill="black"/>
<rect x="3.1123" y="12.6318" width="1.55556" height="1.57896" fill="black"/>
<rect x="9.33496" y="12.6318" width="1.55556" height="1.57896" fill="black"/>
<rect x="9.33496" y="15.7891" width="1.55556" height="1.57896" fill="black"/>
<rect x="10.8896" y="14.2109" width="1.55556" height="1.57896" fill="black"/>
<rect x="3.1123" y="15.7891" width="1.55556" height="1.57896" fill="black"/>
<rect x="10.8896" y="15.7891" width="1.55556" height="1.57896" fill="black"/>
<rect x="7.77832" y="12.6318" width="1.55556" height="1.57896" fill="black"/>
<rect x="1.55762" y="12.6318" width="1.55556" height="1.57896" fill="black"/>
<rect x="1.55762" y="14.2109" width="1.55556" height="1.57896" fill="black"/>
<rect x="3.1123" y="25.2637" width="1.55556" height="1.57896" fill="black"/>
<rect x="1.55762" y="25.2637" width="1.55556" height="1.57896" fill="black"/>
<rect x="9.33496" y="25.2637" width="1.55556" height="1.57896" fill="black"/>
<rect x="10.8896" y="25.2637" width="1.55556" height="1.57896" fill="black"/>
<rect x="12.4443" y="26.8418" width="1.55556" height="1.57896" fill="black"/>
<rect x="0.000976562" y="25.2637" width="1.55556" height="1.57896" fill="black"/>
<rect x="0.000976562" y="26.8418" width="1.55556" height="1.57896" fill="black"/>
<rect x="1.55762" y="28.4209" width="3.11111" height="1.57896" fill="black"/>
<rect x="9.33496" y="28.4209" width="4.66667" height="1.57896" fill="black"/>
<rect x="1.55762" width="1.55556" height="1.57896" fill="black"/>
<rect x="0.000976562" width="1.55556" height="1.57896" fill="black"/>
<rect x="4.66699" y="3.15723" width="1.55556" height="11.0527" fill="black"/>
<rect x="7.77832" y="3.15723" width="1.55556" height="11.0527" fill="black"/>
<rect x="7.77832" y="15.7891" width="1.55556" height="9.47373" fill="black"/>
<rect x="4.66699" y="15.7891" width="1.55556" height="11.0527" fill="black"/>
<rect x="9.33496" y="1.5791" width="1.55556" height="1.57896" fill="#E7001C"/>
<rect x="9.33496" y="14.2109" width="1.55556" height="1.57896" fill="#E7001C"/>
<rect x="4.66699" y="14.2109" width="1.55556" height="1.57896" fill="#E7001C"/>
<rect x="9.33496" y="26.8418" width="1.55556" height="1.57896" fill="#E7001C"/>
<rect x="3.1123" y="26.8418" width="1.55556" height="1.57896" fill="#E7001C"/>
<rect x="3.1123" y="1.5791" width="1.55556" height="1.57896" fill="#E7001C"/>
<rect x="10.8896" y="1.5791" width="1.55556" height="1.57896" fill="#E7001C"/>
<rect x="10.8896" y="26.8418" width="1.55556" height="1.57896" fill="#E7001C"/>
<rect x="4.66699" y="25.2637" width="1.55556" height="1.57896" fill="#E7001C"/>
<rect x="6.22363" y="25.2637" width="3.11111" height="1.57896" fill="#E7001C"/>
<rect x="4.66699" y="1.5791" width="1.55556" height="1.57896" fill="#E7001C"/>
</svg>
